<svg width="24" height="24" viewBox="0 0 24 24" fill="none" xmlns="http://www.w3.org/2000/svg">
<path d="M12.0005 2C9.30039 2.05257 6.73135 3.17378 4.85674 5.11775C2.98213 7.06173 1.95495 9.66979 2.00047 12.37V17C2.00047 17.7911 2.23507 18.5645 2.6746 19.2223C3.11412 19.8801 3.73884 20.3928 4.46974 20.6955C5.20065 20.9983 6.00491 21.0775 6.78084 20.9231C7.55676 20.7688 8.26949 20.3878 8.8289 19.8284C9.38831 19.269 9.76928 18.5563 9.92362 17.7804C10.078 17.0044 9.99874 16.2002 9.69599 15.4693C9.39324 14.7384 8.88055 14.1136 8.22275 13.6741C7.56496 13.2346 6.7916 13 6.00047 13C5.29551 13.003 4.60447 13.1964 4.00047 13.56V12.37C3.95485 10.2002 4.77128 8.10075 6.27085 6.53183C7.77041 4.96291 9.8308 4.05245 12.0005 4C14.1701 4.05245 16.2305 4.96291 17.7301 6.53183C19.2297 8.10075 20.0461 10.2002 20.0005 12.37V13.56C19.3965 13.1964 18.7054 13.003 18.0005 13C17.2093 13 16.436 13.2346 15.7782 13.6741C15.1204 14.1136 14.6077 14.7384 14.305 15.4693C14.0022 16.2002 13.923 17.0044 14.0773 17.7804C14.2317 18.5563 14.6126 19.269 15.172 19.8284C15.7315 20.3878 16.4442 20.7688 17.2201 20.9231C17.996 21.0775 18.8003 20.9983 19.5312 20.6955C20.2621 20.3928 20.8868 19.8801 21.3264 19.2223C21.7659 18.5645 22.0005 17.7911 22.0005 17V12.37C22.046 9.66979 21.0188 7.06173 19.1442 5.11775C17.2696 3.17378 14.7006 2.05257 12.0005 2ZM6.00047 15C6.39604 15 6.78272 15.1173 7.11161 15.3371C7.44051 15.5568 7.69686 15.8692 7.84823 16.2346C7.99961 16.6001 8.03922 17.0022 7.96205 17.3902C7.88487 17.7781 7.69439 18.1345 7.41469 18.4142C7.13498 18.6939 6.77862 18.8844 6.39066 18.9616C6.00269 19.0387 5.60056 18.9991 5.23511 18.8478C4.86966 18.6964 4.5573 18.44 4.33754 18.1111C4.11777 17.7822 4.00047 17.3956 4.00047 17C4.00047 16.4696 4.21119 15.9609 4.58626 15.5858C4.96133 15.2107 5.47004 15 6.00047 15ZM18.0005 19C17.6049 19 17.2182 18.8827 16.8893 18.6629C16.5604 18.4432 16.3041 18.1308 16.1527 17.7654C16.0013 17.3999 15.9617 16.9978 16.0389 16.6098C16.1161 16.2219 16.3066 15.8655 16.5863 15.5858C16.866 15.3061 17.2223 15.1156 17.6103 15.0384C17.9983 14.9613 18.4004 15.0009 18.7658 15.1522C19.1313 15.3036 19.4437 15.56 19.6634 15.8889C19.8832 16.2178 20.0005 16.6044 20.0005 17C20.0005 17.5304 19.7898 18.0391 19.4147 18.4142C19.0396 18.7893 18.5309 19 18.0005 19Z" fill="#8BCC32"/>
</svg>
