<svg width="20" height="20" viewBox="0 0 20 20" fill="none" xmlns="http://www.w3.org/2000/svg">
<path d="M4.21451 4.17168C5.74315 4.29696 7.18945 3.46194 7.84527 2.07545C8.70578 0.256249 11.2942 0.256249 12.1547 2.07545C12.8105 3.46194 14.2569 4.29696 15.7855 4.17168C17.7912 4.0073 19.0854 6.24895 17.9402 7.90377C17.0674 9.16498 17.0674 10.835 17.9402 12.0962C19.0854 13.7511 17.7912 15.9927 15.7855 15.8283C14.2569 15.703 12.8106 16.5381 12.1547 17.9245C11.2942 19.7438 8.70578 19.7438 7.84528 17.9245C7.18945 16.5381 5.74315 15.703 4.2145 15.8283C2.20877 15.9927 0.914556 13.7511 2.05978 12.0962C2.9326 10.835 2.9326 9.16498 2.05978 7.90377C0.914556 6.24895 2.20877 4.0073 4.21451 4.17168Z" stroke="white" stroke-width="1.3" stroke-linecap="round"/>
</svg>
