<svg width="510" height="62" viewBox="0 0 510 62" fill="none" xmlns="http://www.w3.org/2000/svg">
<rect opacity="0.2" y="41" width="510" height="15" fill="url(#paint0_linear)"/>
<path d="M28.252 48L20.6895 23.3574H20.4961C20.7682 28.3704 20.9043 31.7148 20.9043 33.3906V48H14.9531V16.5898H24.0195L31.4531 40.6094H31.582L39.4668 16.5898H48.5332V48H42.3242V33.1328C42.3242 32.431 42.3314 31.6217 42.3457 30.7051C42.3743 29.7884 42.4746 27.3535 42.6465 23.4004H42.4531L34.3535 48H28.252ZM64.1326 28.1914C62.7433 28.1914 61.6547 28.6354 60.867 29.5234C60.0792 30.3971 59.628 31.6432 59.5134 33.2617H68.7088C68.6801 31.6432 68.2576 30.3971 67.4412 29.5234C66.6248 28.6354 65.5219 28.1914 64.1326 28.1914ZM65.0564 48.4297C61.1892 48.4297 58.1671 47.3626 55.99 45.2285C53.8129 43.0944 52.7244 40.0723 52.7244 36.1621C52.7244 32.1374 53.727 29.0293 55.7322 26.8379C57.7517 24.6322 60.5375 23.5293 64.0896 23.5293C67.4841 23.5293 70.1267 24.4961 72.0173 26.4297C73.908 28.3633 74.8533 31.0345 74.8533 34.4434V37.623H59.363C59.4347 39.485 59.9861 40.9388 61.0173 41.9844C62.0486 43.0299 63.4952 43.5527 65.3572 43.5527C66.8038 43.5527 68.1716 43.4023 69.4607 43.1016C70.7498 42.8008 72.0961 42.321 73.4998 41.6621V46.7324C72.3539 47.3053 71.1293 47.7279 69.8259 48C68.5226 48.2865 66.9327 48.4297 65.0564 48.4297ZM84.9741 23.9805V33.2188H94.1265V23.9805H100.679V48H94.1265V38.0957H84.9741V48H78.4214V23.9805H84.9741ZM109.447 48H102.357L108.824 38.5039C107.277 37.8594 106.102 36.9284 105.3 35.7109C104.512 34.4935 104.118 33.0612 104.118 31.4141C104.118 29.0938 104.985 27.2747 106.718 25.957C108.465 24.6393 110.843 23.9805 113.851 23.9805H125.023V48H118.47V39.0625H114.861L109.447 48ZM110.542 31.457C110.542 32.4596 110.936 33.2474 111.724 33.8203C112.512 34.3789 113.543 34.6582 114.818 34.6582H118.47V28.5996H113.98C112.906 28.5996 112.06 28.8646 111.445 29.3945C110.843 29.9102 110.542 30.5977 110.542 31.457ZM140.064 28.1914C138.674 28.1914 137.586 28.6354 136.798 29.5234C136.01 30.3971 135.559 31.6432 135.444 33.2617H144.64C144.611 31.6432 144.189 30.3971 143.372 29.5234C142.556 28.6354 141.453 28.1914 140.064 28.1914ZM140.987 48.4297C137.12 48.4297 134.098 47.3626 131.921 45.2285C129.744 43.0944 128.655 40.0723 128.655 36.1621C128.655 32.1374 129.658 29.0293 131.663 26.8379C133.683 24.6322 136.468 23.5293 140.021 23.5293C143.415 23.5293 146.058 24.4961 147.948 26.4297C149.839 28.3633 150.784 31.0345 150.784 34.4434V37.623H135.294C135.366 39.485 135.917 40.9388 136.948 41.9844C137.98 43.0299 139.426 43.5527 141.288 43.5527C142.735 43.5527 144.103 43.4023 145.392 43.1016C146.681 42.8008 148.027 42.321 149.431 41.6621V46.7324C148.285 47.3053 147.06 47.7279 145.757 48C144.453 48.2865 142.864 48.4297 140.987 48.4297ZM184.624 48H178.501V29.0723L178.157 30.4043C177.384 33.4264 176.689 35.7109 176.073 37.2578L171.819 48H167.157L162.839 37.1719C162.223 35.5964 161.564 33.3835 160.862 30.5332L160.454 29.0723V48H154.352V23.9805H163.376L167.501 34.2285C167.93 35.3314 168.324 36.599 168.682 38.0312C169.055 39.4635 169.305 40.6882 169.434 41.7051C169.907 39.5566 170.272 38.0169 170.53 37.0859C170.802 36.1406 171.096 35.2741 171.411 34.4863C171.726 33.6986 173.151 30.1966 175.686 23.9805H184.624V48ZM214.32 35.9473C214.32 38.3249 214.707 40.1224 215.481 41.3398C216.268 42.5573 217.543 43.166 219.305 43.166C221.052 43.166 222.305 42.5645 223.065 41.3613C223.838 40.1439 224.225 38.3392 224.225 35.9473C224.225 33.5697 223.838 31.7865 223.065 30.5977C222.291 29.4089 221.024 28.8145 219.262 28.8145C217.514 28.8145 216.254 29.4089 215.481 30.5977C214.707 31.7721 214.32 33.5553 214.32 35.9473ZM230.928 35.9473C230.928 39.8574 229.897 42.9154 227.834 45.1211C225.772 47.3268 222.9 48.4297 219.219 48.4297C216.913 48.4297 214.879 47.9284 213.117 46.9258C211.356 45.9089 210.002 44.4551 209.057 42.5645C208.111 40.6738 207.639 38.4681 207.639 35.9473C207.639 32.0228 208.663 28.972 210.711 26.7949C212.759 24.6178 215.638 23.5293 219.348 23.5293C221.654 23.5293 223.688 24.0306 225.449 25.0332C227.211 26.0358 228.565 27.4753 229.51 29.3516C230.455 31.2279 230.928 33.4264 230.928 35.9473ZM247.773 48.4297C244.952 48.4297 242.739 47.4056 241.135 45.3574H240.791C241.02 47.3626 241.135 48.5228 241.135 48.8379V58.5703H234.582V23.9805H239.91L240.834 27.0957H241.135C242.667 24.7181 244.937 23.5293 247.945 23.5293C250.781 23.5293 253.001 24.625 254.605 26.8164C256.209 29.0078 257.012 32.0514 257.012 35.9473C257.012 38.5111 256.632 40.7383 255.873 42.6289C255.128 44.5195 254.061 45.959 252.672 46.9473C251.282 47.9355 249.65 48.4297 247.773 48.4297ZM245.84 28.7715C244.221 28.7715 243.04 29.2728 242.295 30.2754C241.55 31.2637 241.163 32.9036 241.135 35.1953V35.9043C241.135 38.4824 241.514 40.3301 242.273 41.4473C243.047 42.5645 244.264 43.123 245.926 43.123C248.862 43.123 250.33 40.7025 250.33 35.8613C250.33 33.498 249.965 31.7292 249.234 30.5547C248.518 29.3659 247.387 28.7715 245.84 28.7715ZM277.252 23.9805V28.9004H267.218V48H260.666V23.9805H277.252ZM295.214 48L293.947 44.7344H293.775C292.672 46.1237 291.533 47.0905 290.359 47.6348C289.199 48.1647 287.68 48.4297 285.804 48.4297C283.498 48.4297 281.679 47.7708 280.347 46.4531C279.029 45.1354 278.37 43.2591 278.37 40.8242C278.37 38.2747 279.259 36.3984 281.035 35.1953C282.825 33.9779 285.518 33.3047 289.113 33.1758L293.281 33.0469V31.9941C293.281 29.5592 292.035 28.3418 289.542 28.3418C287.623 28.3418 285.367 28.9219 282.775 30.082L280.605 25.6562C283.369 24.2096 286.434 23.4863 289.8 23.4863C293.023 23.4863 295.494 24.1882 297.212 25.5918C298.931 26.9954 299.79 29.1296 299.79 31.9941V48H295.214ZM293.281 36.8711L290.745 36.957C288.841 37.0143 287.423 37.3581 286.492 37.9883C285.561 38.6185 285.095 39.5781 285.095 40.8672C285.095 42.7148 286.155 43.6387 288.275 43.6387C289.793 43.6387 291.003 43.2018 291.906 42.3281C292.822 41.4544 293.281 40.2943 293.281 38.8477V36.8711ZM311.351 23.9805V33.2188H320.503V23.9805H327.056V48H320.503V38.0957H311.351V48H304.798V23.9805H311.351ZM338.509 23.9805V33.4766C338.509 34.4792 338.344 36.9284 338.015 40.8242L349.1 23.9805H356.985V48H350.647V38.418C350.647 36.7135 350.791 34.3073 351.077 31.1992L340.034 48H332.171V23.9805H338.509ZM368.094 33.2188C370.572 33.2188 372.327 33.0182 373.358 32.6172C374.404 32.2161 374.926 31.5788 374.926 30.7051C374.926 29.9316 374.547 29.3516 373.788 28.9648C373.029 28.5781 371.775 28.3848 370.028 28.3848C368.925 28.3848 367.672 28.5208 366.268 28.793C364.879 29.0651 363.611 29.4375 362.465 29.9102L360.532 25.334C362.236 24.6895 363.891 24.2311 365.495 23.959C367.099 23.6725 368.889 23.5293 370.866 23.5293C373.859 23.5293 376.258 24.1022 378.063 25.248C379.868 26.3939 380.77 27.9479 380.77 29.9102C380.77 32.6172 379.173 34.3789 375.979 35.1953V35.4102C377.941 35.8971 379.338 36.5918 380.169 37.4941C381.014 38.3822 381.436 39.5495 381.436 40.9961C381.436 42.457 380.964 43.7533 380.018 44.8848C379.073 46.0163 377.705 46.89 375.915 47.5059C374.124 48.1217 372.019 48.4297 369.598 48.4297C365.588 48.4297 362.508 47.9355 360.36 46.9473V41.5332C361.592 42.1061 362.938 42.5573 364.399 42.8867C365.874 43.2161 367.299 43.3809 368.674 43.3809C370.809 43.3809 372.406 43.1445 373.465 42.6719C374.525 42.1849 375.055 41.4974 375.055 40.6094C375.055 39.6354 374.497 38.9193 373.38 38.4609C372.262 37.9883 370.544 37.752 368.223 37.752H365.688V33.2188H368.094ZM400.065 48L398.797 44.7344H398.625C397.523 46.1237 396.384 47.0905 395.209 47.6348C394.049 48.1647 392.531 48.4297 390.655 48.4297C388.349 48.4297 386.53 47.7708 385.198 46.4531C383.88 45.1354 383.221 43.2591 383.221 40.8242C383.221 38.2747 384.109 36.3984 385.885 35.1953C387.676 33.9779 390.368 33.3047 393.963 33.1758L398.131 33.0469V31.9941C398.131 29.5592 396.885 28.3418 394.393 28.3418C392.474 28.3418 390.218 28.9219 387.625 30.082L385.455 25.6562C388.22 24.2096 391.285 23.4863 394.651 23.4863C397.873 23.4863 400.344 24.1882 402.063 25.5918C403.782 26.9954 404.641 29.1296 404.641 31.9941V48H400.065ZM398.131 36.8711L395.596 36.957C393.691 37.0143 392.273 37.3581 391.342 37.9883C390.411 38.6185 389.946 39.5781 389.946 40.8672C389.946 42.7148 391.006 43.6387 393.125 43.6387C394.644 43.6387 395.854 43.2018 396.756 42.3281C397.673 41.4544 398.131 40.2943 398.131 38.8477V36.8711ZM432.358 43.209H435.86V56.6152H429.973V48H409.649V23.9805H416.201V43.0801H425.783V23.9805H432.358V43.209ZM444.519 23.9805V33.4766C444.519 34.4792 444.355 36.9284 444.025 40.8242L455.111 23.9805H462.996V48H456.658V38.418C456.658 36.7135 456.801 34.3073 457.088 31.1992L446.045 48H438.182V23.9805H444.519ZM474.47 23.9805V33.4766C474.47 34.4792 474.306 36.9284 473.976 40.8242L485.062 23.9805H492.947V48H486.609V38.418C486.609 36.7135 486.752 34.3073 487.039 31.1992L475.996 48H468.133V23.9805H474.47Z" fill="url(#paint1_linear)"/>
<defs>
<linearGradient id="paint0_linear" x1="255" y1="41" x2="255.213" y2="55.997" gradientUnits="userSpaceOnUse">
<stop stop-color="#8BCC32"/>
<stop offset="1" stop-color="#91DF26"/>
</linearGradient>
<linearGradient id="paint1_linear" x1="394.16" y1="31" x2="67.076" y2="95.4597" gradientUnits="userSpaceOnUse">
<stop stop-color="#F5F6F8"/>
<stop offset="1" stop-color="#A7B1BD"/>
</linearGradient>
</defs>
</svg>
