<svg width="23" height="16" viewBox="0 0 23 16" fill="none" xmlns="http://www.w3.org/2000/svg">
<path d="M14.8455 7.96798L22.1538 12.5882V3.15265L14.8455 7.96798Z" fill="#148EFF"/>
<path d="M0.475342 3.15265V12.5882L7.7837 7.96798L0.475342 3.15265Z" fill="#148EFF"/>
<path d="M20.799 0.404968H1.83037C1.15427 0.404968 0.617731 0.908993 0.516113 1.55799L11.3147 8.6726L22.1133 1.55799C22.0117 0.908993 21.4751 0.404968 20.799 0.404968Z" fill="#148EFF"/>
<path d="M13.6042 8.78642L11.687 10.0492C11.5732 10.1237 11.4445 10.1603 11.3144 10.1603C11.1844 10.1603 11.0557 10.1237 10.9418 10.0492L9.02465 8.78506L0.518555 14.1654C0.622882 14.809 1.15671 15.3089 1.8301 15.3089H20.7988C21.4722 15.3089 22.006 14.809 22.1103 14.1654L13.6042 8.78642Z" fill="#148EFF"/>
</svg>
