<svg width="39" height="38" viewBox="0 0 39 38" fill="none" xmlns="http://www.w3.org/2000/svg">
<path d="M9.32225 22.9677L8.00823 27.8732L3.2055 27.9748C1.77019 25.3126 0.956055 22.2667 0.956055 19.0299C0.956055 15.9 1.71725 12.9484 3.06652 10.3495H3.06755L7.34333 11.1334L9.21637 15.3835C8.82435 16.5264 8.61068 17.7533 8.61068 19.0299C8.61083 20.4155 8.8618 21.743 9.32225 22.9677Z" fill="#FBBB00"/>
<path d="M38.3762 15.5039C38.593 16.6457 38.706 17.8248 38.706 19.03C38.706 20.3813 38.5639 21.6994 38.2933 22.9709C37.3744 27.2977 34.9736 31.0758 31.6477 33.7494L31.6466 33.7483L26.2611 33.4735L25.4988 28.7153C27.7057 27.4211 29.4304 25.3956 30.3389 22.9709H20.246V15.5039H30.4862H38.3762Z" fill="#518EF8"/>
<path d="M31.6465 33.7483L31.6476 33.7494C28.4129 36.3493 24.3039 37.905 19.831 37.905C12.6429 37.905 6.39348 33.8873 3.20544 27.9749L9.3222 22.9678C10.9162 27.2219 15.0199 30.2503 19.831 30.2503C21.8989 30.2503 23.8363 29.6912 25.4987 28.7153L31.6465 33.7483Z" fill="#28B446"/>
<path d="M31.8789 4.50032L25.7642 9.50632C24.0437 8.43089 22.01 7.80964 19.8311 7.80964C14.9111 7.80964 10.7306 10.9769 9.21646 15.3835L3.06756 10.3495H3.06653C6.20789 4.29291 12.5362 0.154938 19.8311 0.154938C24.4108 0.154938 28.61 1.7863 31.8789 4.50032Z" fill="#F14336"/>
</svg>
