<svg width="94" height="35" viewBox="0 0 94 35" fill="none" xmlns="http://www.w3.org/2000/svg">
<g opacity="0.5" clip-path="url(#clip0)">
<path d="M2.89173 15.3055H14.8969L12.4407 24.2707H0.435547L2.89173 15.3055Z" fill="#D1D3D4"/>
<path d="M12.6909 24.6111H0L2.64121 14.9651H15.3321L12.6909 24.6111ZM0.870729 23.9304H12.1902L14.4614 15.6421H3.14188L0.870729 23.9304Z" fill="#D1D3D4"/>
<path d="M17.0297 15.3055H24.7247L22.4282 24.2707H14.7295L17.0297 15.3055Z" fill="#D1D3D4"/>
<path d="M22.6789 24.6111H14.3018L16.7725 14.9651H25.1496L22.6789 24.6111ZM15.158 23.9304H22.171L24.2934 15.6421H17.2804L15.158 23.9304Z" fill="#D1D3D4"/>
<path d="M26.9128 15.3055H34.6078L32.3113 24.2707H24.6162L26.9128 15.3055Z" fill="#D1D3D4"/>
<path d="M32.561 24.6111H24.1875L26.6582 14.9651H35.0353L32.561 24.6111ZM25.0437 23.9304H32.0567L34.1755 15.6458H27.1661L25.0437 23.9304Z" fill="#D1D3D4"/>
<path d="M34.376 24.0463H37.7718L38.541 20.7849H38.5627L39.7201 24.0463H43.4243L41.8026 20.2612L45.739 15.9301H41.4688L39.0199 19.1579H38.9981L39.8471 15.9301H36.4077L34.376 24.0463Z" fill="#D1D3D4"/>
<path d="M43.0283 21.5927H47.1062L47.723 19.3187H43.6451L43.0283 21.5927Z" fill="#D1D3D4"/>
<path d="M51.9937 18.2041H53.4594C53.9202 18.2041 54.1886 18.3837 54.1886 18.7726C54.1886 19.2963 53.8585 19.8872 53.0857 19.8872H51.5728L51.9937 18.2041ZM47.1104 24.0463H50.4735L51.1774 21.2262L52.81 24.0463H56.7464L54.4644 20.7175H55.0594C56.4816 20.7175 57.5845 19.7862 57.5845 17.7366C57.5845 16.5884 57.2652 15.9301 55.7668 15.9301H49.2581L47.1104 24.0463Z" fill="#D1D3D4"/>
<path d="M56.2705 24.0463H60.0437L60.7257 22.8644H63.5048V24.0463H66.9006V15.9301H61.0015L56.2705 24.0463ZM63.5048 20.9083H61.738L63.4794 17.9872H63.5012L63.5048 20.9083Z" fill="#D1D3D4"/>
<path d="M77.6473 15.9301H74.2624L72.7967 21.3085C72.6443 21.8658 72.3903 22.2286 71.7699 22.2286C71.3527 22.2286 71.0661 22.0603 71.0661 21.6376C71.0661 21.4544 71.164 21.0242 71.2511 20.7175L72.5536 15.9301H69.1033L67.7464 20.9195C67.5034 21.8284 67.4707 22.0678 67.4707 22.3632C67.4707 24.1697 69.731 24.2857 71.0225 24.2857C73.8452 24.2857 75.456 23.9565 76.0183 21.9107L77.6473 15.9301Z" fill="#D1D3D4"/>
<path d="M78.0793 24.0463H81.5114L82.8756 18.6156H85.0923L85.7961 15.9301H77.9233L77.2158 18.6156H79.4434L78.0793 24.0463Z" fill="#D1D3D4"/>
<path d="M82.6143 24.0463H86.3838L87.0695 22.8644H89.8486V24.0463H93.2444V15.9301H87.3452L82.6143 24.0463ZM89.8486 20.9083H88.0817L89.8232 17.9872H89.8449L89.8486 20.9083Z" fill="#D1D3D4"/>
</g>
<defs>
<clipPath id="clip0">
<rect width="93.2442" height="34.5349" fill="white"/>
</clipPath>
</defs>
</svg>
