<svg width="146" height="129" viewBox="0 0 146 129" fill="none" xmlns="http://www.w3.org/2000/svg">
<g opacity="0.36">
<path d="M137.825 65.6725C136.891 96.6326 111.195 121.025 80.3592 121.025H0C0 125.247 3.27043 129 7.94248 129H80.3592C115.867 129 145.768 99.9163 145.768 64.7343C145.768 57.6979 144.834 51.1306 142.497 45.0324C142.497 45.0324 142.03 45.0324 142.03 44.5633C142.03 44.0942 141.096 43.6251 140.629 43.156C137.358 40.3415 136.424 40.3415 134.555 39.4033L131.285 37.996C135.489 46.4397 137.825 55.8216 137.825 65.6725Z" fill="#717E88"/>
<path d="M120.538 64.2652C120.538 87.2508 101.85 105.545 79.4239 105.545H30.3674L13.0808 113.52H79.4239C106.522 113.52 128.48 91.4726 128.48 64.2652C128.48 54.4143 125.677 45.5015 121.005 37.996H111.661C116.8 45.0324 120.538 54.4143 120.538 64.2652Z" fill="#717E88"/>
<path d="M103.251 64.2652C103.251 78.8071 91.5713 90.5344 77.0879 90.5344H30.3674V98.509H77.0879C95.7761 98.509 111.194 83.0289 111.194 64.2652C111.194 53.4761 106.522 44.0942 98.5793 37.996H77.0879C91.5713 37.996 103.251 49.7233 103.251 64.2652Z" fill="#717E88"/>
<path d="M145.299 64.2663C145.299 57.2299 144.365 50.6626 142.029 44.5644C142.029 44.5644 141.561 44.5644 141.561 44.0953C141.561 43.6262 140.627 43.1572 140.16 42.6881C136.889 39.8735 135.955 39.8735 134.086 38.9353L130.816 37.528C135.021 45.9717 137.357 55.3536 137.357 65.2045C136.889 75.0555 134.086 84.4373 129.414 92.4119L136.422 95.6955C142.029 86.7828 145.299 75.9936 145.299 64.2663Z" fill="#717E88"/>
<path d="M128.012 64.2676C128.012 54.4167 125.209 45.5039 120.536 37.9984H111.192C117.266 45.0348 120.536 54.4167 120.536 64.2676C120.536 71.7731 118.668 79.2786 114.93 85.3768L121.938 88.6604C125.676 81.624 128.012 73.1804 128.012 64.2676Z" fill="#717E88"/>
<path d="M111.192 64.2676C111.192 53.4785 106.52 44.0966 98.5776 37.9984H77.0862C91.5695 37.9984 103.25 49.7257 103.25 64.2676C103.25 68.9585 101.848 73.6495 99.512 77.8713L106.52 81.1549C109.323 76.464 111.192 70.3658 111.192 64.2676Z" fill="#717E88"/>
<path d="M120.539 3.28365C115.867 0 105.588 0 105.588 0H7.47528C3.27043 0 0 3.28365 0 7.97458H109.793C118.67 7.97458 123.342 9.85095 128.949 13.1346L131.285 14.5419C131.285 14.5419 126.613 7.03639 120.539 3.28365Z" fill="#717E88"/>
<path d="M59.801 45.5016H29.8999V53.4761H59.801V45.5016Z" fill="#717E88"/>
<path d="M59.801 60.5133H29.8999V68.4879H59.801V60.5133Z" fill="#717E88"/>
<path d="M59.801 75.5237H29.8999V83.4983H59.801V75.5237Z" fill="#717E88"/>
<path d="M115.399 22.9857C124.276 22.9857 128.948 24.862 134.554 28.1457L136.89 29.553C136.89 29.553 132.685 22.0475 126.612 18.2947C121.94 15.0111 111.661 15.0111 111.661 15.0111H13.5481L30.8347 22.9857H115.399Z" fill="#717E88"/>
<path d="M140.161 43.1561L142.497 44.5634C142.497 44.5634 138.292 37.0579 132.218 33.3051C127.546 30.0215 117.268 30.0215 117.268 30.0215H30.3674V37.9961H77.0879H98.5793H111.194H120.538C129.415 37.9961 134.087 39.8724 140.161 43.1561Z" fill="#717E88"/>
<path d="M18.6883 68.0188C20.7526 68.0188 22.426 66.3387 22.426 64.2661C22.426 62.1935 20.7526 60.5133 18.6883 60.5133C16.6241 60.5133 14.9507 62.1935 14.9507 64.2661C14.9507 66.3387 16.6241 68.0188 18.6883 68.0188Z" fill="#717E88"/>
</g>
</svg>
