<svg width="51" height="33" viewBox="0 0 51 33" fill="none" xmlns="http://www.w3.org/2000/svg">
<path d="M20.0627 0.257288L14.0679 14.5561H10.1571L7.20796 3.14535C7.02786 2.44424 6.87348 2.18695 6.32996 1.88785C5.4391 1.40544 3.97256 0.951966 2.67969 0.672165L2.76652 0.257288H9.06043C9.86124 0.257288 10.5849 0.791161 10.7682 1.71418L12.3248 9.98921L16.1744 0.257288H20.0627ZM35.381 9.88951C35.3971 6.11702 30.1645 5.90798 30.1999 4.21952C30.2127 3.70816 30.6984 3.16143 31.7693 3.02314C32.3 2.9556 33.7601 2.90092 35.4164 3.66314L36.066 0.630356C35.1752 0.308746 34.0302 0 32.6055 0C28.9488 0 26.3759 1.94253 26.3566 4.72767C26.3341 6.78597 28.193 7.93412 29.5952 8.61915C31.0393 9.32026 31.5217 9.77052 31.5152 10.3944C31.5056 11.3528 30.3639 11.7774 29.3026 11.7934C27.4404 11.8224 26.3631 11.2917 25.5044 10.8897L24.8322 14.0254C25.6973 14.421 27.2925 14.7651 28.9456 14.7844C32.8274 14.7812 35.3714 12.8612 35.381 9.88951ZM45.039 14.5561H48.4609L45.4731 0.257288H42.3181C41.6074 0.257288 41.0092 0.668949 40.7422 1.30574L35.1913 14.5561H39.0763L39.8482 12.4206H44.5951L45.039 14.5561ZM40.9095 9.49071L42.8584 4.11983L43.9776 9.49071H40.9095ZM25.3468 0.257288L22.2883 14.5561H18.5897L21.6483 0.257288H25.3468Z" fill="#797E84"/>
<path d="M34.632 22.7148C34.2139 22.7148 33.947 22.747 33.8184 22.7792V25.0626H34.5999C35.4907 25.0626 36.0343 24.5898 36.0343 23.8726C36.0343 23.0911 35.4875 22.7148 34.632 22.7148Z" fill="#797E84"/>
<path d="M0 18.5852V32.2601H50.8144V18.5852H0ZM10.06 29.0986C9.2881 29.0986 8.49694 28.8832 8.09814 28.6484L8.40367 27.5581C8.82177 27.8058 9.47464 28.018 10.15 28.018C10.9862 28.018 11.4558 27.6224 11.4558 27.0339C11.4558 26.4872 11.0923 26.1656 10.1822 25.8343C8.98257 25.4162 8.22036 24.773 8.22036 23.7438C8.22036 22.5539 9.20448 21.6662 10.7804 21.6662C11.5619 21.6662 12.1311 21.8367 12.5042 22.02L12.1922 23.091C11.9253 22.9527 11.4204 22.7468 10.745 22.7468C9.90881 22.7468 9.55504 23.1874 9.55504 23.6152C9.55504 24.1716 9.97313 24.4289 10.938 24.7923C12.1922 25.2747 12.7904 25.9051 12.7904 26.9342C12.7904 28.1016 11.9124 29.0986 10.06 29.0986ZM18.2385 28.9925H13.8775V21.7724H18.0777V22.853H15.1961V24.7183H17.9169V25.7893H15.1961V27.9119H18.2385V28.9925ZM22.8086 27.9955C23.3328 27.9955 23.8892 27.8894 24.243 27.7382L24.4617 28.7802C24.1497 28.9314 23.4647 29.1019 22.5867 29.1019C20.2936 29.1019 18.901 27.6675 18.901 25.4709C18.901 23.0942 20.5605 21.6662 22.7668 21.6662C23.6351 21.6662 24.2462 21.8367 24.5131 21.9782L24.2333 23.0266C23.8892 22.8755 23.41 22.7468 22.8182 22.7468C21.3517 22.7468 20.2904 23.6699 20.2904 25.4033C20.2904 26.9889 21.2102 27.9955 22.8086 27.9955ZM31.1094 25.8954C31.1094 28.1242 29.9644 29.1083 28.2277 29.1083C26.5554 29.1083 25.4747 28.1756 25.4747 25.9051V21.7691H26.7901V21.7724V25.9822C26.7901 27.3973 27.3787 28.0502 28.2695 28.0502C29.2215 28.0502 29.7908 27.3973 29.7908 25.9822V21.7724H31.1094V25.8954ZM36.2615 28.9957C36.1554 28.7802 35.9721 28.1917 35.7791 27.2912C35.5637 26.3489 35.2324 26.0498 34.483 26.0273H33.8173V28.9957H32.5116V21.8817C33.0133 21.7852 33.7433 21.7209 34.5056 21.7209C35.5444 21.7209 36.2423 21.8914 36.7343 22.2998C37.1299 22.6311 37.355 23.136 37.355 23.7567C37.355 24.6894 36.7247 25.3197 36.0364 25.5577V25.5899C36.5606 25.7828 36.8726 26.2878 37.0431 26.9824C37.2778 27.883 37.4708 28.7191 37.6123 28.9957H36.2615ZM42.861 28.9925H38.5V21.7724H42.7002V22.853H39.8186V24.7183H42.5394V25.7893H39.8186V27.9119H42.861V28.9925Z" fill="#797E84"/>
</svg>
