<svg width="45" height="35" viewBox="0 0 45 35" fill="none" xmlns="http://www.w3.org/2000/svg">
<path d="M16.9427 17.6655C16.8333 17.6655 16.7471 17.7539 16.7471 17.8654V20.0891C16.7471 20.2006 16.8333 20.289 16.9427 20.289H29.1763C29.2836 20.289 29.3698 20.2006 29.3698 20.0891V17.8654C29.3698 17.7539 29.2836 17.6655 29.1763 17.6655H16.9427Z" fill="#797E84"/>
<path d="M28.4414 12.7595C28.3383 12.4734 24.8607 2.95165 24.7114 2.54561C24.36 1.58628 23.9372 0.626953 22.5992 0.626953C21.2611 0.626953 20.8235 1.60101 20.4869 2.54561C20.3102 3.0337 16.8873 12.4019 16.759 12.7595C16.7232 12.8584 16.7695 12.9783 16.8747 13.0162C16.982 13.0583 18.7976 13.7609 18.9028 13.803C19.008 13.8451 19.1174 13.7799 19.151 13.6852C19.1868 13.5905 19.9421 11.5099 20.0283 11.2785C20.2766 11.2785 24.9302 11.2785 25.1805 11.2785C25.2647 11.512 26.0136 13.5863 26.0515 13.6852C26.0872 13.7841 26.2008 13.8409 26.2997 13.803C26.3986 13.7652 28.2058 13.0625 28.3299 13.0162C28.4519 12.9699 28.4708 12.8374 28.4414 12.7595ZM20.8467 8.9685L22.5886 3.73636H22.6097L24.3579 8.9685H20.8467Z" fill="#797E84"/>
<path d="M4.09594 26.8337C3.72988 26.8337 3.59313 26.8842 3.31122 26.9768L0.738281 34.3927H2.27826C2.27826 34.3927 2.49285 33.7363 2.73268 32.9326H5.39188C5.63802 33.7342 5.82526 34.3927 5.82526 34.3927H7.43677L5.00688 26.9768C4.75653 26.8863 4.42834 26.8337 4.09594 26.8337ZM3.11978 31.6935C3.11978 31.6935 3.56368 30.204 3.6331 29.9621C3.82034 29.373 4.08121 28.42 4.08121 28.42H4.12749C4.12749 28.42 4.36733 29.4088 4.53563 29.9537C4.59875 30.1809 5.02371 31.6935 5.02371 31.6935H3.11978Z" fill="#797E84"/>
<path d="M9.33607 26.8455H7.94336V34.3918H9.33607V26.8455Z" fill="#797E84"/>
<path d="M33.7178 30.845C33.7178 30.0792 33.6295 29.8078 33.4233 29.5154C33.1414 29.1199 32.6701 28.9558 31.7991 28.9558C31.1848 28.9558 30.581 29.0168 30.0067 29.162L30.2108 30.1844C30.6021 30.1276 31.0123 30.0771 31.309 30.0771C32.2283 30.0771 32.3335 30.216 32.3335 30.8997V31.169C32.1294 31.1122 31.898 31.0701 31.6287 31.0701C30.236 31.0701 29.5039 31.7391 29.5039 32.8731C29.5039 33.9334 30.2865 34.4951 31.248 34.4951C31.6056 34.4951 31.9759 34.4299 32.2704 34.3184C32.4492 34.2363 32.525 34.1901 32.7564 34.0344C32.8952 34.2469 33.175 34.4425 33.2865 34.4804L34.1785 33.8766C33.8104 33.3128 33.7136 32.9888 33.7136 32.2735V30.845H33.7178ZM31.6603 33.399C31.1596 33.399 30.8798 33.195 30.8798 32.6795C30.8798 32.1557 31.2374 31.9748 31.9275 31.9748C32.0958 31.9748 32.262 32 32.3377 32.0295V32.4081C32.3377 32.8184 32.3609 33.0814 32.4114 33.2644C32.1042 33.3738 31.9022 33.399 31.6603 33.399Z" fill="#797E84"/>
<path d="M27.3429 30.359C28.1592 30.0561 28.5063 29.5491 28.5063 28.7959C28.5063 27.6767 27.7573 26.7258 26.4467 26.7258C26.3204 26.7195 26.1942 26.7195 26.0785 26.7195C25.4095 26.7195 24.3534 26.7574 23.8779 26.7847V34.4446C24.3955 34.4762 25.4095 34.5014 26.2237 34.5014C27.1325 34.5014 27.8162 34.2595 28.2664 33.8156C28.6157 33.4537 28.8071 32.9173 28.8071 32.2356C28.8071 31.3163 28.3022 30.5715 27.3429 30.359ZM25.277 28.0386C25.561 28.0301 25.845 28.0259 26.0785 28.0259C26.1101 28.0259 26.1311 28.0259 26.1795 28.0259C26.7601 28.028 27.0736 28.3541 27.0736 28.9348C27.0736 29.1978 26.9873 29.4271 26.8232 29.5827C26.6507 29.7595 26.3941 29.852 26.0785 29.852C26.0785 29.852 25.3906 29.852 25.277 29.852C25.277 29.7237 25.277 28.1543 25.277 28.0386ZM26.1669 33.2034C26.1458 33.2034 26.1248 33.2034 26.1037 33.2034C25.8113 33.2034 25.5315 33.1992 25.277 33.195C25.277 33.0708 25.277 31.129 25.277 30.9986C25.3948 30.9986 26.1816 30.9986 26.1816 30.9986C26.5287 30.9986 26.8253 31.1143 27.0378 31.3142C27.2272 31.5077 27.3324 31.756 27.3408 32.0463C27.3366 32.8184 26.8885 33.2034 26.1669 33.2034Z" fill="#797E84"/>
<path d="M37.203 28.9583C36.2731 28.9583 35.6777 29.0487 34.9141 29.2822V34.3924H36.3089V30.2205C36.677 30.1658 36.7402 30.1532 37.0368 30.1532C37.8047 30.1721 37.8993 30.332 37.8993 30.9737V34.3945H39.2815V30.8454C39.2815 30.0796 39.1932 29.8082 38.987 29.5158C38.703 29.1223 38.1434 28.9583 37.203 28.9583Z" fill="#797E84"/>
<path d="M13.2777 27.8491C13.3766 27.8491 13.4881 27.8554 13.6102 27.8639L13.8268 26.7825C13.486 26.7383 13.1368 26.7173 12.7876 26.7173C11.9187 26.7173 11.4474 26.8835 11.1613 27.2832C10.9594 27.5714 10.8689 27.8512 10.8689 28.6212V29.2839H10.1768V30.4031H10.8689V34.3961H12.2511L12.249 30.4031H13.6291V29.2839H12.249L12.2511 28.6738C12.2469 27.988 12.3563 27.8491 13.2777 27.8491Z" fill="#797E84"/>
<path d="M44.0512 32.3953C43.8387 31.9808 43.6473 31.6968 43.2181 31.5937V31.5664C43.5063 31.5096 43.7356 31.3286 43.9818 30.8048C44.2216 30.2915 44.291 30.1758 44.4299 30.0495C44.5687 29.9254 44.7539 29.9696 44.7539 29.9696L44.8254 29.0166C44.6255 28.9934 44.4046 28.9913 44.1774 29.004C43.8009 29.025 43.6031 29.1302 43.418 29.3258C43.2749 29.4647 43.176 29.6793 43.054 29.9233C42.9236 30.1947 42.8205 30.403 42.6879 30.687C42.5533 30.9584 42.4881 31.0888 42.1283 31.0888H41.8927V26.8455H40.5V34.3918H41.8927V32.2122L42.0821 32.208C42.4818 32.208 42.5512 32.3111 42.7616 32.7298C43.0077 33.2347 43.479 34.3918 43.479 34.3918H45C44.9979 34.3918 44.2363 32.7592 44.0512 32.3953Z" fill="#797E84"/>
<path d="M21.0432 30.8342C20.5509 30.8342 20.1533 31.2424 20.1533 31.7241C20.1533 32.2185 20.5509 32.614 21.0432 32.614C21.5355 32.614 21.931 32.2185 21.931 31.7241C21.9331 31.2424 21.5355 30.8342 21.0432 30.8342Z" fill="#797E84"/>
<path d="M18.2102 30.845C18.2102 30.0792 18.1219 29.8078 17.9178 29.5154C17.6338 29.1199 17.1625 28.9558 16.2937 28.9558C15.6815 28.9558 15.084 29.0168 14.5075 29.162L14.7137 30.1844C15.105 30.1276 15.5153 30.0771 15.8035 30.0771C16.727 30.0771 16.8322 30.216 16.8322 30.8997V31.169C16.6282 31.1122 16.3967 31.0701 16.1296 31.0701C14.7411 31.0701 14.0068 31.7391 14.0068 32.8731C14.0068 33.9334 14.7894 34.4951 15.7467 34.4951C16.1043 34.4951 16.4767 34.4299 16.7691 34.3184C16.9479 34.2363 17.0258 34.1901 17.2572 34.0344C17.396 34.2469 17.6738 34.4425 17.7874 34.4804L18.6773 33.8766C18.3112 33.3128 18.2123 32.9888 18.2123 32.2735V30.845H18.2102ZM16.1527 33.399C15.6562 33.399 15.3764 33.195 15.3764 32.6795C15.3764 32.1557 15.7298 31.9748 16.4178 31.9748C16.5861 31.9748 16.7523 32 16.8301 32.0295V32.4081C16.8301 32.8184 16.8512 33.0814 16.9038 33.2644C16.5966 33.3738 16.3946 33.399 16.1527 33.399Z" fill="#797E84"/>
</svg>
