<svg width="20" height="20" viewBox="0 0 20 20" fill="none" xmlns="http://www.w3.org/2000/svg">
<path d="M19.7678 18.0599C19.7678 18.9233 19.0643 19.6269 18.2008 19.6269C8.28727 19.6269 0.228516 11.5681 0.228516 1.65457C0.228516 0.791128 0.932058 0.0875854 1.7955 0.0875854H5.37717C6.24061 0.0875854 6.94415 0.791128 6.94415 1.65457C6.94415 2.85379 7.13602 4.02103 7.50378 5.1403C7.67967 5.71593 7.53576 6.32353 7.12003 6.73926L5.50508 8.88187C6.84821 11.4082 8.41519 12.9752 10.9735 14.3343L13.1641 12.6714C13.5319 12.3036 14.1555 12.1597 14.7151 12.3516C15.8344 12.7194 17.0016 12.9112 18.2008 12.9112C19.0643 12.9112 19.7678 13.6148 19.7678 14.4782V18.0599Z" fill="#8BCC32"/>
</svg>
