<svg width="155" height="16" viewBox="0 0 155 16" fill="none" xmlns="http://www.w3.org/2000/svg">
<g clip-path="url(#clip0)">
<g clip-path="url(#clip1)">
<path d="M17.1143 8.17524C16.9982 12.0293 13.8075 15.0657 9.97849 15.0657H0C0 15.5913 0.406102 16.0584 0.986247 16.0584H9.97849C14.3876 16.0584 18.1005 12.438 18.1005 8.05845C18.1005 7.18254 17.9845 6.36502 17.6944 5.60589C17.6944 5.60589 17.6364 5.60589 17.6364 5.5475C17.6364 5.4891 17.5204 5.43071 17.4624 5.37232C17.0563 5.02195 16.9402 5.02195 16.7082 4.90516L16.3021 4.72998C16.8242 5.78108 17.1143 6.94896 17.1143 8.17524Z" fill="url(#paint0_linear)"/>
<path d="M14.9674 8.00005C14.9674 10.8614 12.6468 13.1387 9.86208 13.1387H3.77056L1.62402 14.1314H9.86208C13.2269 14.1314 15.9536 11.3869 15.9536 8.00005C15.9536 6.77378 15.6055 5.66429 15.0254 4.72998H13.8651C14.5032 5.60589 14.9674 6.77378 14.9674 8.00005Z" fill="url(#paint1_linear)"/>
<path d="M12.8208 8.00005C12.8208 9.81027 11.3704 11.2701 9.57196 11.2701H3.77051V12.2628H9.57196C11.8925 12.2628 13.807 10.3358 13.807 8.00005C13.807 6.65699 13.2269 5.4891 12.2406 4.72998H9.57196C11.3704 4.72998 12.8208 6.18983 12.8208 8.00005Z" fill="url(#paint2_linear)"/>
<path d="M18.0418 8.0001C18.0418 7.12419 17.9258 6.30667 17.6357 5.54754C17.6357 5.54754 17.5777 5.54754 17.5777 5.48915C17.5777 5.43075 17.4617 5.37236 17.4037 5.31397C16.9976 4.9636 16.8815 4.9636 16.6495 4.84681L16.2434 4.67163C16.7655 5.72273 17.0556 6.89061 17.0556 8.11689C16.9976 9.34316 16.6495 10.511 16.0693 11.5037L16.9396 11.9125C17.6357 10.803 18.0418 9.45995 18.0418 8.0001Z" fill="url(#paint3_linear)"/>
<path d="M15.8961 8.00005C15.8961 6.77378 15.5481 5.66429 14.9679 4.72998H13.8076C14.5618 5.60589 14.9679 6.77378 14.9679 8.00005C14.9679 8.93436 14.7359 9.86867 14.2717 10.6278L15.142 11.0366C15.6061 10.1606 15.8961 9.10954 15.8961 8.00005Z" fill="url(#paint4_linear)"/>
<path d="M13.8073 8.00005C13.8073 6.65699 13.2272 5.4891 12.2409 4.72998H9.57227C11.3707 4.72998 12.8211 6.18983 12.8211 8.00005C12.8211 8.584 12.647 9.16794 12.357 9.69348L13.2272 10.1022C13.5753 9.5183 13.8073 8.75918 13.8073 8.00005Z" fill="url(#paint5_linear)"/>
<path d="M14.9677 0.408759C14.3876 0 13.1113 0 13.1113 0H0.928232C0.406102 0 0 0.408759 0 0.992701H13.6334C14.7357 0.992701 15.3158 1.22628 16.012 1.63504L16.3021 1.81022C16.3021 1.81022 15.7219 0.875912 14.9677 0.408759Z" fill="url(#paint6_linear)"/>
<path d="M7.42582 5.66431H3.71289V6.65701H7.42582V5.66431Z" fill="url(#paint7_linear)"/>
<path d="M7.42582 7.53296H3.71289V8.52566H7.42582V7.53296Z" fill="url(#paint8_linear)"/>
<path d="M7.42582 9.40161H3.71289V10.3943H7.42582V9.40161Z" fill="url(#paint9_linear)"/>
<path d="M14.3298 2.86135C15.4321 2.86135 16.0122 3.09493 16.7084 3.50369L16.9984 3.67887C16.9984 3.67887 16.4763 2.74456 15.7221 2.27741C15.142 1.86865 13.8657 1.86865 13.8657 1.86865H1.68262L3.82915 2.86135H14.3298Z" fill="url(#paint10_linear)"/>
<path d="M17.4039 5.37234L17.694 5.54752C17.694 5.54752 17.1719 4.61322 16.4177 4.14606C15.8375 3.7373 14.5612 3.7373 14.5612 3.7373H3.77051V4.73001H9.57196H12.2406H13.807H14.9673C16.0696 4.73001 16.6497 4.96358 17.4039 5.37234Z" fill="url(#paint11_linear)"/>
<path d="M2.32056 8.46727C2.57689 8.46727 2.78468 8.25811 2.78468 8.00011C2.78468 7.74211 2.57689 7.53296 2.32056 7.53296C2.06424 7.53296 1.85645 7.74211 1.85645 8.00011C1.85645 8.25811 2.06424 8.46727 2.32056 8.46727Z" fill="url(#paint12_linear)"/>
<path d="M20.6533 13.7811V2.21906C20.6533 1.98549 20.8274 1.8103 21.0594 1.8103H28.9494C29.1815 1.8103 29.3555 1.98549 29.3555 2.21906V3.73731C29.3555 3.97089 29.1815 4.14607 28.9494 4.14607H23.264V6.77381H28.7754C29.0074 6.77381 29.1815 6.94899 29.1815 7.18257V8.70081C29.1815 8.93439 29.0074 9.10957 28.7754 9.10957H23.264V11.9125H28.9494C29.1815 11.9125 29.3555 12.0877 29.3555 12.3213V13.8395C29.3555 14.0731 29.1815 14.2483 28.9494 14.2483H21.0594C20.8274 14.1899 20.6533 14.0147 20.6533 13.7811Z" fill="#D1D3D4"/>
<path d="M40.2621 13.7811V8.99278H34.4607V13.7811C34.4607 14.0147 34.2866 14.1899 34.0546 14.1899H32.1981C31.966 14.1899 31.792 14.0147 31.792 13.7811V2.21906C31.792 1.98549 31.966 1.8103 32.1981 1.8103H34.0546C34.2866 1.8103 34.4607 1.98549 34.4607 2.21906V6.65702H40.2621V2.21906C40.2621 1.98549 40.4361 1.8103 40.6682 1.8103H42.5247C42.7567 1.8103 42.9308 1.98549 42.9308 2.21906V13.7811C42.9308 14.0147 42.7567 14.1899 42.5247 14.1899H40.6682C40.4361 14.1899 40.2621 14.0147 40.2621 13.7811Z" fill="#D1D3D4"/>
<path d="M113.766 13.7811V8.99278H107.965V13.7811C107.965 14.0147 107.791 14.1899 107.558 14.1899H105.702C105.47 14.1899 105.296 14.0147 105.296 13.7811V2.21906C105.296 1.98549 105.47 1.8103 105.702 1.8103H107.558C107.791 1.8103 107.965 1.98549 107.965 2.21906V6.65702H113.766V2.21906C113.766 1.98549 113.94 1.8103 114.172 1.8103H116.029C116.261 1.8103 116.435 1.98549 116.435 2.21906V13.7811C116.435 14.0147 116.261 14.1899 116.029 14.1899H114.172C113.94 14.1899 113.766 14.0147 113.766 13.7811Z" fill="#D1D3D4"/>
<path d="M59.001 7.99997C59.001 4.20435 61.8437 1.63501 65.4986 1.63501C68.1673 1.63501 69.7337 3.09486 70.6039 4.61311L68.9795 5.43063C68.6894 5.60581 68.2833 5.48902 68.0512 5.19705C67.4711 4.43793 66.5429 3.91238 65.4986 3.91238C63.2941 3.91238 61.6696 5.60581 61.6696 7.94158C61.6696 10.2773 63.2941 11.9708 65.4986 11.9708C66.5429 11.9708 67.4711 11.4452 68.0512 10.6861C68.2833 10.3941 68.6314 10.3357 68.9795 10.4525L70.6039 11.27C69.7337 12.7883 68.1673 14.3065 65.4986 14.3065C61.8437 14.3649 59.001 11.7956 59.001 7.99997Z" fill="#D1D3D4"/>
<path d="M78.4355 7.99997C78.4355 4.20435 81.2783 1.63501 84.9332 1.63501C87.6018 1.63501 89.1682 3.09486 90.0384 4.61311L88.414 5.43063C88.124 5.60581 87.7179 5.48902 87.4858 5.19705C86.9057 4.43793 85.9774 3.91238 84.9332 3.91238C82.7286 3.91238 81.1042 5.60581 81.1042 7.94158C81.1042 10.2773 82.7286 11.9708 84.9332 11.9708C85.9774 11.9708 86.9057 11.4452 87.4858 10.6861C87.7179 10.3941 88.066 10.3357 88.414 10.4525L90.0384 11.27C89.1682 12.7883 87.6018 14.3065 84.9332 14.3065C81.2783 14.3649 78.4355 11.7956 78.4355 7.99997Z" fill="#D1D3D4"/>
<path d="M121.598 2.21906V6.18987H124.731C127.341 6.18987 128.85 8.00008 128.85 10.1607C128.85 12.3213 127.399 14.1315 124.731 14.1315H119.393C119.161 14.1315 118.987 13.9563 118.987 13.7227V2.21906C118.987 1.98549 119.161 1.8103 119.393 1.8103H121.25C121.424 1.8687 121.598 2.04388 121.598 2.21906ZM121.598 8.52563V11.8541H124.383C125.427 11.8541 126.181 11.2118 126.181 10.2191C126.181 9.22636 125.427 8.58403 124.383 8.58403H121.598V8.52563Z" fill="#D1D3D4"/>
<path d="M54.4755 1.8687H56.0419C56.2739 1.8687 56.448 2.04388 56.448 2.27746V13.8395C56.448 14.0731 56.2739 14.2483 56.0419 14.2483H54.1854C53.9533 14.2483 53.7793 14.0731 53.7793 13.8395V6.42344L48.442 13.6643C48.2099 13.9563 47.8618 14.1315 47.5137 14.1315H45.7733C45.5412 14.1315 45.3672 13.9563 45.3672 13.7227V2.21906C45.3672 1.98549 45.5412 1.8103 45.7733 1.8103H47.6298C47.8618 1.8103 48.0359 1.98549 48.0359 2.21906V9.8687L53.5472 2.33585C53.7793 2.04388 54.0694 1.8687 54.4755 1.8687Z" fill="#D1D3D4"/>
<path d="M139.235 14.1899C138.887 14.1899 138.539 14.0147 138.306 13.7227L134.942 9.22636L134.013 10.3942V13.7811C134.013 14.0147 133.839 14.1899 133.607 14.1899H131.751C131.519 14.1899 131.345 14.0147 131.345 13.7811V2.21906C131.345 1.98549 131.519 1.8103 131.751 1.8103H133.607C133.839 1.8103 134.013 1.98549 134.013 2.21906V7.35775L138.016 2.27746C138.248 1.98549 138.539 1.8687 138.887 1.8687H141.555L136.682 7.64972L141.845 14.1899H139.235Z" fill="#D1D3D4"/>
<path d="M141.903 7.99997C141.903 4.26275 144.572 1.63501 148.285 1.63501C151.998 1.63501 154.667 4.26275 154.667 7.99997C154.667 11.6788 151.998 14.3649 148.285 14.3649C144.572 14.3649 141.903 11.7372 141.903 7.99997ZM151.998 7.99997C151.998 5.7226 150.547 3.97078 148.285 3.97078C146.022 3.97078 144.572 5.7226 144.572 7.99997C144.572 10.2773 146.022 12.0292 148.285 12.0292C150.547 12.0292 151.998 10.2773 151.998 7.99997Z" fill="#D1D3D4"/>
<path d="M100.539 13.6643L99.9592 12.0876H94.7379L94.1578 13.6643C94.0417 13.9562 93.7517 14.1898 93.4616 14.1898H92.1273C91.6051 14.1898 91.199 13.6643 91.4311 13.1387L95.5501 2.33581C95.6661 2.04383 95.9562 1.86865 96.2463 1.86865H98.4508C98.7409 1.86865 99.031 2.04383 99.147 2.33581L103.266 13.1387C103.44 13.6643 103.092 14.1898 102.57 14.1898H101.236C100.945 14.1898 100.655 13.9562 100.539 13.6643ZM97.3486 4.49639L95.4341 9.81026H99.2631L97.3486 4.49639Z" fill="#D1D3D4"/>
</g>
</g>
<defs>
<linearGradient id="paint0_linear" x1="10.81" y1="11.8463" x2="-5.43892" y2="25.4386" gradientUnits="userSpaceOnUse">
<stop stop-color="#8DC63F"/>
<stop offset="1" stop-color="#547F24"/>
</linearGradient>
<linearGradient id="paint1_linear" x1="10.2771" y1="11.2097" x2="-5.97181" y2="24.8021" gradientUnits="userSpaceOnUse">
<stop stop-color="#8DC63F"/>
<stop offset="1" stop-color="#547F24"/>
</linearGradient>
<linearGradient id="paint2_linear" x1="8.96866" y1="9.6456" x2="-7.28026" y2="23.2379" gradientUnits="userSpaceOnUse">
<stop stop-color="#8DC63F"/>
<stop offset="1" stop-color="#547F24"/>
</linearGradient>
<linearGradient id="paint3_linear" x1="16.8238" y1="8.2509" x2="17.4026" y2="5.91227" gradientUnits="userSpaceOnUse">
<stop stop-color="#8DC63F"/>
<stop offset="1" stop-color="#547F24"/>
</linearGradient>
<linearGradient id="paint4_linear" x1="14.6162" y1="7.70423" x2="15.195" y2="5.3656" gradientUnits="userSpaceOnUse">
<stop stop-color="#8DC63F"/>
<stop offset="1" stop-color="#547F24"/>
</linearGradient>
<linearGradient id="paint5_linear" x1="11.59" y1="6.95527" x2="12.1688" y2="4.61669" gradientUnits="userSpaceOnUse">
<stop stop-color="#8DC63F"/>
<stop offset="1" stop-color="#547F24"/>
</linearGradient>
<linearGradient id="paint6_linear" x1="4.46886" y1="4.26575" x2="-11.7801" y2="17.8581" gradientUnits="userSpaceOnUse">
<stop stop-color="#8DC63F"/>
<stop offset="1" stop-color="#547F24"/>
</linearGradient>
<linearGradient id="paint7_linear" x1="5.84951" y1="5.91639" x2="-10.3994" y2="19.5087" gradientUnits="userSpaceOnUse">
<stop stop-color="#8DC63F"/>
<stop offset="1" stop-color="#547F24"/>
</linearGradient>
<linearGradient id="paint8_linear" x1="6.77078" y1="7.01769" x2="-9.47817" y2="20.6101" gradientUnits="userSpaceOnUse">
<stop stop-color="#8DC63F"/>
<stop offset="1" stop-color="#547F24"/>
</linearGradient>
<linearGradient id="paint9_linear" x1="7.69199" y1="8.11904" x2="-8.55693" y2="21.7114" gradientUnits="userSpaceOnUse">
<stop stop-color="#8DC63F"/>
<stop offset="1" stop-color="#547F24"/>
</linearGradient>
<linearGradient id="paint10_linear" x1="5.73789" y1="5.78264" x2="-10.511" y2="19.375" gradientUnits="userSpaceOnUse">
<stop stop-color="#8DC63F"/>
<stop offset="1" stop-color="#547F24"/>
</linearGradient>
<linearGradient id="paint11_linear" x1="7.24778" y1="7.5884" x2="-9.00115" y2="21.1808" gradientUnits="userSpaceOnUse">
<stop stop-color="#8DC63F"/>
<stop offset="1" stop-color="#547F24"/>
</linearGradient>
<linearGradient id="paint12_linear" x1="5.40722" y1="5.38761" x2="-10.8417" y2="18.98" gradientUnits="userSpaceOnUse">
<stop stop-color="#8DC63F"/>
<stop offset="1" stop-color="#547F24"/>
</linearGradient>
<clipPath id="clip0">
<path d="M0 0H154.667V16H0V0Z" fill="white"/>
</clipPath>
<clipPath id="clip1">
<rect width="154.667" height="16" fill="white"/>
</clipPath>
</defs>
</svg>
