<svg width="158" height="60" viewBox="0 0 158 60" fill="none" xmlns="http://www.w3.org/2000/svg">
<g opacity="0.5" clip-path="url(#clip0)">
<path d="M32.3752 27.434H38.7268C39.472 27.4186 40.5574 27.3995 41.4224 27.5163C43.4169 27.786 45.4466 28.668 45.4466 31.083C45.4466 33.1092 44.2488 34.0602 42.8077 34.3667V34.4902C44.8925 34.8584 46.0904 35.9637 46.0904 38.1722C46.0904 41.7786 42.6452 42.7737 39.8586 42.906C39.1759 42.9265 38.3028 42.928 37.7149 42.928H32.376V27.434H32.3752ZM36.8235 39.9831H38.6335C40.168 39.9831 41.6708 39.5216 41.6708 38.048C41.6708 36.6678 40.5354 36.1776 38.4197 36.1776H36.8235V39.9831ZM36.9146 33.4451H38.2653C40.1062 33.4451 41.2115 33.0776 41.2115 31.8819C41.2115 30.9308 40.5354 30.3782 38.7261 30.3782H36.9146V33.4451Z" fill="#D1D3D4"/>
<path d="M10.3699 43.2279C3.65164 43.2279 0 38.3795 0 32.3045C0 26.1677 4.29613 21.1363 11.351 21.1363C13.2228 21.1363 14.8491 21.3818 16.2593 22.1182V26.0773C14.3876 24.9727 12.8855 24.7581 11.5053 24.7581C6.71904 24.7581 4.84656 28.2865 4.84656 32.0002C4.84656 36.1401 7.17981 39.4238 11.074 39.4238C12.7936 39.4238 14.2053 39.0248 15.8625 38.1362L17.028 41.2656C14.5426 42.8288 12.4254 43.2279 10.3699 43.2279ZM86.1497 43.2279C81.1782 43.2279 78.6326 39.5774 78.6326 35.22C78.6326 30.3414 82.0079 27.1202 86.5186 27.1202C88.5109 27.1202 89.5551 27.5178 90.3833 28.0095V31.5078C89.2788 30.7096 88.3874 30.4326 87.1616 30.4326C84.6152 30.4326 83.0499 32.3045 83.0499 35.0061C83.0499 37.4292 84.2463 39.7928 87.0999 39.7928C87.8965 39.7928 88.9716 39.4856 90.107 38.902L91.1498 41.7536C89.8623 42.6142 87.7142 43.2279 86.1497 43.2279ZM99.8942 30.9235V42.9214H95.4761V30.9235H91.1814V27.4252H104.741L103.637 30.9235H99.8942ZM121.123 29.2368C121.123 34.6372 120.911 37.4593 119.927 38.7469C119.438 39.393 118.669 39.8214 117.872 39.9442L119.099 43.2279C120.111 43.1977 121.678 42.7685 122.75 41.6933C124.161 40.3131 124.622 38.5639 124.837 36.7222C125.022 35.1582 125.143 33.3165 125.143 31.6915V30.9235H128.599V42.9214H133.017V27.4252H121.123V29.2368ZM20.9552 36.3834C21.0478 38.4713 23.0114 39.7612 25.0647 39.7612C26.5697 39.7612 27.7044 39.4848 29.4541 38.6566L30.4345 41.4486C28.2864 42.7987 26.2015 43.2279 24.3298 43.2279C18.8064 43.2279 16.5371 39.3004 16.5371 35.22C16.5371 30.8632 19.1445 27.1202 23.7779 27.1202C28.0123 27.1202 30.957 30.2496 30.957 35.0362V36.3841H20.9552V36.3834ZM23.6544 30.3422C21.8731 30.3422 20.8619 31.937 20.8619 33.3496H26.4463C26.3544 31.8745 25.5254 30.3422 23.6544 30.3422ZM51.3897 36.3834C51.4808 38.4713 53.4444 39.7612 55.5006 39.7612C57.0035 39.7612 58.1396 39.4848 59.8893 38.6566L60.8689 41.4486C58.7216 42.7987 56.6353 43.2279 54.7643 43.2279C49.2409 43.2279 46.9716 39.3004 46.9716 35.22C46.9716 30.8632 49.5789 27.1202 54.2131 27.1202C58.4446 27.1202 61.3914 30.2496 61.3914 35.0362V36.3841H51.3897V36.3834ZM54.0896 30.3422C52.309 30.3422 51.2978 31.937 51.2978 33.3496H56.8815C56.7896 31.8745 55.9592 30.3422 54.0896 30.3422ZM113.208 41.539C112.166 42.4915 110.939 43.2279 108.945 43.2279C105.998 43.2279 103.79 41.2641 103.79 38.195C103.79 34.912 106.428 33.2239 110.355 33.1019L112.964 33.0093V32.7035C112.964 31.0779 111.645 30.4318 110.109 30.4318C108.546 30.4318 107.195 30.8926 106.183 31.5071L104.833 28.8069C106.951 27.4245 108.974 27.1195 111.092 27.1195C115.173 27.1195 117.351 28.7444 117.351 32.827V42.9207H113.916L113.208 41.539ZM110.999 35.9865C109.098 36.049 108.207 36.6928 108.207 37.8577C108.207 39.0556 109.037 39.792 110.54 39.792C111.706 39.792 112.535 39.4224 112.932 39.0858V35.9263L110.999 35.9865ZM67.2198 42.5826V49.1184L62.8032 50.47V27.4252H66.5143L67.0052 28.8378C68.1406 27.947 69.459 27.1202 71.1772 27.1202C74.7369 27.1202 77.5288 29.8196 77.5288 34.729C77.5288 39.3334 74.7685 43.2279 70.1961 43.2279C69.0614 43.2279 68.0179 43.0125 67.2198 42.5826ZM67.2198 32.0891V39.4231C67.7114 39.7619 68.3251 40.0375 69.1239 40.0375C72.1303 40.0375 73.1114 37.3072 73.1114 34.668C73.1114 31.4762 72.0678 30.3422 70.2887 30.3422C69.1239 30.3422 67.7416 31.2932 67.2198 32.0891Z" fill="#D1D3D4"/>
<path d="M139.283 32.4705V26.7615L134.865 28.1138V42.9324H140.51C144.622 42.9324 148.456 41.8285 148.456 37.5637C148.456 33.9426 145.359 32.4698 141.553 32.4698H139.283V32.4705ZM139.283 39.8648V35.5382H140.757C142.321 35.5382 144.04 35.7829 144.04 37.6239C144.04 39.4356 142.566 39.8648 140.819 39.8648H139.283Z" fill="#D1D3D4"/>
<path d="M141.096 3.63298C139.821 4.218 138.752 4.8449 137.864 5.48724C136.932 6.16265 136.074 7.00342 135.836 7.93018C135.597 8.85326 135.937 10.0034 136.424 11.0449C136.899 12.0311 137.529 13.0953 138.355 14.2242C138.324 13.9016 138.334 13.5944 138.396 13.3085C138.594 12.4074 139.358 11.5983 140.192 10.9552C140.799 10.4885 141.498 10.0336 142.309 9.6029C143.61 8.90765 145.185 8.27045 147.086 7.7435H147.086C148.99 7.21508 150.671 6.9483 152.144 6.8748C152.174 5.9598 152.131 5.12344 152.031 4.36498C151.892 3.32137 151.574 2.25497 150.891 1.63248C150.672 1.43404 150.404 1.26795 150.105 1.13345C148.727 1.28706 147.199 1.5803 145.509 2.05066H145.507C143.816 2.51955 142.355 3.05532 141.096 3.63298Z" fill="#D1D3D4"/>
<path d="M157.906 8.79668C158.033 7.40471 158.024 6.17074 157.924 5.0823C157.819 3.93653 157.503 2.77606 156.824 2.10726C156.145 1.4392 154.976 1.15772 153.828 1.05997C152.738 0.965164 151.497 0.977658 150.105 1.1342C150.403 1.26869 150.671 1.43479 150.89 1.63322C151.573 2.25572 151.89 3.32212 152.03 4.36573C152.131 5.12419 152.173 5.96055 152.143 6.87555C152.096 8.34984 151.857 10.0329 151.363 11.943V11.9437C150.87 13.8553 150.26 15.4435 149.587 16.7576C150.363 17.2397 151.105 17.6196 151.812 17.9114C152.787 18.3127 153.868 18.5692 154.749 18.2892C155.033 18.201 155.308 18.0503 155.575 17.8578C156.13 16.5892 156.64 15.123 157.078 13.4283C157.52 11.7195 157.78 10.1806 157.906 8.79668Z" fill="#D1D3D4"/>
<path d="M145.016 20.7872C143.887 19.9861 142.695 18.991 141.448 17.7607C140.192 16.529 139.175 15.3443 138.355 14.2249C138.324 13.9023 138.334 13.5951 138.396 13.3092C138.594 12.4082 139.358 11.599 140.192 10.9559C140.799 10.4892 141.498 10.0343 142.309 9.60364C143.107 10.8427 144.179 12.1627 145.586 13.5451C146.993 14.9297 148.332 15.977 149.588 16.7568C150.364 17.2389 151.106 17.6189 151.812 17.9107C152.788 18.3119 153.869 18.5684 154.75 18.2884C155.034 18.2002 155.309 18.0496 155.576 17.857C155.019 19.1336 154.416 20.2059 153.794 21.1018C153.133 22.0572 152.299 22.9413 151.371 23.1986C150.443 23.4573 149.272 23.128 148.214 22.6496C147.22 22.202 146.15 21.5912 145.016 20.7872Z" fill="#D1D3D4"/>
<path d="M39.1599 58.4845C39.3377 58.4845 39.4362 58.5433 39.4362 58.7594V61.1957C39.4362 61.3743 39.3678 61.4338 39.1995 61.4338H38.5506C38.3552 61.4338 38.2949 61.3846 38.2949 61.1685V59.5156H34.2648V61.1957C34.2648 61.3743 34.1957 61.4338 34.0311 61.4338H33.3807C33.1853 61.4338 33.125 61.3846 33.125 61.1685V58.7594C33.125 58.5433 33.2227 58.4845 33.4006 58.4845H33.5387C34.4515 57.2064 34.8255 55.6447 34.8255 54.2277V52.9886C34.8255 52.7718 34.9262 52.7115 35.1018 52.7115H38.4625C38.6396 52.7115 38.7388 52.7718 38.7388 52.9886V58.4845H39.1599ZM36.0351 54.1476C36.0351 55.5749 35.7302 57.1572 34.8255 58.4838H37.4718V53.7361H36.0359V54.1476H36.0351Z" fill="#D1D3D4"/>
<path d="M42.4051 59.6339C40.8023 59.6339 40.0652 58.5514 40.0652 57.1182C40.0652 55.7013 40.9301 54.6224 42.4638 54.6224C44.0659 54.6224 44.8044 55.6822 44.8044 57.1278C44.8044 58.5433 43.9395 59.6339 42.4051 59.6339ZM42.455 55.5535C41.579 55.5535 41.2932 56.3105 41.2932 57.0977C41.2932 57.9039 41.5401 58.7006 42.4146 58.7006C43.2803 58.7006 43.5743 57.9325 43.5743 57.1278C43.5743 56.3193 43.3178 55.5535 42.455 55.5535Z" fill="#D1D3D4"/>
<path d="M48.9706 58.4933C49.0794 58.4544 49.1477 58.4448 49.1866 58.5815L49.313 59.0144C49.3351 59.0842 49.3454 59.143 49.3454 59.1812C49.3454 59.2598 49.2954 59.2988 49.2072 59.34C48.7354 59.556 48.3026 59.6339 47.7816 59.6339C46.267 59.6339 45.4314 58.6895 45.4314 57.1778C45.4314 55.652 46.3463 54.6216 47.8697 54.6216C48.3136 54.6216 48.7729 54.7098 49.1866 54.895C49.313 54.9538 49.3131 55.0229 49.2859 55.1515L49.158 55.6711C49.1381 55.7608 49.0985 55.8108 49.0397 55.8108C49.011 55.8108 48.9706 55.7917 48.9316 55.7696C48.6458 55.6513 48.3335 55.5528 47.9881 55.5528C47.1429 55.5528 46.6609 56.1533 46.6609 57.1175C46.6609 58.0612 47.0937 58.7086 47.9381 58.7086C48.3599 58.7094 48.6267 58.6322 48.9706 58.4933Z" fill="#D1D3D4"/>
<path d="M49.8149 55.5638C49.698 55.5638 49.6187 55.5153 49.6187 55.3867V54.9244C49.6187 54.798 49.6973 54.7495 49.8149 54.7495H53.6392C53.7568 54.7495 53.8361 54.798 53.8361 54.9244V55.3867C53.8361 55.5153 53.7575 55.5638 53.6392 55.5638H52.3216V59.2701C52.3216 59.4465 52.2422 59.5156 52.0768 59.5156H51.3875C51.2097 59.5156 51.1325 59.4465 51.1325 59.2701V55.5638H49.8149Z" fill="#D1D3D4"/>
<path d="M57.6202 55.4859V54.9928C57.6202 54.8171 57.6973 54.7488 57.8759 54.7488H58.5652C58.7321 54.7488 58.81 54.8171 58.81 54.9928V59.2694C58.81 59.4458 58.7321 59.5149 58.5652 59.5149H57.8759C57.6981 59.5149 57.6202 59.4458 57.6202 59.2694V56.7522L55.733 58.7483V59.2694C55.733 59.4458 55.6536 59.5149 55.4868 59.5149H54.7982C54.6226 59.5149 54.5425 59.4458 54.5425 59.2694V54.9928C54.5425 54.8171 54.6218 54.7488 54.7982 54.7488H55.4868C55.6536 54.7488 55.733 54.8171 55.733 54.9928V57.4806L57.6202 55.4859Z" fill="#D1D3D4"/>
<path d="M62.7018 54.9935C62.7018 54.8179 62.7789 54.7495 62.9575 54.7495H63.6468C63.8136 54.7495 63.8915 54.8179 63.8915 54.9935V59.2701C63.8915 59.4465 63.8136 59.5156 63.6358 59.5156H62.9465C62.7789 59.5156 62.7018 59.4465 62.7018 59.2701V57.8848C62.3571 58.0229 61.7876 58.1383 61.3048 58.1383C60.1451 58.1383 59.7542 57.4805 59.7542 56.3193V54.9928C59.7542 54.8171 59.832 54.7488 60.0092 54.7488H60.6963C60.8646 54.7488 60.9432 54.8171 60.9432 54.9928V56.2032C60.9432 56.7919 61.0123 57.1175 61.72 57.1175C62.0536 57.1175 62.4563 57.0366 62.7032 56.958V54.9935H62.7018Z" fill="#D1D3D4"/>
<path d="M66.3204 56.5273C66.6232 56.4494 67.0068 56.3803 67.4492 56.3803C68.392 56.3803 69.4451 56.725 69.4451 57.8936C69.4451 59.2709 68.029 59.6347 66.7606 59.6347C66.3402 59.6347 65.8765 59.5862 65.4753 59.5163C65.2974 59.4884 65.1292 59.409 65.1292 59.1437V54.9942C65.1292 54.8186 65.2085 54.7502 65.3849 54.7502H66.0742C66.2418 54.7502 66.3211 54.8186 66.3211 54.9942V56.5273H66.3204ZM66.3006 58.7491C66.4968 58.7777 66.7312 58.7998 66.9384 58.7998C67.4903 58.7998 68.2267 58.6616 68.2267 58.0126C68.2267 57.4122 67.6167 57.2557 67.0957 57.2557C66.801 57.2557 66.535 57.3049 66.3006 57.363V58.7491Z" fill="#D1D3D4"/>
<path d="M76.6205 52.4778C76.7572 52.4675 76.8557 52.5182 76.8557 52.6542V53.2532C76.8557 53.3906 76.7785 53.4597 76.6389 53.4693L75.8144 53.5486C74.959 53.6273 74.3784 53.8617 74.0742 54.227C73.8089 54.5408 73.7611 54.9237 73.7207 55.4859C74.1043 55.1332 74.6246 54.9237 75.2353 54.9237C76.3949 54.9237 77.1717 55.6513 77.1717 57.127C77.1717 58.6315 76.2582 59.6332 74.7833 59.6332C72.8366 59.6332 72.4912 58.0119 72.4912 56.6258C72.4912 55.2008 72.661 54.1292 73.3378 53.459C73.8 52.996 74.5665 52.6718 75.5983 52.5859L76.6205 52.4778ZM73.7119 56.5171C73.7119 58.0332 74.055 58.7006 74.8215 58.7006C75.6071 58.7006 75.9327 57.9928 75.9327 57.2064C75.9327 56.5869 75.7556 55.86 74.9193 55.86C74.4284 55.86 74.0249 56.0856 73.7119 56.4296V56.5171Z" fill="#D1D3D4"/>
<path d="M80.1885 59.6339C78.585 59.6339 77.8472 58.5514 77.8472 57.1182C77.8472 55.7013 78.7136 54.6224 80.2488 54.6224C81.8501 54.6224 82.5879 55.6822 82.5879 57.1278C82.5879 58.5433 81.7222 59.6339 80.1885 59.6339ZM80.2385 55.5535C79.3625 55.5535 79.0766 56.3105 79.0766 57.0977C79.0766 57.9039 79.3228 58.7006 80.1995 58.7006C81.0616 58.7006 81.3577 57.9325 81.3577 57.1278C81.3577 56.3193 81.1027 55.5535 80.2385 55.5535Z" fill="#D1D3D4"/>
<path d="M85.2509 56.1628C85.2509 57.6173 85.004 59.3297 83.3336 59.5759C83.216 59.5957 83.1175 59.556 83.0992 59.4377L83.0007 58.8784C82.9794 58.7887 83.0286 58.6895 83.1484 58.6616C83.9524 58.4551 84.1111 57.4026 84.1111 56.3803V54.9766C84.1111 54.8083 84.2081 54.7495 84.3654 54.7495H87.4232C87.5805 54.7495 87.6797 54.8083 87.6797 54.9766V59.2709C87.6797 59.4473 87.6011 59.5163 87.4232 59.5163H86.7346C86.5663 59.5163 86.4877 59.4473 86.4877 59.2709V55.5646H85.2509V56.1628Z" fill="#D1D3D4"/>
<path d="M90.1051 56.5273C90.41 56.4494 90.7944 56.3803 91.236 56.3803C92.1796 56.3803 93.232 56.725 93.232 57.8936C93.232 59.2709 91.8159 59.6347 90.5497 59.6347C90.1249 59.6347 89.6634 59.5862 89.2607 59.5163C89.0836 59.4884 88.9167 59.409 88.9167 59.1437V54.9942C88.9167 54.8186 88.9954 54.7502 89.171 54.7502H89.8603C90.0272 54.7502 90.1051 54.8186 90.1051 54.9942V56.5273ZM90.0859 58.7491C90.2836 58.7777 90.5188 58.7998 90.726 58.7998C91.2757 58.7998 92.0135 58.6616 92.0135 58.0126C92.0135 57.4122 91.4036 57.2557 90.8833 57.2557C90.5886 57.2557 90.3218 57.3049 90.0859 57.363V58.7491Z" fill="#D1D3D4"/>
<path d="M96.6328 58.7006V54.9935C96.6328 54.8179 96.7115 54.7495 96.8879 54.7495H97.5463C97.7146 54.7495 97.7932 54.8179 97.7932 54.9935V58.7006H99.238V54.9935C99.238 54.8179 99.3159 54.7495 99.493 54.7495H100.182C100.351 54.7495 100.429 54.8179 100.429 54.9935V59.2907C100.429 59.4583 100.33 59.5163 100.174 59.5163H94.2548C94.096 59.5163 93.999 59.4583 93.999 59.2907V54.9935C93.999 54.8179 94.0777 54.7495 94.2548 54.7495H94.9434C95.1116 54.7495 95.1881 54.8179 95.1881 54.9935V58.7006H96.6328Z" fill="#D1D3D4"/>
<path d="M105.243 58.4448C105.351 58.4036 105.449 58.3867 105.49 58.533L105.627 59.0349C105.637 59.0842 105.647 59.1239 105.647 59.1525C105.647 59.2216 105.606 59.2701 105.49 59.3208C105.009 59.5354 104.348 59.6347 103.838 59.6347C102.294 59.6347 101.381 58.652 101.381 57.119C101.381 55.6447 102.354 54.6231 103.816 54.6231C104.417 54.6231 104.908 54.8487 105.253 55.2111C105.704 55.6836 105.833 56.301 105.833 56.972V57.119C105.833 57.3549 105.756 57.4034 105.507 57.4034H102.629C102.706 58.1596 103.257 58.6814 104.035 58.6814C104.446 58.6807 104.859 58.5925 105.243 58.4448ZM104.664 56.6266C104.664 56.6067 104.664 56.5362 104.664 56.517C104.644 56.007 104.348 55.5352 103.749 55.5352C103.111 55.5352 102.726 56.0452 102.649 56.6266H104.664Z" fill="#D1D3D4"/>
<path d="M107.916 59.2701C107.916 59.4465 107.838 59.5156 107.672 59.5156H106.984C106.806 59.5156 106.727 59.4465 106.727 59.2701V54.9759C106.727 54.8076 106.825 54.7488 106.984 54.7488H109.724C109.844 54.7488 109.923 54.7973 109.923 54.9237V55.386C109.923 55.5146 109.844 55.5631 109.724 55.5631H107.916V59.2701Z" fill="#D1D3D4"/>
<path d="M112.409 59.6339C110.807 59.6339 110.069 58.5514 110.069 57.1182C110.069 55.7013 110.934 54.6224 112.467 54.6224C114.07 54.6224 114.808 55.6822 114.808 57.1278C114.808 58.5433 113.942 59.6339 112.409 59.6339ZM112.457 55.5535C111.583 55.5535 111.298 56.3105 111.298 57.0977C111.298 57.9039 111.543 58.7006 112.417 58.7006C113.284 58.7006 113.578 57.9325 113.578 57.1278C113.579 56.3193 113.323 55.5535 112.457 55.5535Z" fill="#D1D3D4"/>
<path d="M118.139 54.9759C118.139 54.8076 118.238 54.7488 118.393 54.7488H120.163C121.305 54.7488 122.09 55.092 122.09 55.9372C122.09 56.4289 121.835 56.8323 121.275 56.9587V56.9903C121.953 57.0469 122.396 57.4519 122.396 58.0413C122.396 59.201 121.401 59.5156 120.242 59.5156H118.393C118.238 59.5156 118.138 59.4575 118.138 59.29V54.9759H118.139ZM119.328 56.6743H119.889C120.506 56.6743 120.89 56.5273 120.89 56.0753C120.89 55.6248 120.517 55.5153 119.858 55.5153H119.328V56.6743ZM119.328 58.7491H120.055C120.665 58.7491 121.187 58.6013 121.187 58.081C121.187 57.5599 120.625 57.4122 120.028 57.4122H119.328V58.7491Z" fill="#D1D3D4"/>
<path d="M126.129 58.347L127.202 54.984C127.26 54.798 127.377 54.7495 127.548 54.7495H128.481C128.638 54.7495 128.745 54.8083 128.757 54.9935L128.941 59.2701C128.953 59.4465 128.864 59.5156 128.686 59.5156H128.088C127.919 59.5156 127.84 59.4465 127.84 59.2701L127.781 56.0746H127.751L126.769 59.2701C126.711 59.4678 126.601 59.5156 126.454 59.5156H125.678C125.529 59.5156 125.432 59.4678 125.373 59.2797L124.341 56.0665H124.312L124.253 59.2701C124.253 59.4465 124.174 59.5156 124.007 59.5156H123.427C123.251 59.5156 123.161 59.4465 123.172 59.2701L123.377 54.9935C123.388 54.8083 123.495 54.7495 123.652 54.7495H124.634C124.802 54.7495 124.921 54.798 124.98 54.984L126.1 58.347H126.129Z" fill="#D1D3D4"/>
<path d="M133.648 58.4448C133.757 58.4036 133.856 58.3867 133.895 58.533L134.033 59.0349C134.044 59.0842 134.052 59.1239 134.052 59.1525C134.052 59.2216 134.013 59.2701 133.895 59.3208C133.414 59.5354 132.755 59.6347 132.244 59.6347C130.7 59.6347 129.787 58.652 129.787 57.119C129.787 55.6447 130.759 54.6231 132.223 54.6231C132.824 54.6231 133.315 54.8487 133.658 55.2111C134.111 55.6836 134.239 56.301 134.239 56.972V57.119C134.239 57.3549 134.159 57.4034 133.914 57.4034H131.034C131.113 58.1596 131.664 58.6814 132.442 58.6814C132.853 58.6807 133.267 58.5925 133.648 58.4448ZM133.069 56.6266C133.069 56.6067 133.069 56.5362 133.069 56.517C133.049 56.007 132.755 55.5352 132.154 55.5352C131.518 55.5352 131.133 56.0452 131.054 56.6266H133.069Z" fill="#D1D3D4"/>
<path d="M138.35 58.4933C138.457 58.4544 138.527 58.4448 138.565 58.5815L138.694 59.0144C138.714 59.0842 138.723 59.143 138.723 59.1812C138.723 59.2598 138.676 59.2988 138.585 59.34C138.115 59.556 137.682 59.6339 137.16 59.6339C135.645 59.6339 134.809 58.6895 134.809 57.1778C134.809 55.652 135.725 54.6216 137.248 54.6216C137.692 54.6216 138.153 54.7098 138.566 54.895C138.695 54.9538 138.695 55.0229 138.667 55.1515L138.537 55.6711C138.52 55.7608 138.479 55.8108 138.421 55.8108C138.387 55.8108 138.351 55.7917 138.311 55.7696C138.026 55.6513 137.713 55.5528 137.366 55.5528C136.522 55.5528 136.04 56.1533 136.04 57.1175C136.04 58.0612 136.472 58.7086 137.317 58.7086C137.739 58.7094 138.003 58.6322 138.35 58.4933Z" fill="#D1D3D4"/>
<path d="M139.196 55.5638C139.078 55.5638 138.998 55.5153 138.998 55.3867V54.9244C138.998 54.798 139.078 54.7495 139.196 54.7495H143.025C143.142 54.7495 143.22 54.798 143.22 54.9244V55.3867C143.22 55.5153 143.142 55.5638 143.025 55.5638H141.705V59.2701C141.705 59.4465 141.626 59.5156 141.462 59.5156H140.771C140.593 59.5156 140.514 59.4465 140.514 59.2701V55.5638H139.196Z" fill="#D1D3D4"/>
<path d="M147.232 58.4448C147.339 58.4036 147.436 58.3867 147.476 58.533L147.613 59.0349C147.624 59.0842 147.635 59.1239 147.635 59.1525C147.635 59.2216 147.596 59.2701 147.476 59.3208C146.995 59.5354 146.336 59.6347 145.823 59.6347C144.282 59.6347 143.368 58.652 143.368 57.119C143.368 55.6447 144.34 54.6231 145.806 54.6231C146.404 54.6231 146.896 54.8487 147.24 55.2111C147.692 55.6836 147.821 56.301 147.821 56.972V57.119C147.821 57.3549 147.743 57.4034 147.497 57.4034H144.616C144.694 58.1596 145.244 58.6814 146.022 58.6814C146.435 58.6807 146.849 58.5925 147.232 58.4448ZM146.652 56.6266C146.652 56.6067 146.652 56.5362 146.652 56.517C146.631 56.007 146.336 55.5352 145.738 55.5352C145.099 55.5352 144.715 56.0452 144.637 56.6266H146.652Z" fill="#D1D3D4"/>
</g>
<defs>
<clipPath id="clip0">
<rect width="158" height="60" fill="white"/>
</clipPath>
</defs>
</svg>
