<svg width="21" height="21" viewBox="0 0 21 21" fill="none" xmlns="http://www.w3.org/2000/svg">
<g clip-path="url(#clip0)">
<path d="M10.7106 0.986816C5.3281 0.986816 0.946359 5.36478 0.944404 10.7473C0.943426 12.4679 1.39407 14.1475 2.24848 15.6276L0.923401 20.5384L6.03851 19.3298C7.46479 20.1079 9.07041 20.5164 10.7049 20.5174H10.7087C16.0903 20.5174 20.4701 16.1384 20.4731 10.7569C20.475 8.14772 19.4604 5.69458 17.6167 3.84891C15.773 2.00422 13.3227 0.987794 10.7106 0.986816ZM10.7087 2.94197C12.7968 2.94295 14.7592 3.75708 16.2343 5.23127C17.7095 6.70741 18.5199 8.66881 18.5179 10.755C18.516 15.0602 15.014 18.5622 10.7068 18.5622C9.40371 18.5613 8.11291 18.2341 6.97599 17.6133L6.31727 17.2543L5.58981 17.4262L3.6652 17.8806L4.1349 16.1355L4.34684 15.3526L3.94206 14.65C3.25971 13.4691 2.89858 12.1189 2.89956 10.7473C2.90152 6.44403 6.40446 2.94197 10.7087 2.94197ZM7.25475 6.2413C7.0915 6.2413 6.82753 6.3024 6.60367 6.5468C6.3798 6.79021 5.74829 7.37977 5.74829 8.58024C5.74829 9.7807 6.62276 10.9411 6.74496 11.1044C6.86618 11.2667 8.43292 13.808 10.913 14.7856C12.9738 15.5979 13.3923 15.4376 13.84 15.3966C14.2878 15.3565 15.2845 14.8075 15.4878 14.2376C15.6911 13.6677 15.6916 13.1774 15.631 13.0767C15.5704 12.975 15.4076 12.9144 15.1632 12.7922C14.9198 12.67 13.7202 12.081 13.4964 11.9999C13.2725 11.9187 13.1088 11.8777 12.9465 12.1221C12.7842 12.3664 12.3178 12.9144 12.1751 13.0767C12.0324 13.24 11.8906 13.2619 11.6462 13.1397C11.4018 13.0166 10.616 12.7582 9.68342 11.9273C8.95806 11.2811 8.46861 10.4838 8.32589 10.2394C8.18414 9.99603 8.31252 9.86233 8.43472 9.74111C8.54421 9.63162 8.6772 9.45615 8.7994 9.31342C8.92062 9.17069 8.96266 9.06901 9.0438 8.90673C9.12494 8.74445 9.0834 8.60124 9.02279 8.47904C8.96218 8.35684 8.48754 7.15192 8.27052 6.66899C8.08771 6.2633 7.89464 6.25387 7.72063 6.24703C7.57888 6.24117 7.41703 6.2413 7.25475 6.2413Z" fill="#73DD6B"/>
</g>
<defs>
<clipPath id="clip0">
<rect width="19.5497" height="19.5497" fill="white" transform="translate(0.923401 0.986816)"/>
</clipPath>
</defs>
</svg>
