<svg width="20" height="21" viewBox="0 0 20 21" fill="none" xmlns="http://www.w3.org/2000/svg">
<path d="M17.3204 15.561C16.4811 14.8539 16.0935 14.6401 14.9347 13.9443C14.4519 13.6549 13.7161 13.4049 13.33 13.4049C13.0664 13.4049 12.7506 13.6066 12.5572 13.8C12.0616 14.2956 11.8992 14.9158 11.0304 14.9158C10.1805 14.9158 8.69601 14.0508 7.6308 12.9327C6.51271 11.8675 5.6477 10.383 5.6477 9.53312C5.6477 8.66433 6.25661 8.49057 6.75219 7.99423C6.94559 7.80158 7.15863 7.4858 7.15863 7.22214C7.15863 6.8361 6.90857 6.1116 6.61923 5.62886C5.92345 4.46922 5.7104 4.08166 5.00253 3.24309C4.76305 2.95904 4.49032 2.8291 4.20476 2.82834C3.72201 2.82759 3.08818 3.06707 2.65907 3.38663C2.0139 3.86787 1.33927 4.52286 1.15871 5.33876C1.13454 5.44982 1.12019 5.56162 1.11565 5.67343C1.0809 6.52333 1.41482 7.38608 1.77518 8.11661C2.62356 9.83833 3.74619 11.5049 4.96778 12.9932C5.35836 13.4691 5.78368 13.9118 6.22412 14.3394C6.65172 14.7791 7.09442 15.2044 7.57036 15.5957C9.05863 16.8173 10.7252 17.94 12.4469 18.7883C13.1706 19.1449 14.0228 19.4728 14.8644 19.4486C14.9845 19.4448 15.1046 19.4312 15.2248 19.4048C16.0407 19.225 16.6957 18.5496 17.1769 17.9044C17.4964 17.4753 17.7359 16.8423 17.7352 16.3588C17.7344 16.0732 17.6045 15.8005 17.3204 15.561ZM17.7352 11.894C17.3182 11.894 16.9797 11.5555 16.9797 11.1385V10.383C16.9797 6.63439 13.9291 3.58381 10.1805 3.58381C9.76348 3.58381 9.42504 3.24536 9.42504 2.82834C9.42504 2.41133 9.76348 2.07288 10.1805 2.07288C14.7624 2.07288 18.4906 5.80111 18.4906 10.383V11.1385C18.4906 11.5555 18.1522 11.894 17.7352 11.894ZM13.0951 10.383C12.7597 10.383 12.4529 10.1579 12.3646 9.81793C12.1576 9.02393 11.5381 8.40369 10.7471 8.19972C10.3429 8.09471 10.1004 7.68298 10.2047 7.2788C10.3089 6.87538 10.7199 6.63288 11.1256 6.73638C12.4461 7.0786 13.4811 8.11284 13.8264 9.43642C13.9314 9.84059 13.6896 10.2523 13.2862 10.3581C13.222 10.3747 13.1578 10.383 13.0951 10.383Z" fill="#E168FF"/>
<path d="M15.4688 11.1386C15.0517 11.1386 14.7133 10.8001 14.7133 10.3831C14.7133 7.97467 12.8292 5.98779 10.4237 5.86087C10.0067 5.83897 9.68716 5.48314 9.70907 5.06688C9.73098 4.64986 10.0928 4.32954 10.5031 4.35221C13.7115 4.52143 16.2242 7.17085 16.2242 10.3831C16.2242 10.8001 15.8858 11.1386 15.4688 11.1386Z" fill="#E168FF"/>
</svg>
