<svg width="14" height="14" viewBox="0 0 14 14" fill="none" xmlns="http://www.w3.org/2000/svg">
<path d="M0.943318 6.67115C5.25144 4.736 10.8261 2.3767 11.5959 2.05008C13.6144 1.19547 14.2338 1.35909 13.925 3.25208C13.7031 4.61266 13.0634 9.11668 12.5531 11.9203C12.2504 13.5829 11.5712 13.7799 10.5038 13.0606C9.99037 12.7145 7.39872 10.9643 6.83601 10.5534C6.32261 10.179 5.61445 9.72837 6.50258 8.84104C6.81876 8.52512 8.89023 6.50501 10.5044 4.93298C10.7158 4.72656 10.4502 4.38736 10.2061 4.55287C8.03045 6.0261 5.01415 8.07075 4.63018 8.33695C4.05022 8.73909 3.49306 8.92348 2.49338 8.63022C1.73776 8.4087 1.00002 8.14438 0.712811 8.04369C-0.393494 7.65603 -0.130939 7.15384 0.943318 6.67115Z" fill="#5BACDD"/>
</svg>
