<svg width="167" height="131" viewBox="0 0 167 131" fill="none" xmlns="http://www.w3.org/2000/svg">
<path d="M70.8416 120.578C65.8683 113.823 62.8146 105.628 56.5911 99.9047C50.5069 94.3075 42.1825 91.7993 34.3926 88.7869C22.4753 84.2073 10.5581 77.6195 4.32055 66.7673C-4.4036 51.6059 0.820663 31.383 13.3979 19.0179C25.9752 6.65275 44.3345 1.19966 62.2243 0.200012C80.1142 -0.799652 97.9483 2.1633 115.731 4.32021C131.948 6.28801 150.065 8.48546 160.351 20.8056C163.523 24.6922 165.648 29.2819 166.534 34.1617C167.42 39.0414 167.039 44.058 165.427 48.76C162.908 55.8612 157.716 61.715 153.598 68.0777C148.02 76.7189 144.367 86.3778 140.077 95.6899C135.787 105.002 130.66 114.229 122.815 121.028C109.429 132.614 82.2429 136.1 70.8416 120.578Z" fill="url(#paint0_linear)"/>
<path d="M71.5246 11H114.323C117.637 11 120.323 13.6863 120.323 17V41.5003H71.5246C68.2109 41.5003 65.5246 38.814 65.5246 35.5003V17C65.5246 13.6863 68.2109 11 71.5246 11Z" fill="#252F3D"/>
<path opacity="0.8" d="M74.0159 21.7762V21.3063C74.0159 20.9493 74.0894 20.6488 74.2363 20.4047C74.3832 20.1571 74.644 19.9166 75.0187 19.6835C75.3162 19.4978 75.5292 19.3302 75.6578 19.1809C75.79 19.0315 75.8561 18.8603 75.8561 18.6673C75.8561 18.5143 75.7863 18.3941 75.6467 18.3067C75.5072 18.2156 75.3254 18.1701 75.1013 18.1701C74.5467 18.1701 73.8984 18.3649 73.1564 18.7547L72.3906 17.2685C73.3052 16.7513 74.2602 16.4927 75.2556 16.4927C76.0747 16.4927 76.7174 16.6712 77.1839 17.0281C77.6504 17.3851 77.8836 17.8714 77.8836 18.487C77.8836 18.9277 77.7789 19.3102 77.5696 19.6343C77.3639 19.9549 77.0333 20.259 76.5779 20.5468C76.1922 20.7945 75.9498 20.9766 75.8506 21.0932C75.7551 21.2061 75.7073 21.3409 75.7073 21.4975V21.7762H74.0159ZM73.779 23.6885C73.779 23.3534 73.8764 23.0947 74.071 22.9126C74.2694 22.7305 74.5595 22.6394 74.9415 22.6394C75.3088 22.6394 75.5898 22.7323 75.7845 22.9181C75.9828 23.1002 76.082 23.357 76.082 23.6885C76.082 24.0199 75.9792 24.2767 75.7735 24.4589C75.5714 24.641 75.2941 24.7321 74.9415 24.7321C74.5779 24.7321 74.2932 24.6428 74.0876 24.4643C73.8819 24.2822 73.779 24.0236 73.779 23.6885Z" fill="url(#paint1_linear)"/>
<g opacity="0.8">
<path d="M108.094 16.4927H82.0029V18.8429H108.094V16.4927Z" fill="url(#paint2_linear)"/>
</g>
<g opacity="0.6">
<path d="M108.094 22.4895H82.0029V24.8397H108.094V22.4895Z" fill="url(#paint3_linear)"/>
</g>
<g opacity="0.4">
<path d="M108.095 28.4832H72.3906V30.8334H108.095V28.4832Z" fill="url(#paint4_linear)"/>
</g>
<g opacity="0.2">
<path d="M91.7089 34.4773H72.3906V36.8275H91.7089V34.4773Z" fill="url(#paint5_linear)"/>
</g>
<path d="M96.0482 79.5586H77.54C75.8832 79.5586 74.54 78.2154 74.54 76.5586V65.9177H96.0482C97.705 65.9177 99.0482 67.2608 99.0482 68.9177V76.5586C99.0482 78.2154 97.705 79.5586 96.0482 79.5586Z" fill="#252F3D"/>
<g opacity="0.8">
<path d="M96.0362 68.0071H77.6113V69.0582H96.0362V68.0071Z" fill="url(#paint6_linear)"/>
</g>
<g opacity="0.6">
<path d="M96.0362 70.6892H77.6113V71.7403H96.0362V70.6892Z" fill="url(#paint7_linear)"/>
</g>
<g opacity="0.4">
<path d="M96.0362 73.3701H77.6113V74.4212H96.0362V73.3701Z" fill="url(#paint8_linear)"/>
</g>
<g opacity="0.2">
<path d="M87.5804 76.0508H77.6113V77.1019H87.5804V76.0508Z" fill="url(#paint9_linear)"/>
</g>
<path d="M84.8562 44.6062H64.1475C60.8338 44.6062 58.1475 47.2925 58.1475 50.6062V62.8115H84.8562C88.1699 62.8115 90.8562 60.1252 90.8562 56.8115V50.6062C90.8562 47.2925 88.1699 44.6062 84.8562 44.6062Z" fill="#252F3D"/>
<g opacity="0.8">
<path d="M86.8352 47.8855H62.2451V49.2883H86.8352V47.8855Z" fill="url(#paint10_linear)"/>
</g>
<g opacity="0.6">
<path d="M86.8352 51.4641H62.2451V52.8669H86.8352V51.4641Z" fill="url(#paint11_linear)"/>
</g>
<g opacity="0.4">
<path d="M86.8352 55.0422H62.2451V56.4451H86.8352V55.0422Z" fill="url(#paint12_linear)"/>
</g>
<g opacity="0.2">
<path d="M75.5499 58.6194H62.2451V60.0222H75.5499V58.6194Z" fill="url(#paint13_linear)"/>
</g>
<path d="M53.3802 101.978C63.4224 101.978 71.5632 100.597 71.5632 98.8922C71.5632 97.188 63.4224 95.8064 53.3802 95.8064C43.3381 95.8064 35.1973 97.188 35.1973 98.8922C35.1973 100.597 43.3381 101.978 53.3802 101.978Z" fill="#374657"/>
<g opacity="0.1">
<path opacity="0.1" d="M43.7578 45.4913L43.8343 45.5078C43.8119 45.4925 43.7845 45.4866 43.7578 45.4913Z" fill="#252F3D"/>
</g>
<path d="M59.7419 57.4449C59.5136 55.9179 58.121 52.3557 58.121 52.3557C58.0962 52.2528 58.0693 52.1437 58.0383 52.0387C57.0496 48.6545 55.6817 48.3551 55.6817 48.3551L50.7816 47.3148C50.8221 47.34 50.8572 47.3729 50.8849 47.4115L50.8075 47.4239C50.5826 47.1597 50.434 46.8396 50.3777 46.4978C50.3684 46.4474 50.3601 46.3949 50.3539 46.3414C50.7061 45.9998 50.9808 45.5871 51.1596 45.1311C51.3384 44.675 51.4171 44.1861 51.3905 43.6972C51.3639 43.2083 51.2325 42.7308 51.0053 42.2967C50.778 41.8625 50.4601 41.4818 50.0729 41.1802C50.0223 41.14 49.9696 41.102 49.9159 41.0639C50.1473 40.82 50.1545 40.4795 49.982 40.1378C49.5956 39.3383 48.7567 38.8331 47.893 38.5872C47.2339 38.3989 46.519 38.3382 45.866 38.544C45.4931 38.6613 45.1542 38.8599 44.805 39.0338C44.1541 39.3579 43.4371 39.6141 42.9454 40.1461C42.8307 40.2706 42.7263 40.429 42.7594 40.5926C42.7852 40.7151 42.8813 40.8087 42.9443 40.9178C43.0838 41.1606 43.0476 41.4662 42.9536 41.7307C42.8596 41.9951 42.717 42.2451 42.6499 42.5127C42.5827 42.7802 42.6096 43.1033 42.8142 43.2967C42.9135 43.3742 43.017 43.4463 43.1241 43.5128C43.2363 43.6074 43.3348 43.7172 43.4165 43.839L43.9971 44.62C44.2681 44.9662 44.51 45.3341 44.7203 45.7199C44.8639 46.0029 44.9765 46.3064 45.1697 46.5596C45.2265 46.6348 45.2913 46.7038 45.3629 46.7653C45.3443 46.7581 45.3247 46.752 45.3061 46.7437C45.3916 46.8268 45.4933 46.8916 45.6048 46.9343C45.7164 46.9769 45.8355 46.9965 45.9549 46.9917H45.9838C46.0281 46.991 46.0705 46.9737 46.1026 46.9434V47.0462C46.1129 47.4218 46.1119 47.8211 46.085 48.1956L46.0396 48.173C45.9723 48.1393 45.8967 48.1256 45.8218 48.1334C45.7469 48.1413 45.6758 48.1703 45.617 48.2172L41.1033 51.8185C41.1033 51.8185 40.1229 53.1562 40.2592 55.461L39.4689 58.9204C39.4689 58.9204 38.4802 61.856 39.2406 63.952C40.001 66.048 40.4421 67.2446 40.4421 67.2446C40.4421 67.2446 40.7458 69.6256 41.2025 69.817C41.6591 70.0084 41.8565 70.1175 41.8565 70.1175L41.9474 70.6865C41.9474 70.6865 41.9773 70.741 42.0311 70.8357C42.3637 71.4109 43.5942 73.442 44.3101 73.226C44.3996 73.7773 44.4386 74.3355 44.4269 74.8939L45.1335 79.6271C45.1335 79.6271 45.6274 80.9143 45.5974 81.5883C45.5674 82.2622 46.1749 83.2212 46.1749 83.2212C45.8061 83.893 45.698 84.6763 45.8712 85.4222C46.1605 86.6806 46.5252 92.4901 46.5252 92.4901L47.0572 93.8977L47.0417 95.544C46.9977 95.8114 46.8852 96.063 46.7152 96.2746C46.3722 96.645 46.395 97.073 45.5788 97.5783C44.7626 98.0835 44.2357 98.2738 44.2357 98.9478C44.2348 99.0409 44.2265 99.1338 44.2109 99.2256C44.1345 99.7185 43.9868 99.9839 45.5024 100.128C47.2814 100.296 48.4674 99.1392 48.4674 99.1392C48.4674 99.1392 48.7288 98.6669 49.9613 98.4765C49.9613 98.4765 50.3818 98.4539 50.4056 98.0824C50.4138 97.9548 50.4118 97.71 50.4004 97.4404C50.3808 96.9259 50.3312 96.327 50.2661 96.2972C50.1845 96.2612 50.0398 95.7436 49.9903 95.5564H50.3333C50.3333 95.5564 50.6525 93.1754 50.3333 91.6319C50.014 90.0885 50.3033 88.9968 50.3033 88.9968L50.2423 84.9242C50.2423 84.9242 49.8115 84.4889 50.1494 83.6966C50.4872 82.9043 50.1494 78.9799 50.1494 78.9799C50.1494 78.9799 50.2723 77.5723 50.6215 77.243C50.9707 76.9137 50.6391 75.18 50.6215 75.0894L51.2414 77.1679C51.2414 77.1679 51.5152 81.3012 52.0937 82.0503L52.2611 83.9209C52.2611 83.9209 53.4471 85.6434 53.2188 86.5725C52.9905 87.5017 53.4626 90.8551 53.4626 90.8551V94.2846C53.4626 94.2846 52.9295 95.6623 53.6754 96.1562L53.9967 96.1439C53.8872 96.2468 53.8087 96.3898 53.6868 96.5164C53.5442 96.6625 53.4636 97.2181 53.4182 97.6955C53.3799 98.0999 53.3675 98.4477 53.3675 98.4477C53.3675 98.4477 53.6868 98.9529 54.2798 98.9869C54.8728 99.0209 56.8347 100.515 56.8347 100.515C56.8347 100.515 58.7749 100.515 59.276 100.412L59.306 100.405C59.4669 100.354 59.6022 100.243 59.6841 100.096C59.7852 99.9257 59.818 99.7236 59.776 99.5302C59.713 99.2349 59.4785 98.9128 58.9568 98.636C57.6561 97.9518 57.4629 97.3118 57.4629 97.3118L56.6105 96.04H56.7324C56.7324 96.04 56.657 94.692 57.5837 93.1795L57.5238 86.5159C57.5238 86.5159 57.903 84.2245 57.25 82.9815C57.25 82.9815 57.1963 81.6634 57.6333 81.259C58.0703 80.8546 57.0517 76.7666 57.0517 76.7666C57.0517 76.7666 56.8451 74.5729 56.593 72.5705C57.6189 73.5398 58.684 70.0485 58.8658 69.4281H58.8927C58.8927 69.4281 58.8875 69.4116 58.8803 69.3828C58.8731 69.354 58.8927 69.3386 58.8927 69.3386C58.8927 69.3334 58.6654 68.5308 58.8318 68.6944C58.9981 68.858 59.4103 68.2458 59.4103 68.2458C59.4103 68.2458 59.3493 64.9058 60.0643 63.2225C60.7792 61.5391 59.7419 57.4449 59.7419 57.4449ZM56.6849 59.5697L56.6901 59.5604C56.7934 61.5998 56.6694 65.9512 56.6694 65.9512C56.6694 65.9512 56.5289 66.5089 56.3781 67.1654L56.2696 63.0311L56.1663 59.1375L56.6849 59.5697ZM43.5921 58.1641C43.5921 58.1641 44.1087 64.6033 43.5921 65.5314C43.4444 65.7959 43.3214 66.2661 43.2191 66.8043C43.0487 66.3577 42.6871 65.3092 42.8162 64.7535C42.9836 64.0333 42.4815 62.1472 42.4815 62.103C42.4815 62.0587 42.436 61.0544 42.8007 60.2827C43.1654 59.511 42.9226 59.1817 42.9226 59.1817C42.9226 59.1817 43.2274 57.9244 43.5921 58.1641Z" fill="#252F3D"/>
<path d="M44.8507 72.6667C44.4013 74.6381 42.6099 71.6562 42.2018 70.9411L42.1191 70.793L42.3134 69.8864L43.3403 69.4697C43.5025 69.5542 43.6561 69.6541 43.799 69.7681C44.3641 70.2044 45.1978 71.1397 44.8507 72.6667Z" fill="#D8B98A"/>
<path d="M58.7466 69.4398L58.7353 69.484C58.7353 69.4974 58.726 69.5128 58.7208 69.5324C58.5452 70.1498 57.5007 73.6133 56.4924 72.6512C55.389 71.5955 55.9252 69.1712 55.9252 69.1712H55.9355L58.2569 68.9346L58.7167 69.4058L58.7466 69.4398Z" fill="#D8B98A"/>
<path d="M57.403 86.4898L57.4619 93.1039C56.5527 94.6062 56.6261 95.9438 56.6261 95.9438L53.63 96.0621C52.8986 95.5723 53.4234 94.2049 53.4234 94.2049V90.8001C53.4234 90.8001 52.9554 87.4724 53.1786 86.5464C53.4017 85.6203 52.2384 83.9153 52.2384 83.9153L52.0752 82.058C51.507 81.3151 51.2384 77.2117 51.2384 77.2117L50.6278 75.1538C50.6433 75.2433 50.9604 76.9729 50.6278 77.2909C50.2951 77.6088 50.1649 79.0154 50.1649 79.0154C50.1649 79.0154 50.4935 82.91 50.1649 83.6972C49.8364 84.4843 50.2538 84.9319 50.2538 84.9319L50.3147 88.9747C50.3147 88.9747 50.0306 90.0602 50.3437 91.5913C50.6567 93.1224 50.3437 95.4859 50.3437 95.4859H47.1203L47.1348 93.8396L46.6131 92.4423C46.6131 92.4423 46.2546 86.675 45.9715 85.4268C45.8014 84.6865 45.9071 83.9098 46.269 83.2413C46.269 83.2413 45.6729 82.2896 45.7029 81.6207C45.7328 80.9519 45.2473 79.674 45.2473 79.674L44.553 74.9768C44.5726 74.073 44.457 73.1714 44.21 72.3015C43.8061 70.9638 43.21 69.2095 43.21 69.2095L43.8836 69.2692L47.2846 69.5706C47.2846 69.5706 55.5496 69.0171 55.9225 69.477C56.001 69.6271 56.0541 69.7891 56.0796 69.9565C56.4505 71.6183 56.9412 76.8207 56.9412 76.8207C56.9412 76.8207 57.9413 80.8789 57.5115 81.2802C57.0817 81.6814 57.1354 82.9892 57.1354 82.9892C57.776 84.2158 57.403 86.4898 57.403 86.4898Z" fill="#1C2633"/>
<path d="M50.4142 97.9912C50.3905 98.3596 49.9772 98.3822 49.9772 98.3822C48.7685 98.5715 48.5122 99.0407 48.5122 99.0407C48.5122 99.0407 47.3479 100.188 45.604 100.026C44.1173 99.8845 44.2609 99.6149 44.3374 99.1313C44.3526 99.0401 44.3606 98.9479 44.3611 98.8555C44.3611 98.1867 44.8777 97.9964 45.6825 97.4953C46.4873 96.9942 46.4656 96.5692 46.8014 96.2019C47.1372 95.8345 47.1712 95.1215 47.1712 95.1215C47.5514 94.4629 48.5143 95.2244 48.5143 95.2244C48.5587 95.4579 49.9917 95.4301 49.9917 95.4301C49.9917 95.4301 50.1818 96.1885 50.2789 96.2327C50.3429 96.2626 50.3915 96.8573 50.4111 97.3646C50.4204 97.6218 50.4215 97.8657 50.4142 97.9912Z" fill="#797E84"/>
<path opacity="0.1" d="M50.4142 97.9908C50.3904 98.3592 49.9772 98.3818 49.9772 98.3818C48.7684 98.5712 48.5122 99.0404 48.5122 99.0404C48.5122 99.0404 47.3479 100.188 45.604 100.026C44.1173 99.8841 44.2609 99.6145 44.3374 99.1309C45.0017 99.2955 46.2724 99.524 47.0142 99.1227C48.0473 98.565 48.7839 98.175 48.7839 98.175L50.409 97.3508C50.4204 97.6214 50.4214 97.8653 50.4142 97.9908Z" fill="#1C2633"/>
<path d="M59.5239 99.9756C59.4446 100.122 59.3113 100.233 59.152 100.284C59.1426 100.288 59.1329 100.29 59.1231 100.291C58.6303 100.394 56.7273 100.394 56.7273 100.394C56.7273 100.394 54.7985 98.9065 54.2199 98.8725C53.6414 98.8386 53.3242 98.3375 53.3242 98.3375C53.3242 98.3375 53.3356 97.9917 53.3728 97.5904C53.4182 97.1161 53.4978 96.5615 53.6373 96.4195C53.8955 96.152 53.9472 95.7846 54.533 96.0182C54.533 96.0182 55.3594 94.5663 56.3347 95.6879L57.343 97.2118C57.343 97.2118 57.5331 97.8467 58.81 98.5268C59.3214 98.7995 59.5518 99.1205 59.6128 99.4138C59.6547 99.6055 59.623 99.8059 59.5239 99.9756Z" fill="#797E84"/>
<path opacity="0.1" d="M59.524 99.9754C59.4104 100.071 59.2833 100.174 59.1521 100.284C59.1427 100.287 59.133 100.29 59.1231 100.291C58.6303 100.394 56.7273 100.394 56.7273 100.394C56.7273 100.394 54.7985 98.9064 54.2199 98.8724C53.6414 98.8384 53.3242 98.3374 53.3242 98.3374C53.3242 98.3374 53.3356 97.9916 53.3728 97.5903C53.9648 97.7673 54.8636 98.0791 55.1043 98.4135C55.4731 98.928 56.5941 99.639 56.5941 99.639C56.5941 99.639 58.6841 99.4394 59.6128 99.4116C59.6553 99.604 59.6236 99.8052 59.524 99.9754Z" fill="#1C2633"/>
<path d="M51.3894 48.101L48.6351 50.9996C48.6351 50.9996 45.2991 50.7547 45.8818 49.7731C46.1783 49.274 46.2248 48.2296 46.199 47.318C46.1742 46.4403 46.0833 45.6932 46.0833 45.6932C46.0833 45.6932 50.7623 43.374 50.4038 45.5368C50.3277 45.9446 50.3232 46.3623 50.3904 46.7716C50.5939 47.8643 51.3894 48.101 51.3894 48.101Z" fill="#D8B98A"/>
<path opacity="0.1" d="M50.4026 45.5368C50.3265 45.9446 50.3219 46.3623 50.3891 46.7716C50.0692 47.0945 49.6879 47.3507 49.2675 47.5254C48.8472 47.7001 48.3961 47.7898 47.9406 47.7892C47.3042 47.7892 46.6234 47.2748 46.112 46.9712C46.0872 46.0935 46.082 45.6932 46.082 45.6932C46.082 45.6932 50.761 43.374 50.4026 45.5368Z" fill="#1C2633"/>
<path d="M51.3893 44.1764C51.3895 44.9546 51.1245 45.7098 50.6375 46.3184C50.1505 46.9269 49.4704 47.3527 48.7087 47.526C47.947 47.6993 47.1488 47.6098 46.4448 47.2722C45.7408 46.9347 45.1727 46.369 44.8337 45.6679C44.4947 44.9668 44.4048 44.1718 44.5787 43.4131C44.7526 42.6544 45.18 41.9771 45.791 41.4919C46.4019 41.0068 47.1602 40.7427 47.9415 40.7429C48.7228 40.7431 49.481 41.0075 50.0917 41.4929C50.4963 41.8145 50.8231 42.2227 51.0477 42.6873C51.2724 43.1518 51.3891 43.6608 51.3893 44.1764Z" fill="#D8B98A"/>
<path opacity="0.1" d="M56.0796 69.9486C55.2211 71.9838 49.698 72.026 49.698 72.026V69.8076L49.3632 69.786C49.5079 70.4209 49.1566 71.9704 49.1566 71.9704C44.7916 72.5878 43.7285 70.1091 43.7285 70.1091L43.8794 69.2612L47.2804 69.5627C47.2804 69.5627 55.5455 69.0091 55.9184 69.4691C55.9984 69.6189 56.0529 69.781 56.0796 69.9486Z" fill="#1C2633"/>
<path d="M49.6979 71.7584V69.539L49.3632 69.5184C49.5079 70.1533 49.1566 71.7029 49.1566 71.7029C45.8723 72.1639 44.4558 70.8797 43.9568 70.2109C43.8676 70.0959 43.791 69.9718 43.7285 69.8405L45.0602 62.3713L45.3702 51.3789L45.8506 49.4507L45.9621 48.5246V48.5143L45.9735 48.5195L46.3124 48.6646L48.3456 49.5392L50.667 47.8033L50.7011 47.7776L50.8158 47.6912L51.0069 47.8445L51.4811 48.2231L53.004 58.0126C53.004 58.0126 55.6446 65.5508 56.1344 68.5934C56.154 68.7148 56.1705 68.828 56.1829 68.934C56.5042 71.707 49.6979 71.7584 49.6979 71.7584Z" fill="white"/>
<path d="M48.5996 49.9469C48.708 49.9469 48.7959 49.8594 48.7959 49.7514C48.7959 49.6434 48.708 49.5559 48.5996 49.5559C48.4912 49.5559 48.4033 49.6434 48.4033 49.7514C48.4033 49.8594 48.4912 49.9469 48.5996 49.9469Z" fill="#2D3D52"/>
<path d="M48.6904 51.7299C48.7988 51.7299 48.8867 51.6423 48.8867 51.5344C48.8867 51.4264 48.7988 51.3389 48.6904 51.3389C48.582 51.3389 48.4941 51.4264 48.4941 51.5344C48.4941 51.6423 48.582 51.7299 48.6904 51.7299Z" fill="#2D3D52"/>
<path d="M48.8867 54.6185C48.9951 54.6185 49.0829 54.531 49.0829 54.423C49.0829 54.3151 48.9951 54.2275 48.8867 54.2275C48.7783 54.2275 48.6904 54.3151 48.6904 54.423C48.6904 54.531 48.7783 54.6185 48.8867 54.6185Z" fill="#2D3D52"/>
<path d="M49.2109 57.7284C49.3193 57.7284 49.4072 57.6409 49.4072 57.5329C49.4072 57.4249 49.3193 57.3374 49.2109 57.3374C49.1025 57.3374 49.0146 57.4249 49.0146 57.5329C49.0146 57.6409 49.1025 57.7284 49.2109 57.7284Z" fill="#2D3D52"/>
<path d="M49.4072 60.6488C49.5156 60.6488 49.6035 60.5613 49.6035 60.4533C49.6035 60.3453 49.5156 60.2578 49.4072 60.2578C49.2988 60.2578 49.2109 60.3453 49.2109 60.4533C49.2109 60.5613 49.2988 60.6488 49.4072 60.6488Z" fill="#2D3D52"/>
<path d="M49.6035 63.7599C49.7119 63.7599 49.7998 63.6724 49.7998 63.5644C49.7998 63.4564 49.7119 63.3689 49.6035 63.3689C49.4951 63.3689 49.4072 63.4564 49.4072 63.5644C49.4072 63.6724 49.4951 63.7599 49.6035 63.7599Z" fill="#2D3D52"/>
<path d="M49.5244 66.8368C49.6328 66.8368 49.7207 66.7493 49.7207 66.6413C49.7207 66.5333 49.6328 66.4458 49.5244 66.4458C49.416 66.4458 49.3281 66.5333 49.3281 66.6413C49.3281 66.7493 49.416 66.8368 49.5244 66.8368Z" fill="#2D3D52"/>
<path opacity="0.1" d="M46.1 63.4582C46.1 63.4582 45.8809 66.3187 45.4801 67.1501C45.0792 67.9815 44.8974 70.3162 44.8974 70.3162L43.9676 70.2133C43.8783 70.0983 43.8018 69.9741 43.7393 69.8428L45.071 62.3736L45.3809 51.3813L45.8613 49.453L45.9729 48.527C45.9765 48.5242 45.9808 48.5225 45.9853 48.5218C46.0374 48.4973 46.0945 48.485 46.1522 48.4859C46.2099 48.4868 46.2666 48.5008 46.318 48.527L46.3634 48.5496C46.35 48.5877 46.3365 48.6268 46.3241 48.6669C45.9605 49.8039 45.8241 51.9009 45.8241 51.9009C45.8241 51.9009 46.3469 55.7358 46.4058 57.5201C46.4647 59.3043 46.1 63.4582 46.1 63.4582Z" fill="#1C2633"/>
<path opacity="0.1" d="M43.799 69.7681C43.7887 69.7918 43.777 69.8148 43.7639 69.8371C43.4012 70.4472 42.4818 70.8351 42.2018 70.9411L42.1191 70.7929L42.3134 69.8864L43.3403 69.4697C43.5025 69.5542 43.6561 69.6541 43.799 69.7681Z" fill="#1C2633"/>
<path d="M41.3136 55.1697L40.4633 55.678L39.6864 59.1116C39.6864 59.1116 38.7163 62.0256 39.4633 64.1061C40.2102 66.1867 40.6451 67.3731 40.6451 67.3731C40.6451 67.3731 40.9437 69.7397 41.3911 69.93C41.8384 70.1204 42.0337 70.2274 42.0337 70.2274L42.1225 70.7923C42.1225 70.7923 43.3375 70.3807 43.7673 69.6604C44.197 68.9402 43.4511 67.1385 43.4511 67.1385C43.4511 67.1385 42.8096 65.6074 42.9738 64.8943C43.1381 64.1813 42.6453 62.3075 42.6453 62.2633C42.6453 62.219 42.6009 61.222 42.9552 60.4564C43.3096 59.6909 43.0751 59.3647 43.0751 59.3647L42.8509 57.1792L41.3136 55.1697Z" fill="#2D3D52"/>
<path opacity="0.1" d="M56.1488 69.3061C56.1488 69.3061 53.8956 70.154 53.1786 69.409C52.4616 68.6641 52.537 65.1903 52.537 65.1903C52.537 65.1903 51.851 58.7686 51.4171 57.7139C50.9832 56.6592 51.2105 49.047 51.2105 49.047C51.2105 49.047 50.9171 48.0643 50.666 47.804C50.6502 47.7869 50.6322 47.772 50.6123 47.7598L50.7001 47.7783L51.0101 47.8452L51.4843 48.2238L53.0071 58.0133C53.0071 58.0133 55.6478 65.5515 56.1375 68.5941L56.1488 69.3061Z" fill="#1C2633"/>
<path opacity="0.1" d="M58.7464 69.5287H58.7206C58.4375 69.5647 55.9312 69.8662 55.9219 69.3476C55.9219 69.2875 55.9254 69.2273 55.9322 69.1676L58.2536 68.9309L58.7133 69.4022C58.7216 69.433 58.7288 69.4598 58.735 69.4804L58.7464 69.5287Z" fill="#1C2633"/>
<path d="M56.3488 51.73L57.9966 52.585C57.9966 52.585 59.3634 56.1205 59.5875 57.6372C59.5875 57.6372 60.6021 61.6985 59.8975 63.3685C59.1929 65.0385 59.2559 68.3548 59.2559 68.3548C59.2559 68.3548 58.853 68.964 58.6887 68.8004C58.5245 68.6368 58.7487 69.4393 58.7487 69.4393C58.7487 69.4393 55.9355 69.8118 55.9221 69.2603C55.9086 68.7088 56.5678 66.0788 56.5678 66.0788C56.5678 66.0788 56.7465 59.8207 56.4924 58.8401C56.2382 57.8595 56.3488 51.73 56.3488 51.73Z" fill="#2D3D52"/>
<path opacity="0.1" d="M51.433 58.3962C51.433 58.3962 50.5032 60.6548 50.2088 60.804C49.9143 60.9532 50.2687 61.5469 50.2687 61.5469C50.2687 61.5469 51.9558 59.1988 51.433 58.3962Z" fill="#1C2633"/>
<path opacity="0.1" d="M50.8812 50.4714C50.8915 50.4282 49.7757 51.5611 49.4782 51.7298C49.1807 51.8986 50.563 51.7206 50.8812 50.4714Z" fill="#1C2633"/>
<path opacity="0.1" d="M47.7739 58.2166C47.7739 58.2166 46.0724 59.3134 46.2956 59.7456C46.5187 60.1778 47.7739 58.2166 47.7739 58.2166Z" fill="#1C2633"/>
<path opacity="0.1" d="M50.8662 74.2117C50.8662 74.2117 52.3126 75.1378 54.5679 75.3713L50.8662 74.2117Z" fill="#1C2633"/>
<path opacity="0.1" d="M47.3887 76.4409C47.3887 76.4409 48.7317 78.1202 49.3444 78.1655C49.957 78.2107 47.3887 76.4409 47.3887 76.4409Z" fill="#1C2633"/>
<path opacity="0.1" d="M49.2685 83.0269C49.2085 83.0567 48.5071 84.5425 47.7911 84.5878C47.0751 84.6331 49.2685 83.0269 49.2685 83.0269Z" fill="#1C2633"/>
<path opacity="0.1" d="M55.4932 86.2812C55.4932 86.2812 56.8238 85.9849 57.1193 86.9357C57.1193 86.9357 57.0304 86.6383 55.4932 86.2812Z" fill="#1C2633"/>
<path opacity="0.1" d="M54.5977 91.7228C54.5977 91.7228 56.2094 91.3956 56.5524 91.8421C56.8954 92.2887 54.5977 91.7228 54.5977 91.7228Z" fill="#1C2633"/>
<path opacity="0.1" d="M50.0345 92.481C50.0345 92.4954 48.3929 92.8082 48.4579 93.016C48.523 93.2239 50.2081 93.194 50.268 92.8668C50.2795 92.8262 50.2826 92.7836 50.2769 92.7418C50.2713 92.6999 50.2571 92.6597 50.2352 92.6235C50.2133 92.5873 50.1842 92.556 50.1497 92.5315C50.1152 92.507 50.076 92.4898 50.0345 92.481Z" fill="#1C2633"/>
<path opacity="0.1" d="M54.0596 93.8931C54.0596 93.8931 56.756 93.5659 56.5865 94.1308C56.4171 94.6957 54.0596 93.8931 54.0596 93.8931Z" fill="#1C2633"/>
<path opacity="0.1" d="M39.9395 60.8035C39.955 60.8477 41.7154 61.0854 41.9541 61.6503C41.9541 61.6503 40.2236 60.8477 39.955 60.8477" fill="#1C2633"/>
<path opacity="0.1" d="M42.4166 65.3962C42.4166 65.3962 40.9537 65.8572 41.057 66.5558C41.1603 67.2545 40.9092 66.2297 42.4166 65.3962Z" fill="#1C2633"/>
<path opacity="0.1" d="M41.7354 68.9339C41.7354 68.9339 42.2684 68.2054 42.7757 68.3392C43.283 68.4729 41.7354 68.9339 41.7354 68.9339Z" fill="#1C2633"/>
<path opacity="0.1" d="M50.0905 41.4931C50.039 41.5426 49.9814 41.5855 49.919 41.6207C49.4944 41.8656 49.3808 42.2381 49.1772 42.6774C48.9913 43.0756 48.7857 43.5006 48.4086 43.7228C47.923 44.014 47.2825 43.907 46.7773 44.1622C46.5534 44.2791 46.3695 44.4597 46.2492 44.6811C46.1288 44.9025 46.0774 45.1546 46.1016 45.4052C46.1344 45.5984 46.1828 45.7887 46.2462 45.9742C46.3602 46.3756 46.4121 46.792 46.4002 47.2089C46.4017 47.2216 46.4017 47.2344 46.4002 47.247C45.9674 47.0319 45.5848 46.7286 45.2774 46.3567C44.97 45.9848 44.7446 45.5527 44.6158 45.0884C44.4869 44.624 44.4576 44.1379 44.5298 43.6616C44.6019 43.1852 44.7738 42.7293 45.0343 42.3235C45.2949 41.9176 45.6382 41.5709 46.0421 41.3058C46.4459 41.0407 46.9013 40.8632 47.3785 40.7848C47.8557 40.7064 48.3442 40.7289 48.8121 40.8507C49.2801 40.9726 49.717 41.1911 50.0947 41.4921L50.0905 41.4931Z" fill="#1C2633"/>
<path d="M50.0006 40.46C49.6215 39.6667 48.7981 39.1656 47.9509 38.9166C47.3042 38.7303 46.6027 38.6696 45.9611 38.8744C45.5954 38.9906 45.2617 39.1831 44.9197 39.36C44.2802 39.6821 43.5766 39.9363 43.0962 40.4651C42.9846 40.5876 42.8813 40.746 42.9144 40.9086C42.9392 41.03 43.0342 41.1226 43.0952 41.2307C43.2326 41.4715 43.1985 41.775 43.1045 42.0374C43.0105 42.2998 42.8731 42.5447 42.8069 42.8143C42.7408 43.0838 42.7667 43.3997 42.9671 43.5922C43.0639 43.6686 43.1646 43.74 43.2688 43.8062C43.3782 43.901 43.4745 44.01 43.5549 44.1303L44.1242 44.9051C44.3919 45.249 44.6304 45.6145 44.837 45.9979C44.9796 46.2788 45.0891 46.5792 45.2782 46.8303C45.4673 47.0814 45.7638 47.283 46.0778 47.2552C46.1021 47.2561 46.1262 47.2511 46.1481 47.2407C46.1701 47.2303 46.1892 47.2148 46.2039 47.1956C46.2162 47.171 46.2219 47.1437 46.2204 47.1163C46.2333 46.6993 46.1813 46.2828 46.0665 45.8816C46.003 45.6961 45.9547 45.5058 45.9218 45.3126C45.8978 45.062 45.9493 44.81 46.0696 44.5886C46.1899 44.3672 46.3737 44.1865 46.5975 44.0696C47.1037 43.8154 47.7443 43.9224 48.2298 43.6313C48.6069 43.4039 48.8125 42.983 48.9985 42.5848C49.2051 42.1495 49.3157 41.773 49.7403 41.5281C50.1649 41.2832 50.2104 40.8767 50.0006 40.46Z" fill="#1C2633"/>
<path opacity="0.1" d="M48.4561 96.5876C48.4561 96.5876 48.981 97.2565 48.8466 97.6351C48.7123 98.0138 48.4561 96.5876 48.4561 96.5876Z" fill="#1C2633"/>
<path opacity="0.1" d="M55.5918 98.2589C55.5918 98.2589 55.7085 97.3616 56.1786 97.3534C56.6487 97.3451 56.6715 97.305 57.03 97.4419C57.3885 97.5787 57.7243 97.7927 57.6178 97.8257C57.5114 97.8586 56.9979 97.3112 56.4814 97.59C56.1532 97.7678 55.8534 97.9932 55.5918 98.2589Z" fill="#1C2633"/>
<path opacity="0.1" d="M46.8832 50.6597L48.3543 49.6308C48.3543 49.6308 46.1941 48.359 45.9368 48.538C45.6796 48.7171 45.5029 50.3222 45.5029 50.3222L46.8832 50.6597Z" fill="#1C2633"/>
<path d="M46.877 50.5927L48.3543 49.5391C48.3543 49.5391 46.1941 48.2683 45.9368 48.4463C45.6796 48.6243 45.5029 50.32 45.5029 50.32L46.877 50.5927Z" fill="white"/>
<path opacity="0.03" d="M46.877 50.5927L48.3543 49.5391C48.3543 49.5391 46.1941 48.2683 45.9368 48.4463C45.6796 48.6243 45.5029 50.32 45.5029 50.32L46.877 50.5927Z" fill="#1C2633"/>
<path d="M46.1806 48.4594L46.1362 48.4367C46.0705 48.4034 45.9965 48.3897 45.9231 48.3973C45.8498 48.405 45.7802 48.4337 45.7229 48.48L41.2929 52.0597C41.2929 52.0597 40.33 53.386 40.4664 55.6754L43.0781 59.3622C43.0781 59.3622 43.3767 58.113 43.7352 58.3507C43.7352 58.3507 44.2425 64.7426 43.7352 65.6645C43.2279 66.5865 43.0037 70.0345 43.0037 70.0345L44.7198 70.228C44.7198 70.228 44.8985 67.8943 45.3014 67.0619C45.7043 66.2294 45.9213 63.3689 45.9213 63.3689C45.9213 63.3689 46.2839 59.213 46.224 57.4278C46.1641 55.6425 45.6423 51.8097 45.6423 51.8097C45.6423 51.8097 45.788 49.5624 46.1806 48.4594Z" fill="#2D3D52"/>
<path opacity="0.1" d="M50.5929 50.008L48.7529 49.3289C48.7529 49.3289 51.0971 46.773 51.3885 48.1909L50.5929 50.008Z" fill="#1C2633"/>
<path d="M50.5929 49.9163L48.7529 49.2382C48.7529 49.2382 51.0971 46.6813 51.3885 48.0992L50.5929 49.9163Z" fill="white"/>
<path opacity="0.03" d="M50.5929 49.9163L48.7529 49.2382C48.7529 49.2382 51.0971 46.6813 51.3885 48.0992L50.5929 49.9163Z" fill="#1C2633"/>
<path opacity="0.1" d="M50.5342 47.7436C50.5604 47.7389 50.5874 47.7444 50.6096 47.759L50.5342 47.7436Z" fill="#1C2633"/>
<path d="M50.7119 47.5651L55.5966 48.6146C55.5966 48.6146 56.9396 48.912 57.9097 52.2705C58.8798 55.629 56.5811 59.7459 56.5811 59.7459L56.0739 59.3168L56.328 69.1279C56.328 69.1279 54.0737 69.9747 53.3578 69.2308C52.6418 68.4868 52.7152 65.012 52.7152 65.012C52.7152 65.012 52.0292 58.5883 51.5952 57.5305C51.1613 56.4727 51.3886 48.8636 51.3886 48.8636C51.3886 48.8636 50.9847 47.5064 50.7119 47.5651Z" fill="#2D3D52"/>
<path opacity="0.1" d="M55.1786 53.8171C55.1094 53.8808 55.0298 56.8494 55.3284 59.109C55.5116 60.485 55.7943 61.8461 56.1744 63.1816L55.7312 54.1268C55.7312 54.1268 55.3872 53.6205 55.1786 53.8171Z" fill="#1C2633"/>
<path opacity="0.1" d="M54.582 51.26C54.7019 51.3341 55.2246 52.5678 54.985 53.0741C54.7453 53.5803 54.582 51.26 54.582 51.26Z" fill="#1C2633"/>
<path opacity="0.1" d="M49.9713 40.4598C49.7321 39.9895 49.3586 39.6 48.8979 39.3403C49.24 39.5833 49.5164 39.9067 49.7027 40.2818C49.9093 40.6986 49.8514 41.1163 49.4413 41.353C49.0311 41.5896 48.903 41.9704 48.7005 42.4097C48.5146 42.8079 48.308 43.2329 47.9309 43.4551C47.4453 43.7474 46.8058 43.6404 46.2996 43.8935C46.0757 44.0106 45.8919 44.1915 45.7715 44.413C45.6512 44.6346 45.5998 44.8868 45.6239 45.1375C45.6562 45.3308 45.7046 45.5211 45.7685 45.7065C45.8832 46.1078 45.9348 46.5243 45.9214 46.9413C45.9232 46.9686 45.9179 46.9958 45.9059 47.0205C45.8913 47.0397 45.8721 47.0552 45.8502 47.0656C45.8283 47.076 45.8042 47.081 45.7799 47.0802C45.6534 47.09 45.5266 47.0666 45.4121 47.0123C45.4956 47.0945 45.5952 47.1588 45.7046 47.2011C45.8141 47.2434 45.9312 47.2628 46.0485 47.2582C46.0728 47.259 46.0969 47.254 46.1188 47.2436C46.1408 47.2332 46.1599 47.2178 46.1746 47.1985C46.1864 47.1738 46.1921 47.1466 46.1911 47.1193C46.2034 46.7023 46.1515 46.2858 46.0371 45.8845C45.9732 45.6991 45.9249 45.5088 45.8925 45.3155C45.8685 45.0649 45.9199 44.8129 46.0403 44.5915C46.1606 44.3701 46.3444 44.1895 46.5682 44.0725C47.0744 43.8184 47.7139 43.9254 48.1995 43.6342C48.5766 43.4068 48.7832 42.9859 48.9692 42.5877C49.1758 42.1525 49.2853 41.7759 49.7099 41.531C50.1345 41.2861 50.18 40.8766 49.9713 40.4598Z" fill="#1C2633"/>
<path d="M118.134 97.3658C128.176 97.3658 136.317 95.9842 136.317 94.2799C136.317 92.5757 128.176 91.1941 118.134 91.1941C108.092 91.1941 99.9512 92.5757 99.9512 94.2799C99.9512 95.9842 108.092 97.3658 118.134 97.3658Z" fill="#374657"/>
<path d="M128.582 47.4996C127.226 47.4728 126.03 46.5159 125.352 45.3552C125.175 45.078 125.063 44.7641 125.026 44.4374C125.03 44.3629 125.043 44.2891 125.063 44.2172C125.106 44.1083 125.141 43.9962 125.166 43.8817C125.172 43.836 125.172 43.7897 125.166 43.7439C125.166 43.7439 125.166 43.7439 125.166 43.7377C125.199 43.4887 125.053 43.2489 124.869 43.0771C124.685 42.9053 124.461 42.7808 124.272 42.6151C123.689 42.1058 123.512 41.2888 123.501 40.5109C123.501 40.4975 123.501 40.4841 123.501 40.4697C123.507 40.1374 123.534 39.803 123.531 39.4696C123.535 39.2803 123.527 39.0908 123.506 38.9026C123.45 38.4314 123.27 37.9519 122.899 37.6514C121.928 36.8684 120.297 37.6833 119.294 36.9425C119.049 36.7624 118.852 36.4938 118.556 36.428C118.332 36.3745 118.1 36.4465 117.882 36.5185C117.142 36.7614 116.318 37.0814 116.028 37.7975C115.863 38.2091 115.909 38.6711 115.758 39.0848C115.654 39.3615 115.471 39.5992 115.335 39.8626C115.223 40.0601 115.168 40.285 115.177 40.5119C115.166 40.6294 115.182 40.7478 115.226 40.8576C115.277 40.9888 115.359 41.1057 115.465 41.1982C115.426 41.2798 115.378 41.3565 115.321 41.4267C115.132 41.6571 114.841 41.8218 114.645 42.044C114.281 42.4638 114.295 43.0349 114.474 43.5288C114.654 44.0227 114.977 44.4724 115.198 44.9529C115.294 45.1587 115.371 45.3953 115.271 45.6032C115.202 45.7472 115.057 45.8563 114.945 45.9808C114.78 46.1651 114.676 46.396 114.649 46.6414C112.435 47.1446 112.434 48.9154 112.434 48.9154L111.24 51.9138C111.24 51.9138 111.049 52.418 110.827 53.0837L109.411 52.8316L110.388 54.4718C110.201 55.1395 110.07 55.759 110.114 56.0697C110.114 56.0697 109.675 58.1276 110.456 58.4867L112.181 59.2595C112.255 59.3045 112.336 59.3391 112.42 59.3624L112.49 59.3932C112.515 59.4055 112.542 59.4119 112.57 59.4119C112.598 59.4119 112.626 59.4055 112.651 59.3932H112.66H112.679C112.714 59.3968 112.749 59.3919 112.782 59.3788C112.821 59.3586 112.851 59.3255 112.868 59.2852C112.868 59.2821 112.868 59.279 112.868 59.2759L113.385 59.1267L113.823 59.6412C114.02 59.7791 114.213 59.8995 114.402 60.0075L113.729 66.7163C113.729 66.7163 113.619 75.6333 113.289 77.6634C113.167 78.4156 113.165 78.928 113.212 79.2768L113.2 79.2994C113.281 79.8726 113.493 79.9857 113.493 79.9857V79.9775L113.505 79.9857C113.605 79.7255 113.724 79.4728 113.86 79.2295C113.86 79.2768 113.86 79.3251 113.86 79.3756C113.854 80.1329 113.83 81.1917 113.756 81.88C113.622 83.051 114.098 86.9302 114.098 86.9302L114.263 90.4595C114.289 91.0582 114.15 91.6528 113.86 92.1778C113.47 92.8827 112.963 93.8736 112.93 94.3129C112.928 94.3369 112.928 94.361 112.93 94.3849L112.066 95.3861C112.066 95.3861 111.736 95.8934 112.479 96.0982C112.879 96.2093 113.57 96.0982 114.124 95.9675C114.366 95.9121 114.583 95.7767 114.738 95.5833C114.892 95.3899 114.977 95.1499 114.978 94.9025C115.12 94.4164 115.36 93.9639 115.682 93.5721L115.822 94.3839L116.751 94.6134L116.87 92.3877C116.919 92.2625 116.94 92.1287 116.934 91.9947C117.117 90.4121 116.503 90.5541 116.503 90.5541C116.519 90.5691 116.53 90.5885 116.533 90.6097C116.523 90.5922 116.513 90.5737 116.503 90.5552C116.126 89.8143 116.311 88.6002 116.311 88.6002C116.311 88.6002 116.8 85.0729 116.971 84.1417C117.092 83.4842 117.043 81.3296 117.002 80.1226C117.002 80.0722 117.002 80.0197 116.997 79.9775C118.436 79.959 120.2 79.9096 121.44 79.7902V79.9363L121.21 88.2709C121.195 88.8019 121.087 89.3263 120.891 89.8205C120.891 89.8298 120.883 89.839 120.88 89.8483C120.605 90.5446 120.449 91.2814 120.417 92.0286L120.314 94.6772V94.7502C120.129 94.8212 119.837 95.026 119.829 95.6197C119.817 96.4892 121.355 96.199 121.355 96.199C122.893 96.199 122.905 94.6041 122.905 94.6041C122.905 94.6041 122.954 93.142 123.027 92.1634C123.099 91.1849 122.795 91.401 122.795 91.401L122.772 94.1792C122.772 94.1864 122.772 94.1936 122.772 94.2008V91.7611L122.796 91.4071V91.3969L122.801 91.3217L122.993 88.451C122.993 88.451 124.409 83.6663 124.629 82.7485C124.785 82.0972 124.72 80.1318 124.668 79.0442C124.668 78.9938 124.668 78.9465 124.662 78.9002C125.1 78.8611 125.489 78.857 125.645 78.857H125.716C125.716 78.857 125.642 71.1727 125.46 68.2731C125.277 65.3735 124.983 62.7271 124.25 61.9296C123.808 61.4481 123.191 59.9602 122.771 58.8582C123.646 59.2355 124.554 59.5317 125.483 59.7431C127.804 60.2267 127.487 58.2202 127.487 58.2202L127.251 54.4265H127.267C127.258 53.4326 127.172 52.4408 127.01 51.46C126.888 50.7078 126.7 49.9299 126.413 49.2992C126.665 49.2035 126.913 49.0934 127.157 48.9905C127.787 48.7137 128.5 48.3207 128.589 47.6436H128.558C128.57 47.5963 128.578 47.5481 128.582 47.4996ZM114.199 52.988C114.205 53.38 114.189 54.0591 114.167 54.8113L113.43 53.8317L114.169 52.6382L114.199 52.988ZM124.381 56.4566L123.154 56.0635C123.372 55.7256 123.626 55.4123 123.912 55.1293L124.015 55.0264L123.977 55.0346L124.037 54.9811L124.072 54.9729L124.015 55.0264L124.082 55.013C124.157 55.3201 124.3 55.6064 124.501 55.8506C124.939 56.3362 124.377 56.4566 124.377 56.4566H124.381Z" fill="#252F3D"/>
<path d="M116.92 91.7227L116.775 94.4329L115.86 94.2055L115.667 93.0778L116.92 91.7227Z" fill="#797E84"/>
<path opacity="0.1" d="M116.92 91.7227L116.775 94.4329L115.86 94.2055L115.667 93.0778L116.92 91.7227Z" fill="#1C2633"/>
<path d="M120.28 94.7935L121.677 95.0816L122.71 94.17V91.6027L122.733 91.2518V91.2415L122.738 91.1675L122.926 88.3172C122.926 88.3172 124.323 83.5665 124.54 82.658C124.694 82.0108 124.63 80.0588 124.579 78.9805C124.558 78.538 124.54 78.2427 124.54 78.2427L121.457 77.4988L121.392 79.8654L121.167 88.1382C121.151 88.6653 121.044 89.1858 120.851 89.6765L120.84 89.7043C120.572 90.3973 120.421 91.13 120.393 91.8723L120.29 94.5013V94.5743L120.28 94.7935Z" fill="#D8B98A"/>
<path opacity="0.1" d="M122.737 91.1685V91.2416L122.742 91.1675L122.737 91.1685Z" fill="#1C2633"/>
<path opacity="0.1" d="M120.28 94.7941L121.677 95.0822L122.71 94.1705V93.9524C122.707 94.0009 122.692 94.0478 122.666 94.089C122.64 94.1301 122.604 94.1642 122.561 94.188L122.547 94.1963C122.066 94.45 121.521 94.5573 120.979 94.505L120.433 94.4587C120.384 94.4641 120.336 94.4758 120.29 94.4936V94.5667L120.28 94.7941Z" fill="#1C2633"/>
<path d="M122.549 94.2677L122.564 94.2595C122.61 94.2341 122.647 94.1971 122.674 94.1522C122.7 94.1073 122.714 94.0563 122.714 94.0043L122.736 91.2405C122.736 91.2405 123.038 91.0275 122.966 91.9988C122.894 92.9702 122.845 94.422 122.845 94.422C122.845 94.422 122.834 96.0056 121.316 96.0056C121.316 96.0056 119.798 96.2927 119.81 95.4294C119.821 94.5661 120.437 94.5301 120.437 94.5301L120.981 94.5774C121.523 94.6288 122.068 94.5211 122.549 94.2677Z" fill="#797E84"/>
<path d="M113.006 94.2062C113.043 94.8297 114.885 94.4696 114.885 94.4696L116.124 92.0711C116.124 92.0711 117.158 91.2788 116.641 90.5832C116.613 90.5455 116.587 90.506 116.565 90.4649V90.4587C116.553 90.4402 116.544 90.4217 116.534 90.4021C116.162 89.6675 116.344 88.4626 116.344 88.4626C116.344 88.4626 116.826 84.9641 116.995 84.038C117.114 83.3847 117.066 81.2455 117.025 80.0478C117.01 79.5508 116.995 79.2153 116.995 79.2153L113.935 78.4004C113.935 78.4004 113.935 78.7801 113.935 79.309C113.929 80.0601 113.906 81.1117 113.832 81.7949C113.7 82.9587 114.17 86.809 114.17 86.809L114.332 90.3136C114.355 90.9069 114.215 91.4951 113.926 92.0145C113.542 92.7142 113.042 93.6989 113.006 94.1352C113.004 94.1588 113.004 94.1826 113.006 94.2062Z" fill="#D8B98A"/>
<path opacity="0.1" d="M113.006 94.2064C113.042 94.8299 114.884 94.4698 114.884 94.4698L116.124 92.0713C116.124 92.0713 117.157 91.279 116.64 90.5834C116.612 90.5457 116.587 90.5062 116.564 90.4651C116.547 90.8283 116.151 91.7348 116.151 91.7348C116.151 91.7348 115.127 93.7752 114.808 94.2424C114.488 94.7095 113.067 94.156 113.014 94.1395C113.01 94.1615 113.007 94.1839 113.006 94.2064Z" fill="#1C2633"/>
<path d="M116.531 90.3999C116.531 90.3999 117.136 90.26 116.957 91.8312C116.963 92.0098 116.922 92.187 116.838 92.3447C116.753 92.5025 116.629 92.6352 116.476 92.7295C116.043 93.0011 115.374 93.5845 115.036 94.7195C115.036 94.9645 114.953 95.2025 114.801 95.3947C114.648 95.5869 114.435 95.7221 114.195 95.7783C113.649 95.9048 112.967 96.017 112.572 95.9069C111.838 95.7011 112.159 95.2 112.159 95.2L113.002 94.204C113.002 94.204 114.471 94.7802 114.796 94.312C115.122 93.8438 116.139 91.8044 116.139 91.8044C116.139 91.8044 116.715 90.5316 116.531 90.3999Z" fill="#797E84"/>
<path opacity="0.1" d="M121.461 77.7834L121.396 80.15C122.222 80.0708 122.805 79.9597 122.906 79.8043C123.122 79.4699 123.911 79.3279 124.583 79.2703C124.562 78.8278 124.543 78.5325 124.543 78.5325L121.461 77.7834Z" fill="#1C2633"/>
<path opacity="0.1" d="M113.932 79.5924C114.011 79.4328 114.127 79.294 114.269 79.187C114.595 79.0069 114.56 80.3384 114.56 80.3384C114.56 80.3384 115.639 80.3487 117.023 80.3312C117.007 79.8332 116.993 79.4988 116.993 79.4988L113.933 78.6838C113.933 78.6838 113.937 79.0635 113.932 79.5924Z" fill="#1C2633"/>
<path d="M113.583 79.9094C113.583 79.9094 113.944 78.9349 114.269 78.7559C114.593 78.5769 114.559 79.9073 114.559 79.9073C114.559 79.9073 122.508 79.9793 122.906 79.3671C123.304 78.7549 125.616 78.7919 125.616 78.7919C125.616 78.7919 125.543 71.1622 125.363 68.2832C125.182 65.4042 124.892 62.7773 124.17 61.986C123.702 61.4715 123.034 59.8159 122.627 58.7108C122.403 58.1068 122.255 57.6675 122.255 57.6675L114.668 58.0996L114.606 58.7108L113.8 66.7367C113.8 66.7367 113.696 75.5857 113.366 77.6045C113.035 79.6233 113.583 79.9094 113.583 79.9094Z" fill="#1C2633"/>
<g opacity="0.1">
<path opacity="0.1" d="M122.294 79.3725C122.69 78.7613 125.004 78.7973 125.004 78.7973C125.004 78.7973 124.931 71.1676 124.751 68.2886C124.57 65.4096 124.28 62.7826 123.558 61.9914C123.09 61.4769 122.422 59.8213 122.015 58.7162C121.827 58.2089 121.692 57.8179 121.654 57.7058L122.243 57.6729C122.243 57.6729 122.391 58.1122 122.615 58.7162C123.028 59.8213 123.691 61.479 124.159 61.9914C124.882 62.7826 125.17 65.4096 125.351 68.2886C125.532 71.1676 125.6 78.7922 125.6 78.7922C125.6 78.7922 123.288 78.7551 122.891 79.3725C122.551 79.8952 116.701 79.9189 115.003 79.9147C117.181 79.9045 121.984 79.8396 122.294 79.3725Z" fill="#1C2633"/>
<path opacity="0.1" d="M113.653 78.7551C113.8 78.6738 113.873 78.8992 113.91 79.1667C113.779 79.404 113.664 79.6502 113.568 79.9034C113.568 79.9034 113.361 79.7912 113.278 79.2222C113.393 79.0195 113.526 78.8261 113.653 78.7551Z" fill="#1C2633"/>
</g>
<path d="M115.928 39.2081C115.403 39.9222 115.934 40.9357 115.371 41.6292C115.185 41.8587 114.899 42.0223 114.705 42.2466C114.345 42.6643 114.359 43.2303 114.536 43.7211C114.713 44.2119 115.032 44.6574 115.251 45.1349C115.346 45.3406 115.423 45.5742 115.324 45.78C115.256 45.923 115.118 46.0311 115.002 46.1556C114.64 46.5579 114.63 47.1177 114.824 47.591C115.019 48.0643 115.392 48.4748 115.754 48.8741C115.899 49.0325 116.082 49.2064 116.322 49.2023C116.449 49.1921 116.572 49.1519 116.68 49.085C117.537 48.6357 118.187 47.8747 118.495 46.9602C118.755 46.1 118.701 45.1755 118.34 44.3518C118.03 43.6243 117.526 42.9267 117.522 42.157C117.522 41.5469 117.837 40.9645 117.893 40.3564C117.961 39.6186 117.522 38.4456 116.627 38.1235C116.686 38.5999 116.198 38.8459 115.928 39.2081Z" fill="#1C2633"/>
<path opacity="0.1" d="M115.928 39.2081C115.403 39.9222 115.934 40.9357 115.371 41.6292C115.185 41.8587 114.899 42.0223 114.705 42.2466C114.345 42.6643 114.359 43.2303 114.536 43.7211C114.713 44.2119 115.032 44.6574 115.251 45.1349C115.346 45.3406 115.423 45.5742 115.324 45.78C115.256 45.923 115.118 46.0311 115.002 46.1556C114.64 46.5579 114.63 47.1177 114.824 47.591C115.019 48.0643 115.392 48.4748 115.754 48.8741C115.899 49.0325 116.082 49.2064 116.322 49.2023C116.449 49.1921 116.572 49.1519 116.68 49.085C117.537 48.6357 118.187 47.8747 118.495 46.9602C118.755 46.1 118.701 45.1755 118.34 44.3518C118.03 43.6243 117.526 42.9267 117.522 42.157C117.522 41.5469 117.837 40.9645 117.893 40.3564C117.961 39.6186 117.522 38.4456 116.627 38.1235C116.686 38.5999 116.198 38.8459 115.928 39.2081Z" fill="#1C2633"/>
<path opacity="0.1" d="M121.754 65.1504C120.702 65.206 119.713 65.6556 118.792 66.1649C117.872 66.6743 116.981 67.2556 115.99 67.6137" fill="#1C2633"/>
<path opacity="0.1" d="M121.098 67.6179C120.058 67.7173 119.088 68.1867 118.367 68.9401C118.112 69.2097 117.892 69.5122 117.625 69.7705C117.216 70.166 116.712 70.4495 116.161 70.5937" fill="#1C2633"/>
<path opacity="0.1" d="M121.315 69.4949C120.476 69.7267 119.717 70.1825 119.12 70.813C118.958 70.9858 118.81 71.1721 118.651 71.3439C117.78 72.27 116.55 72.769 115.363 73.2361" fill="#1C2633"/>
<path d="M121.225 43.4525C121.248 44.2894 121.321 45.1243 121.442 45.9528C121.539 46.5435 121.677 47.0692 121.875 47.3028C122.453 47.9871 119.057 48.9049 119.057 48.9049L117.052 47.3615C117.052 47.3615 118.642 45.9034 117.901 44.4804C117.16 43.0573 121.225 43.4525 121.225 43.4525Z" fill="#D8B98A"/>
<path opacity="0.1" d="M114.606 58.7109H122.628C122.403 58.1069 122.256 57.6675 122.256 57.6675L114.668 58.0997L114.606 58.7109Z" fill="#1C2633"/>
<path d="M114.09 58.5669H122.664C122.424 57.7087 122.664 56.9134 123.008 56.3032C123.249 55.8745 123.551 55.4834 123.906 55.1425L123.965 55.0901L126.961 54.4284L127.122 54.3935C127.122 54.3935 127.146 48.9719 125.219 48.228C123.293 47.484 122.136 46.4788 122.136 46.4788L119.487 47.2937L117.535 46.311C116.909 46.9829 115.247 46.7226 115.247 46.7226C112.524 47.0313 112.524 49.0738 112.524 49.0738C112.524 49.0738 114.114 52.7687 114.235 52.7687C114.356 52.7687 114.09 58.5669 114.09 58.5669Z" fill="#2D3D52"/>
<path opacity="0.1" d="M117.05 55.1202C117.05 55.1202 115.301 54.7343 114.706 54.0593L117.05 55.1202Z" fill="#1C2633"/>
<path opacity="0.1" d="M125.868 53.0969L123.843 54.7525C123.857 54.8834 123.88 55.0133 123.91 55.1415L123.969 55.089L126.965 54.4274L125.868 53.0969Z" fill="#1C2633"/>
<path opacity="0.1" d="M120.376 57.9923C120.376 57.9923 120.82 58.2413 121.5 58.5675H122.665C122.425 57.7094 122.665 56.914 123.009 56.3038L120.95 55.6401C121.653 56.2884 120.376 57.9923 120.376 57.9923Z" fill="#1C2633"/>
<path d="M113.727 48.4197L112.523 49.0669L111.342 52.0416C111.342 52.0416 110.114 55.3044 110.233 56.1687C110.233 56.1687 109.801 58.2071 110.571 58.5672L112.582 59.4727C112.617 59.4887 112.657 59.4933 112.695 59.4857C112.733 59.4781 112.768 59.4589 112.794 59.4306C112.821 59.4023 112.838 59.3664 112.843 59.328C112.848 59.2896 112.841 59.2506 112.822 59.2165C112.536 58.6763 112.222 57.8326 112.719 57.3644L112.141 56.1656L114.235 52.7619L114.932 51.5909L113.727 48.4197Z" fill="#2D3D52"/>
<path opacity="0.1" d="M116.405 54.4391C116.508 54.863 116.861 55.5143 118.027 55.7603L119.31 56.8036L120.671 57.421L121.224 57.671L121.46 55.9794L120.926 55.6882L120.306 55.3497C120.306 55.3497 118.902 52.8144 116.678 53.8855C116.575 53.9328 116.493 54.0136 116.443 54.1143C116.393 54.215 116.38 54.3297 116.405 54.4391Z" fill="#1C2633"/>
<path d="M116.478 54.2951C116.581 54.719 116.934 55.3704 118.1 55.6163L119.383 56.6607L120.743 57.278L121.297 57.5281L121.533 55.8365L120.999 55.5463L120.379 55.2068C120.379 55.2068 118.975 52.6724 116.751 53.7426C116.649 53.7898 116.566 53.8704 116.516 53.9709C116.467 54.0714 116.453 54.1858 116.478 54.2951Z" fill="#D8B98A"/>
<path opacity="0.1" d="M118.985 45.6487C120.701 45.6487 122.092 44.263 122.092 42.5536C122.092 40.8442 120.701 39.4585 118.985 39.4585C117.268 39.4585 115.877 40.8442 115.877 42.5536C115.877 44.263 117.268 45.6487 118.985 45.6487Z" fill="#1C2633"/>
<path d="M118.985 45.5767C120.701 45.5767 122.092 44.1909 122.092 42.4816C122.092 40.7722 120.701 39.3865 118.985 39.3865C117.268 39.3865 115.877 40.7722 115.877 42.4816C115.877 44.1909 117.268 45.5767 118.985 45.5767Z" fill="#D8B98A"/>
<path opacity="0.1" d="M120.909 49.0933L119.979 47.2844C119.979 47.2844 121.347 46.7349 121.447 46.097C121.546 45.459 122.757 46.844 122.494 47.3029C122.232 47.7618 120.909 49.0933 120.909 49.0933Z" fill="#1C2633"/>
<path d="M120.909 48.9492L119.979 47.1403C119.979 47.1403 121.347 46.5908 121.447 45.9528C121.546 45.3149 122.757 46.7009 122.494 47.1588C122.232 47.6167 120.909 48.9492 120.909 48.9492Z" fill="#2D3D52"/>
<path d="M113.263 53.6209L118.428 60.5345C118.428 60.5345 116.525 61.5634 113.899 59.7185L112.763 58.3757L109.534 52.9531L113.263 53.6209Z" fill="#252F3D"/>
<path d="M112.246 57.3792L112.716 57.3668C112.716 57.3668 115.588 54.5886 116.293 55.9942C116.997 57.3997 114.505 58.7106 114.505 58.7106L113.746 59.1222L112.752 59.4103L112.12 58.5645L112.246 57.3792Z" fill="#D8B98A"/>
<path opacity="0.1" d="M112.94 58.8797C112.983 59.0392 113.025 59.2152 112.952 59.3633C112.936 59.4033 112.905 59.4362 112.867 59.456C112.834 59.4695 112.798 59.4744 112.763 59.4704C112.515 59.4492 112.283 59.3348 112.116 59.1504C111.95 58.9672 111.809 58.7639 111.695 58.5453C111.567 58.3241 111.434 58.0772 111.48 57.8251C111.531 57.5493 111.778 57.3579 112.013 57.2077C112.49 56.8939 112.501 57.2592 112.609 57.6625L112.94 58.8797Z" fill="#1C2633"/>
<path d="M112.868 58.8797C112.911 59.0392 112.952 59.2152 112.88 59.3633C112.863 59.4033 112.833 59.4362 112.794 59.456C112.762 59.4695 112.726 59.4744 112.691 59.4704C112.442 59.4492 112.211 59.3348 112.043 59.1504C111.878 58.9672 111.737 58.7639 111.623 58.5453C111.495 58.3241 111.361 58.0772 111.408 57.8251C111.459 57.5493 111.705 57.3579 111.941 57.2077C112.417 56.8939 112.429 57.2592 112.537 57.6625L112.868 58.8797Z" fill="#2D3D52"/>
<path opacity="0.1" d="M114.233 52.7618L114.474 52.3574L114.263 53.1086L114.233 52.7618Z" fill="#1C2633"/>
<path opacity="0.1" d="M120.744 57.274L121.298 57.524L121.533 55.8324L120.999 55.5422C121.364 55.96 121.045 56.7358 120.744 57.274Z" fill="#1C2633"/>
<path opacity="0.1" d="M122.967 55.3107C122.967 55.3107 121.178 55.4188 120.42 54.9331L122.967 55.3107Z" fill="#1C2633"/>
<g opacity="0.1">
<path opacity="0.1" d="M122.744 56.4466C122.985 56.0181 123.288 55.627 123.643 55.286C123.728 55.2327 123.816 55.1846 123.907 55.1419L126.696 54.5719L126.858 54.5369C126.858 54.5369 126.882 49.1153 124.955 48.3714C123.874 47.961 122.861 47.3926 121.949 46.6849L122.161 46.6201C122.161 46.6201 123.317 47.6275 125.244 48.3693C127.171 49.1112 127.149 54.5369 127.149 54.5369H126.86L124.004 55.0812L123.843 55.2345C123.485 55.5911 123.178 55.9952 122.931 56.4353C122.554 57.1332 122.468 57.9509 122.692 58.7114H122.397C122.159 57.8532 122.404 57.0578 122.744 56.4466Z" fill="#1C2633"/>
<path opacity="0.1" d="M115.131 46.8781C115.177 46.872 115.222 46.8648 115.269 46.8596C115.465 46.8871 115.662 46.9033 115.859 46.908C115.616 46.9146 115.373 46.9047 115.131 46.8781Z" fill="#1C2633"/>
<path opacity="0.1" d="M119.22 47.4346L117.455 46.5487C117.492 46.52 117.526 46.4887 117.558 46.4551L119.399 47.3811L119.22 47.4346Z" fill="#1C2633"/>
</g>
<path d="M125.94 52.9531L127.121 54.3937L127.362 58.3037C127.362 58.3037 127.672 60.2947 125.387 59.8152C123.101 59.3357 120.448 57.8479 120.448 57.8479C120.448 57.8479 121.725 56.1439 121.027 55.4967L124.303 56.5524C124.303 56.5524 124.857 56.432 124.423 55.9525C123.989 55.473 123.912 54.6087 123.912 54.6087L125.94 52.9531Z" fill="#2D3D52"/>
<path opacity="0.1" d="M126.471 57.0801L127.122 57.823C126.954 57.772 126.805 57.6754 126.69 57.5441C126.575 57.4128 126.499 57.2521 126.471 57.0801Z" fill="#1C2633"/>
<path opacity="0.1" d="M125.363 56.9602L126.375 58.2557L125.869 58.376L125.363 56.9602Z" fill="#1C2633"/>
<path opacity="0.1" d="M115.274 41.0603C115.163 40.7897 115.248 40.4769 115.378 40.2165C115.508 39.9562 115.695 39.7195 115.791 39.4438C115.941 39.0322 115.894 38.5712 116.058 38.1658C116.344 37.4558 117.157 37.1369 117.886 36.8971C118.101 36.8261 118.33 36.7541 118.551 36.8066C118.843 36.8765 119.038 37.143 119.275 37.3211C120.264 38.0557 121.873 37.247 122.83 38.0249C123.196 38.3222 123.374 38.7997 123.429 39.2668C123.484 39.734 123.429 40.2083 123.424 40.6796C123.408 41.5027 123.562 42.4061 124.183 42.9525C124.37 43.1172 124.59 43.2417 124.772 43.4114C124.954 43.5812 125.097 43.823 125.065 44.0669C125.04 44.1802 125.005 44.2913 124.962 44.3992C124.838 44.8293 125.022 45.2852 125.246 45.6731C125.916 46.8255 127.094 47.7752 128.432 47.802C128.342 48.4739 127.642 48.8639 127.02 49.1396C126.228 49.4905 125.395 49.8352 124.529 49.791C123.663 49.7467 122.76 49.1952 122.607 48.3504C122.554 48.0592 122.561 47.7022 122.307 47.5489C122.154 47.4563 121.956 47.4799 121.79 47.41C121.552 47.3071 121.433 47.0457 121.354 46.7988C121.193 46.2912 121.106 45.763 121.097 45.2306C121.087 44.5999 121.171 43.9115 120.812 43.3919C120.479 42.9114 119.888 42.6716 119.505 42.2251C119.152 41.8135 118.766 41.3216 118.187 41.2434C117.408 41.1313 115.749 42.2168 115.274 41.0603Z" fill="#1C2633"/>
<path d="M115.274 40.9165C115.163 40.6459 115.248 40.3331 115.378 40.0727C115.508 39.8124 115.695 39.5757 115.791 39.3C115.941 38.8884 115.894 38.4274 116.058 38.022C116.344 37.312 117.157 36.9931 117.886 36.7533C118.101 36.6823 118.33 36.6103 118.551 36.6628C118.843 36.7327 119.038 36.9992 119.275 37.1773C120.264 37.913 121.873 37.1032 122.83 37.8811C123.196 38.1795 123.374 38.6559 123.429 39.123C123.484 39.5902 123.429 40.0645 123.424 40.5358C123.408 41.3589 123.562 42.2623 124.183 42.8087C124.37 42.9734 124.59 43.0979 124.772 43.2676C124.954 43.4374 125.097 43.6792 125.065 43.9231C125.04 44.0367 125.005 44.1481 124.962 44.2565C124.838 44.6855 125.022 45.1424 125.246 45.5293C125.916 46.6817 127.094 47.6314 128.432 47.6582C128.342 48.3301 127.642 48.7201 127.02 48.9958C126.228 49.3477 125.395 49.6914 124.529 49.6471C123.663 49.6029 122.76 49.0514 122.607 48.2015C122.554 47.9103 122.561 47.5532 122.307 47.3999C122.154 47.3073 121.956 47.331 121.79 47.261C121.552 47.1581 121.433 46.8968 121.354 46.6498C121.193 46.1422 121.106 45.614 121.097 45.0817C121.087 44.4509 121.171 43.7626 120.812 43.2429C120.479 42.7624 119.888 42.5227 119.505 42.0761C119.152 41.6645 118.766 41.1727 118.187 41.0945C117.408 40.9926 115.749 42.073 115.274 40.9165Z" fill="#1C2633"/>
<path opacity="0.1" d="M117.478 48.8687L119.259 47.4281C119.259 47.4281 118.04 46.7696 117.894 46.2078C117.748 45.646 116.773 46.4743 116.872 46.9785C116.971 47.4827 117.478 48.8687 117.478 48.8687Z" fill="#1C2633"/>
<path d="M117.55 48.6528L119.331 47.2123C119.331 47.2123 118.112 46.5538 117.966 45.992C117.821 45.4302 116.845 46.2585 116.945 46.7627C117.044 47.2668 117.55 48.6528 117.55 48.6528Z" fill="#2D3D52"/>
<path opacity="0.1" d="M119.4 48.559C119.478 48.559 119.542 48.4959 119.542 48.4181C119.542 48.3402 119.478 48.2771 119.4 48.2771C119.322 48.2771 119.259 48.3402 119.259 48.4181C119.259 48.4959 119.322 48.559 119.4 48.559Z" fill="#1C2633"/>
<path opacity="0.1" d="M119.4 49.3434C119.478 49.3434 119.542 49.2803 119.542 49.2025C119.542 49.1246 119.478 49.0615 119.4 49.0615C119.322 49.0615 119.259 49.1246 119.259 49.2025C119.259 49.2803 119.322 49.3434 119.4 49.3434Z" fill="#1C2633"/>
<path opacity="0.1" d="M119.4 50.1264C119.478 50.1264 119.542 50.0633 119.542 49.9854C119.542 49.9076 119.478 49.8445 119.4 49.8445C119.322 49.8445 119.259 49.9076 119.259 49.9854C119.259 50.0633 119.322 50.1264 119.4 50.1264Z" fill="#1C2633"/>
<g opacity="0.1">
<path opacity="0.1" d="M115.991 38.9171C116.131 38.5313 116.101 38.0991 116.232 37.7112C116.172 37.7972 116.122 37.8897 116.083 37.9869C115.919 38.3924 115.965 38.8554 115.816 39.2659C115.816 39.2731 115.809 39.2814 115.806 39.2896C115.879 39.1713 115.94 39.0466 115.991 38.9171Z" fill="#1C2633"/>
<path opacity="0.1" d="M127.23 48.6131C126.438 48.965 125.605 49.3087 124.738 49.2645C123.872 49.2202 122.971 48.6687 122.817 47.8188C122.764 47.5276 122.771 47.1705 122.517 47.0172C122.364 46.9246 122.166 46.9483 122.001 46.8783C121.761 46.7754 121.643 46.514 121.565 46.2671C121.403 45.7588 121.316 45.2299 121.307 44.6969C121.297 44.0661 121.381 43.3778 121.022 42.8581C120.69 42.3776 120.099 42.1379 119.715 41.6913C119.361 41.2797 118.977 40.7879 118.396 40.7097C117.601 40.6068 115.94 41.6872 115.467 40.5306C115.391 40.312 115.402 40.0728 115.497 39.8618C115.463 39.9194 115.43 39.9771 115.4 40.0357C115.266 40.296 115.181 40.6088 115.297 40.8795C115.771 42.036 117.43 40.9505 118.227 41.0585C118.806 41.1367 119.192 41.6316 119.546 42.0401C119.929 42.4826 120.519 42.7264 120.852 43.208C121.211 43.7225 121.128 44.416 121.138 45.0457C121.146 45.5784 121.233 46.107 121.394 46.6149C121.473 46.8608 121.591 47.1294 121.83 47.2261C121.995 47.295 122.194 47.2724 122.347 47.365C122.6 47.5173 122.594 47.8795 122.645 48.1655C122.799 49.0154 123.702 49.568 124.568 49.6122C125.434 49.6565 126.267 49.3118 127.059 48.9599C127.629 48.7078 128.264 48.3569 128.435 47.7827C128.158 48.1604 127.675 48.4166 127.23 48.6131Z" fill="#1C2633"/>
</g>
<path d="M30.7672 95.5652C28.6867 95.5652 27.0002 95.2797 27.0002 94.9275C27.0002 94.5753 28.6867 94.2898 30.7672 94.2898C32.8476 94.2898 34.5342 94.5753 34.5342 94.9275C34.5342 95.2797 32.8476 95.5652 30.7672 95.5652Z" fill="#374657"/>
<path d="M32.325 93.8849C32.4972 93.7451 32.6227 93.556 32.6847 93.3429C32.7306 93.1272 32.6388 92.8693 32.4336 92.7905C32.2032 92.7024 31.9568 92.8618 31.7704 93.0231C31.5839 93.1844 31.3694 93.3691 31.1249 93.3354C31.2506 93.2212 31.3447 93.0764 31.3979 92.915C31.4511 92.7536 31.4616 92.5812 31.4284 92.4145C31.4183 92.3453 31.3891 92.2804 31.3441 92.2269C31.2167 92.09 30.9844 92.1491 30.8307 92.2569C30.3445 92.6002 30.2077 93.2622 30.2059 93.8587C30.1562 93.643 30.1974 93.4198 30.1965 93.2022C30.1955 92.9847 30.1347 92.7333 29.9492 92.6189C29.8346 92.5554 29.7054 92.5231 29.5744 92.5251C29.3552 92.5176 29.1116 92.5392 28.9617 92.6996C28.7744 92.8984 28.824 93.2332 28.9861 93.4498C29.1482 93.6664 29.3936 93.8061 29.6194 93.9581C29.8013 94.066 29.9563 94.2138 30.0728 94.3904C30.0865 94.4149 30.0978 94.4406 30.1065 94.4673H31.4753C31.7836 94.3128 32.0695 94.1169 32.325 93.8849Z" fill="url(#paint14_linear)"/>
<path d="M82.0056 86.2609C83.412 86.2609 84.5521 86.0679 84.5521 85.8298C84.5521 85.5917 83.412 85.3987 82.0056 85.3987C80.5991 85.3987 79.459 85.5917 79.459 85.8298C79.459 86.0679 80.5991 86.2609 82.0056 86.2609Z" fill="#374657"/>
<path d="M80.9512 85.1249C80.8348 85.0304 80.75 84.9025 80.708 84.7585C80.677 84.6127 80.7391 84.4383 80.8778 84.3851C81.0335 84.3255 81.2001 84.4333 81.3261 84.5423C81.4522 84.6513 81.5972 84.7762 81.7625 84.7534C81.6775 84.6762 81.6139 84.5783 81.5779 84.4692C81.542 84.3601 81.5349 84.2435 81.5573 84.1309C81.5641 84.0841 81.5839 84.0402 81.6143 84.0041C81.7004 83.9115 81.8575 83.9515 81.9613 84.0244C82.29 84.2564 82.3825 84.7039 82.3837 85.1071C82.4173 84.9613 82.3894 84.8104 82.3901 84.6634C82.3907 84.5163 82.4319 84.3464 82.5573 84.2691C82.6347 84.2261 82.7221 84.2043 82.8106 84.2057C82.9588 84.2006 83.1234 84.2152 83.2248 84.3236C83.3514 84.458 83.3179 84.6843 83.2083 84.8307C83.0987 84.9772 82.9328 85.0716 82.7802 85.1743C82.6572 85.2473 82.5524 85.3472 82.4737 85.4666C82.4644 85.4831 82.4568 85.5005 82.4509 85.5186H81.5256C81.3171 85.4141 81.1239 85.2817 80.9512 85.1249Z" fill="url(#paint15_linear)"/>
<path d="M137.188 97.9774C135.635 97.9774 134.376 97.7643 134.376 97.5014C134.376 97.2385 135.635 97.0254 137.188 97.0254C138.741 97.0254 140 97.2385 140 97.5014C140 97.7643 138.741 97.9774 137.188 97.9774Z" fill="#374657"/>
<path d="M138.35 96.7231C138.478 96.6187 138.572 96.4776 138.618 96.3185C138.653 96.1575 138.584 95.965 138.431 95.9062C138.259 95.8404 138.075 95.9594 137.936 96.0798C137.797 96.2002 137.637 96.3381 137.454 96.3129C137.548 96.2277 137.618 96.1196 137.658 95.9991C137.697 95.8786 137.705 95.7499 137.681 95.6255C137.673 95.5739 137.651 95.5254 137.618 95.4855C137.523 95.3833 137.349 95.4274 137.234 95.5079C136.872 95.7641 136.769 96.2583 136.768 96.7035C136.731 96.5425 136.762 96.3759 136.761 96.2135C136.76 96.0511 136.715 95.8635 136.576 95.7781C136.491 95.7307 136.394 95.7066 136.297 95.7081C136.133 95.7025 135.951 95.7186 135.839 95.8383C135.7 95.9867 135.737 96.2366 135.858 96.3983C135.979 96.56 136.162 96.6643 136.33 96.7777C136.466 96.8582 136.582 96.9686 136.669 97.1004C136.679 97.1187 136.687 97.1379 136.694 97.1578H137.716C137.946 97.0425 138.159 96.8962 138.35 96.7231Z" fill="url(#paint16_linear)"/>
<defs>
<linearGradient id="paint0_linear" x1="36.2282" y1="208.997" x2="-32.0562" y2="-18.1356" gradientUnits="userSpaceOnUse">
<stop stop-color="#53616D"/>
<stop offset="1" stop-color="#2D3D52"/>
</linearGradient>
<linearGradient id="paint1_linear" x1="75.1371" y1="16.4927" x2="75.1371" y2="24.7321" gradientUnits="userSpaceOnUse">
<stop stop-color="#8DC63F"/>
<stop offset="1" stop-color="#A4E846"/>
</linearGradient>
<linearGradient id="paint2_linear" x1="95.0487" y1="16.4927" x2="95.0487" y2="18.8429" gradientUnits="userSpaceOnUse">
<stop stop-color="#8DC63F"/>
<stop offset="1" stop-color="#A4E846"/>
</linearGradient>
<linearGradient id="paint3_linear" x1="95.0487" y1="22.4895" x2="95.0487" y2="24.8397" gradientUnits="userSpaceOnUse">
<stop stop-color="#8DC63F"/>
<stop offset="1" stop-color="#A4E846"/>
</linearGradient>
<linearGradient id="paint4_linear" x1="90.2427" y1="28.4832" x2="90.2427" y2="30.8334" gradientUnits="userSpaceOnUse">
<stop stop-color="#8DC63F"/>
<stop offset="1" stop-color="#A4E846"/>
</linearGradient>
<linearGradient id="paint5_linear" x1="82.0498" y1="34.4773" x2="82.0498" y2="36.8275" gradientUnits="userSpaceOnUse">
<stop stop-color="#8DC63F"/>
<stop offset="1" stop-color="#A4E846"/>
</linearGradient>
<linearGradient id="paint6_linear" x1="86.8238" y1="68.0071" x2="86.8238" y2="69.0582" gradientUnits="userSpaceOnUse">
<stop stop-color="#8DC63F"/>
<stop offset="1" stop-color="#A4E846"/>
</linearGradient>
<linearGradient id="paint7_linear" x1="86.8238" y1="70.6892" x2="86.8238" y2="71.7403" gradientUnits="userSpaceOnUse">
<stop stop-color="#8DC63F"/>
<stop offset="1" stop-color="#A4E846"/>
</linearGradient>
<linearGradient id="paint8_linear" x1="86.8238" y1="73.3701" x2="86.8238" y2="74.4212" gradientUnits="userSpaceOnUse">
<stop stop-color="#8DC63F"/>
<stop offset="1" stop-color="#A4E846"/>
</linearGradient>
<linearGradient id="paint9_linear" x1="82.5959" y1="76.0508" x2="82.5959" y2="77.1019" gradientUnits="userSpaceOnUse">
<stop stop-color="#8DC63F"/>
<stop offset="1" stop-color="#A4E846"/>
</linearGradient>
<linearGradient id="paint10_linear" x1="74.5401" y1="47.8855" x2="74.5401" y2="49.2883" gradientUnits="userSpaceOnUse">
<stop stop-color="#8DC63F"/>
<stop offset="1" stop-color="#A4E846"/>
</linearGradient>
<linearGradient id="paint11_linear" x1="74.5401" y1="51.4641" x2="74.5401" y2="52.8669" gradientUnits="userSpaceOnUse">
<stop stop-color="#8DC63F"/>
<stop offset="1" stop-color="#A4E846"/>
</linearGradient>
<linearGradient id="paint12_linear" x1="74.5401" y1="55.0422" x2="74.5401" y2="56.4451" gradientUnits="userSpaceOnUse">
<stop stop-color="#8DC63F"/>
<stop offset="1" stop-color="#A4E846"/>
</linearGradient>
<linearGradient id="paint13_linear" x1="68.8975" y1="58.6194" x2="68.8975" y2="60.0222" gradientUnits="userSpaceOnUse">
<stop stop-color="#8DC63F"/>
<stop offset="1" stop-color="#A4E846"/>
</linearGradient>
<linearGradient id="paint14_linear" x1="30.7689" y1="92.1472" x2="30.7689" y2="94.4673" gradientUnits="userSpaceOnUse">
<stop stop-color="#8DC63F"/>
<stop offset="1" stop-color="#A4E846"/>
</linearGradient>
<linearGradient id="paint15_linear" x1="82.0031" y1="83.9502" x2="82.0031" y2="85.5186" gradientUnits="userSpaceOnUse">
<stop stop-color="#8DC63F"/>
<stop offset="1" stop-color="#A4E846"/>
</linearGradient>
<linearGradient id="paint16_linear" x1="137.188" y1="95.426" x2="137.188" y2="97.1578" gradientUnits="userSpaceOnUse">
<stop stop-color="#8DC63F"/>
<stop offset="1" stop-color="#A4E846"/>
</linearGradient>
</defs>
</svg>
