<svg width="167" height="131" viewBox="0 0 167 131" fill="none" xmlns="http://www.w3.org/2000/svg">
<path d="M70.8416 120.578C65.8683 113.823 62.8146 105.628 56.5911 99.9047C50.5069 94.3075 42.1825 91.7993 34.3926 88.7869C22.4753 84.2073 10.5581 77.6195 4.32055 66.7673C-4.4036 51.6059 0.820663 31.383 13.3979 19.0179C25.9752 6.65275 44.3345 1.19966 62.2243 0.200012C80.1142 -0.799652 97.9483 2.1633 115.731 4.32021C131.948 6.28801 150.065 8.48546 160.351 20.8056C163.523 24.6922 165.648 29.2819 166.534 34.1617C167.42 39.0414 167.039 44.058 165.427 48.76C162.908 55.8612 157.716 61.715 153.598 68.0777C148.02 76.7189 144.367 86.3778 140.077 95.6899C135.787 105.002 130.66 114.229 122.815 121.028C109.429 132.614 82.2429 136.1 70.8416 120.578Z" fill="url(#paint0_linear)"/>
<path d="M82.3684 93.5549C87.0824 93.5549 90.9038 92.6961 90.9038 91.6367C90.9038 90.5773 87.0824 89.7185 82.3684 89.7185C77.6544 89.7185 73.833 90.5773 73.833 91.6367C73.833 92.6961 77.6544 93.5549 82.3684 93.5549Z" fill="#374657"/>
<path d="M102.202 98.994C110.706 98.994 117.601 98.4276 117.601 97.7288C117.601 97.0301 110.706 96.4636 102.202 96.4636C93.6978 96.4636 86.8037 97.0301 86.8037 97.7288C86.8037 98.4276 93.6978 98.994 102.202 98.994Z" fill="#374657"/>
<path d="M63.8529 88.1267C70.2518 88.1267 75.4391 87.2679 75.4391 86.2085C75.4391 85.1491 70.2518 84.2903 63.8529 84.2903C57.454 84.2903 52.2666 85.1491 52.2666 86.2085C52.2666 87.2679 57.454 88.1267 63.8529 88.1267Z" fill="#374657"/>
<path d="M72.511 40.5741C72.2659 38.9228 70.7672 35.0693 70.7672 35.0693C70.7411 34.9557 70.7116 34.8421 70.6787 34.7286C69.6156 31.0716 68.144 30.7536 68.144 30.7536L62.8728 29.6178C62.917 29.6455 62.9555 29.6813 62.9862 29.7235C62.9584 29.726 62.9308 29.7302 62.9034 29.736C62.6621 29.4507 62.5025 29.1053 62.4417 28.7365C62.4314 28.682 62.4224 28.623 62.4156 28.5673C62.7941 28.1979 63.0894 27.7518 63.2816 27.2587C63.4738 26.7657 63.5585 26.2373 63.5299 25.7089C63.5013 25.1804 63.3602 24.6642 63.1159 24.1949C62.8717 23.7255 62.53 23.3139 62.1138 22.9875C62.0582 22.9444 62.0003 22.9024 61.9447 22.8626C62.1932 22.598 62.2011 22.23 62.0151 21.862C61.5998 20.9989 60.6967 20.4526 59.7686 20.1857C59.0595 19.9824 58.2937 19.9166 57.5879 20.1392C57.1874 20.2664 56.8221 20.4799 56.4466 20.6695C55.7465 21.0193 54.9716 21.2965 54.4486 21.8723C54.3261 22.0063 54.2126 22.1778 54.2489 22.3549C54.2761 22.4867 54.3805 22.5889 54.4475 22.7059C54.5983 22.9682 54.5609 23.2987 54.4577 23.5849C54.3544 23.8711 54.2035 24.1369 54.132 24.4299C54.0606 24.7229 54.0878 25.0682 54.3079 25.2783C54.4134 25.3598 54.5233 25.4356 54.6369 25.5054C54.7574 25.6082 54.8631 25.727 54.9512 25.8586C55.16 26.1388 55.368 26.42 55.5752 26.7025C55.8678 27.0768 56.1293 27.4745 56.3569 27.8916C56.5124 28.1982 56.6326 28.5253 56.8403 28.8001C56.9011 28.8804 56.9708 28.9535 57.0479 29.0182L56.9866 28.9943C57.0768 29.0862 57.1849 29.1587 57.3041 29.2074C57.4233 29.256 57.5512 29.2797 57.6798 29.2771C57.6912 29.2771 57.7014 29.2771 57.7116 29.2771C57.759 29.2761 57.8043 29.2575 57.8387 29.2249C57.8387 29.2635 57.8387 29.3021 57.8387 29.3385C57.8512 29.7439 57.8489 30.1755 57.8205 30.5809L57.7717 30.5559C57.6994 30.5199 57.6183 30.5053 57.5379 30.5137C57.4575 30.5222 57.3812 30.5534 57.3179 30.6036L52.4654 34.5014C52.4654 34.5014 51.4102 35.946 51.5577 38.4401L50.7068 42.18C50.7068 42.18 49.6437 45.3532 50.4617 47.6189C51.2797 49.8847 51.754 51.1805 51.754 51.1805C51.754 51.1805 52.0807 53.7552 52.572 53.9653C53.0633 54.1754 53.2754 54.289 53.2754 54.289L53.373 54.9045C53.373 54.9045 53.4059 54.9647 53.4638 55.0658C53.8212 55.6882 55.1452 57.8846 55.9145 57.6496C56.0113 58.246 56.0531 58.8501 56.0393 59.4542L56.8006 64.5706C56.8006 64.5706 57.3315 65.9618 57.2986 66.691C57.2657 67.4201 57.9181 68.4593 57.9181 68.4593C57.5218 69.1856 57.4055 70.0322 57.5914 70.8386C57.9022 72.2015 58.2948 78.4797 58.2948 78.4797L58.8621 80.0015L58.8462 81.7858C58.7996 82.0767 58.6784 82.3507 58.4945 82.5808C58.1269 82.9805 58.1541 83.4428 57.268 83.989C56.3819 84.5353 55.8203 84.742 55.8203 85.4655C55.8192 85.5664 55.8101 85.667 55.7931 85.7664C55.7114 86.298 55.5525 86.5864 57.1818 86.7409C59.0958 86.9226 60.3722 85.6733 60.3722 85.6733C60.3722 85.6733 60.6536 85.1622 61.9787 84.9555C61.9787 84.9555 62.4326 84.9317 62.4564 84.5308C62.4655 84.3922 62.4632 84.1276 62.4564 83.8357C62.4348 83.2804 62.3815 82.6319 62.3112 82.6001C62.2227 82.5603 62.0684 82.0015 62.0151 81.7994H62.3838C62.3838 81.7994 62.7242 79.2247 62.3838 77.5575C62.0434 75.8903 62.3509 74.708 62.3509 74.708L62.2851 70.3048C62.2851 70.3048 61.8313 69.8187 62.1875 68.9601C62.5438 68.1015 62.1875 63.8608 62.1875 63.8608C62.1875 63.8608 62.3191 62.3389 62.6947 61.9823C63.0702 61.6257 62.7128 59.7529 62.6947 59.6552L63.3641 61.9028C63.3641 61.9028 63.6579 66.3707 64.2808 67.1793L64.4601 69.2032C64.4601 69.2032 65.7353 71.0658 65.4903 72.0686C65.2452 73.0714 65.7523 76.6989 65.7523 76.6989V80.407C65.7523 80.407 65.1794 81.8959 65.9793 82.4308L66.3196 82.4172C66.2062 82.5228 66.1188 82.6818 65.9861 82.8193C65.8329 82.9771 65.7455 83.5779 65.6967 84.0947C65.6559 84.5319 65.6423 84.9078 65.6423 84.9078C65.6423 84.9078 65.9827 85.453 66.6237 85.4905C67.2647 85.5279 69.3773 87.1361 69.3773 87.1361C69.3773 87.1361 71.4638 87.1361 72.0038 87.0225L72.0356 87.0146C72.209 86.96 72.3548 86.8409 72.4429 86.6818C72.5511 86.4973 72.5859 86.2787 72.5405 86.0697C72.4736 85.7505 72.2205 85.4007 71.6601 85.1032C70.2657 84.3672 70.058 83.6779 70.058 83.6779L69.1424 82.3025H69.2729C69.2729 82.3025 69.1924 80.8454 70.1885 79.2099L70.1239 72.0061C70.1239 72.0061 70.5323 69.5291 69.83 68.1844C69.83 68.1844 69.7721 66.7603 70.2418 66.323C70.7116 65.8858 69.6167 61.4667 69.6167 61.4667C69.6167 61.4667 69.3898 59.0942 69.1232 56.9295C70.2271 57.9778 71.3719 54.2038 71.5648 53.5326H71.5931L71.5806 53.4838C71.5886 53.452 71.5931 53.4361 71.5931 53.4361C71.5931 53.4361 71.3481 52.5638 71.5273 52.741C71.7066 52.9182 72.1491 52.2549 72.1491 52.2549C72.1491 52.2549 72.0833 48.6445 72.8525 46.8251C73.6217 45.0056 72.511 40.5741 72.511 40.5741ZM69.2207 42.8716L69.2264 42.8614C69.3399 45.0658 69.2048 49.77 69.2048 49.77C69.2048 49.77 69.0528 50.373 68.8906 51.0828L68.7771 46.6138L68.6637 42.4037L69.2207 42.8716ZM55.1395 41.352C55.1395 41.352 55.6955 48.3128 55.1395 49.3168C54.9818 49.603 54.8491 50.1118 54.739 50.6922C54.5552 50.2095 54.1661 49.076 54.3056 48.4753C54.486 47.6984 53.946 45.6575 53.946 45.6098C53.946 45.5621 53.8972 44.4741 54.2863 43.6428C54.6755 42.8114 54.4202 42.4514 54.4202 42.4514C54.4202 42.4514 54.747 41.0886 55.1395 41.352Z" fill="#252F3D"/>
<path d="M56.4942 57.0294C56.0097 59.1612 54.0832 55.938 53.6442 55.1646C53.5874 55.0635 53.5557 55.0045 53.5557 55.0045L53.7644 54.0244L54.8684 53.5701C55.0432 53.6615 55.2088 53.7695 55.363 53.8926C55.9677 54.3685 56.8674 55.3781 56.4942 57.0294Z" fill="#D8B98A"/>
<path d="M71.4406 53.5414C71.4406 53.5414 71.4406 53.5573 71.4281 53.5891C71.4281 53.6027 71.419 53.6209 71.4133 53.6402C71.2238 54.3057 70.1006 58.0525 69.016 57.0122C67.8292 55.8764 68.4056 53.2507 68.4056 53.2507H68.4135L70.9096 52.9951L71.4042 53.5039L71.4406 53.5414Z" fill="#D8B98A"/>
<path d="M69.9965 71.9801L70.06 79.135C69.0809 80.7591 69.1614 82.2015 69.1614 82.2015L65.9347 82.3287C65.1473 81.7983 65.7078 80.3207 65.7078 80.3207V76.6365C65.7078 76.6365 65.2097 73.0374 65.4502 72.0402C65.6908 71.0431 64.4393 69.201 64.4393 69.201L64.2623 67.1919C63.6519 66.3889 63.3626 61.954 63.3626 61.954L62.708 59.7143C62.7261 59.8109 63.0665 61.6803 62.708 62.0244C62.3494 62.3685 62.2099 63.8881 62.2099 63.8881C62.2099 63.8881 62.5627 68.0993 62.2099 68.95C61.857 69.8006 62.3052 70.2844 62.3052 70.2844L62.3699 74.6558C62.3699 74.6558 62.0647 75.829 62.4016 77.4837C62.7386 79.1385 62.4016 81.6949 62.4016 81.6949H58.94L58.9559 79.9107L58.3955 78.4002C58.3955 78.4002 58.0097 72.1652 57.7045 70.8148C57.5218 70.0146 57.6355 69.1752 58.0244 68.4525C58.0244 68.4525 57.3834 67.4247 57.4152 66.7013C57.4469 65.9778 56.9205 64.5979 56.9205 64.5979L56.174 59.5201C56.1945 58.5429 56.0699 57.568 55.8041 56.6275C55.3707 55.1806 54.7285 53.2839 54.7285 53.2839L55.4535 53.3487L59.1114 53.6746C59.1114 53.6746 68.0053 53.0761 68.4035 53.5735C68.4875 53.7362 68.5442 53.9115 68.5714 54.0926C68.9708 55.8881 69.4984 61.5133 69.4984 61.5133C69.4984 61.5133 70.5739 65.9006 70.1122 66.3344C69.6504 66.7683 69.7071 68.1811 69.7071 68.1811C70.3992 69.5156 69.9965 71.9801 69.9965 71.9801Z" fill="#2D3D52"/>
<path d="M62.4772 84.4083C62.4522 84.8069 62.0086 84.8308 62.0086 84.8308C60.7084 85.0352 60.4316 85.5417 60.4316 85.5417C60.4316 85.5417 59.1835 86.7831 57.3013 86.6025C55.7015 86.448 55.857 86.1629 55.9398 85.6348C55.9559 85.5364 55.9646 85.437 55.9659 85.3373C55.9659 84.6138 56.5196 84.4083 57.3864 83.8609C58.2532 83.3134 58.2294 82.8603 58.5902 82.4628C58.951 82.0653 58.9884 81.2941 58.9884 81.2941C59.3968 80.5821 60.4327 81.4077 60.4327 81.4077C60.4815 81.6598 62.0211 81.6246 62.0211 81.6246C62.0211 81.6246 62.2253 82.4446 62.3308 82.4923C62.4001 82.5241 62.4522 83.1669 62.4727 83.7189C62.484 84.0085 62.4863 84.2708 62.4772 84.4083Z" fill="#1C2633"/>
<path opacity="0.1" d="M62.4772 84.4083C62.4523 84.8069 62.0086 84.8308 62.0086 84.8308C60.7084 85.0352 60.4316 85.5417 60.4316 85.5417C60.4316 85.5417 59.1835 86.783 57.3013 86.6025C55.7015 86.448 55.857 86.163 55.9398 85.6348C56.6546 85.812 58.0206 86.0596 58.8182 85.6258C59.9267 85.0238 60.722 84.6036 60.722 84.6036L62.4738 83.7212C62.484 84.0085 62.4863 84.2709 62.4772 84.4083Z" fill="black"/>
<path d="M72.2772 86.5535C72.1919 86.7113 72.0487 86.8297 71.8779 86.884L71.8472 86.8919C71.3174 87.0055 69.2695 87.0055 69.2695 87.0055C69.2695 87.0055 67.1989 85.403 66.5726 85.3667C65.9463 85.3303 65.6094 84.7875 65.6094 84.7875C65.6094 84.7875 65.6219 84.4149 65.6616 83.9811C65.7103 83.4678 65.7954 82.8715 65.9463 82.7148C66.2232 82.4252 66.2867 82.0334 66.9096 82.2809C66.9096 82.2809 67.7991 80.7114 68.8474 81.9243L69.9321 83.5711C69.9321 83.5711 70.1363 84.2525 71.5103 84.9919C72.0594 85.2872 72.3045 85.6347 72.3737 85.9516C72.4174 86.1572 72.383 86.3718 72.2772 86.5535Z" fill="#1C2633"/>
<path opacity="0.1" d="M72.2772 86.5534C72.1547 86.6567 72.0197 86.768 71.8779 86.8838L71.8472 86.8918C71.3174 87.0054 69.2695 87.0054 69.2695 87.0054C69.2695 87.0054 67.1989 85.4029 66.5726 85.3665C65.9463 85.3302 65.6094 84.7873 65.6094 84.7873C65.6094 84.7873 65.6219 84.4148 65.6616 83.981C66.2992 84.1718 67.2647 84.5091 67.5234 84.8725C67.9205 85.4256 69.1265 86.1979 69.1265 86.1979C69.1265 86.1979 71.3753 85.981 72.3737 85.9514C72.4174 86.1571 72.383 86.3717 72.2772 86.5534Z" fill="black"/>
<path d="M63.5253 30.4731L60.5641 33.6065C60.5641 33.6065 56.9754 33.3419 57.6017 32.2811C57.9205 31.7405 57.9704 30.6094 57.9421 29.6258C57.916 28.6775 57.8184 27.87 57.8184 27.87C57.8184 27.87 62.8514 25.3624 62.4701 27.7008C62.388 28.1414 62.3834 28.593 62.4565 29.0353C62.671 30.2164 63.5253 30.4731 63.5253 30.4731Z" fill="#D8B98A"/>
<path opacity="0.1" d="M62.4656 27.7008C62.3834 28.1414 62.3788 28.593 62.452 29.0352C62.1077 29.3844 61.6975 29.6616 61.2452 29.8505C60.7929 30.0394 60.3076 30.1364 59.8175 30.1357C59.1367 30.1357 58.4004 29.5758 57.8501 29.2522C57.824 28.3027 57.8184 27.87 57.8184 27.87C57.8184 27.87 62.8513 25.3624 62.4656 27.7008Z" fill="black"/>
<path d="M63.5253 26.2301C63.5256 27.0713 63.2405 27.8877 62.7167 28.5455C62.193 29.2033 61.4616 29.6635 60.6423 29.8508C59.8231 30.0382 58.9646 29.9415 58.2074 29.5766C57.4503 29.2117 56.8394 28.6002 56.4748 27.8424C56.1101 27.0845 56.0134 26.2251 56.2005 25.4051C56.3875 24.585 56.8472 23.8528 57.5043 23.3284C58.1614 22.8041 58.9769 22.5186 59.8172 22.5188C60.6575 22.519 61.4729 22.8048 62.1297 23.3295C62.5649 23.6771 62.9163 24.1184 63.1579 24.6205C63.3995 25.1227 63.5251 25.6728 63.5253 26.2301Z" fill="#D8B98A"/>
<path opacity="0.1" d="M68.5714 54.0924C67.6478 56.2922 61.7072 56.3377 61.7072 56.3377V53.939L61.3475 53.9152C61.503 54.6023 61.1297 56.2775 61.1297 56.2775C56.4348 56.9407 55.29 54.2627 55.29 54.2627L55.4534 53.3462L59.1113 53.6721C59.1113 53.6721 68.0052 53.0736 68.4034 53.5711C68.4877 53.7344 68.5444 53.9105 68.5714 54.0924Z" fill="black"/>
<path d="M61.7072 56.0482V53.6495L61.3475 53.6268C61.503 54.3083 61.1297 55.9891 61.1297 55.9891C57.5966 56.4877 56.074 55.0953 55.5374 54.3753C55.4409 54.2512 55.358 54.1172 55.29 53.9755L56.7241 45.9006L57.0645 34.0165L57.5785 31.9313L57.6976 30.9307V30.9194H57.7101L58.0754 31.0761L60.2617 32.0221L62.7453 30.1448L62.7816 30.1187L62.9053 30.0244L63.1106 30.1891L63.6212 30.5991L65.2584 41.1828C65.2584 41.1828 68.0948 49.3316 68.6258 52.6206C68.6473 52.7523 68.6644 52.875 68.678 52.9897C69.0286 55.9925 61.7072 56.0482 61.7072 56.0482Z" fill="url(#paint1_linear)"/>
<path d="M60.5274 32.4674C60.644 32.4674 60.7385 32.3728 60.7385 32.2562C60.7385 32.1395 60.644 32.0449 60.5274 32.0449C60.4109 32.0449 60.3164 32.1395 60.3164 32.2562C60.3164 32.3728 60.4109 32.4674 60.5274 32.4674Z" fill="#2D3D52"/>
<path d="M60.6241 34.3956C60.7407 34.3956 60.8351 34.3011 60.8351 34.1844C60.8351 34.0677 60.7407 33.9731 60.6241 33.9731C60.5076 33.9731 60.4131 34.0677 60.4131 34.1844C60.4131 34.3011 60.5076 34.3956 60.6241 34.3956Z" fill="#2D3D52"/>
<path d="M60.836 37.5182C60.9526 37.5182 61.0471 37.4236 61.0471 37.3069C61.0471 37.1903 60.9526 37.0957 60.836 37.0957C60.7195 37.0957 60.625 37.1903 60.625 37.3069C60.625 37.4236 60.7195 37.5182 60.836 37.5182Z" fill="#2D3D52"/>
<path d="M61.1837 40.8807C61.3002 40.8807 61.3947 40.7862 61.3947 40.6695C61.3947 40.5528 61.3002 40.4583 61.1837 40.4583C61.0671 40.4583 60.9727 40.5528 60.9727 40.6695C60.9727 40.7862 61.0671 40.8807 61.1837 40.8807Z" fill="#2D3D52"/>
<path d="M61.3956 44.038C61.5121 44.038 61.6066 43.9434 61.6066 43.8267C61.6066 43.7101 61.5121 43.6155 61.3956 43.6155C61.2791 43.6155 61.1846 43.7101 61.1846 43.8267C61.1846 43.9434 61.2791 44.038 61.3956 44.038Z" fill="#2D3D52"/>
<path d="M61.6056 47.401C61.7221 47.401 61.8166 47.3064 61.8166 47.1898C61.8166 47.0731 61.7221 46.9785 61.6056 46.9785C61.489 46.9785 61.3945 47.0731 61.3945 47.1898C61.3945 47.3064 61.489 47.401 61.6056 47.401Z" fill="#2D3D52"/>
<path d="M61.5216 50.7274C61.6381 50.7274 61.7326 50.6328 61.7326 50.5162C61.7326 50.3995 61.6381 50.3049 61.5216 50.3049C61.405 50.3049 61.3105 50.3995 61.3105 50.5162C61.3105 50.6328 61.405 50.7274 61.5216 50.7274Z" fill="#2D3D52"/>
<path opacity="0.1" d="M57.8375 47.075C57.8375 47.075 57.6015 50.1676 57.1681 51.0671C56.7347 51.9666 56.5418 54.4901 56.5418 54.4901L55.5354 54.3765C55.4389 54.2525 55.356 54.1185 55.2881 53.9768L56.7222 45.9018L57.0626 34.0177L57.5777 31.9314L57.6968 30.9309L57.7104 30.9252C57.7666 30.8986 57.8282 30.8853 57.8903 30.8863C57.9525 30.8873 58.0136 30.9025 58.0689 30.9309L58.1166 30.9559C58.1022 30.9967 58.0886 31.0388 58.0757 31.0819C57.6832 32.3119 57.5368 34.5788 57.5368 34.5788C57.5368 34.5788 58.1041 38.7253 58.1631 40.6537C58.2221 42.5822 57.8375 47.075 57.8375 47.075Z" fill="black"/>
<path opacity="0.1" d="M55.363 53.896C55.352 53.9219 55.3391 53.947 55.3244 53.971C54.9341 54.6308 53.9448 55.0499 53.6442 55.1646C53.5874 55.0635 53.5557 55.0045 53.5557 55.0045L53.7644 54.0244L54.8683 53.5701C55.0433 53.6626 55.2089 53.7717 55.363 53.896Z" fill="black"/>
<path d="M52.6888 38.114L51.7732 38.6603L50.9393 42.3729C50.9393 42.3729 49.8955 45.5223 50.6976 47.7721C51.4998 50.022 51.9661 51.3099 51.9661 51.3099C51.9661 51.3099 52.2872 53.8653 52.7693 54.0742C53.2515 54.2832 53.4592 54.3956 53.4592 54.3956L53.5556 55.0067C53.5556 55.0067 54.8626 54.5626 55.3244 53.7801C55.7862 52.9976 54.984 51.0544 54.984 51.0544C54.984 51.0544 54.2942 49.3985 54.4712 48.6273C54.6482 47.8562 54.1172 45.8312 54.1172 45.788C54.1172 45.7449 54.0696 44.6626 54.4576 43.8346C54.8456 43.0067 54.5869 42.6535 54.5869 42.6535L54.3453 40.2912L52.6888 38.114Z" fill="#2D3D52"/>
<path opacity="0.1" d="M68.6466 53.3973C68.6466 53.3973 66.222 54.3127 65.4516 53.5109C64.6813 52.7091 64.7607 48.9465 64.7607 48.9465C64.7607 48.9465 64.0232 42.0038 63.5569 40.8636C63.0906 39.7233 63.33 31.494 63.33 31.494C63.33 31.494 63.0168 30.4298 62.7434 30.1515C62.7261 30.1337 62.7067 30.118 62.6855 30.105L62.7797 30.1254L63.1087 30.1958L63.6193 30.6058L65.2565 41.1895C65.2565 41.1895 68.0929 49.3383 68.6239 52.6273L68.6466 53.3973Z" fill="black"/>
<path opacity="0.1" d="M71.4396 53.638H71.4124C71.1072 53.6778 68.4137 54.0037 68.4024 53.4427C68.402 53.3778 68.4054 53.3129 68.4126 53.2485L70.9087 52.9929L71.4033 53.5017C71.4124 53.5347 71.4192 53.563 71.426 53.5858L71.4396 53.638Z" fill="black"/>
<path d="M68.8552 34.396L70.6251 35.3205C70.6251 35.3205 72.1001 39.1433 72.3361 40.7821C72.3361 40.7821 73.4287 45.1728 72.6765 46.9786C71.9242 48.7843 71.9866 52.3687 71.9866 52.3687C71.9866 52.3687 71.5532 53.0274 71.3762 52.8513C71.1992 52.6753 71.4409 53.5418 71.4409 53.5418C71.4409 53.5418 68.415 53.9439 68.4025 53.3488C68.39 52.7537 69.0969 49.9098 69.0969 49.9098C69.0969 49.9098 69.2897 43.1444 69.0163 42.0836C68.7429 41.0229 68.8552 34.396 68.8552 34.396Z" fill="#2D3D52"/>
<path opacity="0.1" d="M63.5738 41.6018C63.5738 41.6018 62.5777 44.0436 62.2566 44.2049C61.9355 44.3661 62.3212 45.0078 62.3212 45.0078C62.3212 45.0078 64.1354 42.4695 63.5738 41.6018Z" fill="black"/>
<path opacity="0.1" d="M62.9797 33.0362C62.991 32.9896 61.7918 34.214 61.4707 34.3991C61.1496 34.5842 62.6427 34.3877 62.9797 33.0362Z" fill="black"/>
<path opacity="0.1" d="M59.6407 41.4087C59.6407 41.4087 57.8106 42.5932 58.0523 43.0623C58.2939 43.5313 59.6407 41.4087 59.6407 41.4087Z" fill="black"/>
<path opacity="0.1" d="M62.9639 58.7C62.9639 58.7 64.5216 59.7028 66.9451 59.9492L62.9639 58.7Z" fill="black"/>
<path opacity="0.1" d="M59.2236 61.1111C59.2236 61.1111 60.6679 62.9282 61.3271 62.9748C61.9863 63.0214 59.2236 61.1111 59.2236 61.1111Z" fill="black"/>
<path opacity="0.1" d="M61.2466 68.2319C61.1819 68.2637 60.4274 69.8707 59.6582 69.9196C58.8889 69.9684 61.2466 68.2319 61.2466 68.2319Z" fill="black"/>
<path opacity="0.1" d="M67.9404 71.7527C67.9404 71.7527 69.3723 71.4313 69.6911 72.459C69.6911 72.4556 69.5946 72.1342 67.9404 71.7527Z" fill="black"/>
<path opacity="0.1" d="M66.9766 77.6315C66.9766 77.6315 68.7113 77.2771 69.0801 77.7598C69.4488 78.2425 66.9766 77.6315 66.9766 77.6315Z" fill="black"/>
<path opacity="0.1" d="M62.0697 78.4534C62.0697 78.4693 60.3044 78.8077 60.3679 79.0326C60.4314 79.2575 62.2513 79.2257 62.3159 78.8713C62.3275 78.8277 62.3303 78.7822 62.3242 78.7375C62.318 78.6927 62.3031 78.6497 62.2802 78.6108C62.2572 78.5719 62.2268 78.538 62.1907 78.5109C62.1546 78.4839 62.1135 78.4643 62.0697 78.4534Z" fill="black"/>
<path opacity="0.1" d="M66.4004 79.9774C66.4004 79.9774 69.3015 79.6231 69.1234 80.2341C68.9452 80.8451 66.4004 79.9774 66.4004 79.9774Z" fill="black"/>
<path opacity="0.1" d="M51.2119 44.2051C51.2278 44.2528 53.1225 44.5106 53.3789 45.1216C53.3789 45.1216 51.5171 44.2528 51.2233 44.2528" fill="black"/>
<path opacity="0.1" d="M53.8772 49.1704C53.8772 49.1704 52.3036 49.669 52.4159 50.4197C52.5282 51.1704 52.2559 50.0722 53.8772 49.1704Z" fill="black"/>
<path opacity="0.1" d="M53.1445 52.9957C53.1445 52.9957 53.7175 52.2086 54.2632 52.3529C54.809 52.4971 53.1445 52.9957 53.1445 52.9957Z" fill="black"/>
<path opacity="0.1" d="M62.1304 23.3297C62.0752 23.3832 62.0135 23.4294 61.9466 23.4671C61.4927 23.7317 61.3679 24.1395 61.1524 24.6096C60.9515 25.0401 60.7303 25.4955 60.3252 25.7397C59.8022 26.0554 59.1135 25.9396 58.5701 26.2144C58.3288 26.3401 58.1307 26.5353 58.0013 26.7748C57.8719 27.0142 57.8171 27.287 57.8439 27.5579C57.8785 27.767 57.9301 27.9729 57.9982 28.1735C58.1218 28.6079 58.1777 29.0588 58.1639 29.5102C58.1651 29.5235 58.1651 29.5368 58.1639 29.55C57.6989 29.3174 57.288 28.9896 56.9577 28.5878C56.6275 28.186 56.3854 27.7192 56.247 27.2177C56.1087 26.7161 56.0772 26.1911 56.1547 25.6766C56.2322 25.1621 56.4168 24.6697 56.6967 24.2313C56.9766 23.7928 57.3455 23.4182 57.7794 23.1317C58.2132 22.8452 58.7024 22.6532 59.2152 22.5682C59.728 22.4832 60.253 22.507 60.7559 22.6382C61.2589 22.7694 61.7287 23.005 62.1349 23.3297H62.1304Z" fill="black"/>
<path d="M62.0331 22.2119C61.6258 21.3556 60.7397 20.8127 59.8286 20.5481C59.1331 20.3471 58.3775 20.2812 57.6877 20.5027C57.294 20.6276 56.9366 20.8434 56.5679 21.0285C55.8803 21.376 55.1247 21.6509 54.6073 22.2221C54.4859 22.355 54.3804 22.5254 54.4111 22.7014C54.4372 22.832 54.5393 22.9286 54.6051 23.0489C54.7537 23.3102 54.7185 23.6384 54.6153 23.9223C54.512 24.2062 54.3657 24.4697 54.2953 24.7616C54.225 25.0535 54.2522 25.3953 54.4678 25.6032C54.5642 25.6952 54.6879 25.7531 54.7923 25.8303C54.9102 25.9323 55.0137 26.05 55.0997 26.1801L55.7124 27.0183C56.0002 27.3897 56.2568 27.7844 56.4794 28.1983C56.6314 28.5026 56.7494 28.8274 56.9536 29.0989C57.1579 29.3703 57.4755 29.5884 57.8136 29.5588C57.8398 29.5595 57.8658 29.554 57.8894 29.5427C57.9131 29.5315 57.9338 29.5148 57.9498 29.4941C57.9623 29.4675 57.9682 29.4383 57.9668 29.4089C57.9817 28.9591 57.927 28.5098 57.8046 28.0767C57.7363 27.8762 57.6847 27.6703 57.6503 27.4612C57.6242 27.1903 57.6793 26.9179 57.8086 26.6786C57.938 26.4392 58.1356 26.244 58.3764 26.1176C58.921 25.8428 59.6097 25.9586 60.1316 25.644C60.5377 25.3987 60.759 24.9433 60.9587 24.5083C61.1776 24.0381 61.299 23.6304 61.7529 23.3658C62.2067 23.1012 62.2589 22.6628 62.0331 22.2119Z" fill="#1C2633"/>
<path opacity="0.1" d="M60.373 82.8896C60.373 82.8896 60.9403 83.6131 60.7928 84.0253C60.6453 84.4376 60.373 82.8896 60.373 82.8896Z" fill="black"/>
<path opacity="0.1" d="M68.0479 84.7003C68.0479 84.7003 68.1738 83.7304 68.6787 83.7213C69.1836 83.7122 69.2085 83.669 69.5943 83.8178C69.98 83.9666 70.342 84.1971 70.2262 84.2312C70.1105 84.2653 69.5625 83.677 68.9998 83.978C68.6486 84.1703 68.3278 84.4137 68.0479 84.7003Z" fill="black"/>
<path opacity="0.1" d="M58.6797 33.2384L60.2681 32.1243C60.2681 32.1243 57.9445 30.7501 57.6676 30.9432C57.3908 31.1362 57.2002 32.8738 57.2002 32.8738L58.6797 33.2384Z" fill="black"/>
<path d="M58.6728 33.167L60.2612 32.0313C60.2612 32.0313 57.9376 30.6571 57.6608 30.8501C57.384 31.0432 57.1934 32.8762 57.1934 32.8762L58.6728 33.167Z" fill="white"/>
<path d="M58.6728 33.167L60.2612 32.0313C60.2612 32.0313 57.9376 30.6571 57.6608 30.8501C57.384 31.0432 57.1934 32.8762 57.1934 32.8762L58.6728 33.167Z" fill="url(#paint2_linear)"/>
<path d="M57.924 30.8591L57.8764 30.8353C57.8055 30.7991 57.7257 30.7842 57.6466 30.7925C57.5674 30.8008 57.4924 30.8318 57.4305 30.8818L52.6653 34.7512C52.6653 34.7512 51.6294 36.1856 51.7735 38.6604L54.5839 42.6456C54.5839 42.6456 54.9049 41.2964 55.2896 41.553C55.2896 41.553 55.8353 48.4639 55.2896 49.4599C54.7438 50.4559 54.5033 54.1845 54.5033 54.1845L56.3492 54.3934C56.3492 54.3934 56.5421 51.8699 56.9755 50.9704C57.4089 50.0709 57.6449 46.9783 57.6449 46.9783C57.6449 46.9783 58.0352 42.4855 57.9706 40.557C57.9059 38.6286 57.3443 34.4821 57.3443 34.4821C57.3443 34.4821 57.502 32.0516 57.924 30.8591Z" fill="#2D3D52"/>
<path opacity="0.1" d="M62.6712 32.5342L60.6914 31.8005C60.6914 31.8005 63.2124 29.0362 63.5278 30.5694L62.6712 32.5342Z" fill="black"/>
<path d="M62.6712 32.438L60.6914 31.7043C60.6914 31.7043 63.2124 28.94 63.5278 30.4732L62.6712 32.438Z" fill="white"/>
<path d="M62.6712 32.438L60.6914 31.7043C60.6914 31.7043 63.2124 28.94 63.5278 30.4732L62.6712 32.438Z" fill="url(#paint3_linear)"/>
<path opacity="0.1" d="M62.6064 30.0859C62.635 30.0813 62.6642 30.0878 62.6881 30.1041L62.6064 30.0859Z" fill="black"/>
<path d="M62.7969 29.8936L68.0499 31.0293C68.0499 31.0293 69.4954 31.3507 70.5392 34.9827C71.583 38.6148 69.1096 43.0645 69.1096 43.0645L68.5639 42.6L68.8373 53.2064C68.8373 53.2064 66.4127 54.1218 65.6424 53.32C64.872 52.5182 64.9526 48.7521 64.9526 48.7521C64.9526 48.7521 64.214 41.8107 63.7476 40.6693C63.2813 39.5279 63.5207 31.3008 63.5207 31.3008C63.5207 31.3008 63.0919 29.83 62.7969 29.8936Z" fill="#2D3D52"/>
<path opacity="0.1" d="M67.6031 36.6526C67.5293 36.7208 67.4431 39.9303 67.7642 42.3732C67.9605 43.8609 68.2638 45.3324 68.6718 46.7764L68.1953 36.9899C68.1953 36.9899 67.8277 36.4436 67.6031 36.6526Z" fill="black"/>
<path opacity="0.1" d="M66.9609 33.8882C67.0891 33.9688 67.6519 35.3022 67.3943 35.8484C67.1368 36.3947 66.9609 33.8882 66.9609 33.8882Z" fill="black"/>
<path opacity="0.1" d="M62.0031 22.2119C61.7452 21.7036 61.3435 21.2825 60.8481 21.0012C61.2164 21.2653 61.5138 21.6164 61.7137 22.0234C61.9407 22.4776 61.8737 22.9319 61.4324 23.1807C60.991 23.4294 60.8537 23.853 60.6382 24.3232C60.4374 24.7536 60.2161 25.209 59.8099 25.4589C59.288 25.7746 58.5994 25.6576 58.0548 25.9325C57.8141 26.0592 57.6166 26.2548 57.4873 26.4942C57.358 26.7337 57.3028 27.0062 57.3286 27.2772C57.3635 27.4859 57.4155 27.6914 57.4841 27.8916C57.6076 28.326 57.6635 28.7769 57.6497 29.2283C57.6507 29.2578 57.6445 29.287 57.6316 29.3135C57.6159 29.3343 57.5955 29.3511 57.572 29.3624C57.5485 29.3736 57.5226 29.3791 57.4965 29.3782C57.3604 29.3887 57.2239 29.3632 57.1006 29.3044C57.1899 29.393 57.2963 29.4624 57.4134 29.5083C57.5304 29.5542 57.6557 29.5757 57.7813 29.5713C57.8018 29.5743 57.8226 29.5725 57.8423 29.566C57.8619 29.5596 57.8798 29.5487 57.8946 29.5342C57.9093 29.5196 57.9204 29.5019 57.9272 29.4823C57.9339 29.4628 57.936 29.4419 57.9334 29.4214C57.9481 28.97 57.8926 28.519 57.7688 28.0847C57.6997 27.8843 57.6477 27.6783 57.6134 27.4691C57.5873 27.1983 57.6424 26.9258 57.7718 26.6865C57.9011 26.4472 58.0988 26.2519 58.3395 26.1255C58.8841 25.8507 59.5728 25.9666 60.0947 25.652C60.5009 25.4066 60.7221 24.9512 60.9218 24.5162C61.1408 24.0461 61.2622 23.6383 61.716 23.3737C62.1698 23.1091 62.23 22.6628 62.0031 22.2119Z" fill="black"/>
<path d="M94.3232 36.4741C92.7598 36.4435 91.3802 35.3384 90.5984 33.9881C90.3934 33.6667 90.2646 33.3027 90.2218 32.9239C90.2272 32.8378 90.2416 32.7525 90.2649 32.6695C90.3126 32.5427 90.3506 32.4125 90.3783 32.2799C90.3845 32.2271 90.3845 32.1738 90.3783 32.1209C90.3783 32.1209 90.3783 32.1209 90.3783 32.1119C90.4158 31.8245 90.2467 31.544 90.038 31.3475C89.8292 31.151 89.5671 31.0068 89.3493 30.8115C88.6776 30.2209 88.4734 29.2737 88.4609 28.3719V28.3242C88.4689 27.9381 88.4995 27.5508 88.4961 27.1647C88.5014 26.9455 88.4919 26.7262 88.4677 26.5082C88.4031 25.962 88.1954 25.4055 87.7666 25.0568C86.6479 24.1482 84.7667 25.0943 83.6083 24.2357C83.327 24.0256 83.0989 23.7155 82.7574 23.6337C82.4999 23.5713 82.2321 23.6553 81.9802 23.7394C81.127 24.021 80.1751 24.3913 79.8416 25.2158C79.651 25.6894 79.7043 26.23 79.5296 26.7093C79.4161 27.0307 79.1994 27.3066 79.0417 27.611C78.9122 27.8402 78.8494 28.101 78.8602 28.364C78.8462 28.5002 78.8652 28.6377 78.9158 28.7649C78.975 28.9182 79.0704 29.055 79.1937 29.1635C79.1492 29.2584 79.0936 29.3476 79.0281 29.4293C78.8102 29.6962 78.4755 29.8836 78.2486 30.1493C77.8288 30.6366 77.8447 31.2987 78.0512 31.8711C78.2577 32.4435 78.631 32.9648 78.8885 33.5224C79.002 33.7643 79.0882 34.0346 78.9736 34.2754C78.8931 34.4423 78.7263 34.5695 78.5969 34.7138C78.4077 34.9261 78.2888 35.192 78.2566 35.4747C75.7026 36.0585 75.7004 38.113 75.7004 38.113L74.3207 41.586C74.3207 41.586 74.0995 42.1709 73.8397 42.9432L72.207 42.6501L73.3416 44.5513C73.1272 45.3259 72.9751 46.0437 73.0251 46.4048C73.0251 46.4048 72.5179 48.7898 73.4199 49.2066L75.4099 50.1027C75.4961 50.1556 75.5888 50.1972 75.6856 50.2265L75.7662 50.2628C75.7952 50.2769 75.827 50.2842 75.8592 50.2842C75.8914 50.2842 75.9233 50.2769 75.9523 50.2628H75.9579H75.9795C76.0181 50.2654 76.0568 50.2596 76.0929 50.2458C76.1373 50.2219 76.1724 50.184 76.1928 50.1379C76.1921 50.1341 76.1921 50.1303 76.1928 50.1265L76.7884 49.9539L77.2933 50.5524C77.5202 50.7126 77.7471 50.8511 77.9616 50.9761L77.1799 58.7466C77.1799 58.7466 77.0539 69.0816 76.6727 71.4371C76.532 72.3093 76.5309 72.9044 76.5842 73.3087L76.5695 73.3337C76.6636 73.9981 76.9098 74.1287 76.9098 74.1287V74.1196C76.9144 74.1232 76.9193 74.1263 76.9246 74.1287C77.0394 73.827 77.1759 73.534 77.333 73.252C77.333 73.3076 77.333 73.3655 77.333 73.4223C77.3251 74.2991 77.2979 75.5268 77.2071 76.3252C77.0528 77.6881 77.6019 82.1798 77.6019 82.1798L77.7914 86.2684C77.8222 86.9626 77.6613 87.6518 77.3262 88.2604C76.8724 89.077 76.2926 90.2263 76.2506 90.7363C76.2484 90.7639 76.2484 90.7916 76.2506 90.8192L75.2772 91.9912C75.2772 91.9912 74.8971 92.5795 75.756 92.8169C76.2177 92.9452 77.0142 92.8169 77.6541 92.6659C77.9334 92.6014 78.1827 92.4442 78.3613 92.2198C78.54 91.9954 78.6374 91.7171 78.6378 91.4302C78.7995 90.867 79.0727 90.3422 79.4411 89.8868L79.601 90.8283L80.6721 91.094L80.8094 88.5137C80.8647 88.3689 80.8898 88.2143 80.8831 88.0594C81.0941 86.2241 80.3862 86.3888 80.3862 86.3888C80.4051 86.4049 80.4173 86.4276 80.4202 86.4524L80.3862 86.3899C79.9516 85.5313 80.1593 84.1185 80.1593 84.1185C80.1593 84.1185 80.7265 80.0299 80.9205 78.9498C81.0601 78.1866 81.0022 75.6881 80.9557 74.2934C80.9557 74.2355 80.9557 74.1798 80.95 74.1242C82.6111 74.1026 84.6465 74.047 86.0749 73.9084V74.0765L85.8117 83.7357C85.7936 84.3516 85.6685 84.9596 85.4418 85.5324C85.4418 85.5438 85.4339 85.554 85.4293 85.5654C85.1162 86.3744 84.9394 87.2299 84.9063 88.0969L84.7838 91.1633V91.2485C84.5705 91.3302 84.2335 91.5676 84.2244 92.2559C84.2097 93.2644 85.9853 92.9282 85.9853 92.9282C87.7597 92.9282 87.7745 91.0793 87.7745 91.0793C87.7745 91.0793 87.8301 89.3836 87.9152 88.2491C88.0003 87.1145 87.6474 87.3643 87.6474 87.3643L87.6202 90.592C87.6202 90.6 87.6202 90.6079 87.6202 90.617V87.788L87.6474 87.378V87.3666V87.2792L87.8709 83.9504C87.8709 83.9504 89.5059 78.4036 89.7589 77.3394C89.9393 76.583 89.8644 74.3048 89.8054 73.0453C89.8054 72.9873 89.8054 72.9317 89.7963 72.8783C90.3035 72.8329 90.7516 72.8283 90.9309 72.8283H91.0137C91.0137 72.8283 90.9297 63.9198 90.7176 60.5626C90.5054 57.2055 90.1684 54.1333 89.3232 53.2089C88.8126 52.6501 88.1013 50.925 87.6213 49.6473C88.6302 50.0839 89.6774 50.4261 90.7493 50.6694C93.4258 51.2305 93.0593 48.9045 93.0593 48.9045L92.7882 44.5059H92.8063C92.7964 43.3537 92.6978 42.204 92.5113 41.067C92.3695 40.1947 92.1528 39.293 91.8215 38.5684C92.112 38.4548 92.399 38.3333 92.6804 38.2084C93.4077 37.887 94.2268 37.4315 94.3312 36.6468H94.296C94.31 36.5901 94.3192 36.5323 94.3232 36.4741ZM77.7324 42.8341C77.7381 43.2884 77.7211 44.0766 77.6938 44.9477L76.844 43.812L77.6961 42.4287L77.7324 42.8341ZM89.473 46.8591L88.057 46.4048C88.3081 46.0127 88.6014 45.6493 88.9318 45.3213L89.0543 45.2078L89.01 45.2169L89.0781 45.1544L89.119 45.1453L89.0543 45.2078L89.1314 45.1919C89.2167 45.5479 89.3815 45.8799 89.6136 46.1629C90.1219 46.7183 89.4741 46.8591 89.4741 46.8591H89.473Z" fill="#252F3D"/>
<path d="M80.8721 87.7439L80.7064 90.8876L79.6501 90.6229L79.4277 89.3157L80.8721 87.7439Z" fill="#2D3D52"/>
<path opacity="0.1" d="M80.8721 87.7439L80.7064 90.8876L79.6501 90.6229L79.4277 89.3157L80.8721 87.7439Z" fill="#1C2633"/>
<path d="M84.749 91.304L86.3601 91.6379L87.5548 90.5817V87.605L87.5821 87.1984V87.1859V87.0996L87.8044 83.7913C87.8044 83.7913 89.4167 78.2842 89.6674 77.2269C89.8444 76.4773 89.7707 74.2149 89.7117 72.9645C89.6878 72.4523 89.6674 72.1093 89.6674 72.1093L86.1105 71.2473L86.0356 73.9844L85.7758 83.5744C85.7579 84.1856 85.6347 84.7892 85.4116 85.3586L85.3991 85.3915C85.0898 86.1947 84.9154 87.0435 84.8829 87.9037L84.7626 90.9531V91.0371L84.749 91.304Z" fill="#D8B98A"/>
<path opacity="0.1" d="M84.749 91.3045L86.3601 91.6384L87.5548 90.5821V90.3289C87.5509 90.3849 87.5333 90.4391 87.5034 90.4867C87.4735 90.5342 87.4323 90.5737 87.3835 90.6014L87.3665 90.6117C86.8116 90.9053 86.1828 91.0297 85.558 90.9694L84.9294 90.916C84.8721 90.9214 84.8159 90.9352 84.7626 90.9569V91.041L84.749 91.3045Z" fill="black"/>
<path d="M87.3669 90.6944L87.3839 90.6853C87.4364 90.6558 87.48 90.613 87.5105 90.5611C87.541 90.5092 87.5572 90.4502 87.5575 90.39L87.5836 87.1862C87.5836 87.1862 87.9308 86.9375 87.8469 88.0641C87.7629 89.1907 87.7084 90.8738 87.7084 90.8738C87.7084 90.8738 87.6948 92.7091 85.9442 92.7091C85.9442 92.7091 84.1935 93.043 84.2071 92.0413C84.2207 91.0397 84.9298 90.9988 84.9298 90.9988L85.5584 91.0533C86.1833 91.1137 86.8123 90.9889 87.3669 90.6944Z" fill="#1C2633"/>
<path d="M76.3574 90.623C76.3983 91.3465 78.5245 90.9285 78.5245 90.9285L79.9552 88.1483C79.9552 88.1483 81.1499 87.2295 80.552 86.4232C80.52 86.3792 80.4908 86.3333 80.4646 86.2857C80.4646 86.2857 80.4646 86.2857 80.4589 86.2789C80.4465 86.2585 80.4351 86.2369 80.4238 86.2142C79.9949 85.3624 80.2059 83.9655 80.2059 83.9655C80.2059 83.9655 80.7607 79.9042 80.9559 78.8332C81.0932 78.0768 81.0364 75.5952 80.9911 74.2074C80.9729 73.6305 80.9559 73.2432 80.9559 73.2432L77.4262 72.2971C77.4262 72.2971 77.4262 72.7378 77.4262 73.3511C77.4183 74.2222 77.391 75.4408 77.3014 76.2335C77.1494 77.5816 77.6906 82.0461 77.6906 82.0461L77.8778 86.1086C77.9102 86.7968 77.7532 87.4808 77.4239 88.0858C76.9814 88.8967 76.4028 90.0393 76.3631 90.5447C76.3592 90.5706 76.3573 90.5968 76.3574 90.623Z" fill="#D8B98A"/>
<path opacity="0.1" d="M76.3574 90.6224C76.3983 91.3459 78.5245 90.9279 78.5245 90.9279L79.9552 88.1477C79.9552 88.1477 81.1499 87.2289 80.552 86.4226C80.52 86.3787 80.4908 86.3328 80.4646 86.2852C80.4453 86.7065 79.9836 87.7616 79.9836 87.7616C79.9836 87.7616 78.8025 90.1273 78.4269 90.669C78.0514 91.2107 76.4198 90.5679 76.3586 90.5452C76.3562 90.5709 76.3558 90.5967 76.3574 90.6224Z" fill="black"/>
<path d="M80.4243 86.2105C80.4243 86.2105 81.1232 86.0481 80.9144 87.8698C80.9223 88.0767 80.8754 88.2821 80.7784 88.465C80.6813 88.648 80.5376 88.8019 80.3619 88.9112C79.8615 89.2258 79.09 89.9027 78.6997 91.219C78.7 91.503 78.6044 91.7788 78.4282 92.0015C78.2521 92.2242 78.0059 92.3807 77.7297 92.4456C77.0988 92.5932 76.3126 92.7227 75.8576 92.5955C75.0101 92.3593 75.3856 91.7755 75.3856 91.7755L76.358 90.6205C76.358 90.6205 78.053 91.2883 78.4274 90.7454C78.8018 90.2025 79.9841 87.8391 79.9841 87.8391C79.9841 87.8391 80.6319 86.3638 80.4243 86.2105Z" fill="#1C2633"/>
<path opacity="0.1" d="M86.11 71.5845L86.0352 74.3215C86.9825 74.2295 87.661 74.1012 87.7767 73.9206C88.0275 73.5322 88.9374 73.3687 89.7112 73.3017C89.6874 72.7895 89.667 72.4465 89.667 72.4465L86.11 71.5845Z" fill="black"/>
<path opacity="0.1" d="M77.4258 73.6836C77.5163 73.4981 77.6497 73.3369 77.8149 73.2134C78.1893 73.0056 78.1485 74.549 78.1485 74.549C78.1485 74.549 79.3965 74.5603 80.9906 74.5399C80.9725 73.963 80.9554 73.5745 80.9554 73.5745L77.4258 72.6296C77.4258 72.6296 77.4326 73.068 77.4258 73.6836Z" fill="black"/>
<path d="M77.023 74.0491C77.023 74.0491 77.4405 72.9134 77.8172 72.7112C78.1939 72.509 78.1508 74.0457 78.1508 74.0457C78.1508 74.0457 87.3204 74.1297 87.7788 73.4199C88.2371 72.7101 90.9045 72.7521 90.9045 72.7521C90.9045 72.7521 90.8217 63.9072 90.6129 60.5704C90.4041 57.2337 90.0717 54.1866 89.2378 53.2689C88.6989 52.6749 87.9319 50.7533 87.4577 49.4722C87.2001 48.7726 87.0288 48.2627 87.0288 48.2627L78.2767 48.7624L78.2052 49.4722L77.276 58.776C77.276 58.776 77.1512 69.0394 76.7757 71.3756C76.4001 73.7118 77.023 74.0491 77.023 74.0491Z" fill="#2D3D52"/>
<g opacity="0.1">
<path opacity="0.1" d="M87.0667 73.4202C87.5205 72.7115 90.1924 72.7524 90.1924 72.7524C90.1924 72.7524 90.1096 63.9074 89.9009 60.5707C89.6921 57.234 89.3597 54.1868 88.5258 53.2692C87.9846 52.6729 87.2199 50.7536 86.7456 49.4725C86.5289 48.8842 86.3735 48.431 86.3304 48.3016L87.0111 48.2629C87.0111 48.2629 87.1824 48.7729 87.4411 49.4725C87.9154 50.7536 88.6812 52.6752 89.2201 53.2692C90.054 54.1868 90.3876 57.2328 90.5952 60.5707C90.8028 63.9086 90.8879 72.7524 90.8879 72.7524C90.8879 72.7524 88.2206 72.7115 87.7611 73.4202C87.3696 74.0255 80.6223 74.0539 78.6641 74.0482C81.1771 74.0425 86.7127 73.9676 87.0667 73.4202Z" fill="black"/>
<path opacity="0.1" d="M77.1051 72.7117C77.2741 72.6174 77.3581 72.8786 77.4001 73.1955C77.2486 73.4703 77.117 73.7557 77.0064 74.0495C77.0064 74.0495 76.7647 73.9189 76.666 73.2545C76.8044 73.0171 76.9576 72.7934 77.1051 72.7117Z" fill="black"/>
</g>
<path d="M79.7278 26.8626C79.122 27.6894 79.7346 28.8649 79.0845 29.669C78.8701 29.9347 78.5399 30.1233 78.3164 30.3845C77.9023 30.8683 77.9182 31.5259 78.1213 32.0937C78.3244 32.6616 78.6886 33.1795 78.9472 33.7337C79.0607 33.9733 79.1447 34.2425 79.0312 34.481C78.9518 34.6468 78.7873 34.7729 78.6591 34.916C78.2415 35.3828 78.2302 36.0313 78.4548 36.5809C78.6795 37.1306 79.1084 37.6031 79.5316 38.0687C79.6983 38.2516 79.9094 38.4537 80.1873 38.4481C80.3335 38.437 80.4748 38.3906 80.5992 38.3129C81.5617 37.8208 82.2976 36.9759 82.6535 35.9544C83.0094 34.9328 82.9579 33.8131 82.5098 32.8285C82.1581 31.9847 81.5715 31.1761 81.5659 30.2845C81.5659 29.577 81.9289 28.9012 81.9936 28.1971C82.0719 27.3408 81.5659 25.9813 80.5334 25.6077C80.6015 26.1574 80.0353 26.4379 79.7278 26.8626Z" fill="#1C2633"/>
<path opacity="0.1" d="M79.7278 26.8626C79.122 27.6894 79.7346 28.8649 79.0845 29.669C78.8701 29.9347 78.5399 30.1233 78.3164 30.3845C77.9023 30.8683 77.9182 31.5259 78.1213 32.0937C78.3244 32.6616 78.6886 33.1795 78.9472 33.7337C79.0607 33.9733 79.1447 34.2425 79.0312 34.481C78.9518 34.6468 78.7873 34.7729 78.6591 34.916C78.2415 35.3828 78.2302 36.0313 78.4548 36.5809C78.6795 37.1306 79.1084 37.6031 79.5316 38.0687C79.6983 38.2516 79.9094 38.4537 80.1873 38.4481C80.3335 38.437 80.4748 38.3906 80.5992 38.3129C81.5617 37.8208 82.2976 36.9759 82.6535 35.9544C83.0094 34.9328 82.9579 33.8131 82.5098 32.8285C82.1581 31.9847 81.5715 31.1761 81.5659 30.2845C81.5659 29.577 81.9289 28.9012 81.9936 28.1971C82.0719 27.3408 81.5659 25.9813 80.5334 25.6077C80.6015 26.1574 80.0353 26.4379 79.7278 26.8626Z" fill="black"/>
<path opacity="0.1" d="M86.4474 56.9375C85.2346 57.0011 84.0932 57.5235 83.0312 58.1141C81.9693 58.7047 80.9413 59.3736 79.7988 59.7927" fill="black"/>
<path opacity="0.1" d="M85.6942 59.7983C84.4945 59.9129 83.3764 60.4574 82.5458 61.3316C82.2508 61.6439 81.9967 61.9937 81.6892 62.2935C81.2186 62.7533 80.6369 63.0832 80.001 63.2509" fill="black"/>
<path opacity="0.1" d="M85.9424 61.9753C84.9748 62.2442 84.0991 62.7728 83.4101 63.504C83.224 63.705 83.0549 63.9197 82.8689 64.1207C81.8648 65.1996 80.4466 65.772 79.0771 66.3138" fill="black"/>
<path d="M85.8394 31.7826C85.8661 32.7527 85.9495 33.7205 86.089 34.6809C86.2024 35.3623 86.3613 35.9756 86.5893 36.2471C87.2564 37.0421 83.3388 38.1039 83.3388 38.1039L81.0254 36.3095C81.0254 36.3095 82.8589 34.6196 82.0045 32.9717C81.1502 31.3238 85.8394 31.7826 85.8394 31.7826Z" fill="#D8B98A"/>
<path opacity="0.1" d="M78.2031 49.4722H87.4556C87.198 48.7726 87.0267 48.2627 87.0267 48.2627L78.2746 48.7624L78.2031 49.4722Z" fill="black"/>
<path d="M77.608 49.3056H87.5003C87.2224 48.3096 87.5003 47.3885 87.8963 46.6798C88.1739 46.1832 88.5229 45.7301 88.9322 45.3351L89.0003 45.2727L92.4539 44.5072L92.64 44.4663C92.64 44.4663 92.6683 38.1801 90.4446 37.317C88.2208 36.4539 86.8877 35.2875 86.8877 35.2875L83.8323 36.2324L81.5813 35.0967C80.8586 35.8746 78.9411 35.5691 78.9411 35.5691C75.8018 35.9303 75.8018 38.2949 75.8018 38.2949C75.8018 38.2949 77.6352 42.5776 77.7748 42.5776C77.9143 42.5776 77.608 49.3056 77.608 49.3056Z" fill="url(#paint4_linear)"/>
<path opacity="0.1" d="M81.023 45.3088C81.023 45.3088 79.0057 44.8614 78.3193 44.0789L81.023 45.3088Z" fill="black"/>
<path opacity="0.1" d="M91.194 42.9636L88.8545 44.883C88.8714 45.0358 88.8972 45.1875 88.9316 45.3373L88.9997 45.2748L92.4534 44.5093L91.194 42.9636Z" fill="black"/>
<path opacity="0.1" d="M84.8604 48.6378C84.8604 48.6378 85.372 48.9263 86.156 49.3056H87.5005C87.2225 48.3096 87.5005 47.3885 87.8964 46.6798L85.5263 45.9121C86.333 46.6628 84.8604 48.6378 84.8604 48.6378Z" fill="black"/>
<path d="M77.1901 37.5408L75.8014 38.2915L74.4399 41.7406C74.4399 41.7406 73.0228 45.5226 73.1613 46.5243C73.1613 46.5243 72.6621 48.8888 73.5504 49.3057L75.865 50.3551C75.9059 50.3731 75.9514 50.378 75.9952 50.369C76.039 50.3601 76.0789 50.3377 76.1094 50.305C76.14 50.2723 76.1596 50.2309 76.1656 50.1866C76.1716 50.1423 76.1637 50.0971 76.1429 50.0575C75.8128 49.4317 75.4497 48.4527 76.0295 47.9144L75.3623 46.5243L77.7733 42.5743L78.5788 41.2114L77.1901 37.5408Z" fill="url(#paint5_linear)"/>
<path opacity="0.1" d="M80.2798 44.5195C80.4 45.0101 80.8062 45.7688 82.1507 46.0516L83.6256 47.2611L85.1947 47.9732L85.8346 48.2628L86.1058 46.3014L85.4897 45.9607L84.7715 45.5678C84.7715 45.5678 83.1514 42.6296 80.5861 43.8642C80.4669 43.9207 80.3711 44.0171 80.3152 44.1367C80.2593 44.2563 80.2468 44.3916 80.2798 44.5195Z" fill="black"/>
<path d="M80.3633 44.3527C80.4836 44.8445 80.8886 45.602 82.2331 45.8848L83.7081 47.0943L85.2783 47.8064L85.9171 48.096L86.1883 46.1346L85.5722 45.7939L84.8597 45.4044C84.8597 45.4044 83.2384 42.4663 80.6731 43.7065C80.5551 43.7622 80.4599 43.8568 80.4035 43.9745C80.3471 44.0922 80.3329 44.2258 80.3633 44.3527Z" fill="#D8B98A"/>
<path opacity="0.1" d="M83.255 34.3265C85.2345 34.3265 86.8392 32.7203 86.8392 30.7388C86.8392 28.7574 85.2345 27.1511 83.255 27.1511C81.2756 27.1511 79.6709 28.7574 79.6709 30.7388C79.6709 32.7203 81.2756 34.3265 83.255 34.3265Z" fill="black"/>
<path d="M83.255 34.2435C85.2345 34.2435 86.8392 32.6373 86.8392 30.6558C86.8392 28.6744 85.2345 27.0681 83.255 27.0681C81.2756 27.0681 79.6709 28.6744 79.6709 30.6558C79.6709 32.6373 81.2756 34.2435 83.255 34.2435Z" fill="#D8B98A"/>
<path opacity="0.1" d="M85.4753 38.3219L84.3975 36.2254C84.3975 36.2254 85.9745 35.5871 86.0891 34.8477C86.2037 34.1084 87.6003 35.7143 87.2985 36.2469C86.9967 36.7796 85.4753 38.3219 85.4753 38.3219Z" fill="black"/>
<path d="M85.4753 38.1548L84.3975 36.0583C84.3975 36.0583 85.9745 35.42 86.0891 34.6807C86.2037 33.9413 87.6003 35.5483 87.2985 36.0798C86.9967 36.6114 85.4753 38.1548 85.4753 38.1548Z" fill="url(#paint6_linear)"/>
<path d="M76.6532 43.5713L82.6086 51.5861C82.6086 51.5861 80.4132 52.782 77.3896 50.6411L76.0837 49.083L72.3555 42.7922L76.6532 43.5713Z" fill="white"/>
<path d="M75.4823 47.9288L76.0247 47.9141C76.0247 47.9141 79.3376 44.6955 80.1511 46.3241C80.9646 47.9527 78.0873 49.4745 78.0873 49.4745L77.2126 49.947L76.0723 50.2877L75.3428 49.3076L75.4823 47.9288Z" fill="#D8B98A"/>
<path opacity="0.1" d="M76.2824 49.6675C76.3323 49.8527 76.3799 50.0571 76.296 50.2286C76.2759 50.2745 76.2412 50.3124 76.1973 50.3365C76.1612 50.3504 76.1223 50.3558 76.0838 50.3524C75.7968 50.3279 75.5297 50.1957 75.3361 49.9821C75.146 49.7694 74.9832 49.5336 74.8517 49.2803C74.7042 49.0225 74.551 48.7374 74.6032 48.4444C74.6622 48.1252 74.9436 47.9038 75.2193 47.7243C75.7684 47.3609 75.7866 47.7845 75.9068 48.2524C76.0271 48.7204 76.1564 49.1951 76.2824 49.6675Z" fill="black"/>
<path d="M76.1988 49.6675C76.2476 49.8527 76.2964 50.0571 76.2124 50.2286C76.1923 50.2744 76.1576 50.3124 76.1137 50.3365C76.0776 50.3503 76.0388 50.3557 76.0002 50.3524C75.7131 50.3285 75.4458 50.1961 75.2526 49.9821C75.0617 49.7697 74.8985 49.5338 74.767 49.2803C74.6195 49.0225 74.4663 48.7374 74.5196 48.4444C74.5775 48.1252 74.86 47.9038 75.1346 47.7243C75.6848 47.3609 75.7019 47.7845 75.8233 48.2524C75.9447 48.7204 76.0717 49.1951 76.1988 49.6675Z" fill="url(#paint7_linear)"/>
<path opacity="0.1" d="M77.7744 42.5743L78.0512 42.1052L77.8096 42.9763L77.7744 42.5743Z" fill="black"/>
<path opacity="0.1" d="M85.2832 47.8062L85.922 48.0958L86.1931 46.1344L85.5771 45.7937C86.0025 46.2821 85.6304 47.185 85.2832 47.8062Z" fill="black"/>
<path opacity="0.1" d="M87.8467 45.529C87.8467 45.529 85.7841 45.6551 84.9082 45.0918L87.8467 45.529Z" fill="black"/>
<g opacity="0.1">
<path opacity="0.1" d="M87.5909 46.8465C87.8685 46.3495 88.2175 45.896 88.6267 45.5006C88.7249 45.439 88.8268 45.3836 88.9319 45.3348L92.1473 44.6738L92.3334 44.6329C92.3334 44.6329 92.3617 38.3468 90.1391 37.4836C88.8924 37.0091 87.7236 36.3502 86.6719 35.5291L86.9158 35.4541C86.9158 35.4541 88.2489 36.6216 90.4727 37.4836C92.6964 38.3456 92.6669 44.6329 92.6669 44.6329H92.3334L89.0431 45.2633C89.0431 45.2633 88.9013 45.4007 88.8582 45.4404C88.4456 45.8542 88.0917 46.3227 87.8064 46.8328C87.3711 47.642 87.272 48.5904 87.5307 49.4722H87.1904C86.9158 48.4762 87.1995 47.5551 87.5909 46.8465Z" fill="black"/>
<path opacity="0.1" d="M78.8096 35.7506C78.8629 35.7426 78.9139 35.7347 78.9695 35.729C79.1952 35.761 79.4225 35.7796 79.6503 35.7846C79.3696 35.7924 79.0887 35.781 78.8096 35.7506Z" fill="black"/>
<path opacity="0.1" d="M83.5257 36.3991L81.4902 35.3679C81.5306 35.3347 81.5685 35.2987 81.6037 35.26L83.7276 36.3355L83.5257 36.3991Z" fill="black"/>
</g>
<path d="M91.2744 42.7922L92.6359 44.4617L92.9139 48.9955C92.9139 48.9955 93.2747 51.3033 90.6357 50.7468C87.9966 50.1903 84.9424 48.4708 84.9424 48.4708C84.9424 48.4708 86.4173 46.4958 85.6095 45.7451L89.3888 46.9694C89.3888 46.9694 90.0275 46.8297 89.5272 46.2743C89.0268 45.719 88.9383 44.7161 88.9383 44.7161L91.2744 42.7922Z" fill="url(#paint8_linear)"/>
<path opacity="0.1" d="M91.8896 47.5815L92.6396 48.4435C92.4467 48.3842 92.2742 48.2721 92.1417 48.1197C92.0091 47.9674 91.9218 47.781 91.8896 47.5815Z" fill="black"/>
<path opacity="0.1" d="M90.6113 47.4419L91.7788 48.9433L91.1956 49.083L90.6113 47.4419Z" fill="black"/>
<path opacity="0.1" d="M78.974 29.0091C78.8458 28.6946 78.9445 28.3277 79.0988 28.0313C79.2531 27.7349 79.4653 27.4544 79.581 27.1352C79.7523 26.6605 79.7002 26.1233 79.8874 25.6588C80.2175 24.8354 81.1558 24.4674 81.9965 24.1824C82.245 24.0994 82.5094 24.0165 82.7635 24.0779C83.1039 24.1585 83.3251 24.4674 83.6031 24.6753C84.7445 25.527 86.6006 24.5889 87.7046 25.4907C88.1266 25.8314 88.332 26.3891 88.3955 26.9308C88.4591 27.4725 88.3955 28.0222 88.3887 28.5685C88.3706 29.5248 88.5498 30.5708 89.2646 31.2045C89.4802 31.3953 89.7343 31.5384 89.9453 31.736C90.1564 31.9336 90.322 32.2096 90.2857 32.4958C90.2578 32.6272 90.2199 32.7563 90.1723 32.8819C90.0304 33.3805 90.2426 33.9041 90.5013 34.3584C91.2728 35.6951 92.6331 36.7968 94.175 36.8274C94.0718 37.6065 93.2674 38.0585 92.5469 38.3777C91.6393 38.7854 90.6726 39.1852 89.673 39.1341C88.6735 39.083 87.6308 38.4424 87.4561 37.4566C87.396 37.1159 87.4039 36.7059 87.1157 36.5287C86.9387 36.4208 86.7095 36.4481 86.5189 36.3675C86.2432 36.2539 86.1071 35.9438 86.0163 35.6588C85.8303 35.0706 85.7306 34.4585 85.7202 33.8416C85.7077 33.1102 85.8042 32.3118 85.39 31.7099C85.0065 31.1522 84.3258 30.8695 83.8833 30.3572C83.4749 29.8825 83.0313 29.3101 82.3619 29.2215C81.436 29.0909 79.5209 30.3504 78.974 29.0091Z" fill="black"/>
<path d="M78.974 28.8421C78.8458 28.5276 78.9445 28.1607 79.0988 27.8643C79.2531 27.5679 79.4653 27.2874 79.581 26.9682C79.7523 26.4935 79.7002 25.9563 79.8874 25.4918C80.2175 24.6673 81.1558 24.2993 81.9965 24.0154C82.245 23.9325 82.5094 23.8495 82.7635 23.9109C83.1039 23.9915 83.3251 24.3004 83.6031 24.5083C84.7445 25.36 86.6006 24.4219 87.7046 25.3237C88.1266 25.6644 88.332 26.2221 88.3955 26.7649C88.4591 27.3078 88.3955 27.8552 88.3887 28.4015C88.3706 29.3578 88.5498 30.4038 89.2646 31.0375C89.4802 31.2283 89.7343 31.3714 89.9454 31.569C90.1564 31.7666 90.322 32.0426 90.2857 32.3288C90.2578 32.4602 90.2199 32.5893 90.1723 32.7149C90.0305 33.2135 90.2426 33.7371 90.5013 34.1914C91.2751 35.5236 92.6298 36.6286 94.1717 36.6593C94.0684 37.4384 93.264 37.8904 92.5435 38.2107C91.6359 38.6172 90.6692 39.017 89.6697 38.9659C88.6701 38.9148 87.6274 38.2743 87.4527 37.2885C87.3926 36.9477 87.4005 36.5378 87.1123 36.3606C86.9353 36.2527 86.7062 36.2799 86.5155 36.1993C86.2398 36.0857 86.1037 35.7757 86.0129 35.4906C85.8268 34.9025 85.7271 34.2903 85.7168 33.6735C85.7043 32.9421 85.8008 32.1437 85.3866 31.5417C85.0032 30.9841 84.3224 30.7013 83.8799 30.1891C83.4715 29.7144 83.0279 29.142 82.3585 29.0534C81.436 28.9239 79.5209 30.1857 78.974 28.8421Z" fill="#1C2633"/>
<path opacity="0.1" d="M81.5176 38.062L83.5723 36.3925C83.5723 36.3925 82.1655 35.6293 81.9975 34.9785C81.8296 34.3277 80.7041 35.2874 80.8187 35.8712C80.9333 36.4549 81.5176 38.062 81.5176 38.062Z" fill="black"/>
<path d="M81.5977 37.8109L83.6524 36.1425C83.6524 36.1425 82.2455 35.3793 82.0844 34.7285C81.9233 34.0777 80.791 35.0374 80.9056 35.6212C81.0202 36.2049 81.5977 37.8109 81.5977 37.8109Z" fill="url(#paint9_linear)"/>
<path opacity="0.1" d="M83.7327 37.7031C83.8229 37.7031 83.8961 37.6298 83.8961 37.5395C83.8961 37.4492 83.8229 37.376 83.7327 37.376C83.6425 37.376 83.5693 37.4492 83.5693 37.5395C83.5693 37.6298 83.6425 37.7031 83.7327 37.7031Z" fill="black"/>
<path opacity="0.1" d="M83.7327 38.6115C83.8229 38.6115 83.8961 38.5383 83.8961 38.448C83.8961 38.3576 83.8229 38.2844 83.7327 38.2844C83.6425 38.2844 83.5693 38.3576 83.5693 38.448C83.5693 38.5383 83.6425 38.6115 83.7327 38.6115Z" fill="black"/>
<path opacity="0.1" d="M83.7327 39.5192C83.8229 39.5192 83.8961 39.446 83.8961 39.3557C83.8961 39.2654 83.8229 39.1921 83.7327 39.1921C83.6425 39.1921 83.5693 39.2654 83.5693 39.3557C83.5693 39.446 83.6425 39.5192 83.7327 39.5192Z" fill="black"/>
<g opacity="0.1">
<path opacity="0.1" d="M79.8031 26.5232C79.9654 26.0768 79.9302 25.576 80.0822 25.1262C80.0118 25.2257 79.9535 25.3332 79.9087 25.4465C79.7203 25.9156 79.7736 26.4527 79.6012 26.9229L79.5898 26.9502C79.6739 26.8147 79.7453 26.6718 79.8031 26.5232Z" fill="black"/>
<path opacity="0.1" d="M92.7655 37.7656C91.8578 38.1722 90.8911 38.572 89.8916 38.5209C88.892 38.4698 87.8494 37.8292 87.6746 36.8446C87.6145 36.5039 87.6224 36.0927 87.3343 35.9156C87.1573 35.8077 86.9281 35.8349 86.7375 35.7543C86.4618 35.6407 86.3256 35.3307 86.2349 35.0456C86.0488 34.4574 85.949 33.8453 85.9387 33.2285C85.9263 32.4982 86.0238 31.6998 85.6097 31.0967C85.2251 30.5391 84.5443 30.2574 84.1019 29.7441C83.6934 29.2705 83.2498 28.697 82.5804 28.6084C81.6625 28.4834 79.744 29.7441 79.2016 28.4017C79.1146 28.148 79.1271 27.8707 79.2368 27.626C79.1971 27.693 79.1585 27.76 79.1234 27.8281C78.9691 28.1302 78.8715 28.4925 78.9997 28.8071C79.5454 30.1473 81.4606 28.8878 82.3785 29.0138C83.0478 29.1047 83.4915 29.6782 83.8999 30.1495C84.3424 30.6629 85.0231 30.9445 85.4066 31.5033C85.8219 32.1052 85.7243 32.9036 85.7368 33.6339C85.7471 34.2508 85.8468 34.8629 86.0329 35.4511C86.1237 35.7373 86.2598 36.0439 86.5355 36.1597C86.7261 36.2404 86.9553 36.2143 87.1323 36.321C87.425 36.4982 87.4171 36.9127 87.4727 37.25C87.6497 38.2347 88.6912 38.8752 89.6896 38.9263C90.6881 38.9775 91.6502 38.5788 92.5635 38.1711C93.2216 37.8781 93.9545 37.4726 94.1519 36.8082C93.8365 37.2398 93.2783 37.5374 92.7655 37.7656Z" fill="black"/>
</g>
<path d="M112.817 44.1753C110.415 42.792 109.508 42.4513 109.503 42.4513L109.453 42.4161C109.192 42.2149 108.984 41.9519 108.848 41.6507C108.846 41.5958 108.846 41.5408 108.848 41.486C108.848 41.4913 108.848 41.4966 108.848 41.5019C108.886 40.7693 109.407 40.1027 109.9 39.5212L111.163 38.0345C111.306 37.8874 111.417 37.7118 111.489 37.5189C111.514 37.4153 111.526 37.3087 111.523 37.2021C111.523 37.1589 111.523 37.1157 111.523 37.0726C111.516 36.7035 111.506 36.3332 111.492 35.9641C111.481 35.6416 111.398 35.235 111.076 35.1691C110.908 35.1351 110.685 35.1952 110.597 35.0556C110.567 34.9963 110.559 34.9281 110.575 34.8636C110.575 34.8689 110.575 34.8742 110.575 34.8795V34.8613C110.638 34.6122 110.678 34.3579 110.694 34.1016C110.701 33.9711 110.684 33.8404 110.642 33.7165C110.456 33.1816 109.813 32.9613 109.244 32.8602C108.676 32.7591 108.038 32.6728 107.682 32.2276C107.587 32.0791 107.483 31.9361 107.371 31.7995C107.207 31.6533 107.006 31.554 106.79 31.5121C106.085 31.3381 105.342 31.4028 104.677 31.6961C104.402 31.8188 104.126 31.9846 103.825 31.9664C103.523 31.9482 103.244 31.7302 102.935 31.6779C102.436 31.5928 101.958 31.9596 101.712 32.3946C101.566 32.6525 101.488 32.9432 101.485 33.2395V33.2895C101.478 33.6084 101.594 33.9176 101.81 34.1527C102.025 34.3798 102.345 34.5297 102.435 34.8239C102.471 34.9431 102.462 35.0726 102.495 35.1941C102.498 35.2092 102.503 35.224 102.508 35.2384L102.493 35.26C101.978 35.9196 101.698 36.7328 101.698 37.57C101.704 38.3832 101.968 39.1735 102.451 39.8268C102.935 40.4801 103.614 40.9625 104.39 41.2043C104.39 41.2418 104.39 41.2793 104.39 41.3179C104.39 41.7722 104.259 42.2458 103.868 42.5899L100.465 43.9505C100.465 43.9505 98.4138 43.7063 97.674 46.7069C97.5559 47.2049 97.513 47.7179 97.547 48.2287C97.5742 48.683 97.5118 49.478 96.9797 50.5081C96.139 52.1571 96.3307 55.9425 98.0507 56.3173C99.6743 56.6716 100.31 56.524 100.377 56.5069V56.5728C100.349 57.2838 100.092 63.4098 99.1558 64.1503C98.8971 64.3559 98.9448 64.491 99.1558 64.5875C99.1558 64.5875 99.1558 64.6273 99.1501 64.7011C99.1217 65.1554 98.9777 66.859 98.3559 67.8266C97.6287 68.951 97.7047 75.4359 97.7047 75.4359L97.2089 79.2587C97.2089 79.2587 97.5141 81.6199 97.2089 82.0321C96.9354 82.399 96.5724 91.1338 96.4964 93.0281H96.4646C96.3143 93.0379 96.1687 93.0844 96.0405 93.1636C95.9123 93.2428 95.8055 93.3523 95.7294 93.4824C95.3277 94.1354 93.9209 95.3427 93.9209 95.3427C93.6157 95.7766 92.4868 96.1922 91.89 96.3876C91.8112 96.4133 91.7352 96.4468 91.6631 96.4875C91.4396 96.6093 91.2602 96.7984 91.1502 97.0281C91.1109 97.0962 91.0858 97.1716 91.0764 97.2496C91.067 97.3277 91.0736 97.4069 91.0958 97.4824C91.2478 97.856 94.4212 98.1195 95.2245 97.7436C95.8553 97.4495 98.3559 97.0622 99.394 96.91C99.5826 96.8863 99.7578 96.8004 99.8922 96.6659C100.027 96.5314 100.112 96.3559 100.136 96.1672C100.146 96.1021 100.143 96.0356 100.126 95.9718C100.11 95.908 100.081 95.8482 100.041 95.7959C99.8422 95.5494 99.7412 94.8759 99.7004 94.433C99.7847 94.3986 99.8635 94.3519 99.9341 94.2944C99.8473 92.9329 100.04 91.5681 100.501 90.2842C101.266 88.2604 101.495 84.5125 101.305 82.0764C101.305 82.0764 103.636 72.0322 105.472 71.0952C105.5 71.1315 106.391 72.2752 106.504 75.8175C106.618 79.4154 107.918 81.7766 107.918 81.7766C107.918 81.7766 107.344 87.8856 107.918 90.1718L107.168 93.7777C107.113 93.7311 107.077 93.6948 107.077 93.6948C107.077 93.6948 107.1 93.7947 107.131 93.9549L107.115 94.0321L107.148 94.0389C107.233 94.4932 107.359 95.2757 107.307 95.7425C107.277 96.0048 107.203 96.3649 107.153 96.7181C107.074 97.2734 107.052 97.8118 107.344 97.9299C107.823 98.1229 110.634 98.3842 111.111 97.7663C111.218 97.6404 111.288 97.487 111.312 97.3233C111.337 97.1597 111.315 96.9925 111.249 96.8407C111.215 96.7556 111.168 96.676 111.111 96.6045C111.111 96.6045 110.364 95.3836 110.575 94.5227C110.595 94.4386 110.597 94.3514 110.581 94.2664C110.566 94.1815 110.533 94.1006 110.486 94.0287C110.519 93.6062 110.689 91.6505 111.129 89.9901C111.608 88.1866 112.616 84.232 111.874 81.6324C111.846 81.5301 111.815 81.4302 111.779 81.3325C111.351 79.913 111.208 78.4227 111.358 76.9475C111.083 75.6882 111.083 74.3841 111.358 73.1247C111.818 71.0259 112.139 68.9646 112.139 68.9646C112.139 68.9646 112.392 66.1912 112.17 64.491C112.17 64.4547 112.16 64.4183 112.156 64.3774L112.276 64.3502C112.276 64.3502 111.626 61.4643 111.397 59.6279C111.342 59.194 111.272 58.6455 111.195 58.0595C111.406 58.0244 111.615 57.9724 111.818 57.9039C113.881 57.1918 114.532 50.7489 114.532 50.7489V48.7046C114.532 48.7046 115.226 45.562 112.817 44.1753ZM97.4369 93.9469C97.3734 93.9151 97.3359 93.8935 97.3359 93.8935L97.4369 93.9469Z" fill="#252F3D"/>
<path d="M111.571 81.3734C112.467 83.9504 111.422 88.1332 110.936 90.0049C110.45 91.8765 110.302 94.1139 110.302 94.1139C108.399 94.4126 107.018 94.0389 107.018 94.0389L107.802 90.1923C107.242 87.914 107.802 81.8254 107.802 81.8254C107.802 81.8254 106.534 79.4722 106.422 75.8868C106.308 72.3581 105.442 71.2167 105.415 71.1815C103.625 72.1151 101.349 82.1253 101.349 82.1253C101.535 84.5523 101.31 88.2877 100.565 90.3024C100.112 91.5831 99.9219 92.942 100.006 94.2979C99.7447 94.525 99.3816 94.5568 98.9845 94.4932C97.9191 94.3206 96.6416 93.4018 96.6416 93.4018C96.6416 93.4018 97.0512 82.4989 97.3507 82.0855C97.6502 81.6721 97.3507 79.3212 97.3507 79.3212L97.8352 75.512C97.8352 75.512 97.7603 69.0498 98.4694 67.93C99.0821 66.9623 99.2228 65.261 99.25 64.8147C99.25 64.7443 99.25 64.7011 99.25 64.7011L100.33 63.4064C100.33 63.4064 110.777 62.6216 111.562 63.4064C111.754 63.5983 111.873 64.0367 111.944 64.5875C112.159 66.282 111.912 69.0452 111.912 69.0452C111.912 69.0452 111.599 71.0997 111.151 73.1906C110.882 74.4465 110.882 75.745 111.151 77.0009C111.006 78.472 111.149 79.957 111.571 81.3734Z" fill="#1C2633"/>
<path d="M110.918 97.7504C110.451 98.3671 107.709 98.1059 107.242 97.9139C106.957 97.8004 106.979 97.2586 107.056 96.7055C107.104 96.3546 107.176 95.9957 107.205 95.7345C107.279 95.0621 106.979 93.6982 106.979 93.6982C106.979 93.6982 107.593 94.3523 107.742 93.6982C107.808 93.412 108.037 93.2654 108.275 93.1916C108.595 93.0948 108.939 93.1161 109.244 93.2518C109.729 93.4631 110.537 93.9117 110.392 94.5181C110.187 95.3756 110.914 96.5931 110.914 96.5931C110.971 96.6641 111.017 96.7429 111.051 96.8271C111.115 96.9783 111.137 97.1445 111.114 97.3074C111.09 97.4702 111.022 97.6235 110.918 97.7504Z" fill="#2D3D52"/>
<path opacity="0.1" d="M110.918 97.7506C110.452 98.3673 107.709 98.1061 107.242 97.9142C106.957 97.8006 106.979 97.2589 107.056 96.7058C107.351 96.8444 107.85 96.9591 108.686 96.8818C108.881 96.8633 109.077 96.8572 109.273 96.8637C109.867 96.8904 110.462 96.8783 111.054 96.8273C111.118 96.9789 111.14 97.1452 111.116 97.3081C111.092 97.471 111.023 97.6241 110.918 97.7506Z" fill="black"/>
<path opacity="0.1" d="M101.348 82.1207C101.534 84.5478 101.309 88.2831 100.564 90.2979C100.111 91.5786 99.9208 92.9374 100.005 94.2933C99.7436 94.5205 99.3805 94.5523 98.9834 94.4887C99.2103 92.9135 100.168 86.1264 100.782 80.7636C101.482 74.6568 104.753 70.4558 104.753 70.4558L105.405 71.1747C103.624 72.1105 101.348 82.1207 101.348 82.1207Z" fill="black"/>
<path d="M109.797 42.8661L109.344 45.1068L107.112 48.8604L104.361 47.6838C104.361 47.6838 100.616 43.7621 102.971 43.2022C103.252 43.1416 103.518 43.0233 103.751 42.8547C104.213 42.506 104.358 41.9995 104.361 41.5032C104.343 40.9479 104.214 40.4017 103.982 39.8973L108.794 38.3845C108.598 39.0176 108.484 39.6734 108.454 40.3357C108.417 41.6486 108.908 42.2948 109.304 42.6071C109.45 42.7246 109.618 42.8126 109.797 42.8661Z" fill="#D8B98A"/>
<path opacity="0.1" d="M108.79 38.3845C108.593 39.0176 108.479 39.6734 108.449 40.3357C108.362 40.4404 108.268 40.5401 108.169 40.6344C107.672 41.1094 107.056 41.441 106.386 41.594C105.716 41.7469 105.017 41.7155 104.364 41.5032C104.345 40.9476 104.215 40.4015 103.981 39.8973L108.79 38.3845Z" fill="black"/>
<path d="M109.343 37.7677C109.344 38.5214 109.121 39.2582 108.703 39.8849C108.284 40.5117 107.69 41.0002 106.994 41.2888C106.299 41.5774 105.534 41.653 104.795 41.5061C104.057 41.3592 103.378 40.9964 102.846 40.4635C102.313 39.9307 101.951 39.2518 101.804 38.5126C101.657 37.7735 101.732 37.0073 102.02 36.311C102.308 35.6147 102.796 35.0195 103.422 34.6008C104.048 34.182 104.784 33.9585 105.537 33.9585C106.037 33.9561 106.533 34.053 106.996 34.2436C107.459 34.4341 107.88 34.7146 108.234 35.0688C108.587 35.423 108.868 35.8438 109.058 36.3071C109.249 36.7703 109.346 37.2668 109.343 37.7677Z" fill="#D8B98A"/>
<path opacity="0.1" d="M109.797 42.8659L109.344 45.1066L107.112 48.8602L104.361 47.6836C104.361 47.6836 100.616 43.7619 102.971 43.202C103.252 43.1414 103.518 43.0231 103.751 42.8545C103.327 44.022 105.079 46.4513 105.079 46.4513C105.283 46.7523 105.75 46.5649 105.75 46.5649C106.879 46.3934 108.957 43.1441 109.296 42.6035C109.444 42.7232 109.615 42.8123 109.797 42.8659Z" fill="black"/>
<path opacity="0.1" d="M111.953 64.5899C111.29 64.7409 107.625 65.553 106.235 65.3497C104.705 65.1225 101.732 64.9772 101.732 64.9772C101.732 64.9772 99.8381 65.0794 99.2549 64.8125C99.2549 64.7421 99.2549 64.6989 99.2549 64.6989L100.335 63.4042C100.335 63.4042 110.782 62.6194 111.567 63.4042C111.763 63.6007 111.883 64.0391 111.953 64.5899Z" fill="black"/>
<path d="M105.077 46.5639C105.077 46.5639 103.109 43.8382 103.851 42.7707L100.525 44.1335C100.525 44.1335 98.5241 43.8905 97.8025 46.8808C97.6872 47.3778 97.6455 47.889 97.6788 48.3981C97.706 48.8524 97.6448 49.6474 97.1308 50.6695C96.3105 52.3129 96.4966 56.0858 98.1758 56.4617C99.8549 56.8376 100.451 56.6479 100.451 56.6479C100.451 56.6479 100.224 63.4827 99.257 64.2674C98.2903 65.0522 101.73 64.8648 101.73 64.8648C101.73 64.8648 104.704 65.0147 106.235 65.2385C107.765 65.4622 112.055 64.4537 112.055 64.4537C112.055 64.4537 111.421 61.5781 111.196 59.7484C110.971 57.9188 110.448 54.021 110.448 54.021L114.254 48.8604C114.254 48.8604 114.925 45.7417 112.575 44.3595C110.224 42.9774 109.34 42.6389 109.34 42.6389C109.34 42.6389 106.978 46.489 105.747 46.6752C105.749 46.6752 105.282 46.8638 105.077 46.5639Z" fill="url(#paint10_linear)"/>
<path opacity="0.1" d="M100.712 47.6462C100.712 47.6462 100.676 48.8796 100.9 49.3646C101.123 49.8495 101.945 52.5446 101.945 52.5446H100.078C100.078 52.5446 101.086 51.4611 101.012 50.9375C100.938 50.414 100.712 47.6462 100.712 47.6462Z" fill="black"/>
<path d="M106.235 56.9464C106.235 56.9464 102.115 55.9379 101.731 55.0793C101.348 54.2207 100.289 52.2979 100.289 52.2979L100.724 51.7119L102.727 53.286C102.727 53.286 105.11 55.1906 106.235 55.378C107.361 55.5654 106.235 56.9464 106.235 56.9464Z" fill="#D8B98A"/>
<path opacity="0.05" d="M106.235 56.9464C106.235 56.9464 102.115 55.9379 101.731 55.0793C101.348 54.2207 100.289 52.2979 100.289 52.2979L100.724 51.7119L102.727 53.286C102.727 53.286 105.11 55.1906 106.235 55.378C107.361 55.5654 106.235 56.9464 106.235 56.9464Z" fill="black"/>
<path d="M109.798 52.0915V54.3289H109.44C107.664 54.3285 105.918 54.7812 104.366 55.644L103.692 56.0177L103.512 56.1188L102.354 53.5066L103.437 52.5356H103.492C103.757 52.5617 104.902 52.6571 105.387 52.4936C105.848 52.3368 106.42 51.8405 107.777 52.1869C108.445 52.3584 109.017 53.108 109.665 52.874L109.798 52.0915Z" fill="#D8B98A"/>
<path opacity="0.1" d="M113.4 48.0163L114.145 48.8567V50.8931C114.145 50.8931 113.511 57.3167 111.497 58.0265C109.484 58.7363 105.886 57.6154 105.886 57.6154C105.886 57.6154 104.957 55.1509 105.391 55.0032C105.826 54.8556 109.232 53.9538 109.232 53.9538C109.232 53.9538 109.184 50.1855 109.929 49.0646C109.929 49.0646 109.445 45.5541 111.124 45.4791C112.803 45.4042 113.4 48.0163 113.4 48.0163Z" fill="black"/>
<path d="M113.513 48.0163L114.259 48.8567V50.8931C114.259 50.8931 113.625 57.3167 111.61 58.0265C109.595 58.7363 105.998 57.6154 105.998 57.6154C105.998 57.6154 105.069 55.1509 105.505 55.0032C105.941 54.8556 109.345 53.9538 109.345 53.9538C109.345 53.9538 109.297 50.1855 110.043 49.0646C110.043 49.0646 109.558 45.5541 111.237 45.4791C112.916 45.4042 113.513 48.0163 113.513 48.0163Z" fill="url(#paint11_linear)"/>
<path opacity="0.1" d="M108.3 39.3848C108.332 39.1388 108.303 38.8887 108.215 38.6568C108.109 38.4297 107.863 38.2582 107.622 38.3161C107.304 38.391 107.168 38.8067 106.853 38.9067C106.589 38.9907 106.301 38.8033 106.172 38.5569C106.044 38.3104 106.043 38.0208 106.043 37.7437C106.043 37.4325 106.043 37.1202 106.043 36.8079C106.043 36.4671 106.032 36.1014 105.823 35.8345C105.563 35.5029 104.952 35.3576 104.543 35.3712C104.271 35.3742 104.011 35.4792 103.812 35.6653C103.595 35.8516 103.342 35.9879 103.044 35.939C102.92 35.9205 102.804 35.8671 102.709 35.7851C102.615 35.7031 102.545 35.5957 102.509 35.4757V35.4643C102.825 35.043 103.226 34.6921 103.685 34.4337C104.144 34.1753 104.652 34.0151 105.176 33.9633C105.7 33.9114 106.229 33.969 106.73 34.1325C107.23 34.2959 107.692 34.5615 108.084 34.9127C108.477 35.2638 108.793 35.6927 109.012 36.1722C109.23 36.6518 109.347 37.1716 109.355 37.6987C109.363 38.2258 109.261 38.7488 109.056 39.2345C108.851 39.7202 108.548 40.1581 108.166 40.5205C108.231 40.1447 108.276 39.7656 108.3 39.3848Z" fill="black"/>
<path d="M103.045 35.8292C102.92 35.8101 102.804 35.7564 102.709 35.6743C102.614 35.5921 102.545 35.4848 102.508 35.3647C102.477 35.2443 102.485 35.116 102.45 34.9967C102.363 34.7026 102.05 34.5504 101.84 34.3266C101.42 33.8803 101.447 33.1466 101.744 32.6094C101.985 32.1767 102.45 31.8144 102.938 31.8962C103.24 31.9485 103.505 32.1631 103.807 32.1835C104.109 32.204 104.374 32.037 104.639 31.9144C105.287 31.6198 106.016 31.5549 106.706 31.7304C106.917 31.773 107.113 31.8723 107.273 32.0177C107.381 32.1543 107.483 32.2964 107.576 32.4436C107.923 32.8866 108.546 32.974 109.101 33.074C109.656 33.1739 110.283 33.3942 110.462 33.928C110.584 34.2824 110.462 34.6662 110.397 35.0342C110.375 35.1093 110.38 35.1897 110.411 35.2613C110.499 35.4044 110.715 35.3443 110.879 35.3749C111.193 35.4419 111.274 35.8474 111.286 36.1699C111.299 36.5379 111.309 36.9062 111.316 37.275C111.325 37.4121 111.313 37.5499 111.283 37.6838C111.215 37.8758 111.107 38.0511 110.966 38.1983L109.734 39.6804C109.187 40.3369 108.607 41.1023 108.713 41.9519C108.454 42.0654 108.146 41.844 108.062 41.5725C107.978 41.3011 108.045 41.0047 108.102 40.731C108.203 40.2498 108.269 39.7621 108.3 39.2716C108.332 39.026 108.303 38.7762 108.215 38.5447C108.109 38.3176 107.863 38.1461 107.623 38.204C107.303 38.2789 107.169 38.6946 106.853 38.7946C106.589 38.8786 106.301 38.6912 106.173 38.4448C106.044 38.1983 106.043 37.9098 106.043 37.6327V36.6958C106.043 36.355 106.032 35.9893 105.823 35.7224C105.563 35.3908 104.952 35.2454 104.543 35.2591C104.272 35.2624 104.012 35.3674 103.814 35.5532C103.595 35.7406 103.342 35.878 103.045 35.8292Z" fill="#797E84"/>
<path opacity="0.1" d="M103.902 47.553L105.071 52.3582C105.071 52.3582 105.992 52.3525 103.902 47.553Z" fill="black"/>
<path opacity="0.1" d="M107.896 46.7502C107.896 46.7502 106.367 49.2579 106.963 51.8519L107.248 51.8723C107.248 51.8723 106.74 50.6719 107.896 46.7502Z" fill="black"/>
<path opacity="0.1" d="M108.86 60.9432C108.86 60.9432 110.739 60.3209 110.875 61.7643C110.88 61.7643 110.526 60.7752 108.86 60.9432Z" fill="black"/>
<path opacity="0.1" d="M103.437 52.6514C103.437 52.6514 103.063 55.2635 103.735 56.3118C103.735 56.3118 102.373 56.8717 100.452 56.7604L100.225 52.6514H103.437Z" fill="black"/>
<path opacity="0.1" d="M103.692 56.0173L103.512 56.1183L102.354 53.5062L103.437 52.5352H103.492C103.475 52.6646 103.174 54.9099 103.692 56.0173Z" fill="black"/>
<path d="M103.436 52.54C103.436 52.54 103.063 55.1522 103.735 56.1993C103.735 56.1993 102.373 56.7603 100.451 56.6479L99.1455 52.54H103.436Z" fill="url(#paint12_linear)"/>
<path d="M100.21 96.1605C100.188 96.3469 100.105 96.5208 99.974 96.6549C99.8428 96.789 99.6707 96.8755 99.4849 96.901C98.4718 97.052 96.0313 97.4382 95.4152 97.7323C94.6312 98.106 91.535 97.8459 91.3852 97.4711C91.3636 97.3956 91.3572 97.3166 91.3664 97.2386C91.3755 97.1606 91.4 97.0852 91.4385 97.0168C91.5448 96.7893 91.7198 96.6009 91.9389 96.4785C92.0112 96.4382 92.0872 96.4047 92.1658 96.3785C92.749 96.1843 93.8506 95.7709 94.1479 95.3371C94.1479 95.3371 95.5219 94.1344 95.9133 93.4847C95.9869 93.3569 96.0908 93.2492 96.2158 93.1711C96.3409 93.0931 96.4833 93.0471 96.6304 93.0373C96.9571 93.0225 97.3213 93.1872 97.4711 93.9038C97.4711 93.9038 99.2603 94.926 99.7402 94.0299C99.7402 94.0299 99.8151 95.4064 100.112 95.7834C100.153 95.8365 100.183 95.8973 100.199 95.962C100.216 96.0268 100.22 96.0943 100.21 96.1605Z" fill="#2D3D52"/>
<path opacity="0.1" d="M100.21 96.1602C100.188 96.3467 100.105 96.5206 99.974 96.6547C99.8428 96.7887 99.6707 96.8753 99.4849 96.9007C98.4718 97.0518 96.0313 97.4379 95.4152 97.7321C94.6312 98.1057 91.535 97.8456 91.3852 97.4709C91.3636 97.3954 91.3572 97.3163 91.3664 97.2384C91.3755 97.1604 91.4 97.085 91.4385 97.0166C91.5448 96.789 91.7198 96.6007 91.9389 96.4783C92.4438 96.819 93.5647 97.1415 96.0302 96.7565C98.3821 96.3885 99.5473 96.0285 100.115 95.7832C100.155 95.8365 100.184 95.8973 100.2 95.9621C100.217 96.0268 100.22 96.0942 100.21 96.1602Z" fill="black"/>
<g opacity="0.1">
<path opacity="0.1" d="M110.391 35.0865V35.0683C110.445 34.789 110.525 34.5005 110.505 34.22C110.481 34.4492 110.443 34.6768 110.391 34.9014C110.377 34.9623 110.377 35.0256 110.391 35.0865Z" fill="black"/>
<path opacity="0.1" d="M108.213 38.5819C108.272 38.7165 108.304 38.8618 108.305 39.009C108.322 38.8061 108.29 38.6022 108.213 38.4139C108.109 38.1867 107.863 38.0152 107.622 38.0731C107.302 38.1481 107.168 38.5638 106.852 38.6637C106.588 38.7478 106.3 38.5604 106.171 38.3139C106.042 38.0675 106.042 37.7779 106.042 37.5007C106.042 37.1884 106.042 36.8772 106.042 36.5649C106.042 36.2242 106.03 35.8585 105.821 35.5916C105.56 35.2588 104.95 35.1146 104.542 35.1271C104.27 35.1306 104.009 35.2359 103.811 35.4224C103.592 35.6086 103.34 35.7449 103.042 35.6961C102.918 35.6772 102.802 35.6236 102.707 35.5417C102.612 35.4597 102.543 35.3526 102.506 35.2327C102.476 35.1123 102.483 34.9829 102.448 34.8636C102.361 34.5706 102.048 34.4173 101.838 34.1947C101.641 33.9761 101.529 33.6939 101.524 33.3997C101.508 33.5723 101.528 33.7462 101.582 33.9108C101.636 34.0754 101.723 34.2273 101.838 34.3571C102.048 34.5842 102.361 34.733 102.448 35.026C102.483 35.1396 102.476 35.2747 102.506 35.3951C102.543 35.515 102.612 35.6221 102.707 35.7041C102.802 35.7861 102.918 35.8396 103.042 35.8585C103.34 35.9073 103.592 35.771 103.811 35.5848C104.009 35.3983 104.27 35.293 104.542 35.2895C104.95 35.277 105.563 35.4212 105.821 35.754C106.03 36.0209 106.04 36.3877 106.042 36.7273C106.042 37.0396 106.042 37.3508 106.042 37.6631C106.042 37.9403 106.042 38.231 106.171 38.4752C106.3 38.7194 106.585 38.9102 106.852 38.8261C107.165 38.7262 107.305 38.3105 107.622 38.2355C107.863 38.1833 108.109 38.3627 108.213 38.5819Z" fill="black"/>
<path opacity="0.1" d="M111.281 37.5542C111.212 37.7459 111.104 37.9209 110.963 38.0675L109.731 39.5496C109.212 40.1731 108.664 40.8955 108.71 41.6916C108.747 40.9613 109.255 40.2969 109.731 39.7177L110.963 38.2356C111.104 38.089 111.212 37.914 111.281 37.7222C111.311 37.5879 111.323 37.4498 111.314 37.3123C111.312 37.3939 111.301 37.475 111.281 37.5542Z" fill="black"/>
<path opacity="0.1" d="M108.067 41.4421C108.047 41.3771 108.035 41.31 108.03 41.2422C108.02 41.3661 108.032 41.4909 108.067 41.6102C108.151 41.8805 108.459 42.1042 108.719 41.9884C108.711 41.9341 108.707 41.8795 108.705 41.8248C108.446 41.9282 108.147 41.7078 108.067 41.4421Z" fill="black"/>
</g>
<path opacity="0.1" d="M95.6641 93.8267C95.6641 93.8267 96.0544 94.5081 97.4681 93.9084L95.6641 93.8267Z" fill="black"/>
<path opacity="0.1" d="M107.613 93.9924C107.613 93.9924 108.832 95.4291 110.368 94.4637L107.613 93.9924Z" fill="black"/>
<path opacity="0.1" d="M111.16 77.0034C111.16 77.0034 110.299 77.5418 110.272 77.8495C110.244 78.1573 110.716 77.6224 110.716 77.6224L111.16 77.0034Z" fill="black"/>
<path opacity="0.1" d="M111.499 81.1323C111.2 81.3818 110.827 81.5272 110.438 81.5469C109.794 81.5753 109.848 82.4157 110.269 82.1636C110.69 81.9114 111.499 81.1323 111.499 81.1323Z" fill="black"/>
<path opacity="0.1" d="M111.663 81.6724C111.663 81.6724 111.25 83.7041 110.914 83.3123L111.663 81.6724Z" fill="black"/>
<path d="M65.131 95.9038C67.5004 95.9038 69.4212 95.6083 69.4212 95.2438C69.4212 94.8793 67.5004 94.5837 65.131 94.5837C62.7616 94.5837 60.8408 94.8793 60.8408 95.2438C60.8408 95.6083 62.7616 95.9038 65.131 95.9038Z" fill="#374657"/>
<path d="M49.5621 94.1022C52.0817 94.1022 54.1243 93.7564 54.1243 93.3299C54.1243 92.9034 52.0817 92.5576 49.5621 92.5576C47.0425 92.5576 45 92.9034 45 93.3299C45 93.7564 47.0425 94.1022 49.5621 94.1022Z" fill="#374657"/>
<path d="M47.6753 92.0671C47.4667 91.8978 47.3147 91.6688 47.2396 91.4107C47.184 91.1495 47.2952 90.8372 47.5437 90.7418C47.8228 90.635 48.1212 90.8281 48.347 91.0234C48.5727 91.2187 48.8326 91.4425 49.1287 91.4016C48.9764 91.2633 48.8625 91.0879 48.7981 90.8925C48.7336 90.697 48.7209 90.4882 48.7611 90.2863C48.7733 90.2026 48.8087 90.1239 48.8632 90.0592C49.0175 89.8934 49.2989 89.9649 49.4849 90.0955C50.0738 90.5112 50.2394 91.313 50.2417 92.0353C50.3018 91.7741 50.2519 91.5038 50.253 91.2403C50.2542 90.9768 50.3279 90.6725 50.5526 90.5339C50.6913 90.457 50.8478 90.4179 51.0064 90.4203C51.2719 90.4113 51.5669 90.4374 51.7484 90.6316C51.9753 90.8724 51.9152 91.2778 51.7189 91.5402C51.5226 91.8025 51.2254 91.9717 50.9519 92.1557C50.7317 92.2864 50.5439 92.4654 50.4028 92.6793C50.3863 92.7089 50.3726 92.7401 50.362 92.7724H48.7044C48.3309 92.5853 47.9846 92.348 47.6753 92.0671Z" fill="url(#paint13_linear)"/>
<path d="M119.435 91.234C116.915 91.234 114.873 90.8882 114.873 90.4617C114.873 90.0352 116.915 89.6895 119.435 89.6895C121.955 89.6895 123.997 90.0352 123.997 90.4617C123.997 90.8882 121.955 91.234 119.435 91.234Z" fill="#374657"/>
<path d="M121.322 89.1982C121.53 89.0289 121.682 88.7999 121.757 88.5418C121.813 88.2806 121.702 87.9683 121.453 87.8729C121.174 87.7661 120.876 87.9592 120.65 88.1545C120.424 88.3499 120.165 88.5736 119.868 88.5327C120.021 88.3944 120.135 88.219 120.199 88.0236C120.263 87.8281 120.276 87.6193 120.236 87.4174C120.224 87.3337 120.188 87.255 120.134 87.1903C119.98 87.0245 119.698 87.096 119.512 87.2266C118.923 87.6423 118.758 88.4441 118.755 89.1664C118.695 88.9052 118.745 88.6349 118.744 88.3714C118.743 88.1079 118.669 87.8036 118.444 87.665C118.306 87.5881 118.149 87.549 117.991 87.5514C117.725 87.5424 117.43 87.5685 117.249 87.7627C117.022 88.0035 117.082 88.4089 117.278 88.6713C117.474 88.9336 117.772 89.1028 118.045 89.2868C118.265 89.4175 118.453 89.5965 118.594 89.8104C118.611 89.8401 118.624 89.8712 118.635 89.9035H120.293C120.666 89.7164 121.012 89.4791 121.322 89.1982Z" fill="url(#paint14_linear)"/>
<defs>
<linearGradient id="paint0_linear" x1="36.2282" y1="208.997" x2="-32.0562" y2="-18.1356" gradientUnits="userSpaceOnUse">
<stop stop-color="#53616D"/>
<stop offset="1" stop-color="#2D3D52"/>
</linearGradient>
<linearGradient id="paint1_linear" x1="61.9901" y1="30.0244" x2="61.9901" y2="56.0945" gradientUnits="userSpaceOnUse">
<stop stop-color="#8BCC32"/>
<stop offset="1" stop-color="#AAEE4C"/>
</linearGradient>
<linearGradient id="paint2_linear" x1="58.7273" y1="30.8315" x2="58.7273" y2="33.167" gradientUnits="userSpaceOnUse">
<stop stop-color="#8BCC32"/>
<stop offset="1" stop-color="#AAEE4C"/>
</linearGradient>
<linearGradient id="paint3_linear" x1="62.1096" y1="30.01" x2="62.1096" y2="32.438" gradientUnits="userSpaceOnUse">
<stop stop-color="#8BCC32"/>
<stop offset="1" stop-color="#AAEE4C"/>
</linearGradient>
<linearGradient id="paint4_linear" x1="84.2209" y1="35.0967" x2="84.2209" y2="49.3056" gradientUnits="userSpaceOnUse">
<stop stop-color="#8BCC32"/>
<stop offset="1" stop-color="#AAEE4C"/>
</linearGradient>
<linearGradient id="paint5_linear" x1="75.8002" y1="37.5408" x2="75.8002" y2="50.3734" gradientUnits="userSpaceOnUse">
<stop stop-color="#8BCC32"/>
<stop offset="1" stop-color="#AAEE4C"/>
</linearGradient>
<linearGradient id="paint6_linear" x1="85.8693" y1="34.4895" x2="85.8693" y2="38.1548" gradientUnits="userSpaceOnUse">
<stop stop-color="#8BCC32"/>
<stop offset="1" stop-color="#AAEE4C"/>
</linearGradient>
<linearGradient id="paint7_linear" x1="75.3834" y1="47.5874" x2="75.3834" y2="50.3533" gradientUnits="userSpaceOnUse">
<stop stop-color="#8BCC32"/>
<stop offset="1" stop-color="#AAEE4C"/>
</linearGradient>
<linearGradient id="paint8_linear" x1="88.9364" y1="42.7922" x2="88.9364" y2="50.8334" gradientUnits="userSpaceOnUse">
<stop stop-color="#8BCC32"/>
<stop offset="1" stop-color="#AAEE4C"/>
</linearGradient>
<linearGradient id="paint9_linear" x1="82.2749" y1="34.5107" x2="82.2749" y2="37.8109" gradientUnits="userSpaceOnUse">
<stop stop-color="#8BCC32"/>
<stop offset="1" stop-color="#AAEE4C"/>
</linearGradient>
<linearGradient id="paint10_linear" x1="105.5" y1="42.6389" x2="105.5" y2="65.2709" gradientUnits="userSpaceOnUse">
<stop stop-color="#8BCC32"/>
<stop offset="1" stop-color="#AAEE4C"/>
</linearGradient>
<linearGradient id="paint11_linear" x1="109.824" y1="45.4775" x2="109.824" y2="58.262" gradientUnits="userSpaceOnUse">
<stop stop-color="#8BCC32"/>
<stop offset="1" stop-color="#AAEE4C"/>
</linearGradient>
<linearGradient id="paint12_linear" x1="101.44" y1="52.54" x2="101.44" y2="56.6628" gradientUnits="userSpaceOnUse">
<stop stop-color="#8BCC32"/>
<stop offset="1" stop-color="#AAEE4C"/>
</linearGradient>
<linearGradient id="paint13_linear" x1="49.5598" y1="89.9626" x2="49.5598" y2="92.7724" gradientUnits="userSpaceOnUse">
<stop stop-color="#8DC63F"/>
<stop offset="1" stop-color="#A4E846"/>
</linearGradient>
<linearGradient id="paint14_linear" x1="119.437" y1="87.0938" x2="119.437" y2="89.9035" gradientUnits="userSpaceOnUse">
<stop stop-color="#8DC63F"/>
<stop offset="1" stop-color="#A4E846"/>
</linearGradient>
</defs>
</svg>
