<svg width="167" height="131" viewBox="0 0 167 131" fill="none" xmlns="http://www.w3.org/2000/svg">
<path d="M70.8416 120.578C65.8683 113.823 62.8146 105.628 56.5911 99.9047C50.5069 94.3075 42.1825 91.7993 34.3926 88.7869C22.4753 84.2073 10.5581 77.6195 4.32055 66.7673C-4.4036 51.6059 0.820663 31.383 13.3979 19.0179C25.9752 6.65275 44.3345 1.19966 62.2243 0.200012C80.1142 -0.799652 97.9483 2.1633 115.731 4.32021C131.948 6.28801 150.065 8.48546 160.351 20.8056C163.523 24.6922 165.648 29.2819 166.534 34.1617C167.42 39.0414 167.039 44.058 165.427 48.76C162.908 55.8612 157.716 61.715 153.598 68.0777C148.02 76.7189 144.367 86.3778 140.077 95.6899C135.787 105.002 130.66 114.229 122.815 121.028C109.429 132.614 82.2429 136.1 70.8416 120.578Z" fill="url(#paint0_linear)"/>
<path d="M51.9261 73.5879C63.4833 73.5879 72.8523 72.6198 72.8523 71.4255C72.8523 70.2313 63.4833 69.2632 51.9261 69.2632C40.369 69.2632 31 70.2313 31 71.4255C31 72.6198 40.369 73.5879 51.9261 73.5879Z" fill="#374657"/>
<path d="M64.6207 39.9075H39.2305V71.436H64.6207V39.9075Z" fill="#252F3D"/>
<path d="M61.0353 57.4583H42.8994V58.2953H61.0353V57.4583Z" fill="url(#paint1_linear)"/>
<path d="M61.0353 60.3877H42.8994V61.2247H61.0353V60.3877Z" fill="url(#paint2_linear)"/>
<path d="M61.0353 63.3174H42.8994V64.1544H61.0353V63.3174Z" fill="url(#paint3_linear)"/>
<path d="M61.0353 66.2471H42.8994V67.0841H61.0353V66.2471Z" fill="url(#paint4_linear)"/>
<path d="M48.4556 51.1293H42.6934C42.3001 48.8561 42.3001 46.5322 42.6934 44.259H48.4556C47.8064 46.5031 47.8064 48.8852 48.4556 51.1293Z" fill="url(#paint5_linear)"/>
<path d="M61.4541 44.9023H50.8516V45.5999H61.4541V44.9023Z" fill="url(#paint6_linear)"/>
<path d="M61.4541 47.4136H50.8516V48.1111H61.4541V47.4136Z" fill="url(#paint7_linear)"/>
<path d="M61.4541 49.9248H50.8516V50.6223H61.4541V49.9248Z" fill="url(#paint8_linear)"/>
<path d="M61.4541 52.436H50.8516V53.1335H61.4541V52.436Z" fill="url(#paint9_linear)"/>
<path d="M56.9073 26.9725C56.9062 28.1689 56.4734 29.3247 55.6884 30.2275C54.9034 31.1303 53.819 31.7195 52.6344 31.8868C51.4498 32.0542 50.2446 31.7884 49.2403 31.1384C48.2359 30.4883 47.4999 29.4977 47.1674 28.3485C46.8349 27.1992 46.9283 25.9686 47.4304 24.8828C47.9326 23.7969 48.8097 22.9287 49.9006 22.4377C50.9916 21.9467 52.2231 21.8659 53.3689 22.2101C54.5146 22.5543 55.4977 23.3004 56.1374 24.3114C56.6405 25.1078 56.9075 26.0305 56.9073 26.9725Z" fill="#252F3D"/>
<path d="M56.1375 24.3114L51.2334 29.2144C50.9252 28.7373 49.208 26.5197 49.208 26.5197C49.4281 26.2973 49.6629 26.09 49.9109 25.8993L51.3348 27.7978L55.5632 23.5696C55.7776 23.7982 55.9699 24.0466 56.1375 24.3114Z" fill="url(#paint10_linear)"/>
<path d="M114.273 73.5879C125.83 73.5879 135.199 72.6198 135.199 71.4255C135.199 70.2313 125.83 69.2632 114.273 69.2632C102.716 69.2632 93.3467 70.2313 93.3467 71.4255C93.3467 72.6198 102.716 73.5879 114.273 73.5879Z" fill="#374657"/>
<path d="M126.967 39.9075H101.577V71.436H126.967V39.9075Z" fill="#252F3D"/>
<path d="M123.381 57.4583H105.245V58.2953H123.381V57.4583Z" fill="url(#paint11_linear)"/>
<path d="M123.381 60.3877H105.245V61.2247H123.381V60.3877Z" fill="url(#paint12_linear)"/>
<path d="M123.381 63.3174H105.245V64.1544H123.381V63.3174Z" fill="url(#paint13_linear)"/>
<path d="M123.381 66.2471H105.245V67.0841H123.381V66.2471Z" fill="url(#paint14_linear)"/>
<path d="M110.802 51.1293H105.04C104.647 48.8561 104.647 46.5322 105.04 44.259H110.802C110.153 46.5031 110.153 48.8852 110.802 51.1293Z" fill="url(#paint15_linear)"/>
<path d="M123.801 44.9023H113.198V45.5999H123.801V44.9023Z" fill="url(#paint16_linear)"/>
<path d="M123.801 47.4136H113.198V48.1111H123.801V47.4136Z" fill="url(#paint17_linear)"/>
<path d="M123.801 49.9248H113.198V50.6223H123.801V49.9248Z" fill="url(#paint18_linear)"/>
<path d="M123.801 52.436H113.198V53.1335H123.801V52.436Z" fill="url(#paint19_linear)"/>
<path d="M119.254 26.9725C119.253 28.1689 118.82 29.3247 118.035 30.2275C117.25 31.1303 116.166 31.7195 114.981 31.8868C113.796 32.0542 112.591 31.7884 111.587 31.1384C110.583 30.4883 109.847 29.4977 109.514 28.3485C109.182 27.1992 109.275 25.9686 109.777 24.8828C110.279 23.7969 111.156 22.9287 112.247 22.4377C113.338 21.9467 114.57 21.8659 115.716 22.2101C116.861 22.5543 117.844 23.3004 118.484 24.3114C118.987 25.1078 119.254 26.0305 119.254 26.9725Z" fill="#252F3D"/>
<path d="M118.484 24.3114L113.58 29.2144C113.272 28.7373 111.555 26.5197 111.555 26.5197C111.775 26.2973 112.01 26.09 112.258 25.8993L113.681 27.7978L117.91 23.5696C118.124 23.7982 118.316 24.0466 118.484 24.3114Z" fill="url(#paint20_linear)"/>
<path d="M82.9866 88.5282C96.5312 88.5282 107.511 87.3936 107.511 85.994C107.511 84.5943 96.5312 83.4597 82.9866 83.4597C69.442 83.4597 58.4619 84.5943 58.4619 85.994C58.4619 87.3936 69.442 88.5282 82.9866 88.5282Z" fill="#374657"/>
<path d="M97.7012 49.6155H67.9443V86.5662H97.7012V49.6155Z" fill="url(#paint21_linear)"/>
<path d="M93.4501 57.4634H72.1953V58.4444H93.4501V57.4634Z" fill="white"/>
<path d="M93.4501 60.897H72.1953V61.878H93.4501V60.897Z" fill="white"/>
<path d="M93.4501 64.3306H72.1953V65.3116H93.4501V64.3306Z" fill="white"/>
<path d="M93.4501 67.7639H72.1953V68.7449H93.4501V67.7639Z" fill="white"/>
<path d="M93.4501 71.1975H72.1953V72.1785H93.4501V71.1975Z" fill="white"/>
<path d="M88.3816 74.7944H77.2637V78.7184H88.3816V74.7944Z" fill="white"/>
<path d="M90.3954 33.7377C90.3937 35.5355 89.7433 37.2723 88.5636 38.6289C87.384 39.9856 85.7544 40.871 83.9743 41.1225C82.1942 41.3739 80.3831 40.9746 78.8739 39.9977C77.3646 39.0209 76.2586 37.5323 75.7589 35.8053C75.2593 34.0784 75.3997 32.2291 76.1542 30.5973C76.9088 28.9656 78.2269 27.6609 79.8663 26.9231C81.5057 26.1852 83.3563 26.0638 85.078 26.5811C86.7998 27.0983 88.2771 28.2195 89.2384 29.7387C89.9944 30.9355 90.3956 32.3221 90.3954 33.7377Z" fill="url(#paint22_linear)"/>
<path d="M89.2379 29.7388L81.8687 37.1066C81.4055 36.3896 78.8252 33.0572 78.8252 33.0572C79.1559 32.723 79.5088 32.4115 79.8814 32.1249L82.0212 34.9778L88.3749 28.624C88.6972 28.9675 88.9861 29.3408 89.2379 29.7388Z" fill="white"/>
<defs>
<linearGradient id="paint0_linear" x1="36.2282" y1="208.997" x2="-32.0562" y2="-18.1356" gradientUnits="userSpaceOnUse">
<stop stop-color="#53616D"/>
<stop offset="1" stop-color="#2D3D52"/>
</linearGradient>
<linearGradient id="paint1_linear" x1="51.9673" y1="57.4583" x2="51.986" y2="58.2949" gradientUnits="userSpaceOnUse">
<stop stop-color="#8BCC32"/>
<stop offset="1" stop-color="#91DF26"/>
</linearGradient>
<linearGradient id="paint2_linear" x1="51.9673" y1="60.3877" x2="51.986" y2="61.2243" gradientUnits="userSpaceOnUse">
<stop stop-color="#8BCC32"/>
<stop offset="1" stop-color="#91DF26"/>
</linearGradient>
<linearGradient id="paint3_linear" x1="51.9673" y1="63.3174" x2="51.986" y2="64.154" gradientUnits="userSpaceOnUse">
<stop stop-color="#8BCC32"/>
<stop offset="1" stop-color="#91DF26"/>
</linearGradient>
<linearGradient id="paint4_linear" x1="51.9673" y1="66.2471" x2="51.986" y2="67.0837" gradientUnits="userSpaceOnUse">
<stop stop-color="#8BCC32"/>
<stop offset="1" stop-color="#91DF26"/>
</linearGradient>
<linearGradient id="paint5_linear" x1="45.427" y1="44.259" x2="48.3231" y2="49.5415" gradientUnits="userSpaceOnUse">
<stop stop-color="#8BCC32"/>
<stop offset="1" stop-color="#91DF26"/>
</linearGradient>
<linearGradient id="paint6_linear" x1="56.1528" y1="44.9023" x2="56.175" y2="45.5991" gradientUnits="userSpaceOnUse">
<stop stop-color="#8BCC32"/>
<stop offset="1" stop-color="#91DF26"/>
</linearGradient>
<linearGradient id="paint7_linear" x1="56.1528" y1="47.4136" x2="56.175" y2="48.1104" gradientUnits="userSpaceOnUse">
<stop stop-color="#8BCC32"/>
<stop offset="1" stop-color="#91DF26"/>
</linearGradient>
<linearGradient id="paint8_linear" x1="56.1528" y1="49.9248" x2="56.175" y2="50.6216" gradientUnits="userSpaceOnUse">
<stop stop-color="#8BCC32"/>
<stop offset="1" stop-color="#91DF26"/>
</linearGradient>
<linearGradient id="paint9_linear" x1="56.1528" y1="52.436" x2="56.175" y2="53.1328" gradientUnits="userSpaceOnUse">
<stop stop-color="#8BCC32"/>
<stop offset="1" stop-color="#91DF26"/>
</linearGradient>
<linearGradient id="paint10_linear" x1="52.6727" y1="23.5696" x2="54.597" y2="28.4567" gradientUnits="userSpaceOnUse">
<stop stop-color="#8BCC32"/>
<stop offset="1" stop-color="#91DF26"/>
</linearGradient>
<linearGradient id="paint11_linear" x1="114.313" y1="57.4583" x2="114.332" y2="58.2949" gradientUnits="userSpaceOnUse">
<stop stop-color="#8BCC32"/>
<stop offset="1" stop-color="#91DF26"/>
</linearGradient>
<linearGradient id="paint12_linear" x1="114.313" y1="60.3877" x2="114.332" y2="61.2243" gradientUnits="userSpaceOnUse">
<stop stop-color="#8BCC32"/>
<stop offset="1" stop-color="#91DF26"/>
</linearGradient>
<linearGradient id="paint13_linear" x1="114.313" y1="63.3174" x2="114.332" y2="64.154" gradientUnits="userSpaceOnUse">
<stop stop-color="#8BCC32"/>
<stop offset="1" stop-color="#91DF26"/>
</linearGradient>
<linearGradient id="paint14_linear" x1="114.313" y1="66.2471" x2="114.332" y2="67.0837" gradientUnits="userSpaceOnUse">
<stop stop-color="#8BCC32"/>
<stop offset="1" stop-color="#91DF26"/>
</linearGradient>
<linearGradient id="paint15_linear" x1="107.774" y1="44.259" x2="110.67" y2="49.5416" gradientUnits="userSpaceOnUse">
<stop stop-color="#8BCC32"/>
<stop offset="1" stop-color="#91DF26"/>
</linearGradient>
<linearGradient id="paint16_linear" x1="118.5" y1="44.9023" x2="118.522" y2="45.5991" gradientUnits="userSpaceOnUse">
<stop stop-color="#8BCC32"/>
<stop offset="1" stop-color="#91DF26"/>
</linearGradient>
<linearGradient id="paint17_linear" x1="118.5" y1="47.4136" x2="118.522" y2="48.1104" gradientUnits="userSpaceOnUse">
<stop stop-color="#8BCC32"/>
<stop offset="1" stop-color="#91DF26"/>
</linearGradient>
<linearGradient id="paint18_linear" x1="118.5" y1="49.9248" x2="118.522" y2="50.6216" gradientUnits="userSpaceOnUse">
<stop stop-color="#8BCC32"/>
<stop offset="1" stop-color="#91DF26"/>
</linearGradient>
<linearGradient id="paint19_linear" x1="118.5" y1="52.436" x2="118.522" y2="53.1328" gradientUnits="userSpaceOnUse">
<stop stop-color="#8BCC32"/>
<stop offset="1" stop-color="#91DF26"/>
</linearGradient>
<linearGradient id="paint20_linear" x1="115.019" y1="23.5696" x2="116.944" y2="28.4566" gradientUnits="userSpaceOnUse">
<stop stop-color="#8BCC32"/>
<stop offset="1" stop-color="#91DF26"/>
</linearGradient>
<linearGradient id="paint21_linear" x1="82.8228" y1="49.6155" x2="82.8228" y2="86.5662" gradientUnits="userSpaceOnUse">
<stop stop-color="#8BCC32"/>
<stop offset="1" stop-color="#AAEE4C"/>
</linearGradient>
<linearGradient id="paint22_linear" x1="82.9301" y1="26.2654" x2="82.9301" y2="41.1959" gradientUnits="userSpaceOnUse">
<stop stop-color="#8BCC32"/>
<stop offset="1" stop-color="#AAEE4C"/>
</linearGradient>
</defs>
</svg>
