<svg width="151" height="60" viewBox="0 0 151 60" fill="none" xmlns="http://www.w3.org/2000/svg">
<g opacity="0.5">
<path d="M16.8971 10.4113C19.5688 17.004 15.2127 21.2097 10.9146 25.4154C6.90699 29.7348 3.364 34.2246 10.45 42.295C7.77822 35.7023 12.1344 31.4966 16.4324 27.2909C20.44 22.9716 23.983 18.4817 16.8971 10.4113Z" fill="#D1D3D4"/>
<path d="M10.45 2C13.1218 8.59269 8.76564 12.7984 4.46759 17.0041C0.518031 21.3234 -3.02496 25.8133 4.06102 33.9405C1.38926 27.3478 5.74539 23.1421 10.0434 18.9364C14.0511 14.5602 17.5941 10.0704 10.45 2Z" fill="#D1D3D4"/>
<path d="M119.876 27.9161V41.4993H125.917V36.498H132.596V33.5426H125.917V30.8715H139.217V41.4993H145.258V30.8715H150.717V27.9161H119.876Z" fill="#D1D3D4"/>
<path d="M106.808 38.544V36.2138H114.765V33.2016H106.808V30.8715H117.03V27.9161H100.825V41.4993H117.146V38.544H106.808Z" fill="#D1D3D4"/>
<path d="M76.8955 27.9161H60.4003V30.8715H65.8019V41.4993H71.8424V30.8715H76.8955V27.9161Z" fill="#D1D3D4"/>
<path d="M42.9758 27.9161H26.074V30.8715H31.4756V41.4993H37.5161V30.8715H42.9758V27.9161Z" fill="#D1D3D4"/>
<path d="M54.8825 27.9161H48.3774L40.8268 41.4993H44.7182L45.9379 39.1692H54.4179L55.6376 41.4993H62.3751L54.8825 27.9161ZM47.5062 36.3275L50.2941 31.042L52.9658 36.3275H47.5062Z" fill="#D1D3D4"/>
<path d="M93.3908 27.9161V34.6793L83.6911 27.9161H78.9865V41.4993H83.1103V33.9973L93.0423 41.4993H97.5146V27.9161H93.3908Z" fill="#D1D3D4"/>
</g>
</svg>
