<svg width="22" height="22" viewBox="0 0 22 22" fill="none" xmlns="http://www.w3.org/2000/svg">
<path d="M1.48236 10.483C8.25226 7.44201 17.0125 3.73453 18.2221 3.22128C21.394 1.87832 22.3674 2.13544 21.8821 5.11013C21.5335 7.24819 20.5282 14.3259 19.7262 18.7316C19.2507 21.3443 18.1834 21.6539 16.5059 20.5235C15.6992 19.9796 11.6266 17.2294 10.7423 16.5836C9.93554 15.9952 8.82271 15.2872 10.2183 13.8928C10.7152 13.3963 13.9704 10.2219 16.5069 7.75155C16.8391 7.42718 16.4217 6.89415 16.0381 7.15424C12.6193 9.46931 7.87938 12.6823 7.276 13.1006C6.36463 13.7326 5.48909 14.0223 3.91817 13.5615C2.73077 13.2134 1.57146 12.798 1.12013 12.6398C-0.618348 12.0306 -0.205761 11.2415 1.48236 10.483Z" fill="white"/>
</svg>
