<svg width="23" height="23" viewBox="0 0 23 23" fill="none" xmlns="http://www.w3.org/2000/svg">
<path d="M19.6731 17.316C18.7185 16.5117 18.2777 16.2686 16.9596 15.4772C16.4105 15.1481 15.5736 14.8637 15.1345 14.8637C14.8346 14.8637 14.4754 15.0931 14.2554 15.3131C13.6918 15.8767 13.507 16.5822 12.5189 16.5822C11.5522 16.5822 9.86373 15.5983 8.65216 14.3266C7.38045 13.1151 6.39659 11.4266 6.39659 10.4599C6.39659 9.47177 7.08916 9.27414 7.65284 8.7096C7.87281 8.49049 8.11512 8.13132 8.11512 7.83143C8.11512 7.39235 7.83071 6.56831 7.50161 6.01924C6.71022 4.70026 6.46791 4.25946 5.66278 3.30567C5.39039 2.98259 5.08019 2.8348 4.75539 2.83394C4.20632 2.83308 3.48539 3.10547 2.99733 3.46894C2.26352 4.01629 1.49619 4.76127 1.29083 5.68928C1.26333 5.81559 1.24701 5.94276 1.24185 6.06993C1.20232 7.03661 1.58212 8.01789 1.99199 8.8488C2.95695 10.8071 4.23382 12.7026 5.62325 14.3954C6.06749 14.9367 6.55126 15.4402 7.05221 15.9266C7.53856 16.4267 8.04208 16.9104 8.58342 17.3555C10.2762 18.745 12.1717 20.0218 14.13 20.9868C14.9532 21.3924 15.9224 21.7653 16.8796 21.7378C17.0163 21.7335 17.1529 21.718 17.2895 21.688C18.2175 21.4835 18.9625 20.7153 19.5099 19.9815C19.8733 19.4934 20.1457 18.7733 20.1449 18.2234C20.144 17.8986 19.9962 17.5884 19.6731 17.316ZM20.1449 13.1451C19.6705 13.1451 19.2856 12.7602 19.2856 12.2859V11.4266C19.2856 7.16292 15.8159 3.6932 11.5522 3.6932C11.0779 3.6932 10.6929 3.30825 10.6929 2.83394C10.6929 2.35962 11.0779 1.97467 11.5522 1.97467C16.7636 1.97467 21.0041 6.21515 21.0041 11.4266V12.2859C21.0041 12.7602 20.6192 13.1451 20.1449 13.1451ZM14.8672 11.4266C14.4857 11.4266 14.1369 11.1705 14.0363 10.7839C13.8009 9.88078 13.0963 9.17532 12.1966 8.94332C11.7369 8.82388 11.4611 8.35558 11.5797 7.89588C11.6983 7.43703 12.1657 7.1612 12.6271 7.27892C14.1291 7.66817 15.3063 8.84451 15.699 10.3499C15.8184 10.8096 15.5435 11.2779 15.0846 11.3982C15.0116 11.4172 14.9386 11.4266 14.8672 11.4266Z" fill="#E168FF"/>
<path d="M17.5672 12.286C17.0928 12.286 16.7079 11.901 16.7079 11.4267C16.7079 8.68736 14.5649 6.42749 11.829 6.28313C11.3547 6.25821 10.9912 5.8535 11.0161 5.38004C11.041 4.90573 11.4526 4.5414 11.9192 4.56718C15.5685 4.75965 18.4264 7.7731 18.4264 11.4267C18.4264 11.901 18.0415 12.286 17.5672 12.286Z" fill="#E168FF"/>
</svg>
