<svg width="50" height="50" viewBox="0 0 50 50" fill="none" xmlns="http://www.w3.org/2000/svg">
<path d="M31.2498 33.3333H18.7498C18.1973 33.3333 17.6674 33.5527 17.2767 33.9434C16.886 34.3341 16.6665 34.864 16.6665 35.4166C16.6665 35.9691 16.886 36.499 17.2767 36.8897C17.6674 37.2804 18.1973 37.4999 18.7498 37.4999H31.2498C31.8024 37.4999 32.3323 37.2804 32.723 36.8897C33.1137 36.499 33.3332 35.9691 33.3332 35.4166C33.3332 34.864 33.1137 34.3341 32.723 33.9434C32.3323 33.5527 31.8024 33.3333 31.2498 33.3333Z" fill="#8BCC32"/>
<path d="M18.7498 29.1667H24.9998C25.5524 29.1667 26.0823 28.9472 26.473 28.5565C26.8637 28.1658 27.0832 27.6359 27.0832 27.0833C27.0832 26.5308 26.8637 26.0009 26.473 25.6102C26.0823 25.2195 25.5524 25 24.9998 25H18.7498C18.1973 25 17.6674 25.2195 17.2767 25.6102C16.886 26.0009 16.6665 26.5308 16.6665 27.0833C16.6665 27.6359 16.886 28.1658 17.2767 28.5565C17.6674 28.9472 18.1973 29.1667 18.7498 29.1667V29.1667Z" fill="#8BCC32"/>
<path d="M41.1252 17.3541L29.7918 4.85413C29.597 4.63832 29.3593 4.46565 29.0937 4.34725C28.8282 4.22885 28.5409 4.16732 28.2502 4.16663H13.6668C12.9746 4.15838 12.2876 4.28655 11.645 4.54384C11.0023 4.80112 10.4166 5.18247 9.92137 5.66612C9.42612 6.14977 9.03098 6.72624 8.75853 7.36261C8.48608 7.99898 8.34166 8.68278 8.3335 9.37497V40.625C8.34166 41.3172 8.48608 42.001 8.75853 42.6373C9.03098 43.2737 9.42612 43.8502 9.92137 44.3338C10.4166 44.8175 11.0023 45.1988 11.645 45.4561C12.2876 45.7134 12.9746 45.8416 13.6668 45.8333H36.3335C37.0257 45.8416 37.7127 45.7134 38.3554 45.4561C38.998 45.1988 39.5837 44.8175 40.0789 44.3338C40.5742 43.8502 40.9693 43.2737 41.2418 42.6373C41.5142 42.001 41.6587 41.3172 41.6668 40.625V18.75C41.6655 18.2336 41.4724 17.7362 41.1252 17.3541V17.3541ZM29.1668 10.4166L34.8752 16.6666H30.7085C30.4903 16.6535 30.277 16.597 30.0809 16.5005C29.8848 16.4039 29.7099 16.2693 29.5664 16.1045C29.4228 15.9396 29.3136 15.7479 29.245 15.5403C29.1764 15.3328 29.1498 15.1137 29.1668 14.8958V10.4166ZM36.3335 41.6666H13.6668C13.5218 41.6751 13.3765 41.6548 13.2393 41.607C13.1021 41.5592 12.9757 41.4847 12.8673 41.388C12.7589 41.2912 12.6707 41.174 12.6077 41.0431C12.5447 40.9121 12.5081 40.77 12.5002 40.625V9.37497C12.5081 9.22989 12.5447 9.08781 12.6077 8.95688C12.6707 8.82595 12.7589 8.70873 12.8673 8.61196C12.9757 8.51519 13.1021 8.44076 13.2393 8.39295C13.3765 8.34513 13.5218 8.32486 13.6668 8.3333H25.0002V14.8958C24.9665 16.4304 25.5413 17.9161 26.5991 19.0284C27.6568 20.1408 29.1116 20.7897 30.646 20.8333H37.5002V40.625C37.4922 40.77 37.4556 40.9121 37.3926 41.0431C37.3297 41.174 37.2414 41.2912 37.133 41.388C37.0247 41.4847 36.8982 41.5592 36.761 41.607C36.6238 41.6548 36.4785 41.6751 36.3335 41.6666Z" fill="#8BCC32"/>
</svg>
