<svg width="322" height="64" viewBox="0 0 322 64" fill="none" xmlns="http://www.w3.org/2000/svg">
<g filter="url(#filter0_d)">
<rect opacity="0.2" x="4" y="41" width="314" height="15" fill="url(#paint0_linear)"/>
<path d="M32.252 48L24.6895 23.3574H24.4961C24.7682 28.3704 24.9043 31.7148 24.9043 33.3906V48H18.9531V16.5898H28.0195L35.4531 40.6094H35.582L43.4668 16.5898H52.5332V48H46.3242V33.1328C46.3242 32.431 46.3314 31.6217 46.3457 30.7051C46.3743 29.7884 46.4746 27.3535 46.6465 23.4004H46.4531L38.3535 48H32.252ZM68.1326 28.1914C66.7433 28.1914 65.6547 28.6354 64.867 29.5234C64.0792 30.3971 63.628 31.6432 63.5134 33.2617H72.7088C72.6801 31.6432 72.2576 30.3971 71.4412 29.5234C70.6248 28.6354 69.5219 28.1914 68.1326 28.1914ZM69.0564 48.4297C65.1892 48.4297 62.1671 47.3626 59.99 45.2285C57.8129 43.0944 56.7244 40.0723 56.7244 36.1621C56.7244 32.1374 57.727 29.0293 59.7322 26.8379C61.7517 24.6322 64.5375 23.5293 68.0896 23.5293C71.4841 23.5293 74.1267 24.4961 76.0173 26.4297C77.908 28.3633 78.8533 31.0345 78.8533 34.4434V37.623H63.363C63.4347 39.485 63.9861 40.9388 65.0173 41.9844C66.0486 43.0299 67.4952 43.5527 69.3572 43.5527C70.8038 43.5527 72.1716 43.4023 73.4607 43.1016C74.7498 42.8008 76.0961 42.321 77.4998 41.6621V46.7324C76.3539 47.3053 75.1293 47.7279 73.8259 48C72.5226 48.2865 70.9327 48.4297 69.0564 48.4297ZM88.9741 23.9805V33.2188H98.1265V23.9805H104.679V48H98.1265V38.0957H88.9741V48H82.4214V23.9805H88.9741ZM113.447 48H106.357L112.824 38.5039C111.277 37.8594 110.102 36.9284 109.3 35.7109C108.512 34.4935 108.118 33.0612 108.118 31.4141C108.118 29.0938 108.985 27.2747 110.718 25.957C112.465 24.6393 114.843 23.9805 117.851 23.9805H129.023V48H122.47V39.0625H118.861L113.447 48ZM114.542 31.457C114.542 32.4596 114.936 33.2474 115.724 33.8203C116.512 34.3789 117.543 34.6582 118.818 34.6582H122.47V28.5996H117.98C116.906 28.5996 116.06 28.8646 115.445 29.3945C114.843 29.9102 114.542 30.5977 114.542 31.457ZM144.064 28.1914C142.674 28.1914 141.586 28.6354 140.798 29.5234C140.01 30.3971 139.559 31.6432 139.444 33.2617H148.64C148.611 31.6432 148.189 30.3971 147.372 29.5234C146.556 28.6354 145.453 28.1914 144.064 28.1914ZM144.987 48.4297C141.12 48.4297 138.098 47.3626 135.921 45.2285C133.744 43.0944 132.655 40.0723 132.655 36.1621C132.655 32.1374 133.658 29.0293 135.663 26.8379C137.683 24.6322 140.468 23.5293 144.021 23.5293C147.415 23.5293 150.058 24.4961 151.948 26.4297C153.839 28.3633 154.784 31.0345 154.784 34.4434V37.623H139.294C139.366 39.485 139.917 40.9388 140.948 41.9844C141.98 43.0299 143.426 43.5527 145.288 43.5527C146.735 43.5527 148.103 43.4023 149.392 43.1016C150.681 42.8008 152.027 42.321 153.431 41.6621V46.7324C152.285 47.3053 151.06 47.7279 149.757 48C148.453 48.2865 146.864 48.4297 144.987 48.4297ZM188.624 48H182.501V29.0723L182.157 30.4043C181.384 33.4264 180.689 35.7109 180.073 37.2578L175.819 48H171.157L166.839 37.1719C166.223 35.5964 165.564 33.3835 164.862 30.5332L164.454 29.0723V48H158.352V23.9805H167.376L171.501 34.2285C171.93 35.3314 172.324 36.599 172.682 38.0312C173.055 39.4635 173.305 40.6882 173.434 41.7051C173.907 39.5566 174.272 38.0169 174.53 37.0859C174.802 36.1406 175.096 35.2741 175.411 34.4863C175.726 33.6986 177.151 30.1966 179.686 23.9805H188.624V48ZM213.184 48.4297C205.707 48.4297 201.969 44.3262 201.969 36.1191C201.969 32.0371 202.986 28.9219 205.02 26.7734C207.054 24.6107 209.968 23.5293 213.764 23.5293C216.543 23.5293 219.035 24.0736 221.241 25.1621L219.307 30.2324C218.276 29.8171 217.316 29.4805 216.428 29.2227C215.54 28.9505 214.652 28.8145 213.764 28.8145C210.355 28.8145 208.651 31.235 208.651 36.0762C208.651 40.7741 210.355 43.123 213.764 43.123C215.024 43.123 216.192 42.9583 217.266 42.6289C218.34 42.2852 219.414 41.7552 220.489 41.0391V46.6465C219.429 47.3197 218.354 47.7852 217.266 48.043C216.192 48.3008 214.831 48.4297 213.184 48.4297ZM234.262 28.1914C232.872 28.1914 231.784 28.6354 230.996 29.5234C230.208 30.3971 229.757 31.6432 229.643 33.2617H238.838C238.809 31.6432 238.387 30.3971 237.57 29.5234C236.754 28.6354 235.651 28.1914 234.262 28.1914ZM235.186 48.4297C231.318 48.4297 228.296 47.3626 226.119 45.2285C223.942 43.0944 222.854 40.0723 222.854 36.1621C222.854 32.1374 223.856 29.0293 225.861 26.8379C227.881 24.6322 230.667 23.5293 234.219 23.5293C237.613 23.5293 240.256 24.4961 242.147 26.4297C244.037 28.3633 244.982 31.0345 244.982 34.4434V37.623H229.492C229.564 39.485 230.115 40.9388 231.147 41.9844C232.178 43.0299 233.624 43.5527 235.486 43.5527C236.933 43.5527 238.301 43.4023 239.59 43.1016C240.879 42.8008 242.225 42.321 243.629 41.6621V46.7324C242.483 47.3053 241.259 47.7279 239.955 48C238.652 48.2865 237.062 48.4297 235.186 48.4297ZM247.09 33.6055C247.09 28.0911 248.135 23.9089 250.226 21.0586C252.332 18.194 255.612 16.3822 260.066 15.623C262.229 15.2507 265.459 14.778 269.756 14.2051L270.508 19.9199C268.646 20.1348 265.344 20.5931 260.603 21.2949C258.799 21.5814 257.452 22.0111 256.564 22.584C255.676 23.1569 255.01 23.9733 254.566 25.0332C254.137 26.0931 253.872 27.5039 253.771 29.2656H254.094C254.853 28.0911 255.855 27.1888 257.101 26.5586C258.348 25.9284 259.687 25.6133 261.119 25.6133C264.084 25.6133 266.39 26.5228 268.037 28.3418C269.684 30.1465 270.508 32.7389 270.508 36.1191C270.508 40.015 269.462 43.0443 267.371 45.207C265.294 47.3555 262.422 48.4297 258.756 48.4297C255.089 48.4297 252.224 47.1191 250.162 44.498C248.114 41.8626 247.09 38.2318 247.09 33.6055ZM259.142 43.123C262.25 43.123 263.805 40.9818 263.805 36.6992C263.805 32.5312 262.401 30.4473 259.594 30.4473C258.82 30.4473 258.047 30.6263 257.273 30.9844C256.514 31.3424 255.812 31.8151 255.168 32.4023C254.538 32.9753 254.072 33.5553 253.771 34.1426C253.771 37.0501 254.237 39.2773 255.168 40.8242C256.099 42.3568 257.424 43.123 259.142 43.123ZM277.814 48H270.724L277.191 38.5039C275.644 37.8594 274.47 36.9284 273.668 35.7109C272.88 34.4935 272.486 33.0612 272.486 31.4141C272.486 29.0938 273.352 27.2747 275.086 25.957C276.833 24.6393 279.211 23.9805 282.218 23.9805H293.39V48H286.837V39.0625H283.228L277.814 48ZM278.91 31.457C278.91 32.4596 279.304 33.2474 280.091 33.8203C280.879 34.3789 281.91 34.6582 283.185 34.6582H286.837V28.5996H282.347C281.273 28.5996 280.428 28.8646 279.812 29.3945C279.211 29.9102 278.91 30.5977 278.91 31.457ZM304.908 43.3809C304.163 46.2741 302.902 49.7044 301.126 53.6719H296.4C297.331 49.862 298.054 46.2669 298.57 42.8867H304.585L304.908 43.3809Z" fill="url(#paint1_linear)"/>
</g>
<defs>
<filter id="filter0_d" x="0" y="14.2051" width="322" height="49.7949" filterUnits="userSpaceOnUse" color-interpolation-filters="sRGB">
<feFlood flood-opacity="0" result="BackgroundImageFix"/>
<feColorMatrix in="SourceAlpha" type="matrix" values="0 0 0 0 0 0 0 0 0 0 0 0 0 0 0 0 0 0 127 0"/>
<feOffset dy="4"/>
<feGaussianBlur stdDeviation="2"/>
<feColorMatrix type="matrix" values="0 0 0 0 0 0 0 0 0 0 0 0 0 0 0 0 0 0 0.25 0"/>
<feBlend mode="normal" in2="BackgroundImageFix" result="effect1_dropShadow"/>
<feBlend mode="normal" in="SourceGraphic" in2="effect1_dropShadow" result="shape"/>
</filter>
<linearGradient id="paint0_linear" x1="161" y1="41" x2="161.346" y2="55.992" gradientUnits="userSpaceOnUse">
<stop stop-color="#8BCC32"/>
<stop offset="1" stop-color="#91DF26"/>
</linearGradient>
<linearGradient id="paint1_linear" x1="246" y1="31" x2="44" y2="55" gradientUnits="userSpaceOnUse">
<stop stop-color="#F5F6F8"/>
<stop offset="1" stop-color="#A7B1BD"/>
</linearGradient>
</defs>
</svg>
