<svg width="131" height="60" viewBox="0 0 131 60" fill="none" xmlns="http://www.w3.org/2000/svg">
<g clip-path="url(#clip0)">
<path fill-rule="evenodd" clip-rule="evenodd" d="M54.1533 26.403V42.9H57.5851V33.7873C58.2905 34.3176 62.771 42.6054 63.5908 42.9196H66.3172C66.9082 42.8018 67.1942 42.3108 67.1751 41.4467V25.9316H63.5908C63.5908 27.8759 63.4192 33.1982 63.7433 34.8282C63.362 34.6908 63.4955 34.8282 62.8854 33.7873L60.5212 30.0362C58.2905 26.403 58.5956 25.9906 54.5728 25.9906C54.2487 25.9709 54.1533 26.0691 54.1533 26.403Z" fill="#D1D3D4"/>
<path fill-rule="evenodd" clip-rule="evenodd" d="M117.718 42.8607H121.131L121.016 33.7284C121.836 34.298 124.81 40.1898 127.174 42.8607H129.71C130.358 42.7625 130.606 42.4679 130.606 41.5449C130.625 39.5613 130.301 28.0134 130.587 27.3457C130.74 26.7958 131.064 26.7369 131.235 26.6976L131.273 25.9316H127.174V34.7693C126.774 34.4747 122.618 27.5813 122.522 27.4831C121.95 26.5601 121.15 25.9906 120.025 25.9316H117.737V42.8607H117.718Z" fill="#D1D3D4"/>
<path fill-rule="evenodd" clip-rule="evenodd" d="M86.0303 26.403V42.0358C86.0303 42.5857 86.5641 42.8214 87.3077 42.9196H90.606V35.8495C91.197 36.0066 90.8539 35.928 91.5211 36.9689L94.0378 41.0146C94.9911 42.409 95.563 42.8214 96.6879 42.9196H99.8147C100.063 42.9196 100.329 42.9196 100.615 42.9196C100.501 42.3894 94.7623 33.3946 94.4572 32.9036C94.667 32.7465 95.6965 31.5485 95.8872 31.2735C96.3638 30.6254 96.8976 30.2523 97.3933 29.5845C97.7175 29.1525 97.8128 29.0936 98.1178 28.7204L100.158 25.9709C95.3152 25.9709 96.2494 25.3228 92.5316 29.8988C92.055 30.4879 91.178 31.411 90.5679 31.8627V25.9709H86.4116C86.1447 25.9709 86.0303 26.0691 86.0303 26.403Z" fill="#D1D3D4"/>
<path fill-rule="evenodd" clip-rule="evenodd" d="M30.4164 41.4467C30.3592 42.5269 30.874 42.8804 31.9988 42.9197H40.2924C40.8453 42.9197 41.1694 42.5662 41.3028 41.8788V39.8167H35.8691C35.3734 39.8559 35.0684 39.6792 35.0112 39.2275V35.6924H40.0254V32.4519H35.0112V29.2114H41.3028C41.3028 27.4832 41.6651 26.2852 40.4449 25.9709H30.4355V41.4467H30.4164Z" fill="#D1D3D4"/>
<path fill-rule="evenodd" clip-rule="evenodd" d="M45.2871 42.1734C45.2871 42.6447 45.8019 42.9197 46.2976 42.9197H49.7294V25.9709H45.2871V42.1734Z" fill="#D1D3D4"/>
<path fill-rule="evenodd" clip-rule="evenodd" d="M71.598 41.4467C71.5408 42.5269 72.0556 42.8804 73.1805 42.9197H81.474C82.0269 42.9197 82.351 42.5662 82.4845 41.8788V39.8167H77.0508C76.5551 39.8559 76.25 39.6792 76.1928 39.2275V35.6924H81.2071V32.4519H76.1928V29.2114H82.4845C82.4845 27.4832 82.8467 26.2852 81.6265 25.9709H71.6171V41.4467H71.598Z" fill="#D1D3D4"/>
<path fill-rule="evenodd" clip-rule="evenodd" d="M102.866 41.4467C102.808 42.5269 103.323 42.8804 104.448 42.9197H112.742C113.294 42.9197 113.619 42.5662 113.752 41.8788V39.8167H108.318C107.823 39.8559 107.518 39.6792 107.46 39.2275V35.6924H112.475V32.4519H107.46V29.2114H113.752C113.752 27.4832 114.114 26.2852 112.894 25.9709H102.885V41.4467H102.866Z" fill="#D1D3D4"/>
<path fill-rule="evenodd" clip-rule="evenodd" d="M13.1619 27.5421L13.1047 42.6643H17.5851V35.3389H21.4554L21.4363 42.6643H25.8596V25.9316H21.4173V31.9805C21.4363 32.2555 21.3029 32.4322 20.9788 32.4322H17.9855C17.6995 32.4322 17.566 32.2948 17.547 31.9805V25.9316H12.3993C12.3421 27.0511 13.181 26.5601 13.1619 27.5421Z" fill="#D1D3D4"/>
<path fill-rule="evenodd" clip-rule="evenodd" d="M6.22252 22.8287L9.36833 25.2443L8.12907 29.6435C6.90888 30.5273 5.66961 31.4307 4.46848 32.3144C4.01091 32.4715 4.01091 32.0788 4.2397 31.411L6.31784 24.6551C4.25876 23.0643 2.18062 21.4735 0.121536 19.8828C-0.0881854 19.706 -0.0691199 19.4311 0.521913 19.4311L8.05281 19.5293C8.81543 17.1333 9.57805 14.7176 10.3407 12.3216C10.4932 11.8699 10.7792 11.9289 10.9126 12.2824L13.2005 19.6275H20.9411C21.1508 19.6275 21.208 19.8042 21.0365 19.922L17.2615 22.7108H12.9717L11.7897 18.9794C11.7134 18.7633 11.5799 18.7633 11.5037 18.9794L10.2835 22.6715L6.26065 22.6912C6.06999 22.6715 6.06999 22.7501 6.22252 22.8287Z" fill="#D1D3D4"/>
</g>
<defs>
<clipPath id="clip0">
<rect width="131" height="60" fill="white"/>
</clipPath>
</defs>
</svg>
