<svg width="76" height="35" viewBox="0 0 76 35" fill="none" xmlns="http://www.w3.org/2000/svg">
<g opacity="0.5" clip-path="url(#clip0)">
<path fill-rule="evenodd" clip-rule="evenodd" d="M31.1699 15.1971V24.6924H33.1452V19.4474C33.5512 19.7526 36.1301 24.5229 36.6019 24.7038H38.1712C38.5114 24.6359 38.676 24.3533 38.665 23.856V14.9258H36.6019C36.6019 16.0449 36.5032 19.1083 36.6897 20.0465C36.4703 19.9674 36.5471 20.0465 36.1959 19.4474L34.8352 17.2883C33.5512 15.1971 33.7268 14.9597 31.4113 14.9597C31.2248 14.9484 31.1699 15.0049 31.1699 15.1971Z" fill="#D1D3D4"/>
<path fill-rule="evenodd" clip-rule="evenodd" d="M67.7559 24.6698H69.7202L69.6543 19.4135C70.1262 19.7413 71.8381 23.1325 73.1989 24.6698H74.6584C75.0315 24.6133 75.1742 24.4438 75.1742 23.9125C75.1851 22.7708 74.9986 16.124 75.1632 15.7397C75.251 15.4232 75.4375 15.3893 75.5363 15.3667L75.5582 14.9258H73.1989V20.0126C72.9684 19.843 70.5761 15.8753 70.5213 15.8188C70.192 15.2875 69.7311 14.9597 69.0837 14.9258H67.7668V24.6698H67.7559Z" fill="#D1D3D4"/>
<path fill-rule="evenodd" clip-rule="evenodd" d="M49.5176 15.1971V24.1951C49.5176 24.5116 49.8248 24.6472 50.2528 24.7037H52.1513V20.6343C52.4915 20.7247 52.2939 20.6795 52.678 21.2786L54.1266 23.6073C54.6753 24.4098 55.0045 24.6472 55.6519 24.7037H57.4516C57.5943 24.7037 57.7479 24.7037 57.9125 24.7037C57.8467 24.3985 54.5436 19.2213 54.368 18.9387C54.4887 18.8483 55.0813 18.1587 55.191 18.0005C55.4654 17.6274 55.7726 17.4127 56.0579 17.0283C56.2445 16.7796 56.2994 16.7457 56.475 16.5309L57.6491 14.9484C54.8618 14.9484 55.3995 14.5753 53.2596 17.2092C52.9853 17.5483 52.4805 18.0796 52.1293 18.3396V14.9484H49.7371C49.5834 14.9484 49.5176 15.0049 49.5176 15.1971Z" fill="#D1D3D4"/>
<path fill-rule="evenodd" clip-rule="evenodd" d="M17.5073 23.8559C17.4744 24.4777 17.7707 24.6811 18.4182 24.7037H23.1918C23.51 24.7037 23.6966 24.5003 23.7734 24.1046V22.9177H20.6459C20.3605 22.9403 20.185 22.8386 20.152 22.5786V20.5439H23.0381V18.6787H20.152V16.8135H23.7734C23.7734 15.8188 23.9819 15.1292 23.2796 14.9484H17.5183V23.8559H17.5073Z" fill="#D1D3D4"/>
<path fill-rule="evenodd" clip-rule="evenodd" d="M26.0664 24.2742C26.0664 24.5455 26.3627 24.7037 26.648 24.7037H28.6233V14.9484H26.0664V24.2742V24.2742Z" fill="#D1D3D4"/>
<path fill-rule="evenodd" clip-rule="evenodd" d="M41.2105 23.8559C41.1776 24.4777 41.4738 24.6811 42.1213 24.7037H46.8949C47.2131 24.7037 47.3997 24.5003 47.4765 24.1046V22.9177H44.349C44.0637 22.9403 43.8881 22.8386 43.8552 22.5786V20.5439H46.7413V18.6787H43.8552V16.8135H47.4765C47.4765 15.8188 47.685 15.1292 46.9827 14.9484H41.2214V23.8559H41.2105Z" fill="#D1D3D4"/>
<path fill-rule="evenodd" clip-rule="evenodd" d="M59.2075 23.8559C59.1746 24.4777 59.4709 24.6811 60.1184 24.7037H64.892C65.2102 24.7037 65.3968 24.5003 65.4736 24.1046V22.9177H62.346C62.0607 22.9403 61.8851 22.8386 61.8522 22.5786V20.5439H64.7383V18.6787H61.8522V16.8135H65.4736C65.4736 15.8188 65.6821 15.1292 64.9798 14.9484H59.2185V23.8559H59.2075Z" fill="#D1D3D4"/>
<path fill-rule="evenodd" clip-rule="evenodd" d="M7.57533 15.8527L7.54241 24.5568H10.1212V20.3404H12.3489L12.3379 24.5568H14.8839V14.9258H12.327V18.4074C12.3379 18.5657 12.2611 18.6674 12.0746 18.6674H10.3517C10.1871 18.6674 10.1103 18.5883 10.0993 18.4074V14.9258H7.13638C7.10345 15.5701 7.5863 15.2875 7.57533 15.8527Z" fill="#D1D3D4"/>
<path fill-rule="evenodd" clip-rule="evenodd" d="M3.58156 13.1398L5.39224 14.5301L4.67894 17.0622C3.97662 17.5709 3.26332 18.0909 2.57198 18.5996C2.30861 18.69 2.30861 18.4639 2.44029 18.0796L3.63643 14.191C2.45126 13.2754 1.25512 12.3598 0.0699537 11.4442C-0.0507579 11.3424 -0.0397841 11.1842 0.300403 11.1842L4.63505 11.2407C5.074 9.86159 5.51295 8.4712 5.9519 7.09211C6.03969 6.83212 6.2043 6.86603 6.28111 7.0695L7.59797 11.2972H12.0533C12.174 11.2972 12.207 11.3989 12.1082 11.4668L9.93538 13.0719H7.46628L6.78591 10.9242C6.74201 10.7998 6.6652 10.7998 6.6213 10.9242L5.91898 13.0493L3.60351 13.0606C3.49377 13.0493 3.49377 13.0945 3.58156 13.1398Z" fill="#D1D3D4"/>
</g>
<defs>
<clipPath id="clip0">
<rect width="75.4012" height="34.5349" fill="white"/>
</clipPath>
</defs>
</svg>
