<svg width="27" height="27" viewBox="0 0 27 27" fill="none" xmlns="http://www.w3.org/2000/svg">
<path d="M13.6 26.2C20.5588 26.2 26.2 20.5588 26.2 13.6C26.2 6.64121 20.5588 1 13.6 1C6.64121 1 1 6.64121 1 13.6C1 20.5588 6.64121 26.2 13.6 26.2Z" stroke="#939EA7" stroke-width="1.3"/>
<path d="M13.5999 14.1362C16.1169 14.1362 18.1574 12.0958 18.1574 9.57875C18.1574 7.06174 16.1169 5.0213 13.5999 5.0213C11.0829 5.0213 9.04248 7.06174 9.04248 9.57875C9.04248 12.0958 11.0829 14.1362 13.5999 14.1362Z" stroke="#939EA7" stroke-width="1.3" stroke-linecap="round"/>
<path d="M4.48535 22.1788C5.15556 17.6213 9.0428 14.1362 13.6002 14.1362C18.2917 14.1362 22.179 17.6213 22.7151 22.1788" stroke="#939EA7" stroke-width="1.3" stroke-linecap="round"/>
</svg>
