<svg width="51" height="13" viewBox="0 0 51 13" fill="none" xmlns="http://www.w3.org/2000/svg">
<path fill-rule="evenodd" clip-rule="evenodd" d="M49.9782 9.84147C49.912 10.7654 49.6677 11.2232 49.2413 11.2232C49.0799 11.2232 48.9515 11.1449 48.8522 10.9923C48.7528 10.8355 48.6534 10.5509 48.5458 10.1384L47.5812 6.10035L50.119 4.02561L50.2184 3.54714H47.0885L46.8484 4.67732H47.7965L45.0889 6.83867L46.5337 0.0205078H43.1182L42.8781 1.15068H44.4513L42.6545 9.59398C42.6007 9.61048 42.5428 9.61873 42.4724 9.61873C42.3978 9.61873 42.3275 9.57336 42.2612 9.48261C42.195 9.39187 42.1619 9.24338 42.1619 9.03714C42.1619 8.87628 42.1826 8.70717 42.2198 8.5298L43.3087 3.54714H41.4374L41.2386 4.47933C41.0192 4.1411 40.7336 3.87712 40.3734 3.68738C40.0132 3.49765 39.6033 3.4069 39.1396 3.4069C38.3448 3.4069 37.6244 3.62551 36.9785 4.05448C36.6391 4.28134 36.3368 4.55358 36.0719 4.8588H33.0331L33.6707 1.89313H31.729L31.1328 4.8588H30.1309C30.0895 4.29372 29.9529 3.62964 29.5762 3.15117C29.0835 2.52834 28.1934 2.19011 27.0383 2.19011C26.1979 2.19011 25.4403 2.34685 24.7655 2.66445C24.0906 2.97793 23.5607 3.4069 23.1798 3.94724C22.7989 4.48758 22.6044 5.08154 22.6044 5.73325C22.6044 6.17459 22.7286 6.53344 22.9811 6.80567C23.2295 7.0779 23.5317 7.28001 23.8878 7.41201C24.2438 7.544 24.7116 7.68011 25.2954 7.82035C25.8046 7.93172 26.2103 8.04309 26.5126 8.15033C26.8148 8.25757 27.0673 8.41019 27.2702 8.60817C27.473 8.80616 27.5765 9.06602 27.5765 9.38362C27.5765 9.83734 27.4068 10.2539 27.0756 10.6417C26.7403 11.0294 26.1193 11.2191 25.2126 11.2191C24.3253 11.2191 23.6922 10.9996 23.3133 10.5607C23.0311 10.2338 22.89 9.78504 22.89 9.21451C22.89 8.95053 22.9273 8.63292 23.0018 8.25345H21.8674C21.8012 8.66179 21.7722 9.01652 21.7681 9.32588C21.6853 9.51149 21.5321 9.60636 21.3003 9.60636C21.2257 9.60636 21.1554 9.56098 21.0891 9.47024C21.0229 9.3795 20.9898 9.23101 20.9898 9.02477C20.9898 8.86391 21.0105 8.69479 21.0477 8.51743L22.149 3.54302H20.2777L20.0789 4.47521C19.8595 4.13698 19.5739 3.873 19.2137 3.68326C18.8535 3.49352 18.4436 3.40278 17.98 3.40278C17.1851 3.40278 16.4647 3.62139 15.8189 4.05036C15.173 4.48346 14.6638 5.06092 14.2953 5.77862C13.9269 6.50044 13.7447 7.26352 13.7447 8.07196C13.7447 8.22458 13.7571 8.36894 13.7695 8.50918H12.2833C12.2626 8.83091 12.2129 9.09489 12.1342 9.30113C12.0556 9.50736 11.89 9.61048 11.6457 9.61048C11.5712 9.61048 11.5008 9.56511 11.4346 9.47436C11.3683 9.38362 11.3352 9.23513 11.3352 9.0289C11.3352 8.86803 11.3559 8.69892 11.3932 8.52156L11.7037 7.06965C11.8444 6.40145 11.9148 5.83224 11.9148 5.36202C11.9148 4.69382 11.774 4.19885 11.4884 3.88125C11.2069 3.55952 10.7722 3.40278 10.1843 3.40278C9.66678 3.40278 9.17412 3.55539 8.71043 3.8565C8.24675 4.1576 7.84931 4.58245 7.52225 5.12691C7.48498 4.54533 7.32766 4.11223 7.04614 3.82763C6.76876 3.54714 6.35476 3.40278 5.80827 3.40278C5.36529 3.40278 4.93887 3.51415 4.53314 3.74101C4.12742 3.96787 3.75896 4.28547 3.42775 4.70207L3.66788 3.54302H0.26063L0.0205078 4.67319H1.59372L0.0205078 12.3575H1.86282L2.89783 7.21402C3.00961 6.68606 3.17521 6.21996 3.38635 5.80749C3.5975 5.39914 3.83762 5.08154 4.10258 4.86293C4.36754 4.64019 4.6325 4.53295 4.89747 4.53295C5.40669 4.53295 5.66337 4.9083 5.66337 5.66313C5.66337 5.9931 5.60127 6.46332 5.48121 7.07378L4.72358 10.6004H6.5659L7.2904 7.21402C7.40218 6.68606 7.56779 6.21996 7.77893 5.80749C7.99007 5.39914 8.23019 5.08154 8.49515 4.86293C8.76011 4.64019 9.02508 4.53295 9.29004 4.53295C9.79926 4.53295 10.0559 4.9083 10.0559 5.66313C10.0559 5.9931 9.99384 6.46332 9.87378 7.07378L9.6171 8.2452C9.53016 8.64117 9.48876 8.9794 9.48876 9.25988C9.48876 9.81672 9.63366 10.2003 9.9276 10.4189C10.2215 10.6334 10.6397 10.7448 11.1903 10.7448C11.7492 10.7448 12.1756 10.6581 12.4737 10.4849C12.7718 10.3117 12.9747 10.0683 13.0906 9.75072C13.103 9.71772 13.1113 9.6806 13.1237 9.64348H14.1587C14.2498 9.78372 14.3533 9.91571 14.4733 10.0312C14.9494 10.5055 15.5994 10.7448 16.4233 10.7448C16.9325 10.7448 17.4252 10.6334 17.8972 10.4065C18.3691 10.1797 18.7955 9.87034 19.1723 9.47436C19.2095 9.95283 19.371 10.2869 19.6525 10.4684C19.934 10.6499 20.3356 10.7448 20.8573 10.7448C21.3127 10.7448 21.6811 10.687 21.9627 10.5715C22.0703 10.8974 22.2152 11.149 22.3642 11.3841C22.7493 11.9904 23.8422 12.3575 25.1256 12.3575C26.024 12.3575 26.8189 12.2008 27.5186 11.8832C28.2182 11.5697 28.7647 11.1201 29.1539 10.5427C29.5472 9.96521 29.7418 9.297 29.7418 8.5463C29.7418 8.03896 29.6052 7.63474 29.3319 7.33776C29.0587 7.04078 28.7275 6.8263 28.3383 6.69018C27.9491 6.55406 27.4523 6.4262 26.8355 6.30246C26.3552 6.19934 25.9785 6.10447 25.7094 6.01373C25.4403 5.92298 25.2126 5.79924 25.0304 5.63838C24.8483 5.47751 24.753 5.26715 24.753 5.00317C24.753 4.77631 24.8193 4.53708 24.9518 4.27722C25.0842 4.01736 25.3161 3.79463 25.6473 3.60489C25.9785 3.41515 26.4215 3.32441 26.9804 3.32441C27.6676 3.32441 28.1934 3.4894 28.5453 3.81938C28.9014 4.14935 29.0752 4.61132 29.0752 5.20116C29.0752 5.45689 29.0463 5.7085 28.9883 5.98898H30.9134L30.0937 9.84147C30.0274 10.1343 29.9943 10.4024 29.9943 10.6458C29.9943 11.1614 30.1392 11.5285 30.4332 11.7388C30.7271 11.9492 31.137 12.0564 31.6669 12.0564C32.2631 12.0564 32.7185 11.9616 33.0331 11.7759C33.3477 11.5862 33.5672 11.3264 33.6914 10.9923C33.8156 10.6581 33.8859 10.2209 33.9025 9.68473H32.9089C32.8634 10.5138 32.6439 10.9263 32.2589 10.9263C32.1637 10.9263 32.085 10.8809 32.0188 10.7901C31.9526 10.6994 31.9194 10.5592 31.9194 10.3612C31.9194 10.2498 31.9443 10.0724 31.9898 9.83734L32.8095 5.98485H35.3722C35.07 6.64481 34.9168 7.34189 34.9168 8.07196C34.9168 8.90103 35.1569 9.55273 35.633 10.0271C36.1091 10.5014 36.7591 10.7406 37.583 10.7406C38.0922 10.7406 38.5849 10.6293 39.0568 10.4024C39.5288 10.1756 39.9552 9.86621 40.332 9.47024C40.3692 9.94871 40.5307 10.2828 40.8122 10.4643C41.0937 10.6458 41.4953 10.7406 42.017 10.7406C42.4268 10.7406 42.7622 10.6911 43.0313 10.6004H44.2898L44.7577 8.41431L46.0328 7.37076L46.7118 10.1384C46.8608 10.786 46.9933 11.248 47.1092 11.5202C47.221 11.7924 47.399 11.9987 47.6391 12.143C47.8792 12.2833 48.2477 12.3534 48.7362 12.3534C49.4897 12.3534 50.0403 12.1472 50.3881 11.7306C50.7317 11.3181 50.9305 10.687 50.976 9.83734H49.9782V9.84147ZM19.5573 6.92941L19.4869 7.26764C19.3172 7.9276 19.0191 8.48031 18.5885 8.93403C18.158 9.38775 17.6612 9.61048 17.094 9.61048C16.6676 9.61048 16.3364 9.46612 16.1004 9.17326C15.8644 8.88041 15.7443 8.47618 15.7443 7.96059C15.7443 7.42438 15.8478 6.89229 16.0548 6.3602C16.2618 5.82811 16.5516 5.39089 16.9201 5.04854C17.2886 4.70619 17.7067 4.53295 18.1828 4.53295C18.6382 4.53295 18.986 4.68557 19.2385 4.9908C19.4869 5.29603 19.6153 5.71675 19.6153 6.25296C19.6111 6.50869 19.5946 6.73143 19.5573 6.92941ZM40.6508 7.26764L40.7211 6.92941C40.7584 6.73143 40.7791 6.50869 40.7791 6.25296C40.7791 5.71675 40.6508 5.29603 40.4024 4.9908C40.1498 4.68557 39.8021 4.53295 39.3467 4.53295C38.8705 4.53295 38.4524 4.70619 38.0839 5.04854C37.7155 5.39089 37.4257 5.82811 37.2187 6.3602C37.0117 6.89229 36.9082 7.42438 36.9082 7.96059C36.9082 8.47618 37.0282 8.88041 37.2642 9.17326C37.5002 9.46612 37.8314 9.61048 38.2578 9.61048C38.825 9.61048 39.3218 9.38775 39.7524 8.93403C40.1829 8.48031 40.481 7.9276 40.6508 7.26764Z" fill="#797E84"/>
<path d="M38.1753 2.73045C38.1629 2.7387 38.0801 2.59846 38.0801 2.59433C38.6307 2.63558 40.4979 0.560849 40.4979 0.560849C40.6552 0.424733 40.8084 0.346364 40.9533 0.317491C41.0982 0.288617 41.2306 0.313366 41.3383 0.383486C41.4501 0.453606 41.5287 0.573223 41.5825 0.734087C41.6571 1.01044 41.5618 1.43529 41.3755 1.63327C40.7421 2.3056 39.7609 2.6562 38.1753 2.73045Z" fill="#797E84"/>
</svg>
