<svg width="100" height="60" viewBox="0 0 100 60" fill="none" xmlns="http://www.w3.org/2000/svg">
<g opacity="0.5">
<path fill-rule="evenodd" clip-rule="evenodd" d="M8.89154 18.0009C7.0363 18.0009 4.83668 19.7924 3.02233 22.8044C1.13129 25.9238 0.00315857 29.7855 0.00315857 33.1391C0.00315857 38.0486 2.74602 42.9996 8.89205 42.9996C15.0307 42.9996 17.7809 38.0486 17.7809 33.1391C17.7809 29.7855 16.6533 25.9238 14.7714 22.8044C12.9401 19.7924 10.7407 18.0009 8.89154 18.0009ZM56.8893 25.3667H63.1115V41.6608H69.7781V25.3667H75.9978V19.3394H56.8893V25.3659V25.3667ZM90.22 25.3667H99.9978V19.3394H90.22C81.2372 19.3394 76.4397 23.8256 76.4397 30.4993C76.4397 37.173 81.2372 41.6608 90.22 41.6608H99.9978V35.6338H90.22C86.0626 35.6338 83.3299 34.1412 83.3299 30.5001C83.3299 26.859 86.0626 25.3667 90.22 25.3667ZM43.3299 19.3394L39.7769 32.6621L36.2239 19.3394H24.4474V41.6608H31.1115V23.5052L35.9546 41.6608H43.5991L48.4448 23.4942V41.6608H55.1115V19.3394H43.3299Z" fill="#D1D3D4"/>
</g>
</svg>
