<svg width="37" height="37" viewBox="0 0 37 37" fill="none" xmlns="http://www.w3.org/2000/svg">
<path d="M13.1709 11.2146C13.1709 7.48344 14.8731 4.1472 17.5489 1.9412C15.7446 0.715641 13.5795 0.000732422 11.2373 0.000732422C5.04822 0.000732422 0.0234375 5.02552 0.0234375 11.2146C0.0234375 17.4105 5.04822 22.4284 11.2373 22.4284C13.5727 22.4284 15.7446 21.7135 17.5421 20.488C14.8731 18.282 13.1709 14.9457 13.1709 11.2146Z" fill="#797E84"/>
<path d="M25.2013 0C22.8659 0 20.694 0.714908 18.8965 1.94047C21.5655 4.14647 23.2744 7.48951 23.2744 11.2138C23.2744 14.9382 21.5723 18.2812 18.8965 20.4872C20.694 21.7128 22.8659 22.4277 25.2013 22.4277C31.3972 22.4277 36.4151 17.4029 36.4151 11.2138C36.4151 5.02478 31.3972 0 25.2013 0Z" fill="#797E84"/>
<path d="M22.4573 11.2139C22.4573 7.65976 20.8028 4.50055 18.2223 2.44434C15.6418 4.50055 13.9873 7.65976 13.9873 11.2139C13.9873 14.768 15.6418 17.9272 18.2223 19.9834C20.796 17.9272 22.4573 14.768 22.4573 11.2139Z" fill="#797E84"/>
<path d="M0.569417 36.7624H0.0508049V30.7184H0.569417V36.7624ZM4.58421 30.7184C5.04672 30.7115 5.50649 30.784 5.94437 30.9305C6.32751 31.0577 6.68055 31.263 6.98023 31.5353C7.26485 31.8007 7.48652 32.125 7.63157 32.4863C7.93672 33.295 7.93672 34.1872 7.63157 34.9959C7.48652 35.3571 7.26485 35.6814 6.98023 35.9469C6.68055 36.2192 6.32751 36.4245 5.94437 36.5517C5.50649 36.6981 5.04672 36.7693 4.58558 36.7624H2.38251V30.7184H4.58421ZM2.90522 31.2192V36.2616H4.58421C4.97967 36.2712 5.37376 36.2124 5.75006 36.0892C6.06616 35.9825 6.35488 35.8087 6.59982 35.5815C6.83107 35.3599 7.00759 35.0876 7.11843 34.7879C7.35242 34.1174 7.35242 33.3867 7.11843 32.7162C7.00759 32.4151 6.83107 32.1428 6.59982 31.9198C6.35625 31.6913 6.06616 31.5189 5.75006 31.4121C5.37376 31.289 4.97967 31.2315 4.58421 31.2397L2.90522 31.2192ZM14.3188 30.6499C14.5719 30.6486 14.8237 30.6787 15.07 30.7361C15.3054 30.7922 15.5339 30.8757 15.7501 30.9852C15.9581 31.0906 16.151 31.2219 16.3248 31.3752C16.4945 31.5257 16.6423 31.7008 16.7641 31.8938L16.3235 32.188C16.2195 32.0293 16.0949 31.8856 15.954 31.7597C15.8117 31.6338 15.6529 31.5243 15.4846 31.4368C15.3095 31.3464 15.1234 31.2767 14.9318 31.2315C14.732 31.1836 14.5268 31.1603 14.3202 31.1603C13.9767 31.1576 13.636 31.2205 13.3171 31.3464C13.0161 31.4627 12.7424 31.6393 12.5112 31.865C12.2786 32.099 12.0952 32.3768 11.972 32.682C11.7107 33.3593 11.7107 34.1105 11.972 34.7893C12.0952 35.0944 12.2799 35.3722 12.5125 35.6062C12.7438 35.832 13.0175 36.0071 13.3185 36.1248C13.6373 36.2507 13.9781 36.3136 14.3215 36.3109C14.5268 36.3109 14.7307 36.2876 14.9291 36.2425C15.1207 36.1987 15.3054 36.1303 15.4805 36.0399C15.6502 35.9524 15.8089 35.8443 15.9526 35.717C16.0949 35.5911 16.2195 35.4461 16.3221 35.286L16.7531 35.6021C16.6272 35.7936 16.4767 35.9688 16.3057 36.1207C16.1319 36.2712 15.9403 36.3998 15.7364 36.5038C15.523 36.6119 15.2972 36.694 15.0646 36.7474C14.4077 36.8965 13.7222 36.8459 13.0941 36.6023C12.7274 36.4573 12.3935 36.2411 12.1116 35.9647C11.8311 35.6869 11.6108 35.3544 11.463 34.989C11.1496 34.1858 11.1496 33.295 11.463 32.4918C11.6108 32.125 11.8325 31.7925 12.1116 31.5147C12.3935 31.2397 12.7274 31.0221 13.0941 30.8771C13.4855 30.7225 13.9028 30.6445 14.3229 30.6486L14.3188 30.6499ZM18.5553 33.4031C18.6319 33.2745 18.7277 33.1582 18.8385 33.0583C18.9425 32.9625 19.0575 32.8817 19.1833 32.8188C19.3092 32.7572 19.4433 32.7107 19.5802 32.6806C19.7156 32.6505 19.8552 32.6354 19.9948 32.6354C20.2301 32.6327 20.4641 32.671 20.6858 32.749C20.887 32.8202 21.0717 32.931 21.2277 33.0761C21.3796 33.2211 21.4973 33.3976 21.5725 33.5947C21.6574 33.8109 21.6984 34.0421 21.6957 34.2747V36.7624H21.2031V34.4184C21.2058 34.231 21.1771 34.0435 21.1168 33.8656C21.0635 33.7096 20.9759 33.5673 20.861 33.4496C20.7447 33.3333 20.6051 33.2444 20.4518 33.1883C20.2753 33.1253 20.0878 33.0938 19.899 33.0966C19.717 33.0952 19.535 33.1281 19.3653 33.1937C19.2039 33.2553 19.0575 33.3497 18.9343 33.4701C18.8111 33.5919 18.7126 33.7383 18.6456 33.8984C18.5744 34.0709 18.5375 34.257 18.5402 34.4444V36.7611H18.0476V30.5459H18.5402L18.5553 33.4031ZM24.9209 32.6354C25.1795 32.6327 25.4368 32.6861 25.6735 32.7887C25.9007 32.8886 26.1046 33.0336 26.2729 33.217C26.4466 33.4086 26.5821 33.6316 26.6724 33.8738C26.7723 34.1406 26.8243 34.4239 26.8243 34.7099C26.8243 34.7482 26.8243 34.7824 26.8243 34.8153C26.8243 34.8481 26.8243 34.8796 26.8243 34.9124H23.4143C23.4267 35.13 23.48 35.3448 23.5717 35.5432C23.6552 35.7197 23.7729 35.8798 23.9165 36.0112C24.0575 36.1398 24.223 36.2384 24.4023 36.3027C24.5898 36.3697 24.7882 36.4039 24.988 36.4026C25.2507 36.4067 25.5107 36.3533 25.7515 36.2466C25.9773 36.1426 26.1839 35.9989 26.3604 35.8237L26.6245 36.1686C26.5041 36.2904 26.3714 36.3998 26.2291 36.4929C26.1004 36.5763 25.9636 36.6461 25.8199 36.6995C25.6831 36.7515 25.5408 36.7871 25.3957 36.809C25.2507 36.8295 25.1056 36.8391 24.9592 36.8377C24.6787 36.8404 24.3996 36.7884 24.1396 36.6844C23.896 36.5873 23.6757 36.4409 23.4923 36.2548C23.3076 36.0659 23.1639 35.8402 23.0695 35.5939C22.9669 35.3229 22.9149 35.0342 22.919 34.7441C22.9163 34.4554 22.9683 34.1694 23.0722 33.8998C23.168 33.6521 23.3117 33.4264 23.4951 33.2348C23.6757 33.0487 23.8933 32.9009 24.1341 32.801C24.3845 32.6915 24.6541 32.6341 24.9264 32.6313L24.9209 32.6354ZM24.9209 33.0706C24.7266 33.0678 24.5337 33.1034 24.353 33.1759C24.1861 33.2444 24.0328 33.3443 23.9028 33.4701C23.7715 33.5988 23.6634 33.7507 23.5854 33.9176C23.5019 34.0969 23.4485 34.2898 23.428 34.4868H26.3344C26.3194 34.2884 26.2715 34.0928 26.1908 33.9108C26.1182 33.7438 26.0156 33.5919 25.887 33.4633C25.6297 33.2088 25.2822 33.0665 24.9209 33.0706ZM29.8375 32.6354C30.1248 32.6327 30.4108 32.6874 30.6763 32.7983C30.9281 32.9023 31.1538 33.0624 31.3345 33.2663L31.0156 33.5974C30.8624 33.4428 30.6817 33.3169 30.482 33.2279C30.274 33.1376 30.0496 33.0938 29.8238 33.0966C29.6103 33.0952 29.3996 33.1363 29.2039 33.2197C29.0164 33.3005 28.8468 33.4181 28.7045 33.5646C28.5608 33.7137 28.4486 33.8902 28.3747 34.0832C28.2173 34.5046 28.2173 34.9685 28.3747 35.39C28.5197 35.78 28.8208 36.0919 29.2039 36.2534C29.3996 36.3369 29.6103 36.3779 29.8238 36.3766C30.0537 36.3793 30.2808 36.3314 30.4902 36.2384C30.69 36.1494 30.8706 36.0249 31.0266 35.8716L31.3345 36.2083C31.1511 36.4108 30.9253 36.5709 30.6735 36.6762C30.4081 36.7857 30.1235 36.8418 29.8361 36.8391C29.5487 36.8432 29.2628 36.7884 28.9973 36.6803C28.4978 36.4778 28.1051 36.0783 27.9094 35.5774C27.7055 35.041 27.7055 34.4485 27.9094 33.9135C28.1037 33.4113 28.4978 33.0117 28.9973 32.8079C29.2614 32.6943 29.5474 32.6354 29.8347 32.6341L29.8375 32.6354ZM32.9888 34.4143H33.6484L35.3575 32.7011H35.9787L34.0452 34.6182L36.0102 36.7624H35.3848L33.6456 34.8631H32.9861V36.7624H32.4935V30.5459H32.9861L32.9888 34.4143ZM5.2164 29.1516V27.099C5.2164 26.3245 4.72242 25.8032 3.92739 25.7963C3.46625 25.7662 3.02564 25.9893 2.7766 26.3793C2.54945 26.0016 2.13483 25.7772 1.69422 25.7963C1.31107 25.7772 0.947087 25.9633 0.736358 26.2835V25.873H0.0234375V29.1488H0.7432V27.3357C0.7432 26.7665 1.05792 26.4655 1.54506 26.4655C2.0322 26.4655 2.25798 26.7733 2.25798 27.3289V29.1516H2.97775V27.3357C2.97775 26.7665 3.30616 26.4655 3.77961 26.4655C4.25307 26.4655 4.49937 26.7733 4.49937 27.3289V29.1516H5.2164ZM15.865 25.8757H14.7019V24.8823H13.9822V25.8757H13.3171V26.527H13.9822V28.0213C13.9822 28.7821 14.2764 29.235 15.1193 29.235C15.434 29.2364 15.7433 29.1488 16.0101 28.9819L15.8048 28.3716C15.6133 28.4852 15.3971 28.5495 15.174 28.5563C14.8182 28.5563 14.7006 28.3374 14.7006 28.009V26.527H15.865V25.8757V25.8757ZM21.9447 25.7936C21.5903 25.7826 21.2592 25.9674 21.0813 26.2739V25.8757H20.3807V29.1516H21.0936V27.3152C21.0936 26.7679 21.3262 26.4723 21.7928 26.4723C21.9461 26.4696 22.0966 26.4983 22.2389 26.5544L22.4578 25.8825C22.295 25.8237 22.1226 25.7936 21.9502 25.7936H21.9447ZM12.7534 26.1357C12.3497 25.8962 11.8858 25.7772 11.4165 25.7936C10.5872 25.7936 10.0481 26.1904 10.0481 26.8418C10.0481 27.3768 10.4449 27.7052 11.1784 27.8078L11.5136 27.8557C11.9036 27.9105 12.0897 28.0131 12.0897 28.1978C12.0897 28.451 11.8297 28.5946 11.3426 28.5946C10.9499 28.607 10.564 28.4865 10.2479 28.2526L9.91264 28.8081C10.3327 29.1023 10.8377 29.2515 11.3494 29.2337C12.295 29.2337 12.8437 28.7876 12.8437 28.165C12.8437 27.5889 12.4113 27.2879 11.6997 27.1852L11.3645 27.1373C11.0566 27.0963 10.8089 27.0347 10.8089 26.8158C10.8089 26.5763 11.0415 26.4313 11.4329 26.4313C11.7887 26.4381 12.1362 26.5353 12.4441 26.7118L12.7534 26.1357ZM31.8476 25.7936C31.4932 25.7826 31.162 25.9674 30.9842 26.2739V25.8757H30.2781V29.1516H30.991V27.3152C30.991 26.7679 31.2236 26.4723 31.6902 26.4723C31.8435 26.4696 31.994 26.4983 32.1363 26.5544L32.3553 25.8825C32.1924 25.8237 32.02 25.7936 31.8476 25.7936ZM22.6658 27.5136C22.6658 28.5071 23.3582 29.2337 24.4133 29.2337C24.8415 29.2542 25.2616 29.1146 25.5914 28.8423L25.2493 28.2662C25.003 28.4537 24.702 28.5577 24.3927 28.5604C23.8235 28.5604 23.4061 28.1417 23.4061 27.5123C23.4061 26.8828 23.8249 26.4709 24.3927 26.4641C24.702 26.4668 25.003 26.5708 25.2493 26.7583L25.5914 26.1822C25.2616 25.9099 24.8415 25.7703 24.4133 25.7909C23.3582 25.7909 22.6658 26.5175 22.6658 27.5109V27.5136ZM29.3407 27.5136V25.8716H28.6278V26.2698C28.3815 25.951 27.9956 25.7731 27.5933 25.7895C26.6752 25.7895 25.9513 26.5093 25.9513 27.5095C25.9513 28.5098 26.6711 29.2296 27.5933 29.2296C27.9956 29.246 28.3815 29.0681 28.6278 28.7493V29.1461H29.3407V27.5136ZM26.6888 27.5136C26.6888 26.9376 27.0651 26.4655 27.6823 26.4655C28.2721 26.4655 28.6689 26.9184 28.6689 27.5136C28.6689 28.1089 28.2707 28.5618 27.6823 28.5618C27.0651 28.5618 26.6888 28.0884 26.6888 27.5136ZM18.0873 25.7936C17.1294 25.7936 16.4562 26.4928 16.4562 27.5136C16.4562 28.555 17.1554 29.2337 18.1352 29.2337C18.6237 29.2515 19.1026 29.0873 19.4789 28.7739L19.13 28.2457C18.8577 28.4633 18.5211 28.5837 18.1721 28.5878C17.7123 28.5878 17.295 28.3757 17.1924 27.7859H19.6253C19.6322 27.697 19.639 27.6081 19.639 27.5123C19.639 26.4915 19.0013 25.7922 18.0832 25.7922L18.0873 25.7936ZM18.0736 26.4313C18.5334 26.4313 18.8276 26.7186 18.9028 27.2263H17.2033C17.2786 26.7528 17.5659 26.4313 18.0736 26.4313ZM35.9554 27.5136V24.5593H35.2425V26.2725C34.9962 25.9537 34.6103 25.7758 34.208 25.7922C33.2899 25.7922 32.566 26.512 32.566 27.5123C32.566 28.5125 33.2858 29.2323 34.208 29.2323C34.6103 29.2487 34.9962 29.0708 35.2425 28.752V29.1488H35.9554V27.5136ZM36.7888 28.8492C36.8175 28.8492 36.8449 28.8546 36.8709 28.8656C36.8955 28.8765 36.9188 28.8916 36.9379 28.9107C36.9571 28.9299 36.9721 28.9518 36.9831 28.9764C37.005 29.0284 37.005 29.0859 36.9831 29.1379C36.9721 29.1625 36.9571 29.1844 36.9379 29.2036C36.9188 29.2227 36.8955 29.2378 36.8709 29.2487C36.8449 29.2597 36.8175 29.2651 36.7888 29.2651C36.7039 29.2665 36.6259 29.2159 36.5917 29.1379C36.5698 29.0859 36.5698 29.0284 36.5917 28.9764C36.6136 28.9258 36.6533 28.8861 36.7039 28.8656C36.7299 28.8546 36.7587 28.8492 36.7888 28.8492ZM36.7888 29.2186C36.8107 29.2186 36.8312 29.2145 36.8517 29.2063C36.8709 29.1981 36.8873 29.1872 36.9024 29.1721C36.9653 29.1092 36.9653 29.0052 36.9024 28.9422C36.8873 28.9272 36.8709 28.9162 36.8517 28.908C36.8312 28.8998 36.8107 28.8957 36.7888 28.8957C36.7669 28.8957 36.745 28.8998 36.7245 28.908C36.6424 28.9436 36.6027 29.0394 36.6383 29.1215C36.6465 29.1406 36.6574 29.157 36.6725 29.1721C36.6875 29.1872 36.7053 29.1981 36.7245 29.2063C36.745 29.2145 36.7655 29.2186 36.7888 29.2186ZM36.8011 28.9586C36.8216 28.9573 36.8421 28.9627 36.8586 28.9751C36.8723 28.986 36.8805 29.0024 36.8791 29.0202C36.8791 29.0353 36.8736 29.0503 36.8627 29.0599C36.8504 29.0708 36.8339 29.0777 36.8175 29.079L36.8805 29.1516H36.8312L36.7724 29.079H36.7532V29.1516H36.7122V28.9586H36.8011ZM36.7532 28.9942V29.0462H36.8011C36.8093 29.0489 36.8189 29.0489 36.8271 29.0462C36.8339 29.0421 36.8367 29.0353 36.8367 29.0271C36.8367 29.0188 36.8339 29.012 36.8271 29.0079C36.8189 29.0052 36.8093 29.0052 36.8011 29.0079L36.7532 28.9942ZM33.3035 27.5123C33.3035 26.9362 33.6798 26.4641 34.297 26.4641C34.8867 26.4641 35.2836 26.917 35.2836 27.5123C35.2836 28.1075 34.8867 28.5604 34.297 28.5604C33.6798 28.5604 33.3035 28.087 33.3035 27.5123ZM9.23393 27.5123V25.8702H8.52101V26.2684C8.2747 25.9496 7.88882 25.7717 7.48652 25.7881C6.56835 25.7881 5.84448 26.5079 5.84448 27.5082C5.84448 28.5084 6.56424 29.2282 7.48652 29.2282C7.88882 29.2446 8.2747 29.0667 8.52101 28.7479V29.1447H9.23393V27.5123ZM6.58203 27.5123C6.58203 26.9362 6.95833 26.4641 7.57547 26.4641C8.16523 26.4641 8.56206 26.917 8.56206 27.5123C8.56206 28.1075 8.16523 28.5604 7.57547 28.5604C6.95696 28.5618 6.57929 28.0897 6.57929 27.5136L6.58203 27.5123ZM36.6342 36.5545H36.5562V36.7611H36.5178V36.5545H36.4398V36.5189H36.6328V36.5545H36.6342ZM36.9311 36.7583H36.8928V36.5613L36.8216 36.7337H36.7806L36.7094 36.5613V36.7611H36.6711V36.5216H36.7299L36.7984 36.694L36.8668 36.5216H36.9256L36.9311 36.7583Z" fill="#797E84"/>
</svg>
