<svg width="21" height="20" viewBox="0 0 21 20" fill="none" xmlns="http://www.w3.org/2000/svg">
<g clip-path="url(#clip0)">
<path d="M10.375 0C4.865 0 0.375 4.49 0.375 10C0.375 15.51 4.865 20 10.375 20C15.885 20 20.375 15.51 20.375 10C20.375 4.49 15.885 0 10.375 0ZM16.485 15.13C16.485 15.67 16.045 16.11 15.505 16.11C9.305 16.11 4.265 11.07 4.265 4.87C4.265 4.33 4.705 3.89 5.245 3.89H7.485C8.025 3.89 8.465 4.33 8.465 4.87C8.465 5.62 8.585 6.35 8.815 7.05C8.925 7.41 8.835 7.79 8.575 8.05L7.565 9.39C8.405 10.97 9.385 11.95 10.985 12.8L12.355 11.76C12.585 11.53 12.975 11.44 13.325 11.56C14.025 11.79 14.755 11.91 15.505 11.91C16.045 11.91 16.485 12.35 16.485 12.89V15.13Z" fill="#D1D3D4"/>
</g>
<defs>
<clipPath id="clip0">
<rect width="20" height="20" fill="white" transform="translate(0.375)"/>
</clipPath>
</defs>
</svg>
