<svg width="21" height="21" viewBox="0 0 21 21" fill="none" xmlns="http://www.w3.org/2000/svg">
<g clip-path="url(#clip0)">
<path d="M1.84435 10.3023C7.86023 7.60004 15.6447 4.30549 16.7197 3.8494C19.5383 2.65602 20.4032 2.8845 19.972 5.52788C19.6622 7.4278 18.7689 13.7172 18.0562 17.6322C17.6337 19.9539 16.6852 20.229 15.1946 19.2246C14.4777 18.7412 10.8587 16.2973 10.0729 15.7235C9.35603 15.2006 8.36715 14.5714 9.60734 13.3323C10.0488 12.8912 12.9415 10.0703 15.1955 7.8751C15.4907 7.58686 15.1197 7.1132 14.7789 7.34431C11.7409 9.40154 7.52889 12.2567 6.99271 12.6284C6.18284 13.19 5.40483 13.4474 4.00887 13.0379C2.95372 12.7286 1.92353 12.3595 1.52247 12.2189C-0.0223779 11.6776 0.344256 10.9763 1.84435 10.3023Z" fill="#60C3FF"/>
</g>
<defs>
<clipPath id="clip0">
<rect width="19.5497" height="19.5497" fill="white" transform="translate(0.5271 0.986816)"/>
</clipPath>
</defs>
</svg>
