<svg width="167" height="131" viewBox="0 0 167 131" fill="none" xmlns="http://www.w3.org/2000/svg">
<path d="M70.8416 120.578C65.8683 113.823 62.8146 105.628 56.5911 99.9047C50.5069 94.3075 42.1825 91.7993 34.3926 88.7869C22.4753 84.2073 10.5581 77.6195 4.32055 66.7673C-4.4036 51.6059 0.820663 31.383 13.3979 19.0179C25.9752 6.65275 44.3345 1.19966 62.2243 0.200012C80.1142 -0.799652 97.9483 2.1633 115.731 4.32021C131.948 6.28801 150.065 8.48546 160.351 20.8056C163.523 24.6922 165.648 29.2819 166.534 34.1617C167.42 39.0414 167.039 44.058 165.427 48.76C162.908 55.8612 157.716 61.715 153.598 68.0777C148.02 76.7189 144.367 86.3778 140.077 95.6899C135.787 105.002 130.66 114.229 122.815 121.028C109.429 132.614 82.2429 136.1 70.8416 120.578Z" fill="url(#paint0_linear)"/>
<path d="M83.5 105.722C111.943 105.722 135 104.898 135 103.882C135 102.866 111.943 102.043 83.5 102.043C55.0573 102.043 32 102.866 32 103.882C32 104.898 55.0573 105.722 83.5 105.722Z" fill="#374657"/>
<path d="M72.6913 48.786L72.5668 49.0429L71.7598 50.701L63.2949 68.0824L48.931 103.277L46.8779 103.293L61.2497 68.0824L71.0434 47.97L71.7598 48.3242L72.5668 48.7238L72.6913 48.786Z" fill="#797E84"/>
<path d="M97.8925 103.293L96.2027 103.277L81.8377 68.0824L73.5959 51.1572L72.567 49.0429L72.4414 48.786L72.567 48.7238L73.5959 48.2144L74.0905 47.97L83.7369 68.0824L97.8925 103.293Z" fill="#797E84"/>
<path d="M73.5965 43.2424H71.7598V103.293H73.5965V43.2424Z" fill="#797E84"/>
<path d="M72.4685 33.3491C71.8489 33.3497 71.2548 33.5962 70.8166 34.0343C70.3785 34.4725 70.132 35.0666 70.1314 35.6863V36.5216C70.1246 36.8329 70.18 37.1425 70.2944 37.4321C70.4088 37.7217 70.5799 37.9856 70.7976 38.2082C71.0154 38.4308 71.2754 38.6077 71.5624 38.7284C71.8495 38.8492 72.1577 38.9114 72.4691 38.9114C72.7805 38.9114 73.0888 38.8492 73.3758 38.7284C73.6628 38.6077 73.9228 38.4308 74.1406 38.2082C74.3584 37.9856 74.5295 37.7217 74.6439 37.4321C74.7583 37.1425 74.8137 36.8329 74.8068 36.5216V35.6863C74.8059 35.0665 74.5592 34.4724 74.1209 34.0343C73.6825 33.5961 73.0883 33.3497 72.4685 33.3491ZM74.2217 36.5182C74.2217 36.9835 74.0369 37.4297 73.7079 37.7587C73.3789 38.0877 72.9327 38.2725 72.4674 38.2725C72.0022 38.2725 71.556 38.0877 71.227 37.7587C70.898 37.4297 70.7132 36.9835 70.7132 36.5182V35.6829C70.7132 35.2177 70.898 34.7714 71.227 34.4424C71.556 34.1134 72.0022 33.9286 72.4674 33.9286C72.9327 33.9286 73.3789 34.1134 73.7079 34.4424C74.0369 34.7714 74.2217 35.2177 74.2217 35.6829V36.5182Z" fill="#797E84"/>
<path opacity="0.1" d="M83.736 68.0825H81.8368L73.5949 51.1572V68.0825H71.7591V50.7011L63.2942 68.0825H61.249L71.0426 47.97L71.7591 48.3243V43.2424H73.5949V48.2145L74.0895 47.97L83.736 68.0825Z" fill="#1C2633"/>
<path opacity="0.1" d="M74.8068 35.77V36.5215C74.8137 36.8329 74.7583 37.1424 74.6439 37.4321C74.5295 37.7217 74.3584 37.9855 74.1406 38.2081C73.9228 38.4308 73.6628 38.6076 73.3758 38.7284C73.0888 38.8491 72.7805 38.9113 72.4691 38.9113C72.1577 38.9113 71.8495 38.8491 71.5624 38.7284C71.2754 38.6076 71.0154 38.4308 70.7976 38.2081C70.5799 37.9855 70.4088 37.7217 70.2944 37.4321C70.18 37.1424 70.1246 36.8329 70.1314 36.5215V35.77H70.7154V36.5215C70.7154 36.9868 70.9002 37.433 71.2292 37.762C71.5582 38.091 72.0044 38.2759 72.4697 38.2759C72.9349 38.2759 73.3811 38.091 73.7101 37.762C74.0391 37.433 74.2239 36.9868 74.2239 36.5215V35.77H74.8068Z" fill="#1C2633"/>
<path d="M107.786 35.9375H37.1504V67.8321H107.786V35.9375Z" fill="#797E84"/>
<path d="M106.367 36.9392H38.4033V65.9952H106.367V36.9392Z" fill="#252F3D"/>
<g opacity="0.2">
<path d="M48.3285 40.0981H45.1152V41.5616H48.3285V40.0981Z" fill="url(#paint1_linear)"/>
</g>
<g opacity="0.2">
<path d="M48.3285 42.9287H45.1152V44.3922H48.3285V42.9287Z" fill="url(#paint2_linear)"/>
</g>
<g opacity="0.2">
<path d="M48.3285 45.7583H45.1152V47.2217H48.3285V45.7583Z" fill="url(#paint3_linear)"/>
</g>
<g opacity="0.2">
<path d="M48.3285 48.5879H45.1152V50.0513H48.3285V48.5879Z" fill="url(#paint4_linear)"/>
</g>
<g opacity="0.2">
<path d="M48.3285 51.4187H45.1152V52.8821H48.3285V51.4187Z" fill="url(#paint5_linear)"/>
</g>
<g opacity="0.2">
<path d="M48.3285 54.248H45.1152V55.7115H48.3285V54.248Z" fill="url(#paint6_linear)"/>
</g>
<g opacity="0.2">
<path d="M48.3285 57.0776H45.1152V58.5411H48.3285V57.0776Z" fill="url(#paint7_linear)"/>
</g>
<g opacity="0.2">
<path d="M48.3285 59.9072H45.1152V61.3707H48.3285V59.9072Z" fill="url(#paint8_linear)"/>
</g>
<g opacity="0.2">
<path d="M54.3782 61.3718H51.165V62.8353H54.3782V61.3718Z" fill="url(#paint9_linear)"/>
</g>
<g opacity="0.2">
<path d="M60.0385 61.3718H56.8252V62.8353H60.0385V61.3718Z" fill="url(#paint10_linear)"/>
</g>
<g opacity="0.2">
<path d="M65.6977 61.3718H62.4844V62.8353H65.6977V61.3718Z" fill="url(#paint11_linear)"/>
</g>
<g opacity="0.2">
<path d="M71.3577 61.3718H68.1445V62.8353H71.3577V61.3718Z" fill="url(#paint12_linear)"/>
</g>
<g opacity="0.2">
<path d="M77.0159 61.3718H73.8027V62.8353H77.0159V61.3718Z" fill="url(#paint13_linear)"/>
</g>
<g opacity="0.2">
<path d="M82.6772 61.3718H79.4639V62.8353H82.6772V61.3718Z" fill="url(#paint14_linear)"/>
</g>
<g opacity="0.2">
<path d="M88.3363 61.3718H85.123V62.8353H88.3363V61.3718Z" fill="url(#paint15_linear)"/>
</g>
<g opacity="0.2">
<path d="M93.9964 61.3718H90.7832V62.8353H93.9964V61.3718Z" fill="url(#paint16_linear)"/>
</g>
<g opacity="0.2">
<path d="M99.6557 61.3718H96.4424V62.8353H99.6557V61.3718Z" fill="url(#paint17_linear)"/>
</g>
<path d="M54.3782 50.7349H51.165V59.9071H54.3782V50.7349Z" fill="url(#paint18_linear)"/>
<path d="M60.0385 46.4907H56.8252V59.9084H60.0385V46.4907Z" fill="url(#paint19_linear)"/>
<path d="M65.6977 42.9287H62.4844V59.9082H65.6977V42.9287Z" fill="url(#paint20_linear)"/>
<path d="M71.3577 44.7749H68.1445V59.9073H71.3577V44.7749Z" fill="url(#paint21_linear)"/>
<path d="M77.0159 41.5627H73.8027V59.9084H77.0159V41.5627Z" fill="url(#paint22_linear)"/>
<g opacity="0.2">
<path d="M82.6772 48.5879H79.4639V59.9072H82.6772V48.5879Z" fill="url(#paint23_linear)"/>
</g>
<g opacity="0.2">
<path d="M88.3363 48.5879H85.123V59.9072H88.3363V48.5879Z" fill="url(#paint24_linear)"/>
</g>
<g opacity="0.2">
<path d="M93.9964 48.5879H90.7832V59.9072H93.9964V48.5879Z" fill="url(#paint25_linear)"/>
</g>
<g opacity="0.2">
<path d="M99.6557 48.5879H96.4424V59.9072H99.6557V48.5879Z" fill="url(#paint26_linear)"/>
</g>
<path d="M96.0731 48.563L68.5586 50.2562V50.7927L96.6594 49.6778L96.0731 48.563Z" fill="#797E84"/>
<path d="M117.228 99.007C117.228 99.007 115.808 101.582 113.81 101.774C111.812 101.967 111.765 103.17 113.16 103.603C114.556 104.037 117.493 103.603 117.493 103.603L121.681 102.569C121.681 102.569 121.175 98.4286 120.501 98.2124C119.828 97.9963 117.228 99.007 117.228 99.007Z" fill="#252F3D"/>
<path d="M122.333 99.0544C122.333 99.0544 121.273 103.819 121.54 104.013C121.807 104.206 125.824 105.24 125.969 103.579C125.98 103.44 125.991 103.306 126 103.179C126.059 102.111 125.916 101.041 125.579 100.027C125.465 99.6871 125.386 99.3238 125.416 99.0544C125.482 98.381 122.333 99.0544 122.333 99.0544Z" fill="#252F3D"/>
<path d="M121.018 38.7275C121.018 38.7275 117.769 46.7091 118.347 44.1455C118.73 42.4478 116.257 40.1921 114.547 38.8667C113.676 38.1876 113.004 37.7564 113.004 37.7564C113.004 37.7564 119.104 30.6441 118.672 33.7124C118.553 34.5528 118.669 35.4096 119.005 36.1889C119.678 37.7892 121.018 38.7275 121.018 38.7275Z" fill="#D8B98A"/>
<path d="M100.262 50.0661C100.09 50.0219 99.8093 50.0502 99.5184 50.1125C99.0257 50.2263 98.5413 50.3734 98.0686 50.5528C98.0686 50.5528 95.6771 50.8414 96.0381 48.3333C96.3063 46.4636 98.433 47.1426 99.4981 47.6067C99.8602 47.7663 100.1 47.8998 100.1 47.8998L100.262 50.0661Z" fill="#D8B98A"/>
<path opacity="0.1" d="M100.262 50.0661C100.09 50.022 99.8096 50.0503 99.5186 50.1125C99.2583 49.4561 99.4564 47.8998 99.4983 47.6067C99.8605 47.7663 100.1 47.8998 100.1 47.8998L100.262 50.0661Z" fill="#1C2633"/>
<path d="M100.272 47.671L99.6464 47.5579C99.6464 47.5579 99.3261 49.7083 99.7449 50.2742H100.465L100.272 47.671Z" fill="white"/>
<path d="M112.825 51.5952C112.825 51.5952 110.912 50.4509 110.684 51.8951C110.455 53.3393 110.154 55.8066 110.154 55.8066L109.624 58.9474L108.938 65.2403L109.035 66.311C109.035 66.311 111.072 65.6252 111.55 65.8662C112.027 66.1073 112.417 63.2189 112.417 63.2189L113.209 60.2343L113.329 53.9052L112.825 51.5952Z" fill="#252F3D"/>
<path opacity="0.1" d="M112.825 51.5952C112.825 51.5952 110.912 50.4509 110.684 51.8951C110.455 53.3393 110.154 55.8066 110.154 55.8066L109.624 58.9474L108.938 65.2403L109.035 66.311C109.035 66.311 111.072 65.6252 111.55 65.8662C112.027 66.1073 112.417 63.2189 112.417 63.2189L113.209 60.2343L113.329 53.9052L112.825 51.5952Z" fill="#1C2633"/>
<path d="M111.794 44.1816C111.794 44.1816 109.809 46.4204 106.795 46.8708C103.781 47.3213 100.062 47.4673 100.062 47.4673C100.062 47.4673 99.1235 49.1458 100.477 50.9329L108.06 50.7654C108.06 50.7654 109.739 50.401 111.039 50.7654L111.794 44.1816Z" fill="#252F3D"/>
<path opacity="0.05" d="M111.794 44.1816C111.794 44.1816 109.809 46.4204 106.795 46.8708C103.781 47.3213 100.062 47.4673 100.062 47.4673C100.062 47.4673 99.1235 49.1458 100.477 50.9329L108.06 50.7654C108.06 50.7654 109.739 50.401 111.039 50.7654L111.794 44.1816Z" fill="#1C2633"/>
<path opacity="0.1" d="M118.683 36.1198C117.943 37.7043 116.656 38.8724 114.79 38.8724C114.707 38.8724 114.627 38.8724 114.547 38.8667C113.676 38.1876 113.004 37.7564 113.004 37.7564C113.004 37.7564 119.104 30.6441 118.672 33.7124C118.538 34.6518 118.386 35.4147 118.683 36.1198Z" fill="#1C2633"/>
<path d="M119.44 34.0769C119.439 34.9966 119.166 35.8955 118.654 36.6598C118.143 37.4242 117.416 38.0198 116.566 38.3712C115.716 38.7226 114.781 38.8142 113.88 38.6343C112.978 38.4543 112.149 38.011 111.499 37.3604C110.849 36.7097 110.407 35.881 110.228 34.9788C110.049 34.0767 110.141 33.1418 110.493 32.2922C110.846 31.4426 111.442 30.7166 112.207 30.2058C112.972 29.6951 113.871 29.4226 114.79 29.4229C115.402 29.4217 116.007 29.5413 116.572 29.7748C117.137 30.0083 117.65 30.3511 118.082 30.7836C118.514 31.2161 118.857 31.7296 119.09 32.2948C119.323 32.86 119.442 33.4656 119.44 34.0769Z" fill="#D8B98A"/>
<path d="M122.281 62.4968C122.281 62.4968 111.909 63.4124 111.529 62.0882C111.149 60.764 112.587 57.1784 112.587 57.1784L112.119 52.1724L112.102 51.9811C112.102 51.9811 113.401 46.5654 113.353 46.133C113.308 45.7437 115.445 41.1994 115.884 40.2702C115.936 40.1627 115.963 40.1038 115.963 40.1038L116.046 40.1514L116.082 40.1729L116.59 40.4694L118.597 39.994L121.016 38.7275L121.242 52.5821L122.281 62.4968Z" fill="white"/>
<path opacity="0.1" d="M116.891 40.2713C116.891 40.2713 116.181 40.0789 115.904 40.7886C115.795 41.0936 115.667 41.3912 115.519 41.6793L115.243 43.3273L114.737 45.9304L114.363 57.4467L114.532 59.4919L115.459 57.844L115.628 47.0792V45.7403C115.682 44.5827 115.943 43.4441 116.399 42.3788L116.528 42.0766L117.334 41.041L116.891 40.2713Z" fill="#1C2633"/>
<path d="M116.747 40.1266C116.747 40.1266 116.036 39.9342 115.76 40.6438C115.651 40.949 115.522 41.2465 115.374 41.5346L115.098 43.1836L114.592 45.7868L114.22 57.303L114.388 59.3494L115.315 57.6958L115.484 46.9378V45.5955C115.539 44.438 115.801 43.2997 116.256 42.234L116.386 41.9318L117.192 40.8973L116.747 40.1266Z" fill="#252F3D"/>
<path opacity="0.1" d="M119.779 37.1543C119.779 37.1543 117.324 39.7575 116.457 40.0665C116.457 40.0665 116.891 42.0404 117.324 42.4252C117.324 42.4252 119.9 39.7982 120.356 39.5854L120.739 38.6494L119.779 37.1543Z" fill="#1C2633"/>
<path d="M119.779 37.0061C119.779 37.0061 117.324 39.6093 116.457 39.9183C116.457 39.9183 116.891 41.8922 117.324 42.277C117.324 42.277 119.9 39.65 120.356 39.4372L120.739 38.5024L119.779 37.0061Z" fill="white"/>
<path opacity="0.1" d="M116.108 40.1038L116.083 40.1717L115.296 42.2802L113.89 46.2586C113.89 46.2586 113.877 46.2993 113.852 46.3718C113.619 47.0961 112.366 51.0269 112.12 52.1689L112.103 51.9777C112.103 51.9777 113.402 46.5619 113.354 46.1296C113.309 45.7402 115.446 41.196 115.885 40.2667C115.955 40.2192 116.009 40.1785 116.047 40.1479L116.108 40.1038Z" fill="#1C2633"/>
<path d="M115.964 40.1028L115.152 42.2804L113.745 46.2587C113.745 46.2587 113.732 46.2995 113.707 46.3719C113.461 47.1438 112.054 51.55 111.941 52.3558C111.813 53.2409 110.044 58.0251 110.044 58.0251L109.033 66.3089C108.127 65.606 109.413 58.8389 109.413 58.8389C109.413 58.8389 110.857 48.8031 111.199 45.4642C111.541 42.1253 113.385 41.1497 113.385 41.1497C114.236 41.1067 115.003 40.7309 115.475 40.4423C115.646 40.3403 115.809 40.2268 115.964 40.1028Z" fill="#252F3D"/>
<path opacity="0.1" d="M126.156 93.3989C125.94 95.0118 125.651 99.5107 125.651 99.5107C124.641 101.026 122.402 100.208 122.402 100.208C122.402 100.208 122.162 99.7552 121.801 98.0416C121.44 96.3281 121.224 90.2921 121.224 90.2921L120.38 85.2215C119.611 83.2714 119.442 80.9614 119.442 80.9614C119.103 80.0706 118.287 74.2225 118.287 74.2225C118.287 74.2225 118.626 79.4685 118.408 82.2369C118.189 85.0054 119.513 88.7302 119.513 88.7302C119.513 88.7302 120.26 92.2207 119.874 93.3038C119.489 94.387 120.838 98.8622 120.838 98.8622C120.724 100.163 116.892 99.633 116.892 99.633C116.892 99.633 115.089 94.7944 114.773 91.8823C114.584 90.1276 114.274 88.3881 113.846 86.6759L113.534 82.6319L112.98 80.2415L112.319 77.0894C111.572 74.7794 111.344 70.9165 111.344 70.9165L110.766 67.126C110.388 65.2517 110.879 63.0515 111.205 61.9004C111.346 61.4013 111.459 61.0968 111.459 61.0968C111.791 61.3322 113.69 61.6084 114.673 61.8325C115.21 61.9564 115.763 62.0007 116.314 61.9638C118.798 61.7666 121.255 61.316 123.647 60.6192C123.809 60.5705 123.895 60.5422 123.895 60.5422L123.946 60.9757L124.066 62.0079L124.279 63.8404C124.279 63.8404 124.929 73.6113 124.544 74.9322C124.16 76.253 124.809 80.7044 124.809 80.7044C124.448 81.7604 125.579 86.0523 125.579 86.0523C125.579 86.0523 126.373 91.7861 126.156 93.3989Z" fill="#1C2633"/>
<path d="M126.156 93.2573C125.94 94.8701 125.651 99.3691 125.651 99.3691C124.641 100.886 122.402 100.066 122.402 100.066C122.402 100.066 122.162 99.6136 121.801 97.9011C121.44 96.1887 121.224 90.1504 121.224 90.1504L120.38 85.0731C119.616 83.123 119.442 80.8073 119.442 80.8073C119.103 79.9165 118.287 74.0684 118.287 74.0684C118.287 74.0684 118.626 79.3144 118.408 82.0828C118.189 84.8513 119.513 88.5806 119.513 88.5806C119.513 88.5806 120.26 92.0711 119.874 93.1543C119.489 94.2374 120.838 98.7138 120.838 98.7138C120.724 100.013 116.892 99.4834 116.892 99.4834C116.892 99.4834 115.089 94.6506 114.773 91.7373C114.584 89.9826 114.274 88.243 113.846 86.5309L113.534 82.488L112.98 80.1056L112.319 76.9534C111.572 74.6423 111.344 70.7794 111.344 70.7794L110.766 66.9889C110.388 65.1146 110.879 62.9144 111.205 61.7633C111.346 61.2653 111.459 60.9608 111.459 60.9608C111.791 61.1963 113.69 61.4713 114.673 61.6954C115.21 61.8199 115.763 61.8641 116.314 61.8267C118.798 61.6295 121.255 61.1789 123.647 60.4821L123.895 60.4062L123.946 60.8386L124.066 61.872L124.279 63.7044C124.279 63.7044 124.929 73.4742 124.544 74.7962C124.16 76.1182 124.809 80.5685 124.809 80.5685C124.448 81.6233 125.579 85.9152 125.579 85.9152C125.579 85.9152 126.373 91.6422 126.156 93.2573Z" fill="#2D3D52"/>
<path opacity="0.1" d="M119.439 34.077C119.441 34.8903 119.228 35.6896 118.824 36.395C118.099 36.5229 117.328 36.3814 116.786 35.9026C116.415 35.5755 116.175 35.1285 115.856 34.7493C115.649 34.5163 115.427 34.2974 115.192 34.094C115.038 33.9406 114.861 33.8119 114.668 33.7125C114.57 33.6634 114.463 33.6373 114.354 33.6361C114.245 33.6349 114.138 33.6588 114.039 33.7058C113.784 33.8484 113.7 34.1664 113.552 34.4199C113.44 34.6376 113.249 34.8041 113.018 34.8851C112.903 34.922 112.779 34.9209 112.664 34.882C112.55 34.8431 112.45 34.7684 112.381 34.6689C112.224 34.3984 112.339 33.9763 112.076 33.811C112.006 33.7767 111.934 33.7472 111.861 33.7227C111.521 33.5688 111.481 33.1127 111.452 32.7392C111.437 32.5558 111.398 32.3487 111.244 32.2502C111.09 32.1518 110.887 32.2016 110.704 32.205C110.65 32.2071 110.595 32.2029 110.542 32.1925C110.974 31.2182 111.728 30.4219 112.677 29.9369C113.627 29.452 114.714 29.3078 115.756 29.5286C116.799 29.7493 117.735 30.3216 118.406 31.1496C119.077 31.9776 119.444 33.0111 119.444 34.077H119.439Z" fill="#1C2633"/>
<path d="M110.257 28.0285C110.078 28.1604 109.93 28.3291 109.822 28.5231C109.714 28.7172 109.649 28.9322 109.631 29.1536C109.622 29.2275 109.628 29.3025 109.648 29.3743C109.679 29.4505 109.717 29.5239 109.761 29.5938C109.999 30.0658 109.635 30.6249 109.682 31.1512C109.713 31.3999 109.834 31.6286 110.021 31.7951C110.208 31.9616 110.45 32.0546 110.7 32.0567C110.884 32.0567 111.085 32.0024 111.24 32.102C111.395 32.2016 111.434 32.4075 111.449 32.5909C111.478 32.9644 111.515 33.4205 111.856 33.5744C111.929 33.5995 112.001 33.6289 112.071 33.6627C112.336 33.828 112.22 34.2513 112.378 34.5206C112.447 34.6201 112.546 34.6948 112.661 34.7337C112.775 34.7726 112.9 34.7737 113.015 34.7368C113.245 34.6561 113.436 34.49 113.547 34.2728C113.693 34.0181 113.78 33.7069 114.036 33.5586C114.134 33.5112 114.242 33.487 114.351 33.488C114.46 33.489 114.567 33.5151 114.664 33.5643C114.857 33.664 115.034 33.7931 115.188 33.9468C115.424 34.1499 115.646 34.3689 115.852 34.6021C116.172 34.9802 116.412 35.4272 116.783 35.7543C117.482 36.3689 118.553 36.4334 119.415 36.0792C119.54 36.0376 119.652 35.9661 119.743 35.8709C119.821 35.7614 119.872 35.6344 119.891 35.5008C119.978 35.0747 120.004 34.6382 119.965 34.2049C119.935 33.8653 119.866 33.5258 119.89 33.1862C119.913 32.8218 120.044 32.4698 120.062 32.1053C120.093 31.4602 119.773 30.8479 119.383 30.3374C119.147 30.033 118.882 29.7512 118.679 29.4252C118.501 29.1423 118.372 28.831 118.182 28.5571C117.736 27.9176 116.984 27.5385 116.217 27.406C115.449 27.2736 114.661 27.3551 113.892 27.483C113.222 27.5962 112.548 27.7569 111.868 27.7965C111.274 27.8384 110.795 27.6381 110.257 28.0285Z" fill="#1C2633"/>
<path opacity="0.1" d="M115.964 40.1028L115.151 42.2804L113.744 46.2587C113.744 46.2587 113.732 46.2995 113.707 46.3719V46.3776L115.477 40.4401C115.647 40.3387 115.809 40.226 115.964 40.1028Z" fill="#1C2633"/>
<path d="M124.748 65.0241C124.748 65.0241 124.832 67.6589 124.123 68.321L122.233 64.7593L123.818 63.9885L124.748 65.0241Z" fill="#D8B98A"/>
<path opacity="0.1" d="M129.158 65.9862C128.291 66.997 124.518 67.178 124.518 67.178L120.783 61.2926C120.783 61.2926 119.899 60.6792 118.239 57.9164C116.578 55.1536 116.633 53.0258 116.725 51.4367C116.818 49.8477 117.857 45.2808 117.857 45.2808C118.019 44.2531 120.347 37.8108 120.347 37.8108C120.592 38.2986 121.047 38.7061 121.579 39.0422C123.016 39.9477 125.023 40.3189 125.023 40.3189C128.255 40.7886 127.659 44.1275 127.659 44.1275C127.659 44.1275 127.695 57.106 127.496 58.6589C127.297 60.2117 129.158 65.9862 129.158 65.9862Z" fill="#1C2633"/>
<path d="M124.798 65.5289L124.689 66.4921L123.377 66.0111L122.415 64.5544L123.137 63.9885L124.798 65.5289Z" fill="white"/>
<path opacity="0.1" d="M124.751 61.7985L124.065 61.8686L117.452 62.5296C116.39 62.6363 115.318 62.5836 114.271 62.3734L111.204 61.76C111.346 61.262 111.459 60.9575 111.459 60.9575C111.79 61.1929 113.69 61.468 114.672 61.6921C115.21 61.8165 115.763 61.8608 116.313 61.8234C118.797 61.6261 121.254 61.1756 123.646 60.4788L123.945 60.8353L124.751 61.7985Z" fill="#1C2633"/>
<g opacity="0.1">
<path opacity="0.1" d="M111.527 60.9936C111.506 60.9829 111.485 60.971 111.465 60.9578C111.465 60.9578 111.465 60.9645 111.458 60.9745L111.527 60.9936Z" fill="#1C2633"/>
<path opacity="0.1" d="M125.584 85.9142C125.584 85.9142 124.452 81.6223 124.815 80.5675C124.815 80.5675 124.165 76.1194 124.551 74.7952C124.937 73.471 124.285 63.7034 124.285 63.7034L124.071 61.871L123.951 60.8376L123.901 60.4053L123.652 60.4811L123.498 60.5264L123.517 60.6939L123.637 61.7261L123.851 63.5585C123.851 63.5585 124.501 73.3295 124.117 74.6503C123.734 75.9712 124.381 80.4226 124.381 80.4226C124.02 81.4786 125.151 85.7693 125.151 85.7693C125.151 85.7693 125.943 91.4986 125.729 93.1103C125.515 94.722 125.223 99.2221 125.223 99.2221C124.485 100.33 123.092 100.192 122.394 100.037L122.406 100.064C122.406 100.064 124.645 100.884 125.655 99.367C125.655 99.367 125.944 94.8657 126.161 93.2552C126.379 91.6446 125.584 85.9142 125.584 85.9142Z" fill="#1C2633"/>
<path opacity="0.1" d="M119.881 93.159C120.266 92.0759 119.52 88.5853 119.52 88.5853C119.52 88.5853 118.197 84.8503 118.414 82.0876C118.504 80.9342 118.498 79.352 118.46 77.8998C118.153 76.0267 117.859 73.9385 117.859 73.9385C117.859 73.9385 118.198 79.1845 117.981 81.9517C117.764 84.719 119.087 88.4507 119.087 88.4507C119.087 88.4507 119.834 91.94 119.448 93.0232C119.062 94.1063 120.409 98.577 120.409 98.577C120.313 99.6183 117.84 99.4825 116.858 99.3919L116.896 99.4915C116.896 99.4915 120.722 100.021 120.842 98.7219C120.845 98.7185 119.497 94.2422 119.881 93.159Z" fill="#1C2633"/>
</g>
<path d="M129.302 65.9862C128.436 66.997 124.661 67.178 124.661 67.178L120.926 61.2926C120.926 61.2926 120.042 60.6792 118.381 57.9164C116.719 55.1536 116.776 53.0258 116.868 51.4367C116.959 49.8477 117.999 45.2808 117.999 45.2808C118.161 44.2531 120.489 37.8108 120.489 37.8108C120.733 38.2986 121.188 38.7061 121.721 39.0422C123.158 39.9477 125.165 40.3189 125.165 40.3189C128.396 40.7886 127.8 44.1275 127.8 44.1275C127.8 44.1275 127.836 57.106 127.637 58.6589C127.438 60.2117 129.302 65.9862 129.302 65.9862Z" fill="#252F3D"/>
<path opacity="0.1" d="M121.181 41.0047L120.369 41.3069L120.91 41.6861L116.869 51.4333C116.963 49.8487 118.001 45.2773 118.001 45.2773C118.163 44.2497 120.491 37.8074 120.491 37.8074C120.734 38.2952 121.189 38.7026 121.722 39.0388L121.181 41.0047Z" fill="#1C2633"/>
<path opacity="0.1" d="M122.156 58.369L126.29 57.304L126.832 58.9824L122.608 60.0124L122.156 58.369Z" fill="#1C2633"/>
<path opacity="0.1" d="M124.52 41.6907C124.52 41.6907 122.643 43.4575 123.351 47.3951C124.06 51.3327 125.193 55.6075 125.193 55.6075L122.137 64.0735C122.137 64.0735 124.267 66.2942 125.314 66.5635L128.364 59.7941C128.364 59.7941 129.79 57.4479 129.411 53.7661C129.032 50.0843 127.66 44.1264 127.66 44.1264C127.66 44.1264 127.661 40.5 124.52 41.6907Z" fill="#1C2633"/>
<path d="M124.665 41.6907C124.665 41.6907 122.786 43.4575 123.492 47.3951C124.198 51.3327 125.332 55.6075 125.332 55.6075L122.276 64.0735C122.276 64.0735 124.406 66.2942 125.453 66.5635L128.509 59.7941C128.509 59.7941 129.935 57.4479 129.556 53.7661C129.177 50.0843 127.805 44.1264 127.805 44.1264C127.805 44.1264 127.805 40.5 124.665 41.6907Z" fill="#252F3D"/>
<path opacity="0.1" d="M122.377 64.2535C122.377 64.2535 124.76 67.5516 124.58 68.4299C124.4 69.3082 123.701 68.8385 123.701 68.8385L122.763 67.5516L121.92 65.1442C121.92 65.1442 122.003 64.1052 122.377 64.2535Z" fill="#1C2633"/>
<path opacity="0.1" d="M122.089 64.2535C122.089 64.2535 124.466 67.5516 124.292 68.4299C124.117 69.3082 123.413 68.8385 123.413 68.8385L122.474 67.5516L121.632 65.1442C121.632 65.1442 121.714 64.1052 122.089 64.2535Z" fill="#1C2633"/>
<path d="M122.234 64.2535C122.234 64.2535 124.611 67.5516 124.435 68.4299C124.26 69.3082 123.557 68.8385 123.557 68.8385L122.618 67.5516L121.776 65.1442C121.776 65.1442 121.858 64.1052 122.234 64.2535Z" fill="#2D3D52"/>
<defs>
<linearGradient id="paint0_linear" x1="36.2282" y1="208.997" x2="-32.0562" y2="-18.1356" gradientUnits="userSpaceOnUse">
<stop stop-color="#53616D"/>
<stop offset="1" stop-color="#2D3D52"/>
</linearGradient>
<linearGradient id="paint1_linear" x1="46.7219" y1="40.0981" x2="46.7219" y2="41.5616" gradientUnits="userSpaceOnUse">
<stop stop-color="#8BCC32"/>
<stop offset="1" stop-color="#AAEE4C"/>
</linearGradient>
<linearGradient id="paint2_linear" x1="46.7219" y1="42.9287" x2="46.7219" y2="44.3922" gradientUnits="userSpaceOnUse">
<stop stop-color="#8BCC32"/>
<stop offset="1" stop-color="#AAEE4C"/>
</linearGradient>
<linearGradient id="paint3_linear" x1="46.7219" y1="45.7583" x2="46.7219" y2="47.2217" gradientUnits="userSpaceOnUse">
<stop stop-color="#8BCC32"/>
<stop offset="1" stop-color="#AAEE4C"/>
</linearGradient>
<linearGradient id="paint4_linear" x1="46.7219" y1="48.5879" x2="46.7219" y2="50.0513" gradientUnits="userSpaceOnUse">
<stop stop-color="#8BCC32"/>
<stop offset="1" stop-color="#AAEE4C"/>
</linearGradient>
<linearGradient id="paint5_linear" x1="46.7219" y1="51.4187" x2="46.7219" y2="52.8821" gradientUnits="userSpaceOnUse">
<stop stop-color="#8BCC32"/>
<stop offset="1" stop-color="#AAEE4C"/>
</linearGradient>
<linearGradient id="paint6_linear" x1="46.7219" y1="54.248" x2="46.7219" y2="55.7115" gradientUnits="userSpaceOnUse">
<stop stop-color="#8BCC32"/>
<stop offset="1" stop-color="#AAEE4C"/>
</linearGradient>
<linearGradient id="paint7_linear" x1="46.7219" y1="57.0776" x2="46.7219" y2="58.5411" gradientUnits="userSpaceOnUse">
<stop stop-color="#8BCC32"/>
<stop offset="1" stop-color="#AAEE4C"/>
</linearGradient>
<linearGradient id="paint8_linear" x1="46.7219" y1="59.9072" x2="46.7219" y2="61.3707" gradientUnits="userSpaceOnUse">
<stop stop-color="#8BCC32"/>
<stop offset="1" stop-color="#AAEE4C"/>
</linearGradient>
<linearGradient id="paint9_linear" x1="52.7716" y1="61.3718" x2="52.7716" y2="62.8353" gradientUnits="userSpaceOnUse">
<stop stop-color="#8BCC32"/>
<stop offset="1" stop-color="#AAEE4C"/>
</linearGradient>
<linearGradient id="paint10_linear" x1="58.4318" y1="61.3718" x2="58.4318" y2="62.8353" gradientUnits="userSpaceOnUse">
<stop stop-color="#8BCC32"/>
<stop offset="1" stop-color="#AAEE4C"/>
</linearGradient>
<linearGradient id="paint11_linear" x1="64.091" y1="61.3718" x2="64.091" y2="62.8353" gradientUnits="userSpaceOnUse">
<stop stop-color="#8BCC32"/>
<stop offset="1" stop-color="#AAEE4C"/>
</linearGradient>
<linearGradient id="paint12_linear" x1="69.7511" y1="61.3718" x2="69.7511" y2="62.8353" gradientUnits="userSpaceOnUse">
<stop stop-color="#8BCC32"/>
<stop offset="1" stop-color="#AAEE4C"/>
</linearGradient>
<linearGradient id="paint13_linear" x1="75.4093" y1="61.3718" x2="75.4093" y2="62.8353" gradientUnits="userSpaceOnUse">
<stop stop-color="#8BCC32"/>
<stop offset="1" stop-color="#AAEE4C"/>
</linearGradient>
<linearGradient id="paint14_linear" x1="81.0706" y1="61.3718" x2="81.0706" y2="62.8353" gradientUnits="userSpaceOnUse">
<stop stop-color="#8BCC32"/>
<stop offset="1" stop-color="#AAEE4C"/>
</linearGradient>
<linearGradient id="paint15_linear" x1="86.7297" y1="61.3718" x2="86.7297" y2="62.8353" gradientUnits="userSpaceOnUse">
<stop stop-color="#8BCC32"/>
<stop offset="1" stop-color="#AAEE4C"/>
</linearGradient>
<linearGradient id="paint16_linear" x1="92.3898" y1="61.3718" x2="92.3898" y2="62.8353" gradientUnits="userSpaceOnUse">
<stop stop-color="#8BCC32"/>
<stop offset="1" stop-color="#AAEE4C"/>
</linearGradient>
<linearGradient id="paint17_linear" x1="98.049" y1="61.3718" x2="98.049" y2="62.8353" gradientUnits="userSpaceOnUse">
<stop stop-color="#8BCC32"/>
<stop offset="1" stop-color="#AAEE4C"/>
</linearGradient>
<linearGradient id="paint18_linear" x1="52.7716" y1="50.7349" x2="52.7716" y2="59.9071" gradientUnits="userSpaceOnUse">
<stop stop-color="#8BCC32"/>
<stop offset="1" stop-color="#AAEE4C"/>
</linearGradient>
<linearGradient id="paint19_linear" x1="58.4318" y1="46.4907" x2="58.4318" y2="59.9084" gradientUnits="userSpaceOnUse">
<stop stop-color="#8BCC32"/>
<stop offset="1" stop-color="#AAEE4C"/>
</linearGradient>
<linearGradient id="paint20_linear" x1="64.091" y1="42.9287" x2="64.091" y2="59.9082" gradientUnits="userSpaceOnUse">
<stop stop-color="#8BCC32"/>
<stop offset="1" stop-color="#AAEE4C"/>
</linearGradient>
<linearGradient id="paint21_linear" x1="69.7511" y1="44.7749" x2="69.7511" y2="59.9073" gradientUnits="userSpaceOnUse">
<stop stop-color="#8BCC32"/>
<stop offset="1" stop-color="#AAEE4C"/>
</linearGradient>
<linearGradient id="paint22_linear" x1="75.4093" y1="41.5627" x2="75.4093" y2="59.9084" gradientUnits="userSpaceOnUse">
<stop stop-color="#8BCC32"/>
<stop offset="1" stop-color="#AAEE4C"/>
</linearGradient>
<linearGradient id="paint23_linear" x1="81.0706" y1="48.5879" x2="81.0706" y2="59.9072" gradientUnits="userSpaceOnUse">
<stop stop-color="#8BCC32"/>
<stop offset="1" stop-color="#AAEE4C"/>
</linearGradient>
<linearGradient id="paint24_linear" x1="86.7297" y1="48.5879" x2="86.7297" y2="59.9072" gradientUnits="userSpaceOnUse">
<stop stop-color="#8BCC32"/>
<stop offset="1" stop-color="#AAEE4C"/>
</linearGradient>
<linearGradient id="paint25_linear" x1="92.3898" y1="48.5879" x2="92.3898" y2="59.9072" gradientUnits="userSpaceOnUse">
<stop stop-color="#8BCC32"/>
<stop offset="1" stop-color="#AAEE4C"/>
</linearGradient>
<linearGradient id="paint26_linear" x1="98.049" y1="48.5879" x2="98.049" y2="59.9072" gradientUnits="userSpaceOnUse">
<stop stop-color="#8BCC32"/>
<stop offset="1" stop-color="#AAEE4C"/>
</linearGradient>
</defs>
</svg>
