<svg width="24" height="23" viewBox="0 0 24 23" fill="none" xmlns="http://www.w3.org/2000/svg">
<g clip-path="url(#clip0)">
<path d="M2.26606 11.3348C9.10851 8.26122 17.9626 4.51401 19.1852 3.99526C22.3911 2.63791 23.3749 2.89778 22.8844 5.90435C22.532 8.06532 21.516 15.2189 20.7054 19.6718C20.2248 22.3125 19.1461 22.6254 17.4506 21.4829C16.6352 20.9332 12.519 18.1535 11.6252 17.5008C10.8098 16.9061 9.68508 16.1904 11.0957 14.7811C11.5978 14.2794 14.8879 11.0709 17.4516 8.57407C17.7874 8.24623 17.3655 7.70749 16.9778 7.97036C13.5223 10.3102 8.73164 13.5577 8.12179 13.9805C7.20065 14.6192 6.31573 14.912 4.72797 14.4463C3.52785 14.0944 2.35612 13.6746 1.89996 13.5147C0.142848 12.899 0.559856 12.1014 2.26606 11.3348Z" fill="#60C3FF"/>
</g>
<defs>
<clipPath id="clip0">
<rect width="22.2357" height="22.2357" fill="white" transform="translate(0.767822 0.739349)"/>
</clipPath>
</defs>
</svg>
