<svg width="22" height="35" viewBox="0 0 22 35" fill="none" xmlns="http://www.w3.org/2000/svg">
<path d="M20.9976 0H15.5677C15.1732 0 14.8153 0.231426 14.6535 0.591295C14.0074 2.02803 12.5732 2.95634 11 2.95634C9.4267 2.95634 7.99257 2.02796 7.34641 0.591228C7.18455 0.231426 6.82675 0 6.4322 0H1.00242C0.448817 0 0 0.448817 0 1.00242V33.2136C0 33.7672 0.448817 34.216 1.00242 34.216H6.4322C6.82675 34.216 7.18455 33.9845 7.34641 33.6247C7.99257 32.1879 9.4267 31.2596 11 31.2596C12.5732 31.2596 14.0074 32.1879 14.6535 33.6247C14.8153 33.9845 15.1732 34.216 15.5677 34.216H20.9976C21.5512 34.216 22 33.7672 22 33.2136V1.00242C22 0.448817 21.5512 0 20.9976 0ZM2.00484 2.00484H5.82433C6.89672 3.81989 8.86267 4.96118 11 4.96118C13.1373 4.96118 15.1033 3.81989 16.1756 2.00484H19.9952V8.32865H2.00484V2.00484ZM19.9953 32.2111H16.1757C15.1033 30.3961 13.1373 29.2548 11 29.2548C8.86274 29.2548 6.89679 30.3961 5.8244 32.2111H2.00484V10.3335H19.9953V32.2111Z" fill="#8BCC32"/>
</svg>
