<svg width="14" height="14" viewBox="0 0 14 14" fill="none" xmlns="http://www.w3.org/2000/svg">
<path d="M12.3842 10.4365C11.7831 9.93013 11.5056 9.77702 10.6757 9.27875C10.33 9.07155 9.80304 8.89247 9.52658 8.89247C9.33777 8.89247 9.11163 9.03692 8.97313 9.17542C8.61823 9.53032 8.50191 9.97449 7.87975 9.97449C7.27112 9.97449 6.20804 9.35504 5.44521 8.55434C4.64452 7.79152 4.02507 6.72844 4.02507 6.1198C4.02507 5.49764 4.46112 5.37321 4.81602 5.01777C4.95452 4.87981 5.10708 4.65367 5.10708 4.46486C5.10708 4.1884 4.92801 3.66958 4.7208 3.32387C4.22254 2.49342 4.06997 2.21589 3.56305 1.61537C3.39155 1.41195 3.19624 1.31889 2.99174 1.31835C2.64604 1.31781 2.19213 1.48931 1.88484 1.71816C1.42282 2.06278 0.939695 2.53183 0.810394 3.11612C0.793082 3.19565 0.782803 3.27572 0.779557 3.35579C0.754671 3.96443 0.993796 4.58226 1.25186 5.10541C1.85941 6.33837 2.66335 7.53184 3.53816 8.59762C3.81786 8.93846 4.12245 9.25549 4.43786 9.5617C4.74407 9.87657 5.0611 10.1812 5.40193 10.4614C6.46772 11.3362 7.66119 12.1401 8.89414 12.7477C9.41243 13.0031 10.0227 13.2379 10.6254 13.2205C10.7114 13.2178 10.7974 13.2081 10.8834 13.1892C11.4677 13.0604 11.9368 12.5767 12.2814 12.1147C12.5102 11.8074 12.6817 11.3541 12.6812 11.0078C12.6807 10.8033 12.5876 10.608 12.3842 10.4365ZM12.6812 7.81046C12.3826 7.81046 12.1402 7.56808 12.1402 7.26945V6.72844C12.1402 4.04395 9.9556 1.85936 7.27112 1.85936C6.97248 1.85936 6.73011 1.61699 6.73011 1.31835C6.73011 1.01972 6.97248 0.777344 7.27112 0.777344C10.5523 0.777344 13.2222 3.44722 13.2222 6.72844V7.26945C13.2222 7.56808 12.9798 7.81046 12.6812 7.81046ZM9.35833 6.72844C9.11812 6.72844 8.89847 6.56722 8.83517 6.32376C8.68694 5.75516 8.24331 5.311 7.67688 5.16492C7.38744 5.08972 7.21377 4.79487 7.28843 4.50543C7.36309 4.21654 7.6574 4.04287 7.94792 4.11699C8.8936 4.36207 9.63479 5.10271 9.88203 6.05055C9.95723 6.33999 9.7841 6.63484 9.4952 6.71059C9.44922 6.72249 9.40323 6.72844 9.35833 6.72844Z" fill="#7E57C2"/>
<path d="M11.0582 7.26987C10.7596 7.26987 10.5172 7.0275 10.5172 6.72886C10.5172 5.00413 9.16793 3.58127 7.44536 3.49038C7.14672 3.4747 6.91787 3.21988 6.93356 2.92178C6.94925 2.62315 7.20839 2.39376 7.50216 2.40999C9.79983 2.53118 11.5992 4.42849 11.5992 6.72886C11.5992 7.0275 11.3568 7.26987 11.0582 7.26987Z" fill="#7E57C2"/>
</svg>
