<svg width="14" height="14" viewBox="0 0 14 14" fill="none" xmlns="http://www.w3.org/2000/svg">
<g clip-path="url(#clip0)">
<path d="M7.00889 0C3.15431 0 0.0164407 3.13517 0.0150405 6.98974C0.0143405 8.22186 0.337061 9.42471 0.948921 10.4846L0 14.0014L3.66305 13.1359C4.68445 13.6931 5.83427 13.9856 7.00478 13.9863H7.00752C10.8614 13.9863 13.9979 10.8505 14 6.99658C14.0014 5.1281 13.2748 3.37134 11.9545 2.04961C10.6342 0.728585 8.87947 0.000700068 7.00889 0ZM7.00752 1.40014C8.50286 1.40084 9.90814 1.98385 10.9645 3.03955C12.0209 4.09666 12.6013 5.50127 12.5999 6.99521C12.5985 10.0783 10.0907 12.5862 7.00615 12.5862C6.07296 12.5855 5.14859 12.3512 4.33441 11.9066L3.86268 11.6496L3.34173 11.7726L1.96347 12.0981L2.29983 10.8483L2.45161 10.2877L2.16173 9.78455C1.67309 8.93886 1.41448 7.97194 1.41518 6.98974C1.41658 3.90804 3.92512 1.40014 7.00752 1.40014ZM4.53404 3.76287C4.41712 3.76287 4.2281 3.80662 4.06778 3.98164C3.90746 4.15596 3.45522 4.57815 3.45522 5.43784C3.45522 6.29752 4.08145 7.12852 4.16896 7.24543C4.25577 7.36164 5.37775 9.18156 7.15382 9.88163C8.62957 10.4634 8.92929 10.3486 9.24992 10.3192C9.57056 10.2905 10.2843 9.89735 10.4299 9.48921C10.5755 9.08107 10.5759 8.72998 10.5325 8.65788C10.4891 8.58507 10.3725 8.54165 10.1975 8.45415C10.0232 8.36664 9.16412 7.94481 9.00381 7.88671C8.84349 7.8286 8.72623 7.7992 8.61002 7.97422C8.49381 8.14923 8.15983 8.54166 8.05762 8.65788C7.95541 8.77479 7.85389 8.79051 7.67887 8.703C7.50386 8.61479 6.94113 8.42981 6.27327 7.83475C5.75382 7.372 5.40331 6.80105 5.3011 6.62604C5.19959 6.45172 5.29153 6.35597 5.37904 6.26917C5.45745 6.19076 5.55269 6.0651 5.6402 5.96289C5.72701 5.86068 5.75711 5.78786 5.81522 5.67165C5.87332 5.55544 5.84358 5.45288 5.80017 5.36537C5.75677 5.27786 5.41687 4.41498 5.26145 4.06915C5.13054 3.77862 4.99227 3.77187 4.86766 3.76697C4.76615 3.76277 4.65025 3.76287 4.53404 3.76287Z" fill="#73DD6B"/>
</g>
<defs>
<clipPath id="clip0">
<rect width="14" height="14" fill="white"/>
</clipPath>
</defs>
</svg>
