<svg width="23" height="23" viewBox="0 0 23 23" fill="none" xmlns="http://www.w3.org/2000/svg">
<g clip-path="url(#clip0)">
<path d="M11.3715 0.739349C5.24939 0.739349 0.265614 5.71884 0.26339 11.8409C0.262278 13.7979 0.774845 15.7083 1.74664 17.3917L0.239502 22.9773L6.05741 21.6026C7.67967 22.4877 9.50588 22.9523 11.365 22.9534H11.3693C17.4903 22.9534 22.4719 17.9728 22.4752 11.8518C22.4775 8.88414 21.3235 6.09394 19.2264 3.99468C17.1294 1.89654 14.3425 0.740461 11.3715 0.739349ZM11.3693 2.96314C13.7443 2.96425 15.9763 3.89024 17.6541 5.56698C19.332 7.24594 20.2537 9.47684 20.2515 11.8496C20.2492 16.7464 16.2662 20.7296 11.3671 20.7296C9.88499 20.7285 8.41683 20.3563 7.1237 19.6503L6.37447 19.242L5.54707 19.4374L3.35802 19.9543L3.89225 17.9694L4.13331 17.079L3.67291 16.2798C2.89681 14.9367 2.48607 13.4009 2.48718 11.8409C2.48941 6.94637 6.47364 2.96314 11.3693 2.96314ZM7.44076 6.71579C7.25508 6.71579 6.95485 6.78528 6.70022 7.06326C6.4456 7.34012 5.72732 8.01068 5.72732 9.37609C5.72732 10.7415 6.72194 12.0613 6.86093 12.247C6.9988 12.4316 8.78081 15.3221 11.6017 16.434C13.9456 17.358 14.4216 17.1757 14.9309 17.129C15.4401 17.0834 16.5737 16.459 16.805 15.8108C17.0363 15.1625 17.0368 14.6049 16.9679 14.4904C16.8989 14.3747 16.7138 14.3058 16.4358 14.1668C16.159 14.0278 14.7946 13.3578 14.54 13.2656C14.2853 13.1733 14.0991 13.1266 13.9145 13.4045C13.7299 13.6825 13.1995 14.3058 13.0372 14.4904C12.8748 14.6761 12.7136 14.701 12.4356 14.562C12.1576 14.4219 11.2639 14.1281 10.2031 13.183C9.3781 12.4481 8.82141 11.5412 8.65907 11.2633C8.49785 10.9864 8.64387 10.8343 8.78286 10.6965C8.90739 10.5719 9.05866 10.3723 9.19765 10.21C9.33552 10.0477 9.38333 9.93202 9.47562 9.74744C9.56791 9.56287 9.52067 9.39997 9.45173 9.26099C9.38279 9.122 8.84293 7.75152 8.59609 7.20224C8.38817 6.74081 8.16857 6.73009 7.97065 6.7223C7.80943 6.71563 7.62534 6.71579 7.44076 6.71579Z" fill="#73DD6B"/>
</g>
<defs>
<clipPath id="clip0">
<rect width="22.2357" height="22.2357" fill="white" transform="translate(0.239502 0.739349)"/>
</clipPath>
</defs>
</svg>
